<svg width="574" height="494" viewBox="0 0 574 494" fill="none" xmlns="http://www.w3.org/2000/svg">
<path d="M86.985 63.1494C93.732 54.9178 104.595 48.9675 115.455 50.8051C126.592 52.688 134.464 62.5339 137.482 72.8475C139.238 79.0789 140.064 85.5354 139.935 92.0082C139.914 97.8422 139.539 103.669 138.813 109.458C127.992 107.463 116.999 106.563 105.998 106.773L105.935 106.788L105.853 106.773C93.1315 106.794 80.4885 108.791 68.3795 112.687C73.9165 92.1953 77.3775 74.8722 86.985 63.1494ZM102.627 91.2659C105.186 96.2235 111.909 98.0853 117.156 97.9254C117.321 97.9218 117.483 97.8811 117.63 97.8064C117.776 97.7316 117.904 97.6247 118.004 97.4937C118.104 97.3626 118.173 97.2107 118.206 97.0493C118.239 96.8879 118.235 96.7212 118.194 96.5615C117.151 93.6401 116.661 90.5498 116.749 87.4488C117.352 87.5394 117.971 87.6963 118.538 87.7506C121.504 88.0071 124.489 87.8834 127.422 87.3825C127.648 87.3175 127.847 87.1815 127.989 86.9945C128.131 86.8075 128.21 86.5795 128.212 86.3445C128.27 84.2405 127.886 82.1479 127.087 80.201C123.415 71.4504 109.824 71.2452 104.154 78.0073C102.628 79.8241 101.669 82.0496 101.397 84.407C101.126 86.7645 101.554 89.1497 102.627 91.2659Z" fill="black"/>
<path d="M179.73 334.894C182.929 336.606 186.457 337.615 190.077 337.854C191.447 337.944 232.701 337.905 250.459 337.905C250.955 343.504 251.229 349.119 251.28 354.739H183.421C183.135 354.739 182.861 354.853 182.659 355.055C182.457 355.257 182.343 355.531 182.343 355.817C182.343 356.102 182.457 356.376 182.659 356.578C182.861 356.78 183.135 356.894 183.421 356.894H251.313C251.241 367.689 250.53 378.47 249.183 389.181C248.516 396.154 247.785 401.639 242.242 408.263C228.779 424.337 205.701 423.709 188.152 413.414C184.864 411.528 181.868 409.175 179.256 406.428C179.978 405.145 180.528 403.772 180.892 402.346C182.461 396.425 181.293 387.349 180.457 381.275C180.412 380.952 174.326 340.859 168.517 325.166C171.776 328.923 175.551 332.198 179.73 334.894Z" fill="#FDFF7D"/>
<path d="M388.725 354.74H317.383C319.496 344.124 322.987 333.618 330.808 326.376C338.155 319.571 348.209 316.693 357.865 314.034L391.917 304.656C392.08 304.695 434.789 314.952 435.066 315.015C421.942 327.546 411.015 342.191 402.741 358.339C400.45 362.699 398.98 367.443 398.405 372.334C398.206 374.632 398.334 376.946 398.785 379.208C400.836 387.717 405.502 395.369 412.128 401.088C409.457 403.625 409.448 404.992 397.753 438.567C394.035 449.246 390.789 452.671 377.376 453.111C367.59 453.44 357.793 453.241 348.031 452.508C335.835 451.587 319.634 448.736 313.955 437.813C312.659 434.571 312.043 431.098 312.145 427.608C311.346 403.939 312.963 380.25 316.973 356.909H388.725C388.926 356.89 389.118 356.815 389.28 356.693C389.441 356.57 389.565 356.406 389.638 356.217C389.712 356.028 389.731 355.823 389.694 355.624C389.658 355.425 389.566 355.24 389.431 355.09C389.247 354.889 388.995 354.764 388.725 354.74ZM336.979 330.247L332.268 339.562C331.644 340.799 333.502 341.888 334.127 340.648C335.699 337.543 337.271 334.438 338.837 331.333C339.471 330.09 337.603 329.001 336.979 330.247Z" fill="white"/>
<path d="M44.7535 289.858C53.1259 288.784 61.3541 286.789 69.2883 283.908C68.5256 287.984 69.4052 292.197 71.7354 295.628C73.9499 298.14 76.9524 299.826 80.2507 300.408C83.549 300.991 86.9473 300.435 89.8883 298.832C91.6599 297.71 93.1611 296.21 94.2844 294.44C95.4076 292.669 96.1249 290.672 96.3848 288.591C100.745 298.748 116.375 300.821 122.205 291.322C124.851 286.966 126.205 281.948 126.11 276.853C130.865 284.396 137.18 290.832 144.631 295.73C144.631 300.881 144.495 301.146 144.902 301.575C145.104 301.877 144.314 300.917 164.618 321.282C169.694 332.953 172.533 347.41 175.046 361.45C176.857 371.586 182.171 394.234 178.112 403.866C175.972 407.849 173.061 411.365 169.548 414.211C166.035 417.057 161.991 419.174 157.651 420.441C157.461 420.504 157.293 420.619 157.164 420.772C157.036 420.925 156.953 421.112 156.925 421.31C156.896 421.507 156.923 421.709 157.003 421.893C157.083 422.076 157.212 422.234 157.376 422.348C157.597 422.501 157.868 422.565 158.134 422.526C135.455 429.24 106.02 428.395 93.1592 408.525C86.0803 397.59 83.5034 382.258 74.9128 362.231C70.6099 352.208 67.2666 349.993 60.5317 343.825C53.618 338.142 48.1662 330.886 44.6328 322.664C40.7463 312.245 41.9805 300.579 44.7535 289.858ZM155.65 332.534C153.915 329.419 152.127 326.335 150.285 323.282C150.214 323.16 150.12 323.052 150.007 322.966C149.894 322.881 149.765 322.818 149.628 322.782C149.491 322.746 149.348 322.738 149.207 322.757C149.067 322.777 148.932 322.824 148.81 322.896C148.564 323.041 148.386 323.277 148.313 323.553C148.241 323.829 148.281 324.122 148.424 324.369C150.163 327.481 151.951 330.565 153.789 333.62C153.947 333.837 154.179 333.988 154.442 334.043C154.705 334.098 154.979 334.054 155.21 333.918C155.442 333.783 155.616 333.567 155.697 333.311C155.778 333.055 155.762 332.778 155.65 332.534Z" fill="#FDFF7D"/>
<path d="M18.9948 148.295C32.6771 129.788 52.3097 116.55 74.5972 110.804C84.8119 108.185 95.3098 106.831 105.855 106.772L105.936 106.788C105.779 106.802 105.626 106.85 105.489 106.928C105.352 107.006 105.232 107.112 105.14 107.24C105.046 107.367 104.982 107.514 104.951 107.668C104.92 107.823 104.924 107.983 104.962 108.136C105.402 112.186 106.45 116.146 108.07 119.883C110.182 124.675 113.57 125.656 116.346 124.358C121.431 121.98 122.629 113.882 122.457 108.287C122.45 108.024 122.348 107.772 122.17 107.579C121.992 107.385 121.75 107.263 121.488 107.234C121.79 107.183 129.303 107.813 136.729 109.066C162.043 113.329 173.608 120.595 183.907 130.734C200.578 147.055 214.353 166.091 224.642 187.03L224.66 187.085C224.57 186.908 224.428 186.763 224.254 186.669C224.079 186.576 223.88 186.537 223.683 186.56C223.552 186.571 223.425 186.609 223.309 186.671C221.555 187.604 175.208 208.765 169.749 211.387C169.536 211.509 169.373 211.703 169.292 211.935C169.21 212.167 169.215 212.42 169.305 212.648C169.208 212.495 169.131 212.33 169.076 212.156C167.628 218.511 166.689 224.969 165.854 231.435H155.253C153.171 231.385 151.121 231.966 149.375 233.102C147.629 234.239 146.268 235.877 145.471 237.802C144.943 239.081 144.68 240.454 144.692 241.836C143.682 239.383 142.19 237.158 140.305 235.292C138.419 233.426 136.178 231.957 133.715 230.973C128.028 228.987 121.989 228.207 115.984 228.683C87.6868 230.69 93.088 230.925 66.9962 234.286C67.9969 221.618 67.6945 208.88 66.094 196.273C66.0278 196.048 65.8914 195.849 65.7047 195.707C65.518 195.565 65.2907 195.486 65.056 195.482C53.288 195.319 25.256 194.154 3.32225 192.558C3.08734 192.56 2.85922 192.637 2.67209 192.779C2.48494 192.921 2.34886 193.12 2.28427 193.346C4.31496 177.243 10.0334 161.827 18.9948 148.295Z" fill="white"/>
<path d="M104.167 78.0195C110.745 70.1741 128.494 71.3992 128.213 86.3537C128.21 86.5885 128.131 86.8159 127.989 87.0028C127.846 87.1896 127.648 87.3259 127.423 87.3916C125.428 87.7205 123.409 87.8895 121.388 87.9046C119.829 87.936 118.272 87.7872 116.747 87.4611C116.658 90.562 117.149 93.6523 118.192 96.5737C118.242 96.7835 118.23 97.0032 118.159 97.2065C118.087 97.4099 117.958 97.5882 117.788 97.7203C117.673 97.8053 117.543 97.8668 117.405 97.9014C114.263 98.071 111.126 97.5058 108.241 96.2508C106.566 95.5295 105.086 94.4217 103.923 93.0181C102.759 91.6146 101.944 89.9553 101.545 88.1762C101.147 86.3961 101.177 84.5468 101.633 82.7806C102.089 81.0143 102.957 79.3815 104.167 78.0165V78.0195Z" fill="white"/>
<path d="M398.405 372.334C398.98 367.443 400.45 362.699 402.741 358.339C411.027 342.193 421.957 327.549 435.079 315.012C443.226 316.822 453.144 318.615 460.522 319.963C484.547 324.354 516.906 329.45 541.178 330.555C543.966 330.681 546.977 330.82 549.995 330.705C550.257 330.698 550.508 330.597 550.701 330.42C550.895 330.243 551.019 330.003 551.051 329.743C551.042 330.123 551.006 330.503 550.942 330.877C550.625 333.59 549.947 336.248 548.93 338.78C543.106 353.433 528.49 363.282 514.295 370.21C522.047 373.134 529.926 375.72 537.548 378.975C542.074 380.517 546.202 383.043 549.636 386.371C553.607 390.852 553.703 395.927 552.188 401.733C549.025 411.968 544.373 421.681 538.381 430.561C535.061 435.61 528.523 444.674 522.741 446.491C520.546 446.97 518.278 447.013 516.067 446.617C510.571 445.554 505.145 444.156 499.821 442.429C470.709 434.062 434.321 422.164 412.128 401.09C405.502 395.372 400.836 387.72 398.785 379.211C398.332 376.948 398.206 374.633 398.405 372.334ZM411.546 364.769L407.451 374.386C406.911 375.647 408.77 376.745 409.31 375.472C410.677 372.268 412.038 369.063 413.398 365.853C413.945 364.594 412.086 363.496 411.546 364.769ZM503.101 371.027C499.006 372.689 495.306 375.191 492.238 378.372C491.278 379.371 492.802 380.897 493.765 379.881C496.56 376.951 499.937 374.639 503.68 373.094C504.941 372.584 504.383 370.505 503.101 371.027Z" fill="white"/>
<path d="M169.734 211.387C173.901 209.387 222.672 187.082 223.197 186.732C223.371 186.61 223.58 186.547 223.792 186.553C224.005 186.559 224.21 186.633 224.377 186.765C224.488 186.851 224.579 186.96 224.645 187.085C225.249 187.833 230.336 199.031 232.868 205.117C238.615 181.218 246.212 157.803 255.589 135.082C248.263 128.653 241.684 121.42 235.976 113.52C233.931 111.219 232.589 108.38 232.11 105.339C231.751 99.2199 239.05 96.6852 244.904 98.4444C251.084 100.294 255.631 104.865 260.854 108.348C266.21 111.914 272.692 113.495 277.088 108.764C278.908 106.775 280.483 104.575 281.777 102.21C281.777 102.21 297.522 77.2921 300.458 72.3798C306.394 62.4403 315.594 61.3239 320.289 66.4052C321.899 68.2233 323.035 70.4101 323.598 72.7722C324.162 75.1343 324.134 77.5987 323.518 79.9475C321.541 86.0049 318.822 91.7942 315.422 97.1831C314.293 99.3376 311.912 102.705 314.607 104.663C316.574 106.094 319.353 104.337 321.137 103.33C329.679 98.5017 337.322 88.5743 347.057 87.0053C356.299 85.4966 361.021 96.5072 356.803 104.262C351.402 113.491 344.264 121.586 335.783 128.1C333.424 129.995 334.211 131.479 337.072 131.377C345.877 131.054 355.84 124.455 364.926 126.389C370.903 127.662 372.415 134.032 369.847 139.412C367.047 144.363 362.543 148.127 357.174 150.003C351.384 152.417 345.322 154.029 340.18 157.776C321.828 171.156 319.936 199.857 314.613 218.427C306.566 214.978 298.073 212.682 289.384 211.607C287.118 211.306 284.819 211.84 282.921 213.116C282.215 213.733 281.641 214.486 281.233 215.33C280.825 216.174 280.593 217.092 280.549 218.028C280.157 225.216 287.667 228.698 293.364 231.909L305.537 238.794C304.125 240.845 302.57 242.793 300.884 244.624C289.876 244.908 283.636 243.719 275.839 244.078C258.987 244.844 257.909 258.894 269.925 264.162C263.03 266.621 255.846 268.176 248.552 268.788V241.818C248.549 240.42 248.264 239.036 247.715 237.75C247.166 236.464 246.364 235.302 245.357 234.332C244.348 233.363 243.155 232.608 241.848 232.11C240.541 231.613 239.147 231.383 237.75 231.435H179.728C175.662 225.604 172.188 219.383 169.357 212.863C169.333 212.792 169.314 212.721 169.299 212.648C169.209 212.421 169.203 212.168 169.281 211.936C169.362 211.705 169.523 211.511 169.734 211.387ZM278.642 117.786C279.928 123.129 282.553 128.057 286.268 132.106C289.984 136.154 294.669 139.191 299.882 140.93C301.201 141.37 301.762 139.291 300.452 138.854C295.598 137.217 291.24 134.372 287.787 130.587C284.335 126.801 281.903 122.2 280.718 117.216C280.398 115.867 278.319 116.44 278.642 117.789V117.786ZM233.96 223.457L234.349 215.08C234.416 213.692 232.261 213.701 232.195 215.08L231.806 223.457C231.751 224.845 233.894 224.839 233.96 223.457Z" fill="white"/>
<path d="M389.224 207.196C389.224 207.196 389.242 147.918 389.224 141.606C389.142 135.032 391.515 128.663 395.88 123.745C400.244 118.828 406.286 115.715 412.824 115.016C416.556 114.74 420.3 114.668 424.039 114.799C434.142 114.95 438.095 114.709 438.448 114.739C438.18 114.758 437.93 114.877 437.747 115.073C437.564 115.269 437.462 115.527 437.461 115.795C439.003 128.432 441.444 140.943 444.766 153.232C445.146 154.587 445.831 158.235 447.482 156.612C454.754 149.427 467.907 122.786 471.537 116.178C471.622 116.021 471.668 115.846 471.669 115.667C471.67 115.489 471.628 115.313 471.545 115.154C471.462 114.996 471.341 114.861 471.193 114.761C471.046 114.66 470.876 114.598 470.698 114.579C471.32 114.518 522.758 114.256 524.197 114.277C508.598 116.106 493.817 122.243 481.51 132.002C459.398 150.348 444.332 178.319 395.374 204.498C394.149 205.153 395.238 207.012 396.46 206.357C406.898 200.776 416.892 194.4 426.354 187.287C462.717 159.967 470.876 137.801 496.838 124.723C505.433 120.311 514.759 117.499 524.36 116.422C525.606 116.293 525.718 114.518 524.686 114.31C530.594 114.326 536.327 116.319 540.97 119.973C545.613 123.626 548.899 128.728 550.304 134.467C551.487 140.652 551.077 126.127 551.077 329.647C551.065 329.929 550.947 330.197 550.747 330.396C550.547 330.596 550.279 330.713 549.996 330.724C546.979 330.839 543.94 330.7 541.179 330.573C516.904 329.469 484.539 324.372 460.523 319.982C436.508 315.592 443.849 317.091 390.145 304.237C387.136 304.874 384.08 305.263 381.005 305.393C381.5 305.305 382.049 304.913 381.976 304.342C377.164 265.792 377.544 245.032 372.707 217.884C372.632 217.621 372.461 217.397 372.227 217.257C371.994 217.116 371.715 217.069 371.449 217.126C377.793 214.631 383.772 211.292 389.224 207.199V207.196ZM458.737 255.692C456.17 259.027 452.911 261.766 449.184 263.722C447.956 264.37 449.048 266.232 450.27 265.583C454.308 263.428 457.832 260.425 460.599 256.779C461.438 255.674 459.567 254.606 458.737 255.692ZM475.312 261.6C458.785 278.085 428.629 294.81 395.63 300.897C394.266 301.147 394.846 303.223 396.204 302.973C422.148 298.341 446.588 287.504 467.439 271.386C486.012 256.791 491.199 243.749 507.348 230.071C514.114 224.214 522.587 220.694 531.512 220.032C532.894 219.942 532.897 217.799 531.512 217.878C505.453 219.293 493.462 243.493 475.312 261.6ZM518.407 283.441C519.14 282.258 517.281 281.181 516.545 282.351C509.247 294.478 498.587 304.226 485.858 310.414C484.602 311.017 485.695 312.855 486.944 312.275C499.977 305.876 510.898 295.867 518.407 283.441ZM512.592 274.663C504.754 286.364 493.927 295.755 481.235 301.859C479.983 302.463 481.078 304.318 482.321 303.718C495.337 297.432 506.431 287.774 514.451 275.749C515.226 274.594 513.359 273.519 512.592 274.663Z" fill="#EE73DB"/>
<path d="M262.032 252.557C263.067 246.277 270.391 244.325 275.831 244.078C285.879 243.619 299.271 246.232 313.287 243.172L293.371 231.902C287.563 228.613 280.161 225.243 280.556 218.022C280.599 217.085 280.831 216.167 281.239 215.323C281.646 214.478 282.221 213.726 282.928 213.11C284.826 211.835 287.125 211.298 289.391 211.601C312.508 214.471 318.827 223.345 336.593 223.435C348.474 223.39 360.253 221.245 371.387 217.099H371.454C371.72 217.041 371.999 217.087 372.233 217.228C372.467 217.369 372.638 217.593 372.712 217.856C377.564 245.089 377.12 265.372 381.982 304.315C382.054 304.885 381.505 305.277 381.01 305.365C380.974 305.365 380.938 305.389 380.904 305.392C364.251 306.868 347.181 305.32 330.785 308.974C315.761 312.323 312.457 316.071 296.715 317.83C294.056 318.14 291.363 317.99 288.755 317.386C286.48 316.731 284.463 315.388 282.981 313.543C281.498 311.697 280.622 309.438 280.472 307.076C280.487 303.307 283.357 300.564 285.81 298.042C293.163 290.498 298.426 289.213 308.175 283.199C309.599 282.321 311.883 281.319 312.237 279.493C312.319 278.643 312.157 277.787 311.771 277.025C311.384 276.263 310.789 275.627 310.055 275.19C307.581 273.73 308.848 274.252 284.189 268.124C279.339 267.166 274.568 265.838 269.92 264.153C263.514 261.343 261.384 256.485 262.032 252.557ZM336.482 243.151L326.18 241.643C324.822 241.443 324.243 243.519 325.61 243.722L335.908 245.23C337.266 245.429 337.849 243.344 336.482 243.151ZM335.308 278.048H324.991C324.706 278.048 324.432 278.161 324.23 278.364C324.027 278.566 323.914 278.84 323.914 279.125C323.914 279.411 324.027 279.685 324.23 279.887C324.432 280.089 324.706 280.202 324.991 280.202H335.308C335.526 280.212 335.742 280.154 335.926 280.037C336.111 279.92 336.255 279.749 336.34 279.548C336.396 279.414 336.425 279.27 336.426 279.125C336.426 278.979 336.397 278.835 336.341 278.701C336.284 278.567 336.202 278.446 336.098 278.344C335.994 278.242 335.871 278.162 335.736 278.108C335.599 278.059 335.453 278.037 335.308 278.045V278.048Z" fill="white"/>
<path d="M105.924 106.788C106.226 106.715 113.739 106.64 121.367 107.21C121.65 107.219 121.919 107.336 122.119 107.536C122.319 107.736 122.435 108.005 122.444 108.287C122.587 111.904 122.06 115.516 120.89 118.942C120.443 120.318 119.672 121.567 118.643 122.584C117.613 123.601 116.355 124.356 114.973 124.787C111.545 125.324 109.343 122.804 108.057 119.883C106.437 116.146 105.389 112.186 104.949 108.136C104.914 107.983 104.911 107.823 104.942 107.668C104.973 107.513 105.036 107.366 105.127 107.237C105.219 107.109 105.338 107.002 105.476 106.925C105.614 106.847 105.767 106.8 105.924 106.788Z" fill="white"/>
<path d="M438.444 114.741C438.486 114.741 470.127 114.518 470.685 114.572C470.863 114.59 471.034 114.652 471.182 114.752C471.33 114.852 471.451 114.987 471.534 115.145C471.617 115.303 471.66 115.479 471.658 115.658C471.656 115.837 471.61 116.012 471.524 116.169C467.336 123.803 454.747 149.421 447.469 156.602C446.884 157.182 445.909 157.085 445.441 155.607C445.257 155.03 444.234 151.382 443.429 148.223C440.815 137.539 438.823 126.712 437.46 115.798C437.461 115.53 437.563 115.273 437.745 115.077C437.928 114.881 438.177 114.761 438.444 114.741Z" fill="white"/>
<path d="M161.959 292.228C163.598 292.65 158.538 292.529 229.01 292.529C231.477 292.527 233.843 291.546 235.587 289.801C237.332 288.056 238.313 285.691 238.316 283.224V250.047C238.316 248.825 238.076 247.615 237.608 246.486C237.141 245.357 236.455 244.331 235.591 243.467C234.727 242.603 233.701 241.918 232.571 241.45C231.442 240.983 230.232 240.743 229.01 240.744H164.159C162.937 240.744 161.727 240.984 160.598 241.451C159.469 241.919 158.443 242.604 157.579 243.468C156.715 244.332 156.03 245.357 155.562 246.486C155.094 247.615 154.853 248.825 154.853 250.047V263.115C152.068 256.739 147.968 248.028 144.67 241.836C144.658 240.453 144.925 239.082 145.453 237.804C145.981 236.526 146.76 235.367 147.744 234.395C148.73 233.425 149.9 232.663 151.186 232.154C152.473 231.645 153.848 231.401 155.231 231.435H237.733C239.131 231.38 240.526 231.609 241.833 232.107C243.14 232.604 244.333 233.361 245.34 234.332C246.349 235.301 247.152 236.463 247.702 237.749C248.251 239.036 248.534 240.42 248.536 241.818V300.16C249.329 300.842 269.824 321.741 276.073 327.758C279.796 331.346 278.52 338.578 269.848 337.906C269.848 337.906 193.854 338.102 190.07 337.854C186.45 337.615 182.922 336.606 179.723 334.894C174.114 331.496 174.594 331.074 144.935 301.633C144.489 300.966 144.633 301.524 144.633 295.731C153.091 300.544 159.739 297.725 161.959 292.228ZM185.514 324.571H258.536C258.821 324.571 259.095 324.458 259.297 324.256C259.499 324.054 259.613 323.78 259.613 323.494C259.613 323.209 259.499 322.935 259.297 322.733C259.095 322.531 258.821 322.417 258.536 322.417H185.514C185.372 322.417 185.232 322.444 185.101 322.498C184.97 322.552 184.851 322.632 184.751 322.732C184.651 322.832 184.572 322.951 184.518 323.082C184.464 323.212 184.436 323.353 184.436 323.494C184.436 323.636 184.464 323.776 184.518 323.907C184.572 324.038 184.651 324.157 184.751 324.257C184.851 324.357 184.97 324.436 185.101 324.49C185.232 324.544 185.372 324.572 185.514 324.571ZM174.141 312.9H248.068C248.354 312.9 248.628 312.787 248.83 312.585C249.032 312.382 249.145 312.108 249.145 311.823C249.145 311.537 249.032 311.263 248.83 311.061C248.628 310.859 248.354 310.746 248.068 310.746H174.141C173.999 310.745 173.859 310.773 173.728 310.827C173.597 310.881 173.478 310.96 173.378 311.06C173.278 311.16 173.199 311.279 173.145 311.41C173.091 311.541 173.063 311.681 173.064 311.823C173.063 311.964 173.091 312.105 173.145 312.236C173.199 312.366 173.278 312.485 173.378 312.585C173.478 312.685 173.597 312.765 173.728 312.819C173.859 312.873 173.999 312.9 174.141 312.9Z" fill="#59DFFD"/>
<path d="M154.86 250.046C154.86 248.824 155.1 247.614 155.568 246.485C156.036 245.356 156.721 244.33 157.585 243.466C158.45 242.602 159.476 241.917 160.605 241.45C161.734 240.983 162.944 240.743 164.166 240.744H229.014C230.236 240.742 231.446 240.982 232.576 241.449C233.705 241.916 234.731 242.602 235.596 243.466C236.46 244.33 237.145 245.356 237.613 246.485C238.08 247.614 238.32 248.824 238.32 250.046V283.214C238.319 285.055 237.774 286.855 236.752 288.386C235.73 289.918 234.277 291.113 232.578 291.82C231.449 292.288 230.236 292.529 229.014 292.529C158.952 292.529 163.599 292.656 161.963 292.227C164.018 287.257 162.042 280.489 160.02 275.508C156.454 266.715 157.531 269.228 154.86 263.115V250.046Z" fill="white"/>
<path d="M2.28983 193.331C2.35309 193.104 2.48882 192.904 2.67625 192.762C2.86369 192.62 3.09253 192.543 3.3278 192.543C27.5578 194.305 55.4239 195.334 65.0616 195.467C65.2969 195.468 65.5253 195.546 65.7125 195.689C65.8997 195.832 66.0355 196.031 66.0996 196.257C67.6935 208.873 67.9877 221.619 66.9776 234.295C93.2294 230.913 87.6049 230.702 115.966 228.692C121.971 228.216 128.009 228.996 133.696 230.982C136.16 231.966 138.401 233.435 140.286 235.3C142.172 237.166 143.664 239.392 144.674 241.845C150.387 252.786 155.509 264.026 160.017 275.516C161.141 278.275 161.99 281.137 162.552 284.062C164.854 296.18 154.103 304.239 139.921 292.411C134.502 288.015 129.838 282.763 126.113 276.862C126.209 281.954 124.859 286.968 122.218 291.322C116.268 301.02 100.649 298.494 96.3977 288.591C96.1369 290.671 95.4193 292.669 94.2962 294.439C93.173 296.21 91.6721 297.71 89.9011 298.832C86.9599 300.434 83.5619 300.989 80.2639 300.407C76.9659 299.825 73.9633 298.14 71.7482 295.628C69.4181 292.197 68.5384 287.984 69.3011 283.908C61.367 286.789 53.1388 288.785 44.7663 289.858C37.9831 290.812 31.0702 289.979 24.7064 287.444C12.878 282.445 5.39476 269.717 3.23126 257.617C-0.420898 236.367 -0.73851 214.678 2.28983 193.331ZM24.3352 278.121C21.8844 276.473 19.665 274.506 17.7361 272.27C16.6739 271.045 14.8997 272.831 15.9588 274.047C18.0404 276.434 20.43 278.533 23.0649 280.29C24.4167 281.192 25.6599 279.017 24.3352 278.121ZM42.3795 240.403C49.2591 238.83 56.2389 237.733 63.2692 237.12C64.8715 236.978 64.8806 234.464 63.2692 234.606C56.0153 235.237 48.8127 236.362 41.7127 237.98C40.1436 238.327 40.8044 240.75 42.3795 240.39V240.403ZM95.2269 273.087C93.6489 269.988 92.5172 266.682 91.8655 263.266C91.5637 261.676 89.1317 262.36 89.4516 263.936C90.164 267.561 91.3829 271.069 93.0725 274.355C93.7937 275.785 95.9662 274.512 95.2269 273.075V273.087ZM124.397 263.214L120.736 253.064C120.19 251.555 117.764 252.207 118.322 253.734L121.983 263.884C122.52 265.372 124.934 264.726 124.397 263.202V263.214Z" fill="white"/>
<path d="M447 77.1747C447.797 71.176 454.438 68.2702 459.767 69.1543C461.927 69.7219 463.906 70.8312 465.517 72.3773C467.128 73.9234 468.318 75.855 468.973 77.9894C470.337 80.7764 470.867 83.8975 470.5 86.9784C470.253 88.0162 469.799 88.9937 469.167 89.8531C468.535 90.7125 467.736 91.4361 466.819 91.9813C464.833 93.3577 462.5 94.1476 460.087 94.2607C457.673 94.3738 455.277 93.8056 453.171 92.621C447.878 89.5583 446.291 82.5307 447 77.1747ZM454.3 84.5222C454.653 85.319 455.226 85.9982 455.953 86.4794C456.68 86.9607 457.529 87.2238 458.4 87.2379C459.293 87.0543 460.098 86.5778 460.689 85.884C461.279 85.1902 461.621 84.3189 461.659 83.4087C461.885 82.0509 459.809 81.4715 459.583 82.8354C459.456 83.5928 459.209 84.9476 458.252 85.0985C457.296 85.2494 456.569 84.1239 456.161 83.4389C456.087 83.318 455.989 83.2131 455.873 83.1304C455.758 83.0478 455.627 82.989 455.489 82.9575C455.35 82.926 455.207 82.9225 455.067 82.9471C454.927 82.9718 454.793 83.0241 454.674 83.1009C454.445 83.2479 454.279 83.4755 454.21 83.7387C454.141 84.0019 454.173 84.2815 454.3 84.5222Z" fill="white"/>
<path d="M446.29 54.0698C442.147 50.9135 439.317 49.3596 439.881 46.2516C440.161 45.1251 440.791 44.1165 441.681 43.3709C442.571 42.6254 443.674 42.1813 444.833 42.1026C447.976 41.8842 451.093 42.8019 453.616 44.6886C453.529 44.4411 453.429 44.1997 453.348 43.9523C452.032 40.7116 452.844 36.5234 456.383 35.6845C459.968 35.1625 462.322 38.2101 463.242 41.6711C464.54 45.6074 465.623 49.6114 466.486 53.6654C467.031 55.4597 467.295 57.3274 467.27 59.2024C467.074 60.8769 466.284 62.4253 465.042 63.5656C463.8 64.706 462.19 65.3624 460.505 65.4153C454.28 65.5934 448.031 65.6537 441.797 65.4153C439.661 65.3369 437.153 65.2011 436.091 63.0014C433.852 58.3244 439.389 52.558 446.29 54.0698Z" fill="black"/>
<path d="M498.072 465.175C508.912 462.414 519.247 457.954 528.693 451.961C535.02 447.941 540.231 442.39 543.843 435.821C549.811 425.276 554.771 414.192 558.659 402.717L558.689 402.665C559.124 401.528 560.865 401.92 560.771 402.997C560.771 415.996 562.346 429.729 557.883 442.224C552.92 456.137 541.176 464.094 526.958 466.14C517.495 467.567 507.903 467.951 498.355 467.284C497.209 467.202 496.823 465.482 498.072 465.175Z" fill="black"/>
<path d="M183.42 356.894C183.278 356.894 183.138 356.867 183.007 356.813C182.876 356.759 182.757 356.68 182.656 356.58C182.556 356.48 182.477 356.361 182.423 356.23C182.369 356.099 182.342 355.958 182.343 355.816C182.342 355.675 182.37 355.535 182.424 355.404C182.478 355.273 182.557 355.154 182.657 355.054C182.757 354.954 182.876 354.874 183.007 354.82C183.138 354.766 183.278 354.739 183.42 354.739H388.726C389.012 354.739 389.286 354.853 389.488 355.055C389.69 355.257 389.804 355.531 389.804 355.816C389.804 356.102 389.69 356.376 389.488 356.578C389.286 356.78 389.012 356.894 388.726 356.894C320.553 358.128 251.988 358.134 183.42 356.894Z" fill="#59DFFD"/>
<path d="M216.063 490.877C238.135 486.832 260.215 482.835 282.305 478.886V367.79C282.305 367.504 282.418 367.23 282.62 367.028C282.822 366.826 283.096 366.713 283.382 366.713C283.668 366.713 283.942 366.826 284.144 367.028C284.346 367.23 284.459 367.504 284.459 367.79V478.904C288.288 479.653 302.184 482.887 351.069 490.039C352.436 490.238 351.854 492.314 350.496 492.115C339.265 490.476 298.934 484.299 283.303 480.875C265.558 483.614 233.516 489.67 216.636 492.944C215.281 493.219 214.702 491.143 216.063 490.877Z" fill="#59DFFD"/>
<path d="M258.211 11.0923C276.735 10.9595 275.184 10.9565 275.731 11.4121C276.198 12.0337 276.316 8.99818 276.05 46.2726C276.048 46.5576 275.934 46.8302 275.732 47.0317C275.531 47.2332 275.258 47.3474 274.973 47.3498H258.214C257.929 47.3467 257.657 47.2323 257.455 47.031C257.253 46.8298 257.138 46.5576 257.134 46.2726V12.1755C257.136 11.8895 257.249 11.6154 257.451 11.4123C257.652 11.2092 257.925 11.0932 258.211 11.0893V11.0923Z" fill="white"/>
<path d="M229.483 0.917724C248.794 0.778922 247.059 0.787977 247.587 1.23758C248.073 1.88331 248.248 -1.86737 247.889 46.2728C247.887 46.5578 247.773 46.8304 247.571 47.0319C247.37 47.2334 247.097 47.3477 246.812 47.3501H229.456C229.171 47.3454 228.9 47.2304 228.699 47.0294C228.498 46.8284 228.383 46.5571 228.378 46.2728V1.99495C228.382 1.77966 228.449 1.5702 228.571 1.39263C228.693 1.21505 228.864 1.07719 229.063 0.99618C229.197 0.942787 229.339 0.916127 229.483 0.917724Z" fill="white"/>
<path d="M60.7564 7.683C60.0955 6.47603 61.9633 5.37466 62.6181 6.59672L78.2183 35.3801C78.8791 36.587 77.0113 37.6884 76.3595 36.4663C74.5974 33.2166 61.4051 8.88998 60.7564 7.683Z" fill="black"/>
<path d="M67.3649 42.486L43.8893 25.6095C42.7728 24.8068 43.847 22.936 44.9755 23.7477L68.4512 40.6242C69.5677 41.4269 68.4935 43.2886 67.3649 42.486Z" fill="black"/>
<path d="M524.474 57.1839C521.819 46.0043 512.405 29.7102 502.064 23.9016C501.834 23.749 501.671 23.5142 501.609 23.2454C501.547 22.9767 501.59 22.6942 501.729 22.4561C501.868 22.218 502.093 22.0422 502.358 21.9648C502.623 21.8874 502.908 21.9142 503.153 22.0398C508.114 25.0271 512.356 29.0705 515.588 33.8742C520.565 40.7418 524.279 48.4408 526.556 56.6106C526.858 57.9594 524.791 58.5358 524.474 57.1839Z" fill="black"/>
<path d="M513.298 15.2775C512.327 14.2818 513.856 12.755 514.807 13.7688C525.648 25.8132 534.204 39.7328 540.054 54.8452C540.503 56.1608 538.43 56.7251 537.978 55.4185C532.234 40.6618 523.874 27.0633 513.298 15.2775Z" fill="black"/>
<path d="M512.595 274.663C513.361 273.513 515.229 274.593 514.454 275.749C506.434 287.774 495.34 297.432 482.324 303.718C481.081 304.321 479.985 302.462 481.238 301.859C493.93 295.754 504.757 286.364 512.595 274.663Z" fill="black"/>
<path d="M486.944 312.275C485.695 312.855 484.602 311.005 485.858 310.414C498.585 304.224 509.245 294.476 516.545 282.351C517.281 281.181 519.14 282.258 518.407 283.441C510.897 295.867 499.977 305.876 486.944 312.275Z" fill="black"/>
<path d="M106.356 188.337L117.309 137.291C117.551 136.181 119.063 136.359 119.388 137.291C120.52 140.538 137.324 188.657 137.78 190.096C138.169 191.333 136.874 192.558 136.208 193.518C124.587 210.536 125.309 209.553 125.043 209.737C124.953 209.841 124.841 209.925 124.716 209.982C124.59 210.039 124.454 210.069 124.316 210.069C124.178 210.068 124.041 210.038 123.915 209.981C123.789 209.924 123.677 209.84 123.586 209.737C119.923 205.482 108.616 193.141 106.773 191.098C105.816 190.012 106.024 189.873 106.356 188.334V188.337Z" fill="#59DFFD"/>
<path d="M456.16 83.4205C456.567 84.1055 457.301 85.231 458.251 85.0801C459.202 84.9292 459.458 83.5714 459.582 82.817C459.808 81.4532 461.884 82.0325 461.658 83.3903C461.62 84.3011 461.279 85.173 460.688 85.8674C460.097 86.5618 459.292 87.0388 458.399 87.2225C457.528 87.2077 456.679 86.9443 455.952 86.4631C455.226 85.982 454.652 85.3032 454.298 84.5068C454.168 84.2608 454.137 83.9738 454.213 83.7058C454.289 83.4378 454.465 83.2094 454.706 83.0685C454.946 82.9275 455.231 82.8848 455.502 82.9493C455.773 83.0137 456.009 83.1804 456.16 83.4145V83.4205Z" fill="black"/>
<path d="M302.662 469.954C317.289 463.219 333.053 459.3 349.131 458.4C366.435 457.9 383.575 461.88 398.888 469.954C399.086 470.078 399.238 470.262 399.323 470.479C399.408 470.696 399.421 470.935 399.36 471.16C399.299 471.385 399.167 471.585 398.983 471.729C398.8 471.873 398.575 471.954 398.342 471.961H303.205C302.209 471.961 301.645 470.41 302.662 469.954Z" fill="black"/>
<path d="M105.709 448.808C125.322 440.028 148.288 434.877 169.678 438.214C178.236 434.931 187.127 432.593 196.193 431.241C213.512 428.332 231.3 430.344 247.531 437.049C250.99 438.381 254.37 439.907 257.655 441.621C257.852 441.747 258.003 441.931 258.089 442.149C258.174 442.366 258.188 442.605 258.129 442.831C258.07 443.058 257.939 443.26 257.756 443.406C257.572 443.553 257.346 443.636 257.112 443.642H190.33C194.304 445.123 198.183 446.848 201.944 448.808C202.143 448.931 202.297 449.115 202.382 449.333C202.467 449.551 202.478 449.79 202.415 450.015C202.353 450.24 202.221 450.439 202.038 450.583C201.855 450.727 201.631 450.808 201.398 450.815H106.246C105.256 450.815 104.689 449.264 105.709 448.808Z" fill="black"/>
<path d="M29.4377 312.088C29.2929 310.709 31.4413 310.721 31.5922 312.088C32.7723 322.384 36.3411 332.262 42.0144 340.935C47.6849 349.61 55.3031 356.84 64.262 362.051C64.5468 362.289 64.7768 362.586 64.9361 362.921C65.0955 363.257 65.1805 363.623 65.1853 363.994C59.253 386.438 52.8651 417.946 48.6558 440.516C48.4023 441.877 46.3233 441.301 46.5768 439.943C51.3381 414.416 56.8189 389.03 63.0127 363.813C53.77 358.407 45.9201 350.914 40.0902 341.933C34.2604 332.951 30.6124 322.731 29.4377 312.088Z" fill="#59DFFD"/>
<path d="M550.964 362.169C549.896 363.032 548.366 361.52 549.455 360.66C557.641 353.956 563.868 345.168 567.481 335.223C571.093 325.277 571.956 314.541 569.98 304.146C569.708 302.792 571.79 302.212 572.059 303.573C574.134 314.334 573.269 325.456 569.557 335.767C565.845 346.079 559.422 355.199 550.964 362.169Z" fill="#59DFFD"/>
<path d="M334.131 340.642C333.506 341.882 331.647 340.793 332.272 339.556L336.982 330.241C337.607 329.001 339.465 330.09 338.841 331.327L334.131 340.642Z" fill="white"/>
<path d="M174.141 310.745H248.068C248.353 310.745 248.627 310.859 248.829 311.061C249.032 311.263 249.145 311.537 249.145 311.822C249.145 312.108 249.032 312.382 248.829 312.584C248.627 312.786 248.353 312.9 248.068 312.9H174.141C173.855 312.898 173.582 312.784 173.381 312.582C173.179 312.381 173.065 312.108 173.063 311.822C173.063 311.681 173.091 311.541 173.145 311.41C173.199 311.279 173.278 311.16 173.378 311.06C173.478 310.96 173.597 310.88 173.728 310.826C173.859 310.772 173.999 310.745 174.141 310.745Z" fill="white"/>
<path d="M185.516 322.417H258.538C258.81 322.437 259.064 322.56 259.249 322.759C259.435 322.959 259.538 323.222 259.538 323.494C259.538 323.767 259.435 324.029 259.249 324.229C259.064 324.429 258.81 324.551 258.538 324.571H185.516C185.374 324.572 185.234 324.544 185.103 324.49C184.972 324.436 184.854 324.357 184.753 324.257C184.653 324.157 184.574 324.038 184.52 323.907C184.466 323.776 184.438 323.636 184.439 323.494C184.44 323.209 184.553 322.935 184.755 322.733C184.957 322.532 185.231 322.418 185.516 322.417Z" fill="white"/>
<path d="M280.716 117.216C281.9 122.2 284.332 126.802 287.785 130.587C291.237 134.373 295.596 137.217 300.451 138.854C301.76 139.291 301.199 141.37 299.88 140.93C294.668 139.191 289.983 136.155 286.267 132.106C282.552 128.058 279.927 123.131 278.64 117.789C278.318 116.44 280.397 115.867 280.716 117.216Z" fill="white"/>
<path d="M231.804 223.457L232.193 215.081C232.26 213.702 234.414 213.693 234.348 215.081L233.959 223.457C233.892 224.839 231.75 224.845 231.804 223.457Z" fill="white"/>
<path d="M127.473 87.5662C124.525 88.0683 121.525 88.1951 118.545 87.9434C118.026 87.8921 117.458 87.7593 116.903 87.6658C116.869 90.6813 117.366 93.6792 118.373 96.5219C118.421 96.7081 118.427 96.9028 118.389 97.0914C118.351 97.28 118.271 97.4577 118.155 97.611C118.039 97.7643 117.89 97.8893 117.718 97.9766C117.547 98.0639 117.358 98.1113 117.166 98.1152C114.073 98.2153 110.997 97.6279 108.159 96.3952C105.597 95.2843 103.516 93.2956 102.29 90.787C101.065 88.2784 100.774 85.4146 101.472 82.7111C101.936 80.9192 102.818 79.2626 104.046 77.8772C110.953 69.8146 128.828 71.45 128.397 86.3411C128.396 86.6177 128.305 86.8865 128.139 87.1074C127.972 87.3282 127.739 87.4892 127.473 87.5662ZM120.014 76.456C117.599 75.5197 114.96 75.3252 112.433 75.8971C109.907 76.469 107.609 77.7814 105.832 79.6665C104.873 80.7904 104.197 82.1282 103.862 83.5674C103.527 85.0066 103.542 86.5052 103.906 87.9373C104.271 89.3695 104.973 90.6932 105.955 91.7975C106.937 92.9017 108.17 93.7541 109.55 94.283C111.465 95.0292 113.485 95.473 115.536 95.5986C114.465 92.5127 114.154 89.2137 114.631 85.982C114.707 85.7193 114.865 85.4879 115.083 85.3217C115.3 85.1556 115.565 85.0634 115.838 85.0587C117.561 85.3423 119.302 85.5143 121.049 85.5686C122.648 85.5807 124.248 85.4781 125.835 85.2669C125.873 83.3812 125.337 81.5285 124.297 79.9548C123.257 78.3811 121.764 77.1608 120.014 76.456Z" fill="black"/>
<path d="M68.2373 112.553C74.2722 90.2245 77.4526 74.5036 86.864 63.0222C93.6532 54.7363 104.585 48.786 115.508 50.6326C126.706 52.5246 134.518 62.467 137.675 72.8018C139.43 79.0487 140.258 85.52 140.131 92.0077C140.137 97.7942 139.765 103.575 139.017 109.313C162.288 113.598 173.368 120.103 184.038 130.607C187.625 134.137 191.237 137.607 194.577 141.385C202.366 150.55 209.444 160.295 215.751 170.537C222.287 181.429 227.995 192.796 232.83 204.543C238.555 180.864 246.096 157.662 255.388 135.142C248.077 128.727 241.516 121.505 235.832 113.613C233.782 111.279 232.435 108.412 231.945 105.345C231.877 103.935 232.249 102.538 233.009 101.349C233.77 100.159 234.882 99.2357 236.191 98.7065C245.759 94.6239 254.407 103.812 260.958 108.184C266.254 111.715 272.642 113.29 276.975 108.628C278.758 106.628 280.321 104.443 281.637 102.11C284.693 96.9382 297.382 77.1921 300.315 72.2797C306.286 62.298 315.622 61.0911 320.429 66.2811C322.061 68.1217 323.214 70.3366 323.785 72.7295C324.356 75.1223 324.328 77.619 323.703 79.9983C321.722 86.0702 318.998 91.8736 315.592 97.2762C314.515 99.328 312.143 102.62 314.714 104.518C316.6 105.909 319.346 104.15 321.05 103.181C329.635 98.3232 337.345 88.3446 347.015 86.8419C356.198 85.2728 361.3 96.1145 356.973 104.361C351.596 113.624 344.444 121.735 335.926 128.229C335.235 128.784 334.237 129.418 334.719 130.447C335.145 131.352 336.249 131.231 337.091 131.201C346.107 130.83 355.832 124.261 364.993 126.222C366.338 126.495 367.587 127.116 368.614 128.025C369.642 128.933 370.412 130.097 370.847 131.397C371.55 134.113 371.255 136.989 370.02 139.505C367.196 144.496 362.655 148.29 357.242 150.181C351.463 152.595 345.422 154.194 340.29 157.936C322.031 171.231 320.046 200.059 314.844 218.303C321.691 221.389 329.087 223.073 336.596 223.254C354.785 223.254 374.154 218.378 389.048 207.102V141.605C388.958 134.981 391.347 128.562 395.747 123.609C400.147 118.655 406.24 115.526 412.829 114.835C416.561 114.562 420.305 114.489 424.045 114.617C424.476 114.617 524.525 114.074 524.7 114.11C530.641 114.156 536.399 116.176 541.066 119.852C545.733 123.529 549.046 128.653 550.481 134.418C551.197 138.146 551.458 141.948 551.257 145.739C551.257 344.112 551.54 329.543 550.671 333.674C547.051 350.765 530.388 362.503 514.764 370.185C522.398 373.052 530.153 375.617 537.654 378.818C542.199 380.354 546.341 382.889 549.778 386.235C551.895 388.556 553.132 391.546 553.275 394.684C553.686 407.055 540.234 429.725 532.024 439.375C529.611 442.534 526.44 445.033 522.805 446.641C520.597 447.139 518.309 447.184 516.083 446.771C513.18 446.315 510.314 445.649 507.507 444.779C477.01 436.122 437.33 424.502 412.937 402.059C410.686 404.307 411.38 403.293 398.93 439.025C397.929 442.541 396.267 445.835 394.033 448.729C388.81 454.746 379.752 454.36 372.501 454.462C363.438 454.622 354.373 454.3 345.344 453.5C333.841 452.45 320.622 449.671 313.981 440.283C311.861 436.758 310.812 432.693 310.963 428.582C310.052 404.638 311.636 380.665 315.697 357.05H318.25C314.198 380.723 312.6 404.75 313.483 428.751C313.334 432.776 314.537 436.734 316.898 439.997C321.756 445.833 329.698 448.503 336.916 449.858C349.822 451.747 362.875 452.423 375.904 451.876C379.569 451.913 383.223 451.46 386.767 450.528C388.42 449.967 389.943 449.078 391.244 447.914C392.545 446.749 393.597 445.334 394.338 443.754C397.817 436.092 397.355 434.701 407.615 406.524C408.377 404.251 409.59 402.156 411.181 400.363C404.942 394.768 400.566 387.397 398.641 379.241C398.189 376.963 398.059 374.633 398.255 372.319C398.796 367.388 400.276 362.607 402.615 358.233C410.891 342.193 421.748 327.623 434.751 315.105C427.644 313.482 395.666 305.733 394.1 305.35L363.15 313.874C352.552 316.792 340.79 319.239 332.308 326.725C324.339 333.756 320.842 344.172 318.73 354.546H388.732C388.972 354.559 389.203 354.64 389.399 354.78C389.594 354.92 389.746 355.113 389.835 355.336C389.925 355.56 389.948 355.804 389.904 356.04C389.859 356.277 389.747 356.495 389.582 356.67C389.36 356.905 389.055 357.045 388.732 357.06H251.492C251.42 367.796 250.708 378.52 249.362 389.171C249.169 391.748 248.804 394.313 248.273 396.841C245.593 408.404 233.717 419.523 218.319 420.791C211.19 421.332 204.028 420.359 197.303 417.936C190.577 415.513 184.44 411.695 179.294 406.733C176.717 410.91 173.301 414.506 169.261 417.294C165.897 419.699 162.154 421.524 158.187 422.695C140.502 427.987 117.452 428.871 102.325 418.12C86.4868 406.88 87.1506 391.184 74.764 362.319C73.2098 358.441 71.073 354.823 68.4274 351.589C62.9326 345.204 49.7434 336.894 44.4659 322.718C40.6187 312.386 41.7713 300.784 44.5202 290.063C37.7823 290.987 30.9177 290.142 24.6052 287.61C12.3483 282.26 5.15479 269.367 3.04858 257.677C-1.89398 230.191 -1.49872 193.602 9.26752 166.089C19.5751 139.777 42.1033 121.298 68.2373 112.553ZM137.539 88.248C137.165 78.8698 135.209 69.0269 129.024 61.6523C126.537 58.3899 123.203 55.8727 119.384 54.3749C115.565 52.8771 111.409 52.4562 107.367 53.1582C98.8886 55.0133 91.4752 60.1191 86.7191 67.3794C79.4773 77.9163 76.7616 90.5533 71.0858 111.654C83.9997 107.939 97.4073 106.227 110.841 106.579C119.467 106.677 128.073 107.438 136.582 108.854C137.478 102.024 137.798 95.1314 137.539 88.248ZM107.47 109.114C107.886 112.024 108.614 114.882 109.64 117.638C110.448 119.711 111.857 123.111 114.603 122.514C118.982 121.561 120.17 113.984 120.101 109.479C115.896 109.206 111.683 109.085 107.47 109.117V109.114ZM337.845 156.641C342.753 153.102 348.232 150.431 354.043 148.748C359.51 147.154 364.252 143.71 367.459 139.004C368.115 137.886 368.523 136.64 368.656 135.351C368.788 134.061 368.641 132.758 368.225 131.53C367.528 130.402 366.52 129.5 365.323 128.93C364.126 128.36 362.79 128.147 361.475 128.317C353.817 128.247 347.595 132.61 338.168 133.639C335.887 133.845 333.34 133.751 332.366 131.295C332.164 130.789 332.073 130.245 332.099 129.7C332.125 129.156 332.267 128.623 332.517 128.139C333.247 127.113 334.169 126.239 335.232 125.565C342.225 119.983 348.275 113.315 353.153 105.816C354.564 103.924 355.522 101.733 355.953 99.4125C356.191 97.5165 355.938 95.591 355.217 93.8212C354.555 92.0481 353.215 90.6105 351.494 89.824C349.772 89.0376 347.809 88.9667 346.035 89.627C341.273 91.2582 336.903 93.8644 333.205 97.2792C329.456 100.665 325.341 103.621 320.936 106.093C319.933 106.782 318.781 107.223 317.575 107.381C316.368 107.538 315.142 107.407 313.996 106.998C312.908 106.446 312.037 105.543 311.525 104.436C311.013 103.329 310.888 102.081 311.171 100.894C313.984 92.2401 326.34 79.5397 319.756 69.4343C318.709 67.7445 317.07 66.5044 315.16 65.9552C313.939 65.7252 312.685 65.7429 311.471 66.0072C310.257 66.2716 309.108 66.7772 308.094 67.4941C305.735 69.1528 303.769 71.3099 302.336 73.8126C281.682 108.776 281.911 106.612 279.705 109.397C277.951 111.603 275.507 113.155 272.765 113.806C263.282 115.45 256.32 107.204 248.774 102.641C241.019 97.9642 234.592 100.734 234.456 104.723C234.846 107.748 236.203 110.565 238.324 112.756C243.992 120.507 250.518 127.593 257.778 133.878C257.937 134.03 258.052 134.223 258.108 134.436C258.165 134.649 258.163 134.873 258.101 135.085C248.201 158.995 240.264 183.672 234.368 208.87C234.067 210.198 232.368 209.926 231.954 208.87C229.279 202.248 226.361 195.727 223.204 189.32C222.902 189.453 173.781 212.035 171.959 212.898C174.865 219.326 178.376 225.463 182.444 231.226H237.742C240.545 231.121 243.276 232.131 245.337 234.036C247.394 235.943 248.611 238.589 248.719 241.392V266.401C254.91 265.849 261.019 264.605 266.933 262.692C258.559 257.306 259.389 244.615 275.825 243.866C283.227 243.528 287.768 244.431 297.792 244.47C299.848 242.402 301.729 240.166 303.413 237.786C288.245 229.211 288.435 229.38 286.637 228.182C278.942 223.052 279.147 216.112 282.792 212.959C284.725 211.654 287.071 211.104 289.382 211.414C297.337 212.302 305.125 214.319 312.511 217.403C317.903 198.409 319.415 171.493 337.845 156.641ZM164.186 239.485C170.338 239.416 225.971 239.485 225.971 239.485C228.816 239.187 231.689 239.672 234.278 240.888C235.88 241.824 237.21 243.16 238.139 244.766C239.068 246.372 239.563 248.191 239.577 250.046C239.577 250.046 239.721 280.785 239.577 283.715C239.426 286.507 238.183 289.128 236.115 291.011C234.047 292.894 231.321 293.887 228.527 293.775C158.522 293.081 163.51 293.926 161.585 293.422C160.089 295.793 157.737 297.497 155.017 298.178C152.298 298.859 149.42 298.466 146.983 297.079V299.493C146.983 299.493 245.261 299.42 246.227 299.432V241.818C246.199 239.685 245.337 237.648 243.826 236.144C242.314 234.639 240.273 233.787 238.14 233.77H156.407C155.161 233.701 153.911 233.815 152.698 234.111C151.015 234.641 149.549 235.701 148.518 237.134C147.488 238.567 146.95 240.295 146.983 242.059V245.942C149.31 250.535 151.51 255.191 153.622 259.886V250.586C153.528 248.433 154.089 246.303 155.233 244.476C156.376 242.649 158.047 241.213 160.025 240.357C161.339 239.789 162.754 239.492 164.186 239.485ZM162.55 291.083C163.908 291.37 160.511 291.276 225.72 291.273C228.124 291.558 230.56 291.233 232.805 290.329C234.095 289.629 235.172 288.594 235.921 287.332C236.671 286.071 237.065 284.63 237.063 283.162V250.058C237.06 248.359 236.523 246.705 235.529 245.328C234.534 243.951 233.132 242.921 231.52 242.385C230.449 242.029 229.317 241.902 228.195 242.011H164.201C163.053 242.003 161.918 242.24 160.869 242.706C159.821 243.173 158.884 243.857 158.121 244.714C157.354 245.569 156.779 246.578 156.434 247.672C156.089 248.767 155.982 249.923 156.12 251.063V265.547C160.664 276.189 161.935 279.62 162.728 284.028C163.163 286.363 163.102 288.762 162.55 291.071V291.083ZM179.391 231.269C176.675 227.255 169.735 215.729 169.131 212.726C167.768 218.843 166.853 225.05 166.045 231.269H179.391ZM301.325 244.443C305.185 244.352 309.028 243.909 312.807 243.121L305.598 239.044C304.292 240.93 302.864 242.732 301.325 244.431V244.443ZM341.982 225.602C319.276 227.542 310.532 215.738 289.681 213.964C288.676 213.734 287.631 213.742 286.63 213.987C285.629 214.232 284.698 214.706 283.912 215.373C282.996 216.955 282.735 218.833 283.187 220.605C283.638 222.377 284.764 223.902 286.326 224.853C288.326 226.371 290.46 227.705 292.702 228.839C292.702 228.839 311.536 239.355 316.841 242.496C317.048 242.627 317.213 242.813 317.317 243.034C317.421 243.255 317.46 243.5 317.429 243.743C317.398 243.985 317.298 244.214 317.14 244.4C316.982 244.587 316.773 244.725 316.539 244.796C294.029 251.19 267.467 240.206 264.298 253.178C264.272 254.978 264.79 256.743 265.785 258.242C266.78 259.742 268.206 260.905 269.875 261.579C273.786 263.245 277.875 264.46 282.062 265.2C309.144 271.932 306.666 271.262 308.205 271.775C315.978 274.382 316.123 281.102 311.748 283.703C302.849 289.985 294.612 291.4 285.535 301.78C284.217 302.99 283.287 304.565 282.871 306.306C282.842 307.951 283.254 309.573 284.062 311.005C284.871 312.437 286.047 313.628 287.469 314.453C289.499 315.367 291.721 315.77 293.942 315.627C310.839 315.594 320.45 305.425 349.689 304.481C360.307 303.91 368.669 304.025 379.513 303.162C374.933 266.838 375.455 247.24 370.69 219.835C361.444 223.115 351.777 225.056 341.982 225.602ZM439.983 117.046C441.553 129.329 443.965 141.49 447.2 153.443C455.842 142.145 462.206 128.642 468.507 116.893L439.983 117.046ZM406.055 356.906C403.312 361.661 401.509 366.898 400.744 372.334C400.023 381.842 405.077 390.366 411.408 397.053C435.749 421.424 474.33 432.761 506.831 441.994C510.814 443.37 514.96 444.218 519.163 444.514C520.09 444.532 521.016 444.457 521.927 444.291C523.908 443.554 525.697 442.381 527.163 440.86C534.371 433.121 540.303 424.285 544.736 414.684C547.397 409.571 549.335 404.114 550.493 398.468C551.086 395.561 550.658 392.539 549.279 389.912C547.901 387.285 545.658 385.214 542.929 384.05C538.71 381.82 534.326 379.917 529.815 378.36C525.986 376.914 513.587 372.461 511.261 371.555C510.371 371.208 509.882 369.763 510.959 369.256C517.963 366.078 524.599 362.147 530.75 357.53C536.779 353.15 541.775 347.502 545.385 340.983C547.012 337.835 548.086 334.431 548.562 330.919C522.437 331.342 461.416 320.844 437.629 315.745C425.046 327.756 414.396 341.64 406.055 356.906ZM391.212 302.076C392.751 302.453 425.381 310.377 431.458 311.795C458.917 318.207 521.502 328.738 548.743 328.333V141.18C548.793 137.955 548.197 134.752 546.992 131.76C545.787 128.768 543.996 126.047 541.724 123.756C539.453 121.466 536.747 119.653 533.765 118.423C530.783 117.193 527.585 116.571 524.359 116.594C509.986 118.268 496.312 123.722 484.731 132.399C461.582 150.778 446.986 179.55 396.556 206.507C395.129 207.268 393.858 205.098 395.285 204.335C404.652 199.329 413.663 193.683 422.252 187.437C466.09 155.51 471.219 128.157 511.022 116.66L471.548 116.871C463.833 131.132 458.036 144.028 448.371 156.098C447.864 156.732 447.466 157.429 446.561 157.384C446.288 157.376 446.025 157.283 445.809 157.118C445.592 156.953 445.433 156.724 445.354 156.463C441.622 143.565 438.92 130.391 437.273 117.065L415.973 117.179C412.79 117.157 409.633 117.761 406.684 118.958C403.734 120.156 401.05 121.922 398.783 124.157C396.516 126.392 394.712 129.051 393.473 131.983C392.234 134.916 391.584 138.063 391.562 141.246V207.515C391.635 207.725 391.634 207.954 391.558 208.163C391.482 208.372 391.336 208.548 391.146 208.662C385.63 212.805 379.609 216.23 373.228 218.852C377.857 245.523 377.754 267.68 382.166 302.939C388.901 302.29 389.736 301.629 391.212 302.079V302.076ZM251.462 354.561H316.15C318.959 340.165 323.995 327.805 336.669 320.548C345.64 315.657 350.6 314.607 385.515 305.096C367.006 307.359 348.651 305.178 330.818 309.155C316.126 312.432 312.149 316.285 296.7 318.017C294.025 318.313 291.319 318.161 288.694 317.567C286.381 316.904 284.329 315.54 282.823 313.664C281.316 311.787 280.427 309.49 280.279 307.088C280.294 303.265 283.172 300.477 285.668 297.924C292.91 290.456 298.739 288.805 308.069 283.051C309.439 282.206 311.717 281.222 312.046 279.454C312.116 278.641 311.954 277.825 311.581 277.1C311.207 276.374 310.636 275.769 309.934 275.353C307.466 273.917 308.275 274.312 284.111 268.308C279.275 267.348 274.518 266.026 269.881 264.352C263.047 266.787 255.927 268.332 248.698 268.947V300.093C249.938 301.231 269.335 321.022 276.181 327.63C276.981 328.344 277.575 329.259 277.901 330.28C278.227 331.301 278.274 332.391 278.036 333.436C277.798 334.482 277.284 335.444 276.549 336.224C275.813 337.003 274.881 337.571 273.852 337.869C272.527 338.116 271.175 338.188 269.829 338.086L250.632 338.125C251.173 343.825 251.369 348.9 251.462 354.561ZM272.129 335.572C273.052 335.585 273.942 335.232 274.607 334.591C275.271 333.95 275.656 333.073 275.677 332.151C275.713 330.147 274.301 329.275 272.313 327.283L247.078 302.006C234.046 302.006 155.158 302.13 148.746 302.133C177.547 330.763 176.409 330.443 181.418 333.14C183.944 334.419 186.689 335.211 189.508 335.473C191.572 335.66 257.244 335.521 272.129 335.572ZM180.299 377.147C180.749 379.959 181.491 385.553 181.72 388.749C182.384 393.93 181.962 399.195 180.48 404.204C185.615 409.683 192.1 413.715 199.285 415.897C222.471 423.66 240.455 413.151 245.587 397.188C246.154 394.836 246.544 392.445 246.752 390.034C248.194 379.109 248.943 368.103 248.994 357.084H183.422C183.099 357.07 182.794 356.931 182.57 356.697C182.347 356.463 182.223 356.152 182.224 355.828C182.222 355.504 182.346 355.192 182.569 354.958C182.793 354.723 183.098 354.584 183.422 354.57H248.976C248.891 349.081 248.602 343.605 248.104 338.14C225.331 338.176 192.535 338.204 190.081 338.041C186.43 337.802 182.872 336.785 179.647 335.056C175.657 332.521 172.052 329.425 168.941 325.865C170.435 330.066 171.715 334.339 172.776 338.668C174.587 345.937 180.251 376.845 180.299 377.147ZM44.5142 307.842C44.1943 331.26 62.4106 340.895 70.1624 349.748C80.5394 361.625 85.6691 390.659 94.4046 406.132C99.0938 413.421 106.212 418.815 114.498 421.358C123.478 424.013 132.923 424.708 142.195 423.395C148.278 422.689 154.272 421.358 160.082 419.421C168.29 416.434 177.991 408.477 179.21 398.902C180.353 388.169 177.061 372.756 174.898 361.504C172.279 347.926 170.049 334.169 164.491 321.393C160.915 317.809 147.816 304.725 144.841 301.78C144.343 301.023 144.476 301.889 144.476 295.848C137.169 291.075 130.963 284.801 126.272 277.441C126.257 282.366 124.901 287.194 122.349 291.406C121.468 292.851 120.308 294.105 118.937 295.096C117.565 296.086 116.01 296.793 114.362 297.175C110.912 298 107.286 297.663 104.046 296.218C100.807 294.772 98.1348 292.298 96.4443 289.179C96.1183 291.177 95.3727 293.084 94.2565 294.773C93.1404 296.462 91.6791 297.896 89.9689 298.98C86.9988 300.622 83.5556 301.197 80.213 300.609C76.8703 300.021 73.8301 298.306 71.5988 295.748C69.267 292.366 68.3607 288.201 69.0761 284.155C61.947 286.653 54.6142 288.527 47.1605 289.756C45.4949 295.643 44.6017 301.723 44.5112 307.842H44.5142ZM2.67139 229.162C2.91467 239.819 4.13885 250.431 6.32849 260.864C8.61847 270.182 14.3195 278.304 22.3058 283.624C36.6417 291.934 54.3903 286.34 70.1836 281.162C70.5082 281.08 70.852 281.126 71.1431 281.292C71.2874 281.375 71.4136 281.487 71.5141 281.62C71.6146 281.753 71.6875 281.905 71.7285 282.067C72.0302 283.196 70.3043 288.956 72.854 293.192C74.5044 295.585 77.0027 297.26 79.8424 297.878C82.3286 298.692 85.0265 298.567 87.4273 297.528C89.828 296.49 91.7657 294.608 92.8747 292.239C94.1455 289.079 94.7208 285.683 94.5614 282.281C94.571 282.04 94.6505 281.806 94.7902 281.608C94.9299 281.411 95.1238 281.258 95.3485 281.168C95.5732 281.078 95.8191 281.056 96.0564 281.103C96.2937 281.15 96.5123 281.265 96.6857 281.433C96.9212 281.654 97.0609 281.959 97.075 282.281C97.1797 284.142 97.6526 285.964 98.4663 287.64C99.28 289.317 100.418 290.815 101.815 292.049C103.635 293.383 105.741 294.272 107.965 294.647C120.216 297.447 124.881 284.297 123.574 272.016C123.584 271.745 123.679 271.483 123.848 271.27C124.016 271.057 124.248 270.903 124.51 270.83C124.772 270.761 125.05 270.777 125.303 270.876C125.556 270.975 125.771 271.153 125.916 271.382C128.737 277.35 132.705 282.704 137.593 287.139C141.685 291.062 146.688 295.667 152.72 295.812C153.962 295.878 155.201 295.626 156.318 295.078C157.435 294.53 158.393 293.706 159.101 292.682C160.318 290.526 160.781 288.025 160.417 285.576C160.07 282.888 159.394 280.254 158.401 277.731C155.357 269.656 150.556 258.531 145.149 247.813C142.46 242.472 139.886 236.326 134.147 233.658C129.006 231.57 123.472 230.623 117.928 230.885C96.6616 231.881 86.4053 234.159 65.8324 236.757C65.4992 236.756 65.1799 236.624 64.9446 236.388C64.7093 236.152 64.5771 235.832 64.5771 235.499C65.6391 222.928 65.437 210.282 63.9737 197.751C44.828 197.334 23.4404 196.257 4.41547 194.923C2.81683 206.262 2.23322 217.72 2.67139 229.162ZM65.066 195.289C65.3376 195.29 65.6016 195.379 65.8189 195.542C66.0362 195.705 66.1953 195.934 66.2729 196.194C67.8669 208.757 68.1702 221.45 67.1782 234.075C86.4415 231.582 93.5627 229.808 115.973 228.496C121.995 227.995 128.055 228.779 133.752 230.795C138.577 232.694 142.452 236.429 144.527 241.181C144.653 238.45 145.848 235.877 147.852 234.018C149.857 232.159 152.512 231.162 155.245 231.241H163.462C164.41 223.505 165.796 215.828 167.614 208.249C167.697 207.993 167.858 207.77 168.074 207.612C168.291 207.453 168.552 207.366 168.821 207.364C169.089 207.365 169.351 207.45 169.567 207.609C169.784 207.767 169.945 207.99 170.028 208.245C170.284 209.009 170.61 209.754 170.909 210.493C174.662 208.702 178.454 206.991 182.281 205.364C182.281 205.364 221.768 187.241 222.045 187.12C217.29 177.689 211.876 168.604 205.845 159.933C199.037 149.904 191.129 140.666 182.269 132.393C176.626 126.598 169.91 121.953 162.496 118.718C149.844 113.559 136.434 110.501 122.796 109.666C122.867 113.042 122.263 116.399 121.018 119.539C120.465 120.936 119.572 122.174 118.421 123.142C117.271 124.109 115.897 124.774 114.425 125.079C108.24 125.761 105.575 115.302 104.8 109.141C72.7604 109.705 43.3857 121.582 23.543 146.08C14.9282 157.203 8.18427 171.336 4.80774 192.446C25.5647 193.937 48.4097 194.951 65.066 195.289Z" fill="black"/>
<path d="M395.585 300.721C428.587 294.653 458.48 278.09 475.188 261.47C493.425 243.218 505.435 219.169 531.514 217.696C533.132 217.609 533.129 220.11 531.514 220.213C511.901 221.637 501.072 235.571 488.386 250.565C482.211 258.286 475.22 265.318 467.536 271.539C446.581 287.517 422.162 298.343 396.252 303.144C394.671 303.44 393.995 301.014 395.588 300.721H395.585Z" fill="black"/>
<path d="M451.912 70.2551C458.852 66.8544 465.735 69.3498 469.148 77.9314C470.521 80.7488 471.052 83.9023 470.678 87.0139C470.425 88.0772 469.961 89.079 469.314 89.9601C468.668 90.8412 467.851 91.5836 466.912 92.1436C465.334 93.289 463.511 94.0493 461.587 94.3634C459.662 94.6776 457.691 94.5369 455.832 93.9527C453.972 93.3685 452.274 92.3569 450.875 90.999C449.476 89.6412 448.415 87.9746 447.775 86.1328C446.774 83.2572 446.448 80.1855 446.828 77.162C447.044 75.6821 447.621 74.2782 448.508 73.0737C449.394 71.8693 450.564 70.9013 451.912 70.2551ZM449.652 83.4715C449.887 85.0677 450.506 86.583 451.456 87.887C452.406 89.191 453.659 90.2446 455.107 90.9571C456.554 91.6696 458.153 92.0197 459.766 91.9772C461.379 91.9347 462.957 91.501 464.365 90.7133C465.994 90.0412 467.303 88.7685 468.019 87.1588C468.585 84.2397 468.122 81.2148 466.71 78.5983C465.693 75.7347 463.638 73.3571 460.953 71.9358C458.93 71.116 456.678 71.0568 454.615 71.7691C452.552 72.4814 450.817 73.917 449.731 75.8102C448.976 78.3026 448.949 80.9609 449.652 83.4684V83.4715Z" fill="black"/>
<path d="M435.942 63.0919C433.764 58.5838 438.833 52.6696 445.625 53.7921L443.347 52.0541C441.395 50.5695 439.192 48.9823 439.705 46.2033C439.99 45.041 440.638 43.9997 441.555 43.2309C442.472 42.462 443.61 42.0054 444.805 41.9276C447.289 41.7143 449.78 42.2447 451.962 43.4514C453.41 44.2359 453.347 44.4713 453.169 44.0005C451.874 40.5667 452.695 36.3815 456.331 35.5125C460.015 34.9603 462.46 38.0501 463.41 41.6228C464.711 45.5594 465.795 49.5646 466.657 53.6201C467.203 55.4306 467.472 57.3135 467.444 59.2024C467.247 60.9231 466.437 62.5154 465.163 63.6887C463.889 64.862 462.235 65.538 460.504 65.5933C454.279 65.7472 448.03 65.8317 441.796 65.5933C439.603 65.5239 437.044 65.364 435.942 63.0919ZM460.501 63.0919C461.588 63.0487 462.625 62.6283 463.435 61.903C464.245 61.1778 464.777 60.193 464.94 59.1179C464.979 57.7148 464.789 56.3117 464.373 54.9689C463.489 50.1924 462.191 45.5018 460.495 40.9499C460.295 40.3315 459.97 39.7606 459.541 39.2723C459.112 38.784 458.587 38.3886 458 38.1105C457.748 38.0109 457.479 37.9632 457.209 37.9703C456.939 37.9775 456.672 38.0393 456.426 38.1521C456.181 38.2649 455.96 38.4263 455.778 38.6266C455.597 38.8268 455.457 39.0619 455.369 39.3175C454.916 40.8201 455.058 42.4405 455.758 43.8436C456.416 45.6541 457.146 47.4645 457.84 49.275C458.362 50.6298 456.247 51.4385 455.544 50.2436C452.526 45.1532 446.38 43.382 443.492 44.954C443.055 45.1836 442.695 45.5372 442.459 45.9704C442.222 46.4037 442.118 46.8973 442.161 47.3891C442.394 48.4663 443.67 49.1996 444.476 49.8031L451.914 55.4668C452.172 55.624 452.365 55.8686 452.458 56.1562C452.551 56.4439 452.538 56.7553 452.42 57.0339C452.303 57.3124 452.089 57.5396 451.819 57.674C451.548 57.8084 451.238 57.8411 450.945 57.7661C447.945 56.2769 444.515 55.8974 441.262 56.6949C440.061 57.1777 439.053 58.0497 438.402 59.1692C438.093 59.4781 437.881 59.8706 437.792 60.2984C437.703 60.7262 437.741 61.1706 437.901 61.5771C438.061 61.9835 438.337 62.3343 438.694 62.5863C439.051 62.8382 439.474 62.9804 439.91 62.9953C446.765 63.4649 453.643 63.4931 460.501 63.0798V63.0919Z" fill="black"/>
<path d="M498.028 465.003C508.869 462.293 519.197 457.836 528.607 451.807C534.906 447.8 540.095 442.271 543.694 435.73C549.645 425.17 554.609 414.083 558.525 402.611C558.603 402.411 558.731 402.233 558.896 402.096C559.062 401.959 559.26 401.867 559.472 401.827C559.683 401.788 559.901 401.803 560.105 401.872C560.309 401.94 560.492 402.06 560.637 402.219C560.83 402.434 560.943 402.709 560.957 402.997C560.957 416.011 562.574 429.777 558.066 442.281C555.665 448.799 551.48 454.51 545.989 458.763C540.498 463.016 533.921 465.639 527.01 466.333C517.539 467.83 507.924 468.216 498.363 467.483C497.02 467.368 496.568 465.353 498.028 465.003ZM523.03 464.372C530.188 463.934 537.112 461.66 543.136 457.77C548.474 454.153 552.627 449.043 555.076 443.078C559.225 432.061 558.817 422.964 558.534 409.802C554.451 420.363 548.437 434.529 541.084 444.016C532.635 454.366 518.429 461.101 505.876 465.28C511.609 465.383 517.343 465.078 523.03 464.372Z" fill="black"/>
<path d="M283.428 366.574C283.743 366.588 284.042 366.72 284.265 366.944C284.488 367.167 284.62 367.465 284.635 367.781V478.75C300.525 482.217 335.056 487.501 351.112 489.854C351.432 489.945 351.704 490.158 351.868 490.448C352.033 490.738 352.076 491.081 351.99 491.402C351.894 491.719 351.68 491.987 351.391 492.15C351.103 492.314 350.764 492.36 350.442 492.28C339.211 490.642 298.844 484.459 283.352 481.046C266.05 483.696 233.939 489.761 216.667 493.116C215.086 493.418 214.41 491.004 216 490.702C221.54 489.625 276.753 479.538 282.109 478.714V367.79C282.12 367.539 282.204 367.297 282.352 367.094C282.499 366.891 282.704 366.736 282.939 366.649C283.095 366.591 283.261 366.566 283.428 366.574Z" fill="black"/>
<path d="M62.7779 6.50577L78.375 35.2831C79.1475 36.7073 76.978 37.9776 76.2055 36.5534L60.6054 7.77008C59.8329 6.35188 62.0055 5.07852 62.7779 6.50275V6.50577Z" fill="black"/>
<path d="M67.2741 42.6396L43.7984 25.7631C42.4949 24.8277 43.7501 22.6461 45.0657 23.5905L68.5414 40.4701C69.8419 41.4055 68.5897 43.5901 67.2741 42.6396Z" fill="black"/>
<path d="M524.301 57.2319C521.444 45.7657 512.379 29.9995 501.972 24.0552C500.557 23.2707 501.839 21.0709 503.242 21.8856C508.229 24.8902 512.496 28.9515 515.744 33.7834C520.746 40.6534 524.465 48.3715 526.721 56.5651C527.08 58.1402 524.657 58.81 524.301 57.2319Z" fill="black"/>
<path d="M514.951 13.6268C525.849 25.6666 534.424 39.62 540.243 54.7816C540.762 56.3205 538.336 56.9783 537.829 55.4515C532.127 40.7099 523.774 27.1369 513.182 15.4041C512.036 14.2514 513.813 12.4711 514.951 13.6268Z" fill="black"/>
<path d="M481.145 301.702C493.81 295.613 504.615 286.246 512.438 274.572C513.344 273.232 515.513 274.491 514.611 275.839C506.571 287.888 495.455 297.567 482.415 303.874C480.964 304.574 479.687 302.405 481.145 301.702Z" fill="black"/>
<path d="M485.769 310.259C498.471 304.089 509.109 294.366 516.393 282.269C517.253 280.902 519.429 282.164 518.563 283.54C511.025 295.987 500.083 306.017 487.027 312.444C485.579 313.107 484.312 310.935 485.769 310.259Z" fill="black"/>
<path d="M117.141 137.242C117.419 135.948 119.187 136.156 119.555 137.242C120.687 140.489 137.494 188.608 137.962 190.047C138.372 191.351 137.056 192.594 136.368 193.608C124.745 210.626 125.463 209.661 125.18 209.86C125.019 210.042 124.804 210.168 124.567 210.219C124.33 210.271 124.083 210.245 123.861 210.146C123.715 210.079 123.584 209.981 123.478 209.86C119.818 205.605 108.508 193.264 106.665 191.221C106.194 190.696 105.79 190.28 105.934 189.477C105.925 189.432 117.132 137.284 117.141 137.245V137.242ZM124.226 206.945C127.545 202.078 135.035 191.115 135.454 190.5L118.641 142.221L108.493 189.495L124.226 206.945Z" fill="black"/>
<path d="M454.658 82.9072C454.938 82.7533 455.266 82.7126 455.575 82.7934C455.883 82.8743 456.149 83.0705 456.318 83.3417C457.003 84.4944 458.05 85.5535 458.852 84.4793C459.17 83.9662 459.361 83.385 459.411 82.7835C459.676 81.1903 462.096 81.8782 461.825 83.4473C461.779 84.3971 461.416 85.3042 460.794 86.0227C460.171 86.7412 459.325 87.2296 458.391 87.4092C457.491 87.3967 456.614 87.1285 455.861 86.6359C455.108 86.1432 454.511 85.4465 454.139 84.6271C454.059 84.4804 454.009 84.3192 453.992 84.1529C453.975 83.9866 453.991 83.8186 454.039 83.6586C454.087 83.4985 454.167 83.3497 454.273 83.2207C454.379 83.0917 454.51 82.9851 454.658 82.9072Z" fill="black"/>
<path d="M302.573 469.797C317.234 463.065 333.026 459.139 349.133 458.222C366.468 457.718 383.639 461.705 398.978 469.797C399.208 469.942 399.387 470.157 399.487 470.41C399.587 470.664 399.603 470.943 399.533 471.206C399.462 471.469 399.307 471.702 399.093 471.871C398.879 472.039 398.616 472.134 398.344 472.142C310.051 473.279 303.548 472.142 303.192 472.142C302.045 472.142 301.382 470.322 302.573 469.797ZM392.925 469.628C382.493 464.87 371.328 461.919 359.908 460.902C342.644 460.031 325.402 463.007 309.429 469.616L392.925 469.628Z" fill="black"/>
<path d="M201.406 450.992H106.254C105.092 450.992 104.444 449.182 105.617 448.654C124.866 439.876 149.068 434.656 169.714 438.035C178.24 434.744 187.105 432.407 196.147 431.068C213.496 428.151 231.316 430.162 247.579 436.874C251.052 438.211 254.447 439.743 257.748 441.463C257.977 441.608 258.155 441.823 258.254 442.076C258.353 442.329 258.369 442.607 258.3 442.869C258.229 443.133 258.074 443.366 257.859 443.533C257.646 443.702 257.383 443.798 257.111 443.805H191.156C194.876 445.193 198.503 446.81 202.018 448.654C202.247 448.797 202.423 449.01 202.522 449.26C202.621 449.511 202.638 449.787 202.57 450.048C202.501 450.308 202.352 450.541 202.142 450.71C201.933 450.88 201.675 450.979 201.406 450.992ZM251.685 441.288C237.983 434.961 222.994 431.916 207.908 432.396C196.548 433.06 185.326 435.25 174.551 438.917C177.666 439.567 180.75 440.358 183.793 441.288H251.685ZM152.191 439.586C138.556 440.355 125.139 443.358 112.476 448.476H195.968C182.27 442.135 167.278 439.092 152.191 439.589V439.586Z" fill="black"/>
<path d="M29.2612 312.088C29.2651 311.755 29.399 311.438 29.6341 311.202C29.8692 310.967 30.187 310.834 30.5195 310.83C30.8512 310.835 31.1678 310.969 31.4021 311.204C31.6364 311.439 31.7701 311.756 31.7747 312.088C33.6401 328.247 41.3526 343.165 53.4581 354.03C62.0849 361.785 64.8308 361.272 64.9424 362.817C65.1293 362.957 65.2692 363.151 65.3436 363.372C65.418 363.594 65.4233 363.833 65.3588 364.057C59.1242 389.402 53.6121 414.918 48.8293 440.576C48.5275 442.167 46.1136 441.482 46.4154 439.91C51.1674 414.429 56.6372 389.088 62.8181 363.915C53.5783 358.483 45.7337 350.969 39.9081 341.972C34.0826 332.974 30.437 322.742 29.2612 312.088Z" fill="black"/>
<path d="M551.097 362.295C550.858 362.524 550.539 362.653 550.207 362.653C549.875 362.653 549.556 362.524 549.317 362.295C549.082 362.059 548.949 361.739 548.949 361.406C548.949 361.073 549.082 360.753 549.317 360.517C557.472 353.831 563.677 345.074 567.283 335.164C570.889 325.255 571.762 314.557 569.811 304.194C569.491 302.613 571.924 301.94 572.225 303.524C574.302 314.315 573.437 325.466 569.719 335.806C566.002 346.147 559.569 355.297 551.097 362.295Z" fill="black"/>
<path d="M148.775 322.754C149.056 322.604 149.383 322.565 149.691 322.646C149.999 322.727 150.265 322.922 150.435 323.192L155.803 332.44C155.887 332.582 155.942 332.74 155.965 332.904C155.988 333.067 155.978 333.234 155.936 333.394C155.894 333.554 155.821 333.704 155.721 333.835C155.621 333.967 155.496 334.077 155.353 334.16C155.065 334.328 154.722 334.374 154.399 334.29C154.076 334.206 153.8 333.998 153.63 333.71L148.265 324.459C148.108 324.165 148.072 323.82 148.166 323.5C148.265 323.182 148.483 322.915 148.775 322.754Z" fill="black"/>
<path d="M332.115 339.465C333.686 336.361 335.256 333.256 336.826 330.15C337.556 328.705 339.725 329.975 338.998 331.418C337.426 334.521 335.856 337.626 334.288 340.732C333.558 342.178 331.388 340.907 332.115 339.465Z" fill="black"/>
<path d="M503.059 370.855C503.38 370.77 503.722 370.814 504.011 370.978C504.3 371.142 504.513 371.413 504.604 371.733C504.685 372.054 504.639 372.394 504.476 372.682C504.314 372.971 504.046 373.185 503.729 373.281C500.014 374.819 496.663 377.12 493.892 380.034C492.77 381.205 490.996 379.431 492.112 378.26C495.2 375.05 498.93 372.527 503.059 370.855Z" fill="black"/>
<path d="M409.481 375.563C409.311 375.849 409.035 376.057 408.713 376.141C408.392 376.226 408.049 376.181 407.761 376.015C407.48 375.841 407.276 375.565 407.192 375.245C407.108 374.926 407.149 374.586 407.308 374.295L411.403 364.679C411.573 364.392 411.849 364.183 412.171 364.099C412.494 364.014 412.837 364.06 413.126 364.226C413.407 364.401 413.61 364.676 413.693 364.997C413.777 365.317 413.735 365.656 413.575 365.946C412.202 369.151 410.835 372.355 409.481 375.563Z" fill="black"/>
<path d="M248.064 313.077H174.137C173.814 313.063 173.508 312.925 173.285 312.691C173.062 312.457 172.938 312.146 172.939 311.822C172.937 311.498 173.061 311.186 173.284 310.952C173.508 310.717 173.813 310.578 174.137 310.564H248.064C248.388 310.578 248.693 310.717 248.917 310.952C249.14 311.186 249.264 311.498 249.262 311.822C249.26 312.145 249.135 312.454 248.912 312.688C248.69 312.921 248.386 313.061 248.064 313.077Z" fill="black"/>
<path d="M184.302 323.452C184.314 323.135 184.445 322.835 184.669 322.611C184.892 322.388 185.193 322.257 185.509 322.245H258.531C258.853 322.262 259.157 322.402 259.379 322.636C259.602 322.87 259.727 323.18 259.729 323.503C259.727 323.825 259.602 324.135 259.379 324.368C259.156 324.602 258.853 324.741 258.531 324.758H185.509C185.176 324.742 184.863 324.597 184.638 324.352C184.412 324.108 184.291 323.784 184.302 323.452Z" fill="black"/>
<path d="M299.834 141.104C294.601 139.34 289.899 136.282 286.164 132.215C282.429 128.148 279.781 123.203 278.467 117.84C278.099 116.262 280.522 115.592 280.881 117.167C282.073 122.116 284.495 126.683 287.924 130.444C291.353 134.205 295.677 137.039 300.495 138.681C302.031 139.185 301.376 141.611 299.834 141.104Z" fill="black"/>
<path d="M335.855 245.403L325.557 243.894C325.238 243.802 324.968 243.589 324.804 243.3C324.64 243.011 324.595 242.67 324.679 242.349C324.774 242.032 324.987 241.764 325.275 241.6C325.563 241.436 325.903 241.39 326.224 241.471L336.525 242.98C336.846 243.069 337.118 243.282 337.283 243.571C337.447 243.861 337.491 244.203 337.403 244.525C337.307 244.842 337.093 245.109 336.805 245.273C336.517 245.436 336.177 245.483 335.855 245.403Z" fill="black"/>
<path d="M335.31 277.867C335.55 277.88 335.782 277.961 335.977 278.101C336.173 278.241 336.324 278.434 336.413 278.658C336.503 278.881 336.527 279.125 336.482 279.361C336.437 279.598 336.326 279.816 336.161 279.991C335.938 280.227 335.633 280.366 335.31 280.381H324.993C324.67 280.367 324.364 280.229 324.141 279.995C323.917 279.761 323.793 279.449 323.795 279.125C323.796 278.802 323.921 278.492 324.144 278.258C324.367 278.024 324.671 277.884 324.993 277.867H335.31Z" fill="black"/>
<path d="M450.367 265.737C448.937 266.494 447.652 264.325 449.1 263.567C452.798 261.626 456.034 258.909 458.584 255.601C458.76 255.321 459.036 255.118 459.356 255.034C459.676 254.951 460.017 254.993 460.307 255.152C460.594 255.32 460.803 255.596 460.888 255.918C460.973 256.241 460.927 256.583 460.759 256.872C457.978 260.545 454.431 263.57 450.364 265.737H450.367Z" fill="black"/>
<path d="M120.737 253.052C121.959 256.431 123.178 259.817 124.397 263.202C124.949 264.729 122.52 265.384 121.983 263.869L118.323 253.722C117.765 252.195 120.191 251.537 120.737 253.052Z" fill="black"/>
<path d="M91.8684 263.259C92.5209 266.675 93.6515 269.981 95.2268 273.081C95.963 274.518 93.7935 275.797 93.0573 274.349C91.3675 271.063 90.1484 267.553 89.4363 263.929C89.1376 262.354 91.5606 261.663 91.8684 263.259Z" fill="black"/>
<path d="M63.2697 237.108C56.2391 237.723 49.2597 238.822 42.38 240.391C40.8048 240.75 40.132 238.327 41.7131 237.977C48.8127 236.359 56.0153 235.232 63.2697 234.603C64.887 234.452 64.872 236.966 63.2697 237.108Z" fill="black"/>
<path d="M23.0668 280.29C20.4319 278.533 18.0423 276.434 15.9607 274.047C14.9046 272.84 16.6758 271.03 17.738 272.27C19.6662 274.506 21.8857 276.472 24.3371 278.118C25.6618 279.014 24.4186 281.195 23.0668 280.29Z" fill="black"/>
<path d="M231.626 223.457L232.019 215.08C232.094 213.472 234.608 213.463 234.532 215.08L234.14 223.457C234.065 225.068 231.551 225.077 231.626 223.457Z" fill="black"/>
<path d="M170.568 183.644C170.577 183.313 170.712 182.998 170.946 182.764C171.181 182.529 171.496 182.394 171.827 182.386C172.075 182.387 172.318 182.461 172.524 182.598C172.731 182.736 172.892 182.932 172.988 183.161C173.051 183.314 173.083 183.478 173.082 183.644C172.288 190.569 171.338 197.473 170.231 204.356C170.14 204.676 169.926 204.948 169.637 205.112C169.347 205.276 169.004 205.32 168.683 205.234C168.365 205.139 168.097 204.925 167.934 204.637C167.77 204.35 167.724 204.01 167.804 203.689C168.876 197.026 169.796 190.346 170.568 183.644Z" fill="black"/>
</svg>
