<svg width="41" height="41" viewBox="0 0 41 41" fill="none" xmlns="http://www.w3.org/2000/svg">
<rect x="2.06863" y="1.70901" width="36.8627" height="37.647" rx="18.4314" fill="white"/>
<rect x="2.06863" y="1.70901" width="36.8627" height="37.647" rx="18.4314" stroke="black" stroke-width="2.35295"/>
<path d="M24.2034 15.4838C25.1557 14.536 25.7513 13.2294 25.7513 11.7981C25.7513 10.3561 25.1557 9.04932 24.2029 8.1013C23.2606 7.16368 21.9477 6.57171 20.4999 6.57171C19.0522 6.57171 17.7393 7.16368 16.797 8.10129C15.8442 9.04932 15.2486 10.3561 15.2486 11.7981C15.2486 13.2294 15.8442 14.536 16.7965 15.4838C17.7401 16.4335 19.0536 17.0138 20.4999 17.0138C21.9463 17.0138 23.2599 16.4335 24.2034 15.4838ZM24.2034 15.4838C24.2032 15.4839 24.2031 15.4841 24.2029 15.4843L24.0369 15.3175L24.2039 15.4833C24.2037 15.4834 24.2036 15.4836 24.2034 15.4838ZM8.46903 24.6772L8.47003 24.6782C9.42222 25.6145 10.7345 26.2068 12.172 26.2068H15.2486V29.2669C15.2486 30.7082 15.8437 32.0151 16.797 32.953C17.7396 33.9016 19.0525 34.4933 20.4999 34.4933C21.9474 34.4933 23.2604 33.9016 24.203 32.953C25.1562 32.0151 25.7513 30.7081 25.7513 29.2669V26.2068H28.8279C30.2654 26.2068 31.5777 25.6145 32.5299 24.6782L32.5309 24.6772C33.4846 23.7283 34.0686 22.4212 34.0686 20.9804C34.0686 19.5501 33.4844 18.243 32.5309 17.2943C31.5774 16.3455 30.2643 15.7647 28.8279 15.7647C27.3811 15.7647 26.068 16.3453 25.1143 17.2943L25.1133 17.2953C24.1723 18.2427 23.5766 19.5489 23.5766 20.9804V24.0405H17.4234V20.9804C17.4234 19.5489 16.8276 18.2427 15.8866 17.2952L15.8856 17.2943C14.932 16.3453 13.6188 15.7647 12.172 15.7647C10.7356 15.7647 9.42252 16.3455 8.46904 17.2943C7.51553 18.243 6.93133 19.5501 6.93133 20.9804C6.93133 22.4212 7.51533 23.7283 8.46903 24.6772ZM22.6705 13.9562L22.8304 14.1168L22.6705 13.9562C22.1119 14.5121 21.3453 14.8582 20.4999 14.8582C19.6546 14.8582 18.888 14.5121 18.3294 13.9562L18.1634 14.123L18.3294 13.9562C17.7707 13.4003 17.4234 12.6381 17.4234 11.7981C17.4234 10.9573 17.7713 10.1846 18.3294 9.62932C18.8866 9.07484 19.6527 8.738 20.4999 8.738C21.3472 8.738 22.1133 9.07485 22.6705 9.62932C23.2286 10.1846 23.5766 10.9573 23.5766 11.7981C23.5766 12.6381 23.2292 13.4003 22.6705 13.9562ZM10.0014 23.1492C9.44334 22.5939 9.09537 21.8213 9.09537 20.9804C9.09537 20.1404 9.44274 19.3782 10.0014 18.8223L9.84727 18.6674L10.0014 18.8223C10.5601 18.2664 11.3266 17.9203 12.172 17.9203C13.0181 17.9203 13.7952 18.267 14.3533 18.8223C14.9105 19.3767 15.2486 20.1385 15.2486 20.9804V24.0405H12.172C11.3247 24.0405 10.5587 23.7037 10.0014 23.1492ZM28.8279 24.0405H25.7513V20.9804C25.7513 20.1388 26.0891 19.3774 26.6459 18.823C27.2162 18.2659 27.9833 17.9203 28.8279 17.9203C29.6733 17.9203 30.4399 18.2664 30.9985 18.8223L31.1534 18.6666L30.9985 18.8223C31.5572 19.3782 31.9045 20.1404 31.9045 20.9804C31.9045 21.8213 31.5566 22.5939 30.9985 23.1492C30.4413 23.7037 29.6752 24.0405 28.8279 24.0405ZM17.4234 29.2669V26.2068H23.5766V29.2669C23.5766 30.1069 23.2292 30.8692 22.6705 31.425C22.1119 31.9809 21.3453 32.327 20.4999 32.327C19.6546 32.327 18.888 31.9809 18.3294 31.425C17.7707 30.8692 17.4234 30.1069 17.4234 29.2669Z" fill="black" stroke="black" stroke-width="0.470591"/>
</svg>
