<svg width="379" height="439" viewBox="0 0 379 439" fill="none" xmlns="http://www.w3.org/2000/svg">
<g clip-path="url(#clip0_1511_14540)">
<path d="M437.884 145.039C437.295 143.481 436.551 141.985 435.664 140.574C423.899 121.361 410.914 99.0262 381.23 55.1846C381.142 55.0661 381.027 54.9699 380.895 54.9036C380.762 54.8373 380.616 54.8028 380.468 54.8028C380.321 54.8028 380.175 54.8373 380.042 54.9036C379.91 54.9699 379.795 55.0661 379.707 55.1846C362.965 80.2202 325.717 141.688 325.37 142.392C324.132 144.952 323.5 147.763 323.523 150.606C323.547 153.45 324.225 156.25 325.506 158.789C326.787 161.328 328.635 163.537 330.908 165.246C333.181 166.955 335.817 168.117 338.612 168.642C343.338 169.492 346.609 168.298 351.861 166.948C358.378 156.292 356.341 145.419 356.663 140.014C356.644 138.426 356.96 136.851 357.59 135.394C358.22 133.936 359.149 132.627 360.318 131.551C361.293 130.634 362.501 130.004 363.811 129.731C365.12 129.457 366.48 129.551 367.74 130.001C372.251 132.027 371.459 138.434 371.856 142.548C372.458 148.761 374.645 155.875 380.575 157.991C382.946 158.837 397.967 162.636 401.62 163.472C401.848 163.537 402.041 163.688 402.158 163.894C402.275 164.1 402.306 164.343 402.244 164.572C402.203 164.72 402.047 165.217 402.015 165.32C406.522 166.477 411.033 167.599 415.535 168.793C418.768 169.677 422.182 169.665 425.409 168.756C428.636 167.848 431.554 166.078 433.852 163.636C436.149 161.195 437.738 158.174 438.449 154.897C439.159 151.621 438.964 148.213 437.884 145.039ZM378.815 127.004V104.744C378.815 104.513 378.907 104.292 379.07 104.129C379.233 103.966 379.454 103.874 379.685 103.874C379.916 103.874 380.137 103.966 380.3 104.129C380.463 104.292 380.555 104.513 380.555 104.744C380.555 104.744 380.743 120.503 380.643 127.001C380.64 127.119 380.614 127.234 380.566 127.342C380.518 127.449 380.449 127.545 380.363 127.626C380.277 127.706 380.176 127.768 380.066 127.809C379.956 127.85 379.839 127.869 379.721 127.864C379.49 127.857 379.27 127.766 379.103 127.606C378.935 127.447 378.833 127.231 378.815 127.001V127.004Z" fill="#EE73DB"/>
<path d="M401.62 163.47C398.069 162.658 382.88 158.81 380.574 157.988C378.643 157.131 376.945 155.824 375.622 154.176C374.3 152.529 373.391 150.588 372.973 148.517C372.04 144.88 371.572 141.139 371.578 137.384C371.391 134.534 370.604 131.29 367.74 129.999C366.48 129.548 365.12 129.455 363.811 129.728C362.501 130.002 361.292 130.632 360.318 131.549C355.049 135.87 357.045 143.735 356.677 150.411C356.102 160.859 351.802 170.64 342.655 176.158C331.529 182.87 322.606 181.639 311.751 174.976C302.185 169.105 296.735 163.908 284.848 154.637C286.685 156.737 288.441 158.906 290.113 161.14C305.553 181.124 314.798 205.195 316.706 230.377C317.361 236.719 316.697 243.128 314.756 249.2C332.547 249.378 349.776 242.976 363.133 231.223C372.063 223.732 379.775 214.899 385.995 205.042C392.088 194.84 399.373 174.798 402.251 164.569C402.313 164.339 402.282 164.095 402.163 163.889C402.045 163.683 401.85 163.532 401.62 163.47ZM330.552 237.848C334.635 236.438 338.548 234.576 342.217 232.296C343.192 231.689 344.091 233.234 343.116 233.836C339.313 236.192 335.258 238.115 331.027 239.568C329.938 239.944 329.475 238.221 330.552 237.848Z" fill="#FFD2D2"/>
<path d="M358.469 344.288C355.648 333.29 349.552 323.408 340.988 315.953C332.424 308.498 321.798 303.82 310.516 302.54C312.492 296.185 312.624 289.399 310.897 282.972C309.17 276.544 305.655 270.739 300.759 266.23C295.864 261.721 289.79 258.693 283.243 257.499C276.695 256.305 269.943 256.993 263.771 259.483C264.149 251.248 259.033 242.486 250.927 240.063C246.244 238.996 241.366 239.136 236.752 240.47C233.092 241.151 229.656 242.72 226.745 245.04C221.172 249.831 216.948 255.996 214.492 262.922C218.212 267.215 216.762 271.653 218.879 278.779C219.588 281.082 221.04 283.085 223.008 284.475C227.075 287.073 231.941 288.117 236.715 287.417C242.828 286.813 248.712 284.621 254.863 284.339C258.695 284.163 263.847 285.314 265.443 289.282C267.929 295.448 258.912 297.39 254.841 298.521C252.215 299.014 249.691 299.945 247.374 301.275C245.628 302.306 245.424 304.736 249.457 305.419C251.631 305.794 254.676 305.757 257.929 306.001C259.718 306.135 259.019 306.206 259.93 305.838C287.206 294.836 316.643 310.798 323.543 339.394C327.82 357.13 324.104 374.591 315.256 390.138C326.821 390.382 341.279 388.371 350.002 380.616C359.558 372.124 361.511 356.833 358.469 344.288ZM251.612 273.863C248.931 286.33 232.882 283.188 231.5 274.758C231.027 271.748 231.651 268.669 233.259 266.081C234.506 264.244 236.305 262.851 238.397 262.106C240.488 261.361 242.763 261.302 244.89 261.938C250.547 263.076 252.74 268.57 251.612 273.863Z" fill="black"/>
<path d="M323.53 339.406C316.606 310.691 286.89 294.561 259.284 306.133C260.417 306.238 261.54 306.442 262.637 306.745C264.454 307.131 266.042 308.222 267.054 309.78C268.065 311.337 268.417 313.232 268.031 315.048C267.807 316.144 267.32 317.168 266.612 318.034C265.904 318.9 264.997 319.581 263.968 320.018C259.825 321.724 252.125 320.698 247.555 322.406C246.717 322.718 246.273 323.279 246.371 323.625C247.033 324.165 247.848 324.484 248.701 324.537C253.724 325.497 259.396 325.092 264.156 327.486C265.406 328.079 266.44 329.047 267.115 330.256C267.79 331.464 268.071 332.852 267.921 334.228C267.77 335.604 267.195 336.899 266.274 337.932C265.354 338.966 264.135 339.687 262.786 339.996C257.309 341.371 251.638 339.384 245.528 339.682C237.295 340.082 232.41 345.86 227.248 349.991C208.134 364.658 185.963 374.832 162.38 379.76C162.38 521.395 162.709 408.649 162.38 454.76C162.378 454.996 162.283 455.221 162.116 455.388C161.949 455.554 161.724 455.649 161.488 455.652C224.521 455.737 306.903 431.92 323.103 371.108C325.882 360.741 326.029 349.844 323.53 339.406Z" fill="#FDFF7D"/>
<path d="M102.667 309.912C99.7426 304.482 93.4764 293.139 93.3277 292.852C94.9095 290 96.4231 287.109 98.0536 284.282C100.667 279.873 102.972 275.288 104.951 270.56C106.493 266.871 106.933 262.813 106.218 258.879C105.856 257.176 105.151 255.566 104.145 254.146C103.14 252.725 101.855 251.525 100.369 250.619C95.6177 248.025 90.2397 246.801 84.8339 247.082H13.1027C12.8669 247.085 12.6415 247.18 12.4748 247.346C12.308 247.513 12.2132 247.738 12.2107 247.974V337.726C12.2132 337.962 12.308 338.188 12.4748 338.354C12.6415 338.521 12.8669 338.616 13.1027 338.619H39.2375C34.7465 334.13 32.0095 328.183 31.5211 321.853C31.4765 320.913 31.6825 319.978 32.1181 319.144C32.5537 318.31 33.2031 317.607 33.9998 317.107C35.0114 316.603 36.1448 316.395 37.2695 316.507C38.3941 316.619 39.4642 317.047 40.3562 317.741C43.9463 320.546 43.8293 322.574 48.1555 328.141C51.3886 332.308 55.3466 335.858 59.8397 338.621H66.5934C69.2062 336.271 70.8247 333.013 71.1194 329.51C71.6088 327.786 72.4901 326.198 73.6946 324.87C74.8992 323.543 76.3942 322.512 78.0631 321.857C82.1797 320.639 85.3457 324.709 84.9923 328.774C85.0042 332.091 84.6039 335.396 83.8005 338.614C84.1929 338.614 84.1636 338.692 84.4439 338.419C88.7383 333.981 94.1483 330.782 100.106 329.157C100.921 328.859 101.802 328.787 102.656 328.949C103.509 329.111 104.302 329.502 104.951 330.078C108.439 323.936 106.004 316.113 102.667 309.912ZM66.5373 311.16H43.7733C43.5367 311.16 43.3098 311.066 43.1425 310.899C42.9752 310.732 42.8812 310.505 42.8812 310.268C42.8812 310.032 42.9752 309.805 43.1425 309.637C43.3098 309.47 43.5367 309.376 43.7733 309.376H66.5349C66.7715 309.376 66.9984 309.47 67.1657 309.637C67.3329 309.805 67.4269 310.032 67.4269 310.268C67.4269 310.505 67.3329 310.732 67.1657 310.899C66.9984 311.066 66.7715 311.16 66.5349 311.16H66.5373ZM66.5373 275.269H43.7733C43.5367 275.269 43.3098 275.175 43.1425 275.008C42.9752 274.841 42.8812 274.614 42.8812 274.377C42.8812 274.14 42.9752 273.914 43.1425 273.746C43.3098 273.579 43.5367 273.485 43.7733 273.485H66.5349C66.7715 273.485 66.9984 273.579 67.1657 273.746C67.3329 273.914 67.4269 274.14 67.4269 274.377C67.4269 274.614 67.3329 274.841 67.1657 275.008C66.9984 275.175 66.7715 275.269 66.5349 275.269H66.5373Z" fill="#CCEAFF"/>
<path d="M36.5019 232.915C37.0454 233.926 38.5857 233.027 38.0422 232.013L27.4255 212.234C26.882 211.223 25.3416 212.122 25.8851 213.136L36.5019 232.915Z" fill="black"/>
<path d="M47.5429 232.464V208.518C47.5518 208.4 47.5363 208.282 47.4975 208.171C47.4587 208.06 47.3973 207.958 47.3172 207.871C47.2371 207.785 47.1401 207.716 47.0321 207.669C46.9242 207.622 46.8077 207.598 46.6899 207.598C46.5721 207.598 46.4556 207.622 46.3476 207.669C46.2397 207.716 46.1426 207.785 46.0626 207.871C45.9825 207.958 45.9211 208.06 45.8823 208.171C45.8434 208.282 45.828 208.4 45.8368 208.518C45.693 215.517 45.6809 231.482 45.693 232.464C45.6965 232.581 45.7232 232.697 45.7716 232.804C45.8201 232.911 45.8892 233.007 45.9752 233.087C46.0611 233.167 46.162 233.229 46.2722 233.27C46.3823 233.311 46.4994 233.329 46.6168 233.324C46.8493 233.318 47.0715 233.227 47.2419 233.068C47.4123 232.91 47.5193 232.695 47.5429 232.464Z" fill="black"/>
<path d="M56.5408 232.758L67.3184 213.309C67.8741 212.305 66.3435 211.403 65.778 212.41L55.0004 231.857C54.4374 232.854 55.9778 233.753 56.5408 232.758Z" fill="black"/>
<path d="M250.841 266.393C248.496 261.518 241.774 260.675 237.397 262.474C232.966 264.294 230.716 269.976 231.501 274.76C232.591 281.394 243.015 284.889 248.511 279.652C250.182 277.929 251.297 275.744 251.712 273.38C252.127 271.016 251.824 268.582 250.841 266.393Z" fill="#FC9070"/>
<path d="M264.155 327.498C258.598 324.702 251.988 325.694 247.026 324.086C246.768 323.942 246.522 323.874 246.37 323.627C245.581 320.742 259.588 321.824 263.968 320.008C265.327 319.415 266.463 318.406 267.212 317.126C267.961 315.847 268.285 314.362 268.138 312.887C267.99 311.411 267.377 310.02 266.389 308.915C265.4 307.809 264.087 307.046 262.637 306.735C258.588 306.053 254.498 305.646 250.394 305.516C245.181 304.88 245.554 302.326 247.365 301.261C249.682 299.929 252.206 298.998 254.833 298.506C258.903 297.376 267.921 295.433 265.435 289.267C263.838 285.306 258.686 284.149 254.855 284.324C248.703 284.607 242.819 286.8 236.707 287.402C231.933 288.102 227.066 287.058 223 284.46C221.032 283.07 219.58 281.067 218.871 278.765C218.131 276.137 217.648 273.443 217.428 270.722C217.247 268.24 216.471 265.838 215.166 263.719C213.942 262.059 212.313 260.74 210.433 259.89C209.589 259.49 208.675 259.26 207.742 259.215C206.809 259.17 205.876 259.31 204.998 259.627C204.006 260.12 203.177 260.888 202.608 261.838C202.039 262.788 201.754 263.882 201.788 264.989C201.947 267.172 202.37 269.327 203.046 271.409C204.976 279.537 200.272 287.629 194.206 292.674C178.9 305.401 160.484 300.03 137.734 321.721C131.458 327.707 125.221 334.997 123.189 343.63C120.164 356.487 124.317 372.368 136.893 378.97C139.853 380.493 143.065 381.462 146.372 381.832C137.957 382.227 129.557 380.77 121.766 377.564C113.976 374.359 106.983 369.482 101.283 363.279C96.4836 357.832 93.4687 350.956 96.5957 344.466C98.5967 341.054 100.327 340.483 103.691 337.398C104.557 336.719 105.285 335.88 105.835 334.926C106.191 334.12 106.296 333.224 106.136 332.357C105.975 331.49 105.557 330.691 104.936 330.065C104.314 329.439 103.519 329.015 102.653 328.848C101.787 328.68 100.891 328.778 100.081 329.128C97.791 329.753 95.5718 330.613 93.4589 331.695C90.0494 333.507 86.9382 335.831 84.2339 338.587C83.3735 339.479 83.5222 339.601 83.7757 338.587C84.5777 335.369 84.978 332.064 84.9675 328.748C85.3184 324.702 82.1719 320.62 78.0383 321.831C76.3694 322.485 74.8744 323.516 73.6698 324.844C72.4653 326.172 71.584 327.76 71.0946 329.484C70.8395 332.13 69.881 334.66 68.3185 336.81C67.5729 337.865 66.5715 338.713 65.4084 339.275C64.4858 339.594 63.5024 339.699 62.533 339.582C61.5637 339.464 60.634 339.126 59.8149 338.595C55.3113 335.846 51.3508 332.294 48.1307 328.114C43.9629 322.738 43.8557 320.461 40.3314 317.715C39.4393 317.021 38.3693 316.593 37.2446 316.481C36.12 316.369 34.9865 316.577 33.975 317.081C33.1783 317.581 32.5289 318.284 32.0933 319.118C31.6577 319.952 31.4517 320.887 31.4963 321.826C31.9497 331.836 38.8081 338.677 46.3905 345.855C40.6044 392.526 73.5733 437.918 120.744 450.733C134.035 454.207 147.738 455.853 161.473 455.625C161.709 455.623 161.935 455.528 162.102 455.361C162.269 455.194 162.363 454.969 162.365 454.733C162.853 393.801 162.46 381.9 162.365 379.733C185.942 374.788 208.111 364.626 227.245 349.991C230.965 347.018 234.326 343.43 238.7 341.405C242.661 339.676 247.044 339.158 251.299 339.916C256.841 340.498 263.643 341.622 266.729 337.376C267.307 336.588 267.702 335.68 267.886 334.72C268.07 333.76 268.037 332.771 267.791 331.825C267.544 330.879 267.09 330 266.461 329.251C265.832 328.503 265.045 327.904 264.155 327.498ZM137.215 366.467C137.017 366.576 136.784 366.605 136.565 366.547C136.346 366.489 136.157 366.35 136.038 366.158C134.335 363.223 133.106 360.038 132.397 356.72C132.153 355.602 133.859 355.127 134.117 356.245C134.841 359.399 136.007 362.435 137.578 365.263C137.689 365.471 137.713 365.714 137.645 365.94C137.577 366.166 137.422 366.355 137.215 366.467ZM62.9346 354.432L58.0747 349.63C57.2558 348.821 58.5183 347.561 59.3348 348.368L64.1971 353.169C65.0112 353.979 63.7486 355.241 62.9297 354.432H62.9346ZM80.8558 354.091C80.4535 352.306 80.327 350.471 80.4805 348.648C80.5804 347.51 82.3669 347.505 82.2646 348.648C82.1137 350.311 82.2181 351.987 82.5741 353.618C82.8178 354.739 81.0995 355.212 80.8509 354.091H80.8558ZM151.293 447.884C151.227 448.101 151.081 448.284 150.884 448.396C150.687 448.508 150.455 448.54 150.235 448.486C145.521 447.267 140.837 445.944 136.17 444.557C136.057 444.525 135.951 444.471 135.859 444.398C135.767 444.326 135.69 444.235 135.633 444.133C135.575 444.03 135.539 443.917 135.525 443.801C135.511 443.684 135.521 443.566 135.553 443.453C135.585 443.34 135.639 443.234 135.712 443.142C135.784 443.05 135.875 442.973 135.977 442.916C136.08 442.859 136.193 442.822 136.309 442.809C136.426 442.795 136.544 442.804 136.657 442.836C141.368 444.055 146.055 445.381 150.722 446.765C150.944 446.84 151.127 447 151.232 447.21C151.337 447.419 151.354 447.662 151.281 447.884H151.293ZM223.036 305.523C225.766 304.665 228.528 303.934 231.323 303.33C232.446 303.086 232.919 304.807 231.798 305.051C229.003 305.655 226.241 306.386 223.511 307.244C222.398 307.583 221.932 305.877 223.024 305.523H223.036ZM233.621 324.2C230.835 324.755 228.157 325.756 225.69 327.164C225.487 327.267 225.252 327.288 225.033 327.223C224.814 327.159 224.629 327.013 224.514 326.816C224.399 326.619 224.364 326.386 224.415 326.164C224.467 325.941 224.601 325.747 224.791 325.621C227.37 324.09 230.199 323.027 233.148 322.479C234.26 322.26 234.735 323.983 233.609 324.2H233.621Z" fill="#FC9070"/>
<path d="M225.686 131.723C222.791 130.368 219.816 129.192 216.778 128.201C213.604 126.709 210.812 124.515 208.61 121.786C206.649 119.397 205.384 116.514 204.955 113.453C204.423 109.522 205.82 105.739 206.492 101.912C207.35 98.4924 206.922 94.8763 205.288 91.7515C204.532 90.5121 203.438 89.5147 202.134 88.8765C200.83 88.2383 199.37 87.986 197.928 88.1492C196.545 88.479 195.302 89.2364 194.375 90.3137C193.447 91.3911 192.883 92.7334 192.763 94.1497C192.542 96.1739 192.04 98.1573 191.272 100.043C187.969 106.109 175.759 114.959 170.177 118.981C159.302 126.814 154.567 129.602 143.855 138.235C131.763 147.969 119.772 158.084 110.35 170.521C101.502 182.201 94.5708 196.505 94.2247 211.409C93.5788 238.982 122.945 258.643 150.803 261.756C176.575 264.629 201.801 250.9 216.078 230.005C217.808 227.417 219.387 224.732 220.809 221.962C220.92 221.756 220.949 221.516 220.889 221.289C220.829 221.063 220.686 220.868 220.487 220.744C169.263 189.223 165.676 186.961 165.485 186.834C165.186 187.395 160.123 196.912 157.947 201.17C157.423 202.194 155.885 201.292 156.407 200.271C163.133 187.087 170.055 174.938 176.487 161.852C176.96 160.894 178.318 161.608 178.101 162.544C180.185 163.398 182.143 164.53 183.923 165.91C185.879 167.434 188.21 168.403 190.67 168.715C196.648 169.447 200.553 162.174 195.427 154.779C199.222 157.08 201.452 160.899 207.143 160.278C208.295 160.03 209.336 159.417 210.11 158.528C210.884 157.64 211.349 156.524 211.435 155.349C211.881 149.356 207.465 146.819 205.037 142.573C209.755 143.951 214.692 144.425 219.585 143.967C223.241 143.624 228.469 142.464 229.135 138.096C229.223 136.816 228.946 135.537 228.335 134.409C227.725 133.28 226.806 132.349 225.686 131.723ZM121.442 241.587C117.805 239.278 114.651 236.284 112.156 232.772C111.488 231.833 113.033 230.944 113.694 231.872C116.024 235.129 118.962 237.905 122.346 240.047C123.321 240.661 122.414 242.204 121.442 241.587ZM185.586 147.231C183.133 146.429 180.771 145.374 178.537 144.082C178.437 144.02 178.35 143.939 178.282 143.844C178.213 143.748 178.165 143.64 178.139 143.525C178.113 143.41 178.11 143.292 178.131 143.176C178.152 143.06 178.195 142.95 178.259 142.851C178.38 142.66 178.568 142.522 178.787 142.464C179.005 142.407 179.237 142.435 179.436 142.542C181.554 143.721 183.77 144.713 186.061 145.505C187.143 145.881 186.675 147.604 185.586 147.231ZM197.233 134.967L190.521 131.289C189.512 130.736 190.414 129.195 191.423 129.748L198.145 133.426C199.142 133.98 198.24 135.513 197.233 134.967Z" fill="#FFD2D2"/>
<path d="M232.732 97.6411C227.485 94.8114 217.911 97.5095 214.416 105.684C213.464 108.296 213.365 111.142 214.133 113.814C214.901 116.485 216.497 118.844 218.691 120.551C221.034 122.164 223.846 122.951 226.686 122.788C229.525 122.626 232.23 121.522 234.372 119.652C235.959 118.228 237.198 116.459 237.994 114.481C238.79 112.504 239.122 110.369 238.963 108.243C238.805 106.117 238.161 104.056 237.08 102.218C236 100.38 234.513 98.814 232.732 97.6411Z" fill="#FFD2D2"/>
<path d="M236.38 73.4739C237.036 72.305 237.249 70.9391 236.981 69.6261C236.712 68.313 235.98 67.1404 234.918 66.3229C232.922 64.9142 230.465 66.0621 228.608 67.1784C225.589 68.9927 223.046 71.4989 221.187 74.4902C221.276 73.771 221.197 73.0411 220.958 72.3571C220.719 71.6731 220.325 71.0536 219.807 70.5467C217.718 68.8406 215.086 70.6296 213.777 72.421C212.717 74.0875 212.079 75.9873 211.918 77.956C211.255 85.3677 212.183 85.9185 211.893 91.6047C211.842 92.6137 212.395 92.9915 213.256 92.6405C213.499 92.5381 238.572 81.5095 240.692 80.4664C246.437 77.6367 244.626 69.7838 236.38 73.4739Z" fill="black"/>
<path d="M316.708 230.377C314.955 206.937 306.802 184.428 293.138 165.302C287.423 156.806 280.453 149.225 272.465 142.819C260.278 133.533 238.16 126.389 216.78 128.195C219.821 129.183 222.796 130.361 225.689 131.722C226.81 132.347 227.73 133.278 228.341 134.407C228.953 135.535 229.23 136.815 229.142 138.095C228.477 142.463 223.244 143.623 219.593 143.967C214.699 144.424 209.763 143.951 205.045 142.572C207.509 146.889 211.891 149.338 211.443 155.349C211.358 156.522 210.895 157.636 210.124 158.524C209.353 159.412 208.315 160.027 207.165 160.277C201.496 160.896 199.21 157.06 195.45 154.778C200.785 162.478 196.368 169.414 190.692 168.715C184.891 168 183.975 164.922 178.123 162.543C178.342 161.617 176.98 160.893 176.51 161.851C170.29 174.491 163.134 187.14 156.429 200.27C155.907 201.289 157.445 202.193 157.969 201.169C158.832 199.478 161.947 193.545 165.481 186.819C165.998 187.152 171.304 190.474 220.502 220.748C220.701 220.872 220.844 221.067 220.904 221.293C220.964 221.52 220.935 221.76 220.824 221.966C219.402 224.736 217.823 227.421 216.093 230.009C207.945 241.923 196.547 251.247 183.253 256.87C189.255 262.494 195.904 267.384 203.059 271.44C202.383 269.359 201.96 267.203 201.801 265.021C201.767 263.913 202.052 262.82 202.621 261.869C203.19 260.919 204.019 260.152 205.011 259.659C206.741 259.195 208.571 259.259 210.265 259.843C211.958 260.426 213.439 261.503 214.516 262.934C217.78 254.76 223.208 245.983 231.158 242.305C232.96 241.499 234.844 240.888 236.776 240.482C241.39 239.148 246.268 239.008 250.951 240.075C259.057 242.498 264.173 251.26 263.795 259.495C270.037 257.058 276.837 256.42 283.423 257.655C290.009 258.89 296.117 261.947 301.051 266.481C307.48 262.014 312.382 255.681 315.095 248.338C316.759 242.506 317.306 236.412 316.708 230.377Z" fill="#EE73DB"/>
<path d="M122.349 240.046C118.967 237.904 116.03 235.128 113.701 231.871C113.041 230.943 111.496 231.832 112.163 232.771C114.659 236.283 117.812 239.277 121.449 241.586C122.417 242.203 123.324 240.658 122.349 240.046Z" fill="#EE73DB"/>
<path d="M178.539 144.081C180.773 145.374 183.135 146.429 185.588 147.23C186.677 147.603 187.145 145.88 186.063 145.509C183.773 144.714 181.556 143.721 179.439 142.541C179.235 142.427 178.995 142.398 178.77 142.46C178.545 142.522 178.353 142.669 178.235 142.871C178.117 143.072 178.083 143.312 178.14 143.538C178.197 143.764 178.34 143.959 178.539 144.081Z" fill="#EE73DB"/>
<path d="M190.524 131.288L197.236 134.966C198.243 135.519 199.145 133.979 198.136 133.426L191.426 129.748C190.417 129.195 189.515 130.735 190.524 131.288Z" fill="#EE73DB"/>
<path d="M342.218 232.296C338.549 234.576 334.636 236.438 330.553 237.848C329.476 238.221 329.939 239.944 331.029 239.568C335.259 238.115 339.314 236.192 343.117 233.836C344.092 233.246 343.198 231.689 342.218 232.296Z" fill="#EE73DB"/>
<path d="M223.494 307.244C226.224 306.386 228.986 305.654 231.781 305.05C232.902 304.806 232.429 303.088 231.306 303.329C228.509 303.934 225.747 304.665 223.019 305.523C221.932 305.876 222.397 307.582 223.494 307.244Z" fill="#EE73DB"/>
<path d="M225.687 327.164C228.154 325.756 230.832 324.755 233.618 324.2C234.744 323.983 234.269 322.263 233.145 322.479C230.196 323.027 227.367 324.09 224.788 325.621C224.598 325.747 224.464 325.942 224.412 326.164C224.361 326.386 224.396 326.619 224.511 326.816C224.625 327.013 224.811 327.159 225.03 327.223C225.249 327.288 225.484 327.267 225.687 327.164Z" fill="#EE73DB"/>
<path d="M134.112 356.245C133.869 355.126 132.138 355.601 132.392 356.72C133.101 360.038 134.33 363.223 136.033 366.157C136.155 366.356 136.35 366.5 136.576 366.556C136.802 366.613 137.042 366.579 137.243 366.462C137.445 366.344 137.592 366.152 137.654 365.927C137.716 365.702 137.687 365.462 137.573 365.258C136.002 362.431 134.837 359.397 134.112 356.245Z" fill="#EE73DB"/>
<path d="M59.3295 348.368C58.513 347.562 57.2505 348.822 58.0695 349.631L62.9294 354.432C63.7483 355.239 65.0108 353.979 64.1919 353.17L59.3295 348.368Z" fill="#EE73DB"/>
<path d="M82.2586 348.649C82.361 347.506 80.5721 347.511 80.4746 348.649C80.3211 350.471 80.4476 352.307 80.8499 354.091C81.0936 355.212 82.8168 354.739 82.556 353.618C82.204 351.987 82.1038 350.311 82.2586 348.649Z" fill="#EE73DB"/>
<path d="M342.703 52.9178C343.358 53.8513 344.896 52.9593 344.243 52.0185L330.37 32.2474C329.717 31.3139 328.177 32.2035 328.83 33.1467L342.703 52.9178Z" fill="black"/>
<path d="M290.619 117.232H312.555C312.791 117.232 313.018 117.138 313.185 116.971C313.353 116.804 313.447 116.577 313.447 116.34C313.447 116.104 313.353 115.877 313.185 115.709C313.018 115.542 312.791 115.448 312.555 115.448H290.619C290.383 115.448 290.156 115.542 289.989 115.709C289.821 115.877 289.727 116.104 289.727 116.34C289.727 116.577 289.821 116.804 289.989 116.971C290.156 117.138 290.383 117.232 290.619 117.232Z" fill="black"/>
<path d="M127.709 134.293C135.647 127.952 144.015 122.17 152.754 116.989C152.959 116.869 153.107 116.673 153.167 116.444C153.227 116.215 153.193 115.972 153.074 115.767C152.954 115.563 152.758 115.415 152.529 115.355C152.3 115.295 152.057 115.329 151.852 115.448C142.898 120.581 134.398 126.469 126.446 133.05C125.557 133.767 126.824 135.024 127.709 134.293Z" fill="black"/>
<path d="M123.781 129.402C131.647 122.829 140.314 117.278 149.575 112.882C150.61 112.395 149.706 110.85 148.675 111.342C139.283 115.815 130.494 121.459 122.519 128.139C121.639 128.878 122.906 130.133 123.781 129.402Z" fill="black"/>
<path d="M316.499 409.607C308.054 419.98 298.344 429.255 287.595 437.216C286.681 437.891 287.569 439.439 288.495 438.757C299.376 430.726 309.202 421.356 317.742 410.869C318.48 409.987 317.225 408.73 316.499 409.607Z" fill="black"/>
<path d="M291.633 442.926C290.704 443.587 291.594 445.134 292.532 444.467C305.095 435.525 316.106 424.583 325.126 412.075C325.798 411.144 324.253 410.252 323.585 411.174C314.726 423.42 303.934 434.144 291.633 442.926Z" fill="black"/>
<path d="M380.862 104.734C380.862 104.422 380.738 104.123 380.518 103.903C380.298 103.683 379.999 103.559 379.687 103.559C379.376 103.559 379.077 103.683 378.857 103.903C378.636 104.123 378.513 104.422 378.513 104.734V127.003C378.533 127.317 378.673 127.612 378.904 127.827C379.134 128.042 379.438 128.16 379.753 128.158C380.066 128.162 380.367 128.042 380.591 127.825C380.815 127.608 380.944 127.31 380.95 126.998C381.05 120.576 380.865 104.897 380.862 104.734Z" fill="black"/>
<path d="M438.176 144.934C437.242 142.375 436.587 141.522 430.274 131.127C419.701 113.703 406.543 92.0212 381.468 54.9919C381.35 54.8363 381.197 54.7106 381.021 54.6248C380.846 54.5389 380.653 54.4953 380.457 54.4975C380.262 54.4996 380.07 54.5474 379.896 54.6371C379.722 54.7267 379.572 54.8557 379.457 55.0138C363.059 79.5327 325.762 140.91 325.106 142.253C323.845 144.855 323.201 147.713 323.224 150.604C323.247 153.496 323.937 156.343 325.239 158.924C326.541 161.506 328.421 163.752 330.733 165.489C333.044 167.226 335.725 168.407 338.567 168.939C343.164 169.765 346.415 168.695 351.207 167.433C347.295 173.379 341.294 177.641 334.39 179.375C325.494 181.966 318.036 178.476 311.916 174.72C302.281 168.805 296.827 163.574 285.084 154.44C281.301 150.124 277.141 146.155 272.654 142.577C261.257 133.891 239.585 125.987 216.841 127.886C213.871 126.607 211.262 124.618 209.242 122.093C207.223 119.569 205.856 116.586 205.261 113.408C204.342 106.603 209.829 98.3581 205.554 91.5825C204.766 90.2947 203.626 89.2586 202.27 88.5958C200.913 87.9331 199.396 87.6714 197.896 87.8413C196.446 88.1814 195.14 88.9709 194.165 90.0971C193.191 91.2232 192.597 92.6286 192.468 94.1124C192.249 96.0975 191.756 98.0429 191.006 99.8936C187.688 105.987 175.293 114.914 170.001 118.726C159.129 126.56 154.403 129.341 143.657 137.981C131.912 147.437 119.645 157.723 110.098 170.323C102.93 179.782 94.3047 194.589 93.9123 211.386C93.264 239.047 122.309 258.867 150.761 262.045C161.802 263.263 172.971 261.6 183.177 257.217C189.121 262.775 195.7 267.612 202.778 271.628C204.696 280.01 199.517 287.877 194.003 292.457C178.846 305.063 160.259 299.837 137.517 321.521C132.292 326.503 125.087 334.207 122.894 343.579C121.414 350.059 121.693 356.816 123.701 363.152C125.006 367.681 127.498 371.78 130.918 375.023C134.339 378.267 138.563 380.538 143.155 381.602C135.313 381.565 127.565 379.903 120.399 376.719C113.233 373.535 106.805 368.9 101.521 363.106C98.2506 359.394 93.3005 352.058 96.8687 344.649C98.8356 341.288 100.561 340.722 103.888 337.666C104.794 336.958 105.553 336.079 106.123 335.08C106.492 334.251 106.612 333.332 106.468 332.437C106.324 331.541 105.922 330.706 105.311 330.035C108.862 323.549 105.994 315.448 102.94 309.766C100.461 305.158 93.6783 292.866 93.6783 292.866C103.398 275.291 108.302 268.006 106.518 258.832C106.148 257.091 105.428 255.444 104.401 253.99C103.374 252.536 102.061 251.306 100.544 250.375C95.7594 247.71 90.3131 246.466 84.8457 246.79H13.1048C12.7896 246.796 12.4891 246.924 12.2664 247.148C12.0437 247.371 11.9161 247.671 11.9105 247.987V337.741C11.9168 338.057 12.0449 338.357 12.2681 338.58C12.4912 338.802 12.792 338.93 13.1072 338.936H39.0933C41.2869 341.417 43.651 343.701 46.0883 346.004C40.3437 393.043 73.7 438.296 120.683 451.05C151.298 459.363 191.283 456.127 222.405 448.856C253.814 441.527 295.425 425.441 315.428 390.43C324.27 390.603 340.361 389.575 350.2 380.83C365.119 367.569 364.139 335.48 340.997 315.526C332.54 308.165 322.054 303.536 310.917 302.247C312.732 295.99 312.816 289.357 311.158 283.056C309.501 276.755 306.164 271.022 301.504 266.468C307.518 262.204 312.189 256.312 314.967 249.483C332.757 249.604 349.971 243.179 363.33 231.43C372.278 223.909 380.012 215.052 386.257 205.171C393.847 192.446 400.715 170.628 402.229 165.658C403.691 166.031 412.512 168.273 415.463 169.058C418.752 169.968 422.226 169.963 425.512 169.043C428.798 168.123 431.77 166.322 434.107 163.837C436.445 161.351 438.059 158.274 438.776 154.938C439.493 151.602 439.286 148.134 438.176 144.907V144.934ZM308.197 302.986C308.122 303.294 308.171 303.62 308.332 303.893C308.494 304.166 308.756 304.365 309.062 304.448C309.289 304.488 309.519 304.514 309.749 304.526C320.717 305.675 331.07 310.151 339.42 317.355C347.769 324.558 353.715 334.144 356.459 344.824C358.914 355.217 358.312 370.437 348.533 379.129C341.941 384.993 331.248 387.988 316.749 388.034C326.642 369.557 328.355 349.104 321.443 331.843C319.133 326 315.676 320.678 311.277 316.191C306.878 311.704 301.626 308.142 295.829 305.717C290.033 303.291 283.81 302.049 277.526 302.065C271.242 302.082 265.026 303.355 259.242 305.811C256.663 305.555 254.535 305.552 252.052 305.374C250.542 305.355 249.047 305.081 247.628 304.565C247.307 304.469 247.024 304.274 246.819 304.009C246.614 303.743 246.498 303.42 246.486 303.085C246.474 302.749 246.568 302.419 246.754 302.14C246.94 301.861 247.209 301.647 247.523 301.529C249.818 300.212 252.318 299.291 254.918 298.806C258.474 297.831 264.075 296.513 265.717 293.215C267.545 289.559 263.863 283.607 254.847 284.024C248.647 284.312 242.78 286.5 236.682 287.105C231.982 287.78 227.195 286.756 223.182 284.217C221.27 282.865 219.859 280.919 219.168 278.682C217.277 272.289 218.405 269.588 216.066 264.626C217.883 259.562 220.543 254.841 223.933 250.663C226.883 246.934 230.93 244.227 235.503 242.924C241.26 241.34 248.574 240.012 254.062 243.826C256.744 245.702 258.862 248.275 260.188 251.267C261.514 254.258 261.997 257.555 261.586 260.802C261.469 261.765 262.561 262.235 263.356 261.886C267.949 259.822 272.954 258.837 277.987 259.005C283.02 259.173 287.948 260.49 292.394 262.855C296.839 265.221 300.685 268.572 303.636 272.653C306.587 276.733 308.566 281.435 309.42 286.398C310.411 291.942 309.99 297.647 308.197 302.986ZM204.891 280.417C207.001 273.088 203.916 269.301 203.879 265.104C203.799 264.228 204.048 263.355 204.577 262.653C205.106 261.951 205.877 261.471 206.741 261.306C208.602 261.355 210.394 262.019 211.838 263.193C213.283 264.368 214.298 265.987 214.725 267.799C215.314 270.424 215.751 273.081 216.031 275.757C216.223 278.253 217.067 280.655 218.478 282.723C219.89 284.79 221.82 286.451 224.074 287.539C235.625 292.866 246.085 286.413 255.871 286.415C259.346 286.415 263.994 287.955 263.753 291.533C263.58 294.102 257.292 295.655 254.777 296.359C252.442 297.012 252.227 297.09 251.018 297.449C248.626 297.909 246.443 299.121 244.786 300.907C244.438 301.425 244.218 302.018 244.144 302.638C244.071 303.258 244.146 303.886 244.363 304.471C244.58 305.056 244.933 305.581 245.393 306.002C245.853 306.424 246.407 306.73 247.009 306.895C253.755 309.089 263.804 306.313 265.749 311.816C266.009 312.536 266.102 313.306 266.021 314.067C265.941 314.829 265.689 315.562 265.285 316.212C264.881 316.862 264.335 317.413 263.689 317.822C263.042 318.231 262.31 318.488 261.55 318.575C255.179 319.793 245.525 318.385 244.365 322.862C243.836 324.895 245.634 326.03 247.691 326.467C253.648 327.705 257.077 326.991 262.573 329.055C263.513 329.412 264.357 329.982 265.037 330.722C265.628 331.605 265.916 332.657 265.858 333.718C265.799 334.779 265.398 335.792 264.713 336.606C263.685 337.58 262.347 338.162 260.933 338.251C253.419 339.226 246.098 335.197 236.651 340.113C233.824 341.732 231.2 343.682 228.834 345.921C210.265 362.177 179.577 376.245 148.431 379.986C144.77 379.855 141.185 378.893 137.95 377.174C134.714 375.455 131.911 373.023 129.752 370.062C127.147 366.101 125.423 361.625 124.699 356.939C123.974 352.254 124.265 347.467 125.553 342.904C126.753 339.036 128.642 335.417 131.129 332.221C137.145 324.27 144.691 317.604 153.323 312.616C163.477 306.766 171.317 305.874 183.019 301.419C194.481 297.051 202.249 289.593 204.891 280.417ZM162.689 380.018C186.699 374.968 212.761 363.043 230.445 347.698C237.879 341.246 241.615 339.201 251.269 340.232C256.787 340.822 263.773 341.965 266.987 337.551C267.589 336.726 267.999 335.777 268.189 334.773C268.379 333.77 268.343 332.737 268.085 331.749C267.827 330.76 267.353 329.842 266.696 329.06C266.04 328.277 265.218 327.65 264.289 327.225C258.596 324.361 252.125 325.409 247.172 323.827C246.995 323.749 246.826 323.653 246.668 323.539C246.865 321.151 259.863 322.043 264.082 320.295C265.424 319.712 266.561 318.74 267.344 317.504C268.128 316.268 268.522 314.825 268.477 313.362C268.432 311.899 267.948 310.484 267.09 309.299C266.231 308.114 265.036 307.214 263.66 306.715C274.461 303.171 286.206 303.868 296.511 308.666C306.816 313.464 314.91 322.003 319.15 332.55C325.94 349.728 324.268 369.185 314.414 387.332C302.167 409.914 279.776 427.243 247.862 438.842C220.5 448.502 191.706 453.482 162.689 453.575V380.018ZM299.664 264.865C294.77 260.855 288.906 258.204 282.662 257.181C276.418 256.157 270.015 256.795 264.097 259.032C264.247 254.849 263.06 250.728 260.708 247.265C258.356 243.803 254.962 241.18 251.018 239.778C246.286 238.687 241.354 238.825 236.69 240.178C234.736 240.587 232.832 241.206 231.011 242.023C222.575 245.922 217.343 255.135 214.398 262.357C213.271 260.988 211.769 259.977 210.076 259.448C208.383 258.919 206.573 258.895 204.866 259.378C203.823 259.9 202.95 260.709 202.351 261.71C201.752 262.711 201.452 263.862 201.486 265.028C201.512 266.158 201.66 267.281 201.927 268.379C196.077 264.872 190.597 260.782 185.57 256.171C197.992 250.453 208.626 241.469 216.339 230.178C218.073 227.581 219.657 224.888 221.084 222.11C221.233 221.836 221.272 221.516 221.192 221.214C221.113 220.913 220.92 220.653 220.655 220.489C174.888 192.322 167.157 187.521 165.902 186.728C177.654 164.747 176.906 165.551 178.283 162.938C180.24 163.762 182.079 164.842 183.752 166.151C185.751 167.71 188.133 168.7 190.647 169.017C196.131 169.692 200.767 163.392 196.467 155.834C199.546 158.083 201.988 161.145 207.221 160.574C208.435 160.309 209.532 159.66 210.349 158.723C211.165 157.785 211.658 156.61 211.754 155.371C212.185 149.58 208.161 146.884 205.714 143.075C210.242 144.305 214.955 144.711 219.626 144.271C225.612 143.706 228.917 141.644 229.451 138.139C229.541 136.798 229.25 135.459 228.612 134.277C227.974 133.094 227.014 132.117 225.844 131.456C224.853 130.89 223.82 130.401 222.753 129.994C236.214 129.896 249.518 132.884 261.645 138.727C268.908 142.192 275.385 147.107 280.677 153.17C291.439 164.906 300.016 178.47 306.005 193.224C310.85 205.071 313.76 217.619 314.624 230.39C315.518 244.738 313.395 254.497 299.666 264.865H299.664ZM203.45 116.37C204.427 119.286 205.977 121.977 208.01 124.284C210.043 126.591 212.518 128.468 215.288 129.804C219.334 131.79 221.328 131.729 224.625 133.518C226.56 134.785 227.923 137.145 226.563 139.087C225.894 139.846 225.081 140.465 224.172 140.909C223.262 141.352 222.274 141.611 221.264 141.671C215.359 142.579 209.321 141.993 203.701 139.965C203.494 139.908 203.275 139.908 203.068 139.965C202.861 140.021 202.672 140.133 202.523 140.287C202.373 140.442 202.268 140.634 202.218 140.843C202.168 141.052 202.175 141.27 202.239 141.476C204.966 147.9 208.213 148.132 209.344 153.618C209.584 154.54 209.473 155.517 209.033 156.362C208.592 157.206 207.853 157.856 206.96 158.186C205.773 158.341 204.567 158.219 203.436 157.83C202.304 157.441 201.278 156.795 200.438 155.943C198.399 153.991 195.953 152.513 193.277 151.615C193.047 151.558 192.805 151.57 192.581 151.651C192.358 151.731 192.163 151.876 192.022 152.066C191.88 152.257 191.798 152.485 191.786 152.722C191.774 152.959 191.832 153.195 191.954 153.399C193.87 155.563 195.169 158.203 195.714 161.042C195.902 162.154 195.706 163.297 195.158 164.282C194.61 165.268 193.743 166.038 192.699 166.465C187.881 167.886 183.323 161.676 178.01 160.33C177.756 160.265 177.487 160.284 177.244 160.385C177.001 160.485 176.797 160.661 176.662 160.886C172.275 168.588 160.16 192.268 156.148 200.126C155.441 201.513 157.53 202.68 158.232 201.303C160.37 197.142 162.543 192.998 164.751 188.873C164.751 188.873 215.237 220.014 218.427 221.979C206.585 244.353 183.55 259.283 159.662 260.044C134.783 260.829 103.788 245.369 97.3903 221.084C95.6538 213.454 96.0126 205.497 98.4285 198.054C104.856 175.683 121.865 159.183 137.634 145.992C145.399 139.292 153.543 133.046 162.027 127.284C171.198 120.849 182.078 113.423 189.482 105.804C192.232 103.336 194.004 99.9631 194.476 96.2986C194.9 93.8614 195.483 90.515 198.425 90.1714C199.863 90.1424 201.265 90.6284 202.377 91.5419C203.489 92.4554 204.238 93.7361 204.489 95.1531C206.139 101.8 201.149 107.337 203.45 116.37ZM160.245 453.575C130.425 453.736 102.945 446.441 80.4293 426.521C57.0024 405.804 44.7551 374.956 48.4671 346.048C48.5235 345.693 48.4762 345.331 48.3309 345.003C48.1855 344.675 47.9484 344.396 47.6481 344.2C41.4355 338.282 37.4945 334.329 34.8549 327.912C33.9376 325.768 33.5273 323.441 33.6558 321.112C33.7487 320.592 33.9716 320.104 34.3037 319.693C34.6358 319.282 35.0663 318.962 35.5553 318.762C36.0444 318.562 36.576 318.489 37.1008 318.55C37.6256 318.61 38.1265 318.802 38.5571 319.108C40.4664 320.416 41.9912 322.21 42.9735 324.305C45.7952 329.023 49.388 333.236 53.6024 336.766C56.2834 339.009 59.6175 341.802 63.4221 341.797C65.2384 341.781 66.9869 341.105 68.3405 339.893C70.2788 338.202 71.6906 335.99 72.4083 333.52C72.6136 331.357 73.306 329.268 74.4337 327.41C75.389 325.775 76.8844 324.525 78.6623 323.873C79.5339 323.687 80.444 323.853 81.1929 324.337C81.9417 324.82 82.4683 325.581 82.657 326.452C82.95 327.851 83.0158 329.288 82.852 330.707C82.6481 335.094 81.6884 339.412 80.015 343.471C79.4739 344.797 81.4505 345.541 82.1817 344.446C86.1538 338.624 91.8652 334.207 98.4992 331.826C105.124 329.53 104.79 333.776 103.171 335.058L103.145 335.08C101.458 336.766 99.4887 338.197 97.7144 339.774C96.1184 341.237 94.8885 343.055 94.1239 345.081C93.3593 347.106 93.0815 349.283 93.3127 351.436C94.9774 368.86 127.076 391.227 160.296 381.797C160.291 387.932 160.24 448.664 160.245 453.575ZM14.4404 249.183H84.8457C92.4207 249.183 101.882 250.802 103.949 258.43C104.834 261.847 104.63 265.454 103.366 268.75C101.708 273.133 99.6692 277.362 97.2733 281.389C95.2991 284.802 93.4102 288.431 91.5189 291.84C91.2835 292.12 91.1519 292.472 91.1466 292.837C91.1413 293.202 91.2625 293.558 91.4896 293.844C93.3883 297.312 98.0703 306.084 100.142 309.645C102.288 313.196 103.736 317.124 104.407 321.219C104.782 323.792 104.397 326.418 103.301 328.775C102.215 328.522 101.082 328.554 100.013 328.867C94.817 330.271 90.0294 332.89 86.0448 336.508C85.5573 336.523 85.0626 336.532 84.5605 336.537C85.0549 333.994 85.2997 331.408 85.2917 328.816C85.4003 327.649 85.231 326.473 84.7976 325.385C84.3642 324.296 83.6791 323.325 82.7984 322.552C78.4454 318.987 72.5618 323.917 70.8265 329.433C70.5774 331.992 69.6679 334.443 68.187 336.545H57.2217C53.8923 334.11 50.9173 331.226 48.3817 327.973C44.2969 322.701 44.1044 320.303 40.5386 317.519C39.5955 316.791 38.4661 316.344 37.2802 316.228C36.0942 316.112 34.8997 316.334 33.8337 316.866C32.9919 317.396 32.3057 318.139 31.845 319.02C31.3842 319.901 31.1656 320.889 31.2112 321.882C31.538 327.278 33.6059 332.423 37.1045 336.545H14.3039C14.3039 226.495 14.4818 254.938 14.4404 249.183ZM317.015 230.353C315.201 205.919 306.451 182.511 291.791 162.88C296.315 166.514 301.518 170.579 307.014 174.423C311.852 177.808 321.277 183.377 329.988 182.653C338.525 181.672 346.344 177.406 351.789 170.759C356.318 164.869 359.248 156.565 358.765 145.195C358.226 132.438 364.168 130.652 367.01 131.956C370.727 134.198 368.741 139.175 370.5 147.237C371.585 152.207 374.227 158.498 380.661 160.24C388.804 162.448 395.092 164.074 399.872 165.203C396.293 177.308 391.714 189.094 386.182 200.441C380.526 210.494 373.238 219.538 364.617 227.202C350.968 239.554 334.129 247.302 315.718 247.151C317.062 241.659 317.5 235.986 317.015 230.353ZM373.272 148.429C372.344 144.813 371.88 141.093 371.89 137.359C371.621 133.309 370.308 130.81 367.871 129.716C366.56 129.236 365.142 129.131 363.775 129.412C362.408 129.694 361.146 130.351 360.132 131.31C354.731 135.736 356.744 143.757 356.379 150.389C356.131 155.286 354.93 160.087 352.845 164.525C352.845 164.525 347.632 165.856 346.101 166.258C342.954 167.092 339.63 166.966 336.555 165.898C333.481 164.829 330.795 162.865 328.845 160.259C326.894 157.653 325.766 154.524 325.607 151.272C325.448 148.021 326.264 144.796 327.951 142.012C330.278 138.166 368.182 76.2668 380.481 57.7826C409.614 100.771 423.111 124.415 433.275 140.642C434.236 142.109 435.065 143.659 435.751 145.273C436.696 147.797 437.005 150.515 436.648 153.186C436.291 155.857 435.28 158.399 433.705 160.586C432.131 162.773 430.04 164.538 427.62 165.723C425.199 166.909 422.524 167.478 419.831 167.381C416.406 167.033 418.368 167.381 380.883 157.742C380.818 157.725 380.751 157.716 380.683 157.713C378.801 156.862 377.148 155.577 375.859 153.964C374.571 152.35 373.684 150.453 373.272 148.429Z" fill="black"/>
<path d="M43.7644 275.574H66.5529C66.71 275.573 66.8655 275.541 67.0104 275.48C67.1552 275.419 67.2867 275.331 67.3973 275.219C67.5078 275.107 67.5953 274.975 67.6547 274.829C67.7141 274.684 67.7443 274.528 67.7435 274.371C67.7427 274.214 67.7109 274.058 67.65 273.913C67.5892 273.769 67.5003 273.637 67.3887 273.526C67.277 273.416 67.1446 273.328 66.9991 273.269C66.8536 273.21 66.6978 273.179 66.5407 273.18H43.7644C43.6076 273.185 43.4534 273.222 43.3107 273.287C43.1681 273.352 43.0398 273.445 42.9333 273.561C42.7776 273.729 42.6732 273.938 42.6327 274.163C42.5921 274.389 42.6171 274.621 42.7045 274.833C42.792 275.045 42.9383 275.227 43.1261 275.358C43.314 275.49 43.5355 275.564 43.7644 275.574Z" fill="black"/>
<path d="M43.767 311.464H66.5554C66.7122 311.459 66.8665 311.423 67.0091 311.358C67.1518 311.292 67.2801 311.2 67.3865 311.084C67.5429 310.915 67.6473 310.705 67.6874 310.479C67.7275 310.252 67.7015 310.019 67.6126 309.806C67.5237 309.594 67.3756 309.412 67.186 309.282C66.9964 309.151 66.7732 309.078 66.5432 309.071H43.767C43.4496 309.071 43.1452 309.197 42.9208 309.422C42.6964 309.646 42.5703 309.95 42.5703 310.268C42.5703 310.585 42.6964 310.89 42.9208 311.114C43.1452 311.338 43.4496 311.464 43.767 311.464Z" fill="black"/>
<path d="M35.6847 232.027C36.2502 233.08 36.4159 233.655 37.2056 233.655C37.4182 233.661 37.6285 233.61 37.8156 233.509C38.0026 233.408 38.1599 233.259 38.2718 233.078C38.3837 232.897 38.4462 232.69 38.4533 232.478C38.4604 232.265 38.4117 232.054 38.3121 231.866L27.6954 212.09C26.9642 210.723 24.8877 211.915 25.6188 213.28C35.0584 230.862 35.5068 231.703 35.6847 232.027Z" fill="black"/>
<path d="M45.7538 233.297C45.9276 233.454 46.1419 233.56 46.3726 233.602C46.6033 233.644 46.8412 233.621 47.0595 233.536C47.2778 233.45 47.4679 233.305 47.6084 233.117C47.7489 232.93 47.8342 232.706 47.8547 232.473V208.505C47.8547 208.196 47.7322 207.901 47.5142 207.683C47.2962 207.465 47.0005 207.342 46.6921 207.342C46.3838 207.342 46.0881 207.465 45.8701 207.683C45.652 207.901 45.5296 208.196 45.5296 208.505C45.3906 215.385 45.3736 231.356 45.3882 232.463C45.3902 232.619 45.4236 232.774 45.4864 232.917C45.5492 233.06 45.6401 233.189 45.7538 233.297Z" fill="black"/>
<path d="M56.8094 232.894L67.587 213.448C67.7457 213.173 67.7887 212.846 67.7064 212.539C67.6241 212.232 67.4234 211.971 67.1483 211.812C66.8733 211.653 66.5465 211.611 66.2398 211.693C65.9331 211.775 65.6716 211.976 65.5129 212.251L54.7353 231.7C54.5788 231.975 54.5375 232.301 54.6205 232.606C54.7035 232.911 54.904 233.172 55.1782 233.329C55.4523 233.487 55.7779 233.53 56.0836 233.449C56.3893 233.367 56.6502 233.168 56.8094 232.894Z" fill="black"/>
<path d="M244.947 261.633C239.68 260.565 235.324 262.12 233.004 265.92C231.355 268.57 230.716 271.726 231.203 274.809C232.633 283.529 249.148 286.783 251.92 273.926C253.121 268.325 250.698 262.793 244.947 261.633ZM242.967 280.029C241.015 280.361 239.009 279.998 237.296 279.004C235.583 278.011 234.272 276.449 233.591 274.589C233.24 272.714 233.439 270.778 234.163 269.013C234.888 267.249 236.108 265.732 237.676 264.645C239.765 263.673 242.12 263.429 244.364 263.953C252.456 265.257 251.176 278.947 242.977 280.041L242.967 280.029Z" fill="black"/>
<path d="M232.905 97.3848C227.35 94.3919 217.65 97.3531 214.138 105.584C213.391 107.495 213.111 109.556 213.321 111.597C213.531 113.638 214.225 115.599 215.345 117.318C216.465 119.037 217.979 120.463 219.762 121.479C221.544 122.495 223.543 123.071 225.593 123.159C227.457 123.179 229.305 122.816 231.023 122.092C232.741 121.368 234.291 120.299 235.578 118.95C236.865 117.602 237.861 116.003 238.504 114.253C239.146 112.503 239.423 110.64 239.315 108.779C239.204 106.513 238.567 104.303 237.454 102.326C236.342 100.348 234.784 98.6566 232.905 97.3848ZM234.338 116.82C232.767 118.648 230.647 119.919 228.294 120.442C225.94 120.965 223.481 120.711 221.284 119.72C218.991 118.442 217.235 116.379 216.34 113.911C215.444 111.443 215.469 108.735 216.409 106.283C217.58 103.593 219.653 101.395 222.27 100.069C224.888 98.7423 227.886 98.3707 230.748 99.0178C232.267 99.8468 233.586 100.998 234.613 102.391C235.64 103.785 236.349 105.386 236.691 107.082C237.033 108.779 237 110.529 236.593 112.212C236.187 113.894 235.417 115.467 234.338 116.82Z" fill="black"/>
<path d="M211.558 91.8849C211.547 92.0386 211.569 92.1929 211.622 92.3376C211.674 92.4824 211.757 92.6145 211.864 92.7252C211.971 92.836 212.1 92.923 212.243 92.9806C212.386 93.0383 212.54 93.0652 212.694 93.0597C213.359 92.9645 213.994 92.724 214.556 92.3553C225.677 86.9324 231.129 85.4896 240.81 80.7393C244.283 79.0332 245.641 74.9264 242.794 72.8767C241.887 72.4162 240.884 72.178 239.867 72.1818C238.849 72.1857 237.848 72.4314 236.944 72.8986C237.436 71.7154 237.519 70.4022 237.181 69.1665C236.842 67.9308 236.103 66.8428 235.077 66.0743C232.942 64.5681 230.405 65.7331 228.436 66.9152C225.672 68.58 223.296 70.8172 221.468 73.4763C221.273 71.2047 219.735 69.2891 217.476 69.5767C215.856 69.9237 214.434 70.8846 213.508 72.2576C212.421 73.9667 211.766 75.9136 211.597 77.9316C210.907 85.7382 211.916 85.7187 211.558 91.8849ZM219.113 78.4532C219.185 78.6998 219.333 78.9172 219.536 79.0737C219.74 79.2302 219.988 79.3175 220.245 79.323C220.501 79.3284 220.753 79.2517 220.963 79.104C221.173 78.9563 221.33 78.7453 221.412 78.5019C223.228 74.1967 226.468 70.6463 230.591 68.4458C230.93 68.1173 231.354 67.8898 231.816 67.7886C232.277 67.6874 232.758 67.7166 233.204 67.8729C233.65 68.0292 234.043 68.3064 234.341 68.6736C234.638 69.0408 234.827 69.4834 234.887 69.952C234.887 71.0701 234.655 72.176 234.207 73.2002C233.758 74.2245 233.103 75.145 232.282 75.9038C231.339 77.0737 232.891 78.6676 233.988 77.5733C235.076 76.4896 236.383 75.6512 237.822 75.1141C238.602 74.8241 240.43 74.1392 241.441 74.8533C242.341 75.4797 241.838 76.8738 241.139 77.5782C237.805 80.4005 226.191 84.0613 213.976 89.9887C214.017 84.1978 213.188 79.645 214.583 75.3652C215.682 71.9847 219.031 70.3907 219.099 73.9613C218.942 75.4547 218.947 76.9608 219.113 78.4532Z" fill="black"/>
<path d="M122.51 239.787C119.158 237.67 116.249 234.921 113.948 231.693C113.058 230.445 111.003 231.671 111.912 232.946C114.428 236.492 117.611 239.514 121.284 241.842C122.595 242.671 123.831 240.626 122.51 239.787Z" fill="black"/>
<path d="M186.17 145.222C183.895 144.432 181.693 143.446 179.589 142.275C179.452 142.199 179.301 142.152 179.145 142.135C178.99 142.118 178.832 142.133 178.682 142.177C178.46 142.242 178.261 142.369 178.11 142.544C177.958 142.72 177.861 142.935 177.83 143.164C177.798 143.393 177.834 143.627 177.932 143.836C178.031 144.046 178.188 144.222 178.385 144.344C180.743 145.735 183.266 146.824 185.894 147.588C186.171 147.561 186.431 147.44 186.63 147.245C186.829 147.05 186.955 146.793 186.987 146.516C187.019 146.239 186.956 145.96 186.807 145.724C186.658 145.489 186.433 145.311 186.17 145.222Z" fill="black"/>
<path d="M198.285 133.16L191.57 129.48C190.215 128.748 189.011 130.806 190.376 131.554L197.088 135.234C198.443 135.977 199.654 133.908 198.285 133.16Z" fill="black"/>
<path d="M331.136 239.856C335.387 238.394 339.462 236.462 343.285 234.096C343.553 233.932 343.744 233.669 343.82 233.364C343.895 233.06 343.848 232.738 343.688 232.468C343.528 232.198 343.269 232.001 342.965 231.921C342.662 231.84 342.34 231.882 342.067 232.037C338.417 234.304 334.526 236.156 330.465 237.56C328.998 238.067 329.668 240.367 331.136 239.856Z" fill="black"/>
<path d="M223.221 307.595C223.752 307.595 226.094 306.596 231.856 305.348C233.382 305.021 232.76 302.703 231.254 303.032C228.45 303.641 225.675 304.373 222.935 305.226C222.67 305.315 222.444 305.493 222.294 305.73C222.145 305.967 222.081 306.248 222.115 306.526C222.148 306.804 222.276 307.062 222.478 307.257C222.679 307.452 222.942 307.571 223.221 307.595Z" fill="black"/>
<path d="M225.832 327.429C228.271 326.039 230.918 325.051 233.671 324.504C235.184 324.214 234.607 321.889 233.081 322.186C230.096 322.738 227.232 323.815 224.624 325.367C224.377 325.54 224.205 325.799 224.141 326.094C224.077 326.388 224.126 326.695 224.278 326.955C224.431 327.214 224.675 327.407 224.963 327.495C225.251 327.583 225.561 327.559 225.832 327.429Z" fill="black"/>
<path d="M134.414 356.179C134.075 354.66 131.757 355.282 132.101 356.786C132.819 360.135 134.059 363.35 135.776 366.313C135.881 366.487 136.029 366.631 136.206 366.73C136.383 366.829 136.582 366.88 136.785 366.878C136.993 366.879 137.198 366.826 137.38 366.724C137.561 366.622 137.712 366.474 137.819 366.296C137.926 366.117 137.985 365.914 137.99 365.706C137.994 365.498 137.945 365.292 137.846 365.109C136.289 362.308 135.133 359.302 134.414 356.179Z" fill="black"/>
<path d="M59.5488 348.151C59.3225 347.927 59.0166 347.802 58.6982 347.803C58.3799 347.805 58.0752 347.933 57.8512 348.159C57.6273 348.385 57.5023 348.691 57.5039 349.01C57.5055 349.328 57.6335 349.633 57.8598 349.857L62.7197 354.658C62.9459 354.882 63.252 355.008 63.5706 355.006C63.8891 355.005 64.1941 354.877 64.4184 354.651C64.6427 354.425 64.768 354.119 64.7666 353.8C64.7652 353.481 64.6374 353.176 64.4111 352.952L59.5488 348.151Z" fill="black"/>
<path d="M82.5677 348.675C82.7067 347.125 80.3084 347.088 80.1768 348.621C80.0189 350.475 80.1471 352.342 80.557 354.156C80.8933 355.67 83.2039 355.063 82.87 353.552C82.5201 351.951 82.4181 350.306 82.5677 348.675Z" fill="black"/>
<path d="M342.458 53.0926C343.34 54.3478 345.397 53.1219 344.498 51.8423L330.625 32.0712C329.733 30.8014 327.7 32.0517 328.585 33.3215L342.458 53.0926Z" fill="black"/>
<path d="M290.615 117.532H312.565C312.882 117.532 313.186 117.406 313.411 117.181C313.635 116.957 313.761 116.653 313.761 116.335C313.761 116.018 313.635 115.714 313.411 115.489C313.186 115.265 312.882 115.139 312.565 115.139H290.629C290.312 115.139 290.008 115.265 289.783 115.489C289.559 115.714 289.433 116.018 289.433 116.335C289.433 116.653 289.559 116.957 289.783 117.181C290.008 117.406 290.312 117.532 290.629 117.532H290.615Z" fill="black"/>
<path d="M127.907 134.537C135.828 128.19 144.185 122.407 152.916 117.232C153.049 117.152 153.165 117.046 153.257 116.92C153.348 116.795 153.414 116.652 153.45 116.501C153.503 116.275 153.49 116.039 153.413 115.821C153.335 115.602 153.196 115.411 153.011 115.271C152.827 115.13 152.606 115.045 152.375 115.027C152.144 115.01 151.913 115.059 151.709 115.17C142.734 120.307 134.217 126.207 126.252 132.804C125.051 133.791 126.713 135.511 127.907 134.537Z" fill="black"/>
<path d="M123.985 129.635C131.832 123.079 140.478 117.542 149.715 113.157C151.124 112.486 149.944 110.405 148.553 111.066C139.138 115.552 130.328 121.209 122.333 127.905C121.136 128.911 122.813 130.617 123.985 129.635Z" fill="black"/>
<path d="M318.002 411.061C318.977 409.865 317.244 408.212 316.267 409.416C307.843 419.77 298.154 429.027 287.427 436.969C286.186 437.886 287.446 439.923 288.689 439C299.59 430.95 309.438 421.564 318.002 411.061Z" fill="black"/>
<path d="M323.34 410.995C314.513 423.225 303.743 433.928 291.458 442.679C290.195 443.576 291.458 445.616 292.713 444.717C305.296 435.748 316.328 424.783 325.372 412.255C326.294 410.985 324.239 409.754 323.34 410.995Z" fill="black"/>
</g>
<defs>
<clipPath id="clip0_1511_14540">
<rect width="379" height="439" fill="white"/>
</clipPath>
</defs>
</svg>
