<svg width="300" height="201" viewBox="0 0 300 201" fill="none" xmlns="http://www.w3.org/2000/svg">
<path d="M231.725 80.8177C229.325 80.4589 226.913 80.2197 224.492 80.0912C226.144 79.5199 227.762 78.8551 229.339 78.0998C231.808 77.1002 234.051 75.6147 235.935 73.7314C237.43 72.0182 238.233 69.5798 236.605 67.6602C235.11 65.8947 232.437 65.7302 230.299 65.6166C224.878 65.3295 226.625 66.394 231.36 63.5236C233.988 61.9269 236.742 59.0386 235.712 55.7137C234.645 52.2618 230.719 50.7802 227.223 51.1689C224.636 51.453 226.028 51.2347 200.698 56.3012C203.457 49.8159 203.111 50.7578 203.555 49.493C206.711 40.5096 199.907 35.4684 194.157 39.6873C192.736 40.7301 191.473 41.9723 190.406 43.3755C189.274 44.8321 188.239 46.3613 187.307 47.9532C185.379 51.3419 183.681 54.856 182.224 58.472L212.22 94.7168L225.56 91.4278C230.206 90.2841 235.453 89.7339 236.025 84.9993C236.086 84.4722 236.026 83.9381 235.849 83.4378C235.672 82.9375 235.384 82.4842 235.005 82.1124C234.067 81.3601 232.924 80.9088 231.725 80.8177ZM208.306 89.3392C205.971 81.9638 201.091 75.6584 194.537 71.5487C194.426 71.4822 194.34 71.3816 194.291 71.2619C194.242 71.1422 194.234 71.01 194.266 70.885C195.277 67.0006 196.653 63.2204 198.374 59.5947C198.699 58.91 199.711 59.508 199.391 60.1927C197.782 63.6042 196.485 67.1544 195.516 70.7998C202.153 75.0584 207.082 81.5143 209.44 89.0387C209.668 89.7504 208.532 90.0598 208.306 89.3377V89.3392Z" fill="#FC9070"/>
<path d="M166.851 235.243H134.589C134.434 235.241 134.285 235.178 134.175 235.068C134.065 234.958 134.003 234.81 134 234.654C133.507 219.784 133.413 204.723 133.32 184.422C127.376 182.18 120.911 179.596 103.857 172.651C103.476 172.435 103.054 172.303 102.619 172.263C35.5814 172.497 40.0679 172.54 39.8287 172.379C39.0243 175.747 14.9788 276.357 14.149 279.951C20.297 277.392 26.7048 275.507 33.2596 274.33C41.8152 272.777 50.5748 272.715 59.1515 274.146C69.1132 275.568 78.8194 278.411 87.9736 282.589C88.5328 282.831 88.2188 283.686 87.6746 283.686C87.8029 283.684 87.9273 283.641 88.0293 283.563C88.1313 283.486 88.2057 283.377 88.2412 283.254C88.606 280.98 98.5044 219.195 98.8049 217.303C98.8258 217.173 115.8 282.862 115.906 283.254C115.931 283.34 115.975 283.419 116.035 283.485C116.095 283.551 116.17 283.602 116.253 283.635C116.109 283.574 115.996 283.459 115.937 283.314C115.879 283.169 115.88 283.007 115.941 282.864C116.051 282.6 116.213 282.575 116.862 282.249C124.482 278.481 132.598 275.813 140.968 274.326C149.524 272.774 158.283 272.712 166.86 274.142C171.896 274.849 176.873 275.931 181.747 277.38C181.949 277.437 182.096 278.808 166.851 235.243ZM36.3782 203.857C35.6307 203.974 35.3212 202.842 36.0657 202.723C38.2177 202.367 40.2766 201.584 42.1205 200.419C49.878 195.565 53.9594 185.974 54.1253 177.049C54.133 176.898 54.1983 176.756 54.3077 176.652C54.4172 176.548 54.5625 176.49 54.7136 176.49C54.8647 176.49 55.01 176.548 55.1195 176.652C55.229 176.756 55.2943 176.898 55.3019 177.049C55.4858 188.744 47.4233 202.119 36.3782 203.857ZM105.346 183.104C103.439 192.373 101.692 201.642 100.064 211.199C99.9366 211.947 98.8019 211.627 98.929 210.887C100.528 201.491 102.289 192.124 104.211 182.79C104.363 182.048 105.498 182.364 105.346 183.104ZM125.283 196.194L110.064 201.147C109.34 201.382 109.034 200.25 109.75 200.012L124.97 195.059C125.694 194.823 126 195.961 125.283 196.194ZM142.442 246.711L132.874 259.45C132.426 260.048 131.403 259.462 131.859 258.852C132.259 258.322 138.633 249.829 141.427 246.115C141.876 245.518 142.898 246.106 142.442 246.711Z" fill="#78B5FF"/>
<path d="M227.23 112.835C168.308 41.6459 170.83 44.6419 170.68 44.5477C170.372 44.301 175.711 42.8494 95.4069 66.5362C95.4233 66.9413 95.4801 68.8818 95.4861 69.2601C102.481 69.3953 109.387 70.8505 115.842 73.5492C127.448 78.3604 136.691 87.5505 141.569 99.1287C147.062 111.4 150.258 124.725 152.695 137.916C156.717 138.993 166.694 141.78 167.269 141.942L227.11 113.759C227.187 113.712 227.251 113.649 227.3 113.574C227.349 113.499 227.38 113.414 227.391 113.325C227.403 113.237 227.394 113.147 227.366 113.062C227.338 112.977 227.292 112.899 227.23 112.835ZM156.751 87.0476C143.665 94.2639 144.545 93.8737 144.237 93.8095C144.099 93.7857 143.974 93.7143 143.883 93.6078C143.792 93.5013 143.742 93.3663 143.74 93.2264C143.74 92.8781 158.964 65.2699 159.049 65.1204C159.114 65.008 159.214 64.9204 159.335 64.8714C159.455 64.8224 159.588 64.8148 159.713 64.8498C180.913 73.0469 180.493 72.8331 180.634 73.0095C180.698 73.0709 180.749 73.1459 180.781 73.2291C180.812 73.3123 180.825 73.4016 180.818 73.4904C180.811 73.5793 180.785 73.6655 180.74 73.7426C180.695 73.8198 180.634 73.886 180.561 73.9364C180.41 74.0545 178.363 75.1324 156.751 87.0476Z" fill="#CCEAFF"/>
<path d="M265.489 153.663H199.797C201.423 155.148 202.865 156.822 204.092 158.65C205.622 160.919 207.051 163.252 208.377 165.645C209.694 167.989 210.651 170.517 211.217 173.144C211.819 176.012 211.506 178.996 210.32 181.675C209.868 182.876 209.122 183.945 208.149 184.783C207.177 185.621 206.009 186.201 204.754 186.471C203.493 186.602 202.219 186.448 201.026 186.018C199.833 185.588 198.753 184.895 197.865 183.989C195.381 181.564 193.464 177.906 191.166 173.771C192.141 177.772 192.711 181.862 192.868 185.977C193.133 190.667 192.12 195.341 189.937 199.5C189.37 200.375 188.603 201.103 187.7 201.626C186.796 202.148 185.783 202.449 184.741 202.505C183.795 202.472 182.865 202.243 182.013 201.831C181.16 201.419 180.403 200.834 179.789 200.113C176.761 197.135 176.633 194.581 174.512 186.563C174.256 193.693 174.548 197.354 172.875 202.94C172.24 205.075 171.021 206.991 169.356 208.471C167.698 209.703 165.672 210.336 163.608 210.266C161.544 210.196 159.564 209.428 157.994 208.087C153.744 204.227 153.332 197.495 153.232 191.941C151.372 191.204 133.706 184.572 133.313 184.424C133.346 190.537 133.98 234.264 133.993 234.656C133.995 234.812 134.058 234.96 134.168 235.07C134.278 235.18 134.427 235.243 134.582 235.245H265.483C265.638 235.243 265.787 235.18 265.897 235.07C266.007 234.96 266.07 234.812 266.072 234.656V154.251C266.069 154.096 266.007 153.949 265.898 153.84C265.79 153.73 265.643 153.667 265.489 153.663ZM227.516 171.66C235.922 170.346 245.544 172.818 251.383 179.491C255.019 183.779 257.087 189.176 257.248 194.795C257.378 199.859 255.817 204.821 252.812 208.899C249.807 212.976 245.529 215.936 240.654 217.311H240.603L240.561 217.332C237.859 217.976 235.082 218.256 232.306 218.165C232.292 218.164 232.279 218.161 232.267 218.156C232.249 218.16 232.23 218.163 232.212 218.165C225.012 218.042 219.074 215.113 216.179 211.959C216.141 211.918 216.107 211.872 216.079 211.823C216.027 211.796 215.98 211.761 215.94 211.718C204.62 200.004 207.096 174.855 227.513 171.66H227.516ZM184.107 206.611H202.247C202.398 206.619 202.54 206.684 202.645 206.794C202.749 206.903 202.807 207.049 202.807 207.2C202.807 207.351 202.749 207.496 202.645 207.606C202.54 207.715 202.398 207.78 202.247 207.788H184.104C183.96 207.716 183.85 207.592 183.794 207.441C183.738 207.29 183.742 207.124 183.805 206.976C183.873 206.832 183.976 206.707 184.104 206.611H184.107ZM155.917 215.682H202.492C202.643 215.689 202.786 215.755 202.89 215.864C202.994 215.973 203.052 216.119 203.052 216.27C203.052 216.421 202.994 216.566 202.89 216.676C202.786 216.785 202.643 216.851 202.492 216.858H155.914C155.763 216.851 155.621 216.785 155.517 216.676C155.413 216.566 155.355 216.421 155.355 216.27C155.355 216.119 155.413 215.973 155.517 215.864C155.621 215.755 155.763 215.689 155.914 215.682H155.917Z" fill="#FDFF7D"/>
<path d="M90.0981 45.1933C89.0946 43.5254 87.7611 42.08 86.1794 40.9456C84.5976 39.8111 82.8009 39.0116 80.8994 38.5958C77.0287 37.6785 72.954 38.2689 69.5028 40.247C66.0517 42.2252 63.4828 45.4427 62.318 49.2462C61.0562 53.3365 61.421 57.6033 57.1797 61.1539C52.2641 65.2652 45.5755 66.9754 34.9401 77.415C31.7866 80.5106 29.036 83.9915 26.7535 87.7754C24.5186 91.454 23.1026 95.5709 22.6018 99.846C22.4958 102.999 23.0275 106.141 24.165 109.083C25.3025 112.026 27.0224 114.708 29.2217 116.97C24.1495 113.579 20.5258 108.417 19.0602 102.495C17.5946 96.5723 18.3927 90.3161 21.2982 84.9513C23.1294 81.6717 25.4521 78.692 28.1857 76.1159C33.7173 70.591 40.2717 66.1962 47.4831 63.1766C52.4361 61.2466 57.1334 59.7815 58.5775 54.0571C59.5373 50.2568 59.1217 47.1188 61.5137 43.8074C62.9912 41.7859 65.1296 40.3452 67.558 39.735C67.7024 39.6884 67.8233 39.5878 67.8953 39.4542C67.9674 39.3207 67.9852 39.1645 67.9449 39.0181C67.9046 38.8718 67.8094 38.7467 67.6791 38.6688C67.5488 38.591 67.3935 38.5665 67.2455 38.6003C62.3419 39.8188 58.6687 43.7955 58.0767 50.2464C57.9142 52.1686 57.4427 54.0521 56.6804 55.8242C55.0837 58.886 51.7214 60.2883 48.6687 61.4678C44.9874 62.7557 41.4764 64.4861 38.2126 66.6211C34.8633 68.8297 31.6909 71.2955 28.7239 73.9959C25.8387 76.5645 23.3124 79.5096 21.213 82.7522C19.2181 85.8845 17.9236 89.411 17.4182 93.0901C16.9129 96.7692 17.2085 100.514 18.285 104.068C19.3615 107.623 21.1933 110.902 23.6551 113.683C26.1168 116.463 29.1504 118.679 32.5481 120.178C32.804 112.179 34.9364 104.353 38.7733 97.3299C42.3869 91.2357 47.3163 86.0258 53.2015 82.0809C65.5132 73.7346 80.0379 69.2574 94.912 69.2239L94.9494 69.2344C95.1303 69.2344 95.3097 69.2478 95.4906 69.2523C95.3515 61.1868 94.157 52.1704 90.0981 45.1933ZM82.511 59.466C81.492 60.5851 80.1483 61.3572 78.6682 61.6738C77.1882 61.9905 75.6462 61.8358 74.2586 61.2316C72.9229 60.6788 71.7992 59.7131 71.0519 58.4756C70.3046 57.2382 69.9729 55.7941 70.1055 54.3546C70.2808 52.8921 70.9007 51.5187 71.8816 50.4197C72.8624 49.3208 74.1569 48.5494 75.5902 48.2097C77.0234 47.8699 78.5264 47.9783 79.8962 48.52C81.2659 49.0618 82.4364 50.0108 83.2495 51.2391C84.0136 52.5118 84.3537 53.9944 84.221 55.4729C84.0883 56.9515 83.4895 58.3497 82.511 59.466Z" fill="black"/>
<path d="M141.57 99.1281C139.021 93.3332 135.432 88.0537 130.983 83.5502C122.552 75.1333 109.666 69.4822 94.9532 69.2415C95.049 69.2452 95.1423 69.2729 95.2245 69.322C95.3068 69.3711 95.3754 69.4401 95.4242 69.5226C97.6128 73.7489 96.067 77.2413 93.3028 78.225C92.2251 78.4864 91.099 78.4729 90.028 78.1855C88.9569 77.8982 87.9753 77.3462 87.1733 76.5805C85.4234 75.0044 83.9587 73.1382 82.8437 71.0639C82.8054 70.9924 82.7819 70.9138 82.7749 70.833C82.7679 70.7521 82.7774 70.6707 82.8028 70.5936C82.8283 70.5165 82.8692 70.4455 82.923 70.3847C82.9768 70.3239 83.0424 70.2748 83.1158 70.2402C82.9992 70.2017 82.8747 70.1935 82.754 70.2163C79.7404 70.7542 76.76 71.4639 73.8274 72.3421C73.9712 72.3168 74.1192 72.3449 74.2437 72.4212C74.3682 72.4975 74.4605 72.6166 74.5031 72.7563C74.5614 72.9521 87.6591 120.767 88.0344 122.241L99.8359 125.081C99.8224 124.993 94.5391 82.1867 94.3881 80.9294C94.3924 80.815 94.4295 80.7042 94.4949 80.6103C94.5603 80.5163 94.6513 80.4431 94.7571 80.3993C94.8629 80.3555 94.979 80.3431 95.0917 80.3634C95.2044 80.3837 95.3089 80.4359 95.3928 80.5138C102.041 88.5285 79.1137 60.9189 126.972 118.518C127.062 118.611 127.12 118.731 127.136 118.86C127.153 118.988 127.127 119.119 127.063 119.231C125.297 121.773 121.838 127.358 120.24 129.974C144.065 135.682 152.695 137.92 152.695 137.92C150.255 124.699 147.057 111.386 141.57 99.1281Z" fill="white"/>
<path d="M99.7751 125.065C99.797 125.063 99.819 125.067 99.8387 125.077C99.8205 125.072 99.7978 125.071 99.7751 125.065Z" fill="#CCEAFF"/>
<path d="M88.1284 122.26L94.8933 123.89C90.7222 122.882 88.9253 122.443 88.1284 122.26Z" fill="#CCEAFF"/>
<path d="M145.784 136.074C146.51 136.242 146.21 137.337 145.497 137.21C131.199 133.808 90.2731 123.939 87.4012 123.295C87.2804 123.259 87.1746 123.184 87.0993 123.083C87.024 122.982 86.9834 122.86 86.9834 122.733C86.9834 122.607 87.024 122.485 87.0993 122.384C87.1746 122.282 87.2804 122.208 87.4012 122.172C87.4984 122.142 87.4012 122.097 88.1203 122.26L88.0291 122.239C87.6464 120.767 74.5576 72.9507 74.4978 72.7549C74.4552 72.6153 74.3629 72.4961 74.2384 72.4198C74.1139 72.3435 73.9659 72.3154 73.8221 72.3408H73.7743C66.4551 74.5105 59.5141 77.7952 53.1956 82.0792C32.3299 96.2309 30.2204 117.899 33.777 142.966C35.1109 152.768 37.0481 162.478 39.5776 172.041C39.6147 172.163 39.6893 172.271 39.7911 172.348C39.8928 172.426 40.0164 172.47 40.1442 172.473L102.619 172.258C103.054 172.298 103.476 172.43 103.857 172.645C104.604 172.944 125.471 181.401 125.697 181.465C125.616 181.436 125.542 181.39 125.48 181.33C125.418 181.269 125.37 181.196 125.339 181.115C125.308 181.035 125.295 180.948 125.301 180.862C125.307 180.776 125.331 180.692 125.373 180.616C125.373 180.616 146.072 138.66 146.963 136.841C147.03 136.73 147.131 136.644 147.25 136.595C147.37 136.546 147.502 136.538 147.627 136.57L145.784 136.074ZM100.258 162.398L108.092 166.584C108.762 166.941 108.165 167.958 107.494 167.601L99.6602 163.415C98.9904 163.057 99.5884 162.041 100.258 162.398ZM123.674 180.637C105.124 173.005 86.5714 165.381 68.0155 157.764C67.3233 157.478 67.6283 156.34 68.328 156.629C71.5183 157.937 123.97 179.484 124.065 179.559C124.64 179.897 124.343 180.914 123.674 180.64V180.637Z" fill="#CCEAFF"/>
<path d="M159.713 64.854C159.588 64.819 159.455 64.8266 159.335 64.8756C159.215 64.9246 159.114 65.0122 159.049 65.1246C158.302 66.4417 143.832 92.8359 143.787 92.9988C143.892 92.7357 145.373 91.2661 164.016 71.6413C164.389 71.2466 164.413 71.1046 165.617 71.3139L180.247 72.8328C180.516 72.8672 183.419 74.0198 159.713 64.854Z" fill="#FDFF7D"/>
<path d="M180.246 74.0096C179.605 73.9453 169.367 72.8809 164.9 72.4174C150.451 87.632 144.801 93.6479 144.586 93.7511L144.611 93.7421C184.718 71.6281 180.466 74.032 180.246 74.0096Z" fill="#FDFF7D"/>
<path d="M95.4173 69.5228C95.3686 69.4402 95.3 69.3713 95.2177 69.3222C95.1354 69.2731 95.0421 69.2454 94.9464 69.2417L94.909 69.2312C90.9852 69.2231 87.0678 69.5472 83.1987 70.2C83.1658 70.2 83.1463 70.2299 83.1179 70.2404C83.0445 70.2749 82.9789 70.3241 82.9251 70.3849C82.8713 70.4456 82.8304 70.5167 82.805 70.5938C82.7795 70.6708 82.77 70.7523 82.777 70.8331C82.7841 70.914 82.8075 70.9926 82.8459 71.0641C83.9403 73.1485 85.4013 75.0187 87.1589 76.5851C88.391 77.699 89.9651 78.3611 91.623 78.4629C95.2902 78.6662 98.0037 74.5116 95.4173 69.5228Z" fill="#2755A0"/>
<path d="M143.741 93.271C143.756 93.3943 143.808 93.5104 143.889 93.6044C143.97 93.6984 144.077 93.766 144.197 93.7987C144.67 93.9183 143.278 95.1816 164.901 72.4202C180.819 74.0722 180.388 74.0767 180.562 73.9436C180.66 73.8679 180.733 73.7645 180.771 73.6469C180.81 73.5293 180.813 73.4028 180.779 73.2836C180.745 73.1645 180.677 73.0581 180.582 72.9783C180.487 72.8985 180.371 72.8489 180.248 72.8358C178.814 72.6863 164.991 71.2302 164.676 71.2197C164.363 71.2332 164.208 71.4425 164.016 71.6443C142.508 94.2876 143.741 92.8449 143.741 93.271Z" fill="#2755A0"/>
<path d="M83.2512 51.2344C82.6451 50.317 81.8381 49.5496 80.8915 48.9903C79.9449 48.431 78.8834 48.0944 77.7874 48.0061C76.6915 47.9178 75.5898 48.0801 74.5658 48.4806C73.5418 48.8811 72.6224 49.5094 71.8773 50.3179C71.1372 51.125 70.602 52.0982 70.3167 53.1554C70.0314 54.2126 70.0045 55.3229 70.2381 56.3928C70.4717 57.4626 70.959 58.4606 71.659 59.3027C72.359 60.1448 73.2512 60.8063 74.2603 61.2314C75.6479 61.8356 77.1899 61.9902 78.67 61.6736C80.15 61.3569 81.4937 60.5849 82.5127 59.4658C83.4918 58.3489 84.0909 56.9499 84.2236 55.4705C84.3564 53.9911 84.0159 52.5077 83.2512 51.2344Z" fill="#FC9070"/>
<path d="M232.195 127.529L226.336 138.293C225.974 138.959 226.989 139.554 227.353 138.891C229.061 135.752 232.968 128.576 233.21 128.127C233.573 127.458 232.557 126.863 232.195 127.529Z" fill="black"/>
<path d="M291.312 156.118L276.118 159.567C275.38 159.734 275.692 160.869 276.431 160.701L291.626 157.252C292.363 157.085 292.051 155.95 291.312 156.118Z" fill="black"/>
<path d="M54.1259 177.049C53.9599 185.974 49.8786 195.565 42.121 200.419C40.2771 201.584 38.2183 202.367 36.0663 202.723C35.3188 202.842 35.6372 203.974 36.3787 203.858C47.512 202.105 55.4893 188.628 55.3024 177.049C55.2948 176.898 55.2295 176.756 55.12 176.652C55.0105 176.548 54.8652 176.49 54.7141 176.49C54.5631 176.49 54.4178 176.548 54.3083 176.652C54.1988 176.756 54.1335 176.898 54.1259 177.049Z" fill="#2755A0"/>
<path d="M124.969 195.06L109.753 200.012C109.037 200.246 109.343 201.382 110.067 201.147L125.286 196.194C125.999 195.961 125.693 194.823 124.969 195.06Z" fill="black"/>
<path d="M211.216 173.144C210.65 170.517 209.693 167.989 208.376 165.646C207.05 163.253 205.621 160.919 204.091 158.65C202.864 156.822 201.422 155.148 199.796 153.663C196.304 150.501 192.019 148.348 187.398 147.433C184.939 146.843 149.313 137.007 147.631 136.571C147.506 136.538 147.374 136.547 147.254 136.596C147.134 136.644 147.034 136.731 146.967 136.841L125.372 180.617C125.296 180.755 125.278 180.917 125.322 181.069C125.366 181.22 125.467 181.348 125.605 181.425C126.025 181.657 151.319 191.174 153.239 191.934C153.102 195.862 153.679 199.784 154.942 203.506C156.501 207.393 159.169 209.926 163.305 210.234C165.473 210.414 167.63 209.782 169.358 208.459C171.023 206.979 172.242 205.064 172.877 202.928C174.538 197.383 174.252 193.834 174.514 186.552C176.655 194.638 176.807 197.166 179.791 200.101C180.405 200.822 181.162 201.407 182.015 201.819C182.867 202.231 183.797 202.46 184.743 202.493C185.785 202.437 186.798 202.136 187.702 201.614C188.605 201.091 189.372 200.363 189.939 199.488C190.521 198.552 190.985 197.548 191.321 196.498C192.485 193.113 193.01 189.542 192.87 185.966C192.713 181.85 192.143 177.761 191.168 173.759C193.411 177.806 195.402 181.572 197.867 183.977C198.755 184.883 199.835 185.576 201.028 186.006C202.221 186.436 203.495 186.591 204.756 186.459C209.052 185.924 212.587 179.76 211.216 173.144ZM185.55 161.087L189.105 165.357C189.587 165.936 188.758 166.771 188.273 166.188L184.719 161.92C184.244 161.341 185.072 160.504 185.55 161.087ZM171.768 178.609L167.97 173.825C167.504 173.237 168.332 172.4 168.802 172.992C170.067 174.587 171.333 176.184 172.599 177.783C173.071 178.365 172.245 179.202 171.774 178.609H171.768Z" fill="#FC9070"/>
<path d="M251.381 179.491C245.55 172.823 235.922 170.346 227.513 171.66C208.624 174.615 204.548 196.948 214.42 209.971C214.915 210.634 215.465 211.255 216.064 211.826C215.889 211.531 215.823 211.184 215.879 210.845C215.793 206.615 216.499 202.407 217.96 198.437C219.002 196.351 220.461 194.5 222.247 193.001C224.032 191.501 226.106 190.383 228.341 189.716C228.491 187.496 228.126 185.176 228.139 182.989C228.036 181.536 228.28 180.08 228.852 178.741C229.424 177.402 230.307 176.219 231.428 175.29C232.452 174.511 233.742 174.166 235.018 174.329C236.294 174.493 237.455 175.151 238.25 176.163C239.929 178.335 240.255 180.368 241.59 188.374C249.769 189.559 252.861 196.148 254.459 204.43C254.614 204.883 254.684 205.36 254.665 205.838C256.437 202.425 257.321 198.62 257.238 194.775C257.074 189.164 255.009 183.774 251.381 179.491Z" fill="white"/>
<path d="M240.149 180.436C239.853 178.966 239.251 177.574 238.383 176.351C238.004 175.816 237.521 175.362 236.962 175.018C236.403 174.674 235.781 174.446 235.132 174.349C234.483 174.251 233.821 174.285 233.186 174.45C232.55 174.614 231.955 174.905 231.434 175.305C230.314 176.235 229.431 177.418 228.859 178.757C228.287 180.096 228.043 181.552 228.145 183.004C228.131 185.184 228.494 187.504 228.347 189.732C229.5 189.33 230.683 189.024 231.886 188.815L231.925 188.796C233.874 188.398 235.857 188.19 237.847 188.175L237.876 188.183C239.121 188.137 240.367 188.209 241.597 188.397C241.312 186.664 240.875 183.953 240.149 180.436ZM233.243 185.602C232.228 185.379 231.342 184.762 230.781 183.886C230.22 183.009 230.031 181.947 230.253 180.931C230.387 180.231 230.722 179.586 231.218 179.074C231.713 178.562 232.347 178.206 233.042 178.049C233.737 177.892 234.462 177.942 235.129 178.192C235.796 178.441 236.376 178.881 236.797 179.455C237.285 180.052 237.58 180.784 237.642 181.553C237.704 182.322 237.53 183.091 237.144 183.759C236.757 184.427 236.176 184.961 235.479 185.29C234.781 185.619 234 185.728 233.239 185.602H233.243Z" fill="black"/>
<path d="M254.471 204.445C253.11 197.446 250.376 190.433 243.424 188.727C241.608 188.305 239.745 188.12 237.881 188.175C237.968 188.182 238.052 188.207 238.128 188.249C238.204 188.291 238.269 188.35 238.32 188.42C238.372 188.49 238.407 188.571 238.424 188.656C238.44 188.742 238.438 188.829 238.418 188.914C237.987 190.818 236.686 192.55 234.83 192.493C233.103 192.439 232.131 190.998 231.515 189.512C231.477 189.369 231.494 189.217 231.563 189.087C231.632 188.956 231.748 188.856 231.887 188.808C230.684 189.012 229.5 189.319 228.349 189.724C226.114 190.39 224.039 191.508 222.254 193.008C220.468 194.508 219.009 196.358 217.967 198.444C216.506 202.415 215.8 206.623 215.886 210.853C215.853 211.049 215.861 211.249 215.91 211.442C215.959 211.634 216.048 211.814 216.172 211.97C219.066 215.126 225.006 218.053 232.204 218.175C232.223 218.174 232.242 218.171 232.26 218.166C232.174 218.159 232.091 218.133 232.017 218.09C231.942 218.048 231.878 217.989 231.827 217.92C231.777 217.85 231.743 217.77 231.726 217.686C231.71 217.601 231.712 217.514 231.732 217.431C232.928 209.865 232.651 206.609 233.526 200.321C233.734 198.775 234.021 197.24 234.386 195.724C234.425 195.604 234.501 195.501 234.603 195.427C234.705 195.354 234.827 195.315 234.953 195.315C235.078 195.315 235.201 195.354 235.303 195.427C235.404 195.501 235.481 195.604 235.52 195.724C236.086 197.243 236.557 198.796 236.93 200.375C237.359 202.145 240.95 216.549 240.967 216.619C241.002 216.761 240.983 216.911 240.915 217.041C240.847 217.17 240.734 217.27 240.597 217.322H240.648C243.463 216.569 246.099 215.265 248.406 213.485C250.712 211.706 252.642 209.486 254.084 206.954C254.322 206.613 254.522 206.248 254.682 205.864C254.701 205.382 254.629 204.901 254.471 204.445ZM222.719 215.864L222.385 207.775C222.354 207.015 223.53 207.027 223.562 207.775L223.895 215.864C223.924 216.624 222.747 216.619 222.716 215.864H222.719ZM248.146 212.354C248.146 212.354 246.613 207.246 245.955 204.75C245.92 204.602 245.943 204.445 246.021 204.314C246.099 204.183 246.224 204.086 246.371 204.046C246.518 204.005 246.675 204.023 246.81 204.096C246.944 204.169 247.044 204.291 247.09 204.436C247.837 206.966 248.567 209.502 249.28 212.041C249.314 212.189 249.29 212.345 249.212 212.475C249.134 212.605 249.009 212.701 248.862 212.741C248.716 212.781 248.56 212.763 248.426 212.691C248.293 212.619 248.192 212.498 248.146 212.354Z" fill="#A982F4"/>
<path d="M236.796 179.461C236.236 178.71 235.412 178.201 234.491 178.034C233.57 177.868 232.62 178.057 231.832 178.564C231.407 178.856 231.043 179.231 230.764 179.665C230.484 180.1 230.295 180.586 230.205 181.095C230.116 181.604 230.129 182.125 230.243 182.629C230.358 183.133 230.572 183.609 230.873 184.029C231.224 184.544 231.699 184.962 232.255 185.244C232.811 185.526 233.429 185.663 234.052 185.642C234.675 185.621 235.283 185.443 235.818 185.124C236.354 184.805 236.8 184.356 237.116 183.818C237.5 183.142 237.674 182.367 237.617 181.591C237.56 180.815 237.274 180.074 236.796 179.461Z" fill="#FC9070"/>
<path d="M237.875 188.175L237.845 188.168C235.856 188.183 233.873 188.39 231.923 188.788L231.884 188.808C231.745 188.856 231.629 188.956 231.56 189.086C231.491 189.217 231.474 189.369 231.512 189.512C232.128 190.993 233.1 192.439 234.827 192.493C236.664 192.55 238.102 190.699 238.415 188.914C238.435 188.829 238.437 188.741 238.42 188.655C238.403 188.57 238.368 188.489 238.317 188.419C238.265 188.349 238.199 188.29 238.123 188.248C238.046 188.206 237.962 188.181 237.875 188.175Z" fill="white"/>
<path d="M240.963 216.612C239.809 211.692 239.169 209.726 238.19 205.682C237.512 202.306 236.619 198.977 235.516 195.716C235.477 195.597 235.401 195.493 235.299 195.42C235.197 195.347 235.075 195.307 234.949 195.307C234.824 195.307 234.701 195.347 234.599 195.42C234.498 195.493 234.421 195.597 234.382 195.716C234.018 197.233 233.731 198.767 233.522 200.313C232.642 206.655 232.915 209.89 231.728 217.423C231.708 217.507 231.706 217.594 231.723 217.678C231.739 217.762 231.774 217.842 231.824 217.912C231.874 217.982 231.938 218.04 232.013 218.083C232.087 218.125 232.17 218.151 232.256 218.159C235.045 218.269 237.837 217.991 240.55 217.335C240.697 217.288 240.821 217.188 240.898 217.054C240.974 216.92 240.997 216.762 240.963 216.612Z" fill="black"/>
<path d="M168.805 172.986C168.336 172.388 167.508 173.231 167.974 173.818L171.771 178.602C172.241 179.2 173.069 178.359 172.602 177.771L168.805 172.986Z" fill="#FF4848"/>
<path d="M185.551 161.087C185.067 160.504 184.239 161.341 184.72 161.92L188.274 166.188C188.76 166.771 189.588 165.936 189.107 165.357L185.551 161.087Z" fill="#FF4848"/>
<path d="M68.3275 156.626C67.6278 156.339 67.3228 157.475 68.015 157.761L123.674 180.634C124.344 180.908 124.641 179.887 124.064 179.551C123.974 179.486 68.4336 156.67 68.3275 156.626Z" fill="#2755A0"/>
<path d="M108.092 166.583L100.258 162.397C99.59 162.039 98.995 163.055 99.6602 163.412L107.494 167.598C108.167 167.949 108.762 166.94 108.092 166.583Z" fill="#2755A0"/>
<path d="M195.517 70.7905C196.486 67.1451 197.783 63.595 199.392 60.1835C199.712 59.5018 198.7 58.9038 198.375 59.5855C196.654 63.2111 195.278 66.9913 194.267 70.8757C194.235 71.0007 194.243 71.133 194.292 71.2527C194.341 71.3723 194.427 71.473 194.538 71.5395C201.092 75.6493 205.972 81.9547 208.307 89.33C208.533 90.0491 209.67 89.7426 209.441 89.0176C207.073 81.5014 202.146 75.0524 195.517 70.7905Z" fill="#FF4848"/>
<path d="M218.738 43.8298C220.233 41.843 231.472 26.8571 232.019 26.1275C232.468 25.522 231.453 24.9315 231.003 25.5295L217.724 43.2363C217.27 43.8418 218.289 44.4293 218.738 43.8298Z" fill="black"/>
<path d="M221.211 46.9829C223.343 45.8048 239.22 36.8169 239.983 36.3684C240.117 36.2891 240.215 36.1595 240.254 36.0081C240.294 35.8567 240.271 35.6959 240.192 35.5611C240.113 35.4263 239.983 35.3285 239.832 35.2893C239.68 35.25 239.519 35.2725 239.385 35.3518C237.251 36.5299 221.374 45.5178 220.612 45.9663C220.477 46.0456 220.379 46.1752 220.34 46.3266C220.301 46.478 220.323 46.6388 220.403 46.7736C220.482 46.9084 220.611 47.0062 220.763 47.0455C220.914 47.0847 221.075 47.0622 221.21 46.9829H221.211Z" fill="black"/>
<path d="M104.211 182.79C102.289 192.125 100.528 201.492 98.9287 210.887C98.8017 211.634 99.9364 211.945 100.063 211.199C101.664 201.805 103.424 192.438 105.345 183.104C105.498 182.364 104.363 182.048 104.211 182.79Z" fill="#2755A0"/>
<path d="M224.239 16.7255C224.466 16.0019 223.33 15.6924 223.104 16.413L215.532 40.5857C215.306 41.3093 216.441 41.6202 216.667 40.8981L224.239 16.7255Z" fill="black"/>
<path d="M145.784 136.074C144.656 135.816 132.888 133.002 120.241 129.97C121.941 127.21 125.239 121.852 127.064 119.227C127.128 119.115 127.154 118.984 127.137 118.855C127.121 118.727 127.063 118.607 126.973 118.514L95.4029 80.5097C95.2889 80.4018 95.137 80.3431 94.9801 80.3462C94.8232 80.3493 94.6738 80.4139 94.5642 80.5261C94.2786 80.8251 94.029 77.9742 99.846 125.077C92.7702 123.379 87.7514 122.168 87.723 122.16C87.6208 122.137 87.5143 122.142 87.4143 122.173C87.3142 122.204 87.2241 122.261 87.1529 122.338C87.0818 122.415 87.0321 122.509 87.0088 122.611C86.9856 122.713 86.9895 122.82 87.0204 122.92C87.0436 123.013 87.0926 123.097 87.1616 123.164C87.2306 123.23 87.3169 123.275 87.4106 123.295C90.5336 123.996 145.357 137.208 145.506 137.211C146.221 137.354 146.517 136.242 145.784 136.074Z" fill="#2755A0"/>
<path d="M8.76909 283.778H87.7425C87.881 283.763 88.0119 283.707 88.1184 283.617C88.225 283.527 88.3023 283.408 88.3405 283.274L98.8459 217.691C112.129 269.034 115.044 280.433 115.751 282.915C115.992 283.767 116.149 283.743 116.648 283.754C118.353 283.791 195.249 283.775 195.4 283.775C196.033 283.775 196.399 282.779 195.747 282.495C191.236 280.501 186.611 278.777 181.895 277.333C181.521 276.17 179.005 269.65 166.998 235.337H265.498C265.679 235.334 265.852 235.261 265.98 235.133C266.108 235.005 266.182 234.832 266.184 234.65V154.251C266.182 154.07 266.108 153.897 265.98 153.769C265.852 153.641 265.679 153.567 265.498 153.565H199.835C198.102 151.968 196.147 150.632 194.03 149.6C190.697 148.003 191.358 148.553 167.568 141.914L227.171 113.844C227.249 113.797 227.317 113.735 227.371 113.661C227.425 113.587 227.464 113.504 227.486 113.415C227.507 113.326 227.511 113.234 227.497 113.144C227.483 113.053 227.452 112.967 227.404 112.889C227.389 112.863 220.948 105.074 212.415 94.7618L225.599 91.5162C227.965 91.0774 230.287 90.427 232.536 89.5727C235.676 88.3767 237.411 84.3312 235.096 82.0379C234.143 81.2736 232.98 80.8164 231.762 80.7268C229.519 80.3936 227.262 80.1601 224.998 80.0271C226.496 79.488 227.964 78.8722 229.398 78.1823C231.875 77.1785 234.124 75.6874 236.014 73.7975C237.542 72.0438 238.352 69.5487 236.683 67.5887C235.164 65.7947 232.473 65.6318 230.309 65.5167C225.815 65.2775 227.302 66.1147 231.419 63.6001C234.082 61.9735 236.858 59.0538 235.816 55.6766C234.74 52.1872 230.787 50.6728 227.233 51.06C224.662 51.3396 225.777 51.1751 200.871 56.158C203.249 50.5457 203.104 51.0884 203.659 49.5067C206.813 40.5367 200.016 35.2698 194.118 39.5904C192.689 40.6374 191.418 41.8851 190.346 43.295C189.209 44.7574 188.169 46.2926 187.232 47.8906C185.331 51.238 183.653 54.7075 182.21 58.2764C176.38 51.2499 172.044 46.0174 170.972 44.7421C170.577 44.2727 170.69 44.2936 170.048 44.4536C167.641 45.0337 155.772 48.6127 95.503 66.3912C95.1457 59.0896 93.7883 51.3246 90.1928 45.1443C86.2654 38.3929 76.7378 35.9485 69.4975 40.1375C66.0192 42.1429 63.4255 45.3868 62.2348 49.2212C60.976 53.301 61.3378 57.5647 57.1204 61.0855C52.293 65.122 45.416 67.0057 34.8823 77.3451C31.7228 80.4473 28.9667 83.9352 26.6792 87.7264C24.436 91.42 23.0158 95.554 22.5156 99.8463C22.2891 105.946 24.4659 111.892 28.5778 116.403C23.7571 112.945 20.3662 107.844 19.0433 102.06C17.7204 96.2763 18.5565 90.2084 21.3944 84.998C23.2212 81.7228 25.5406 78.7479 28.2714 76.1775C43.4068 61.7253 51.1867 63.769 56.1681 58.6561C60.5439 54.1711 58.0458 48.7786 61.6129 43.8436C63.0797 41.8495 65.196 40.4294 67.5974 39.8281C67.7728 39.7797 67.9219 39.6636 68.0117 39.5053C68.1016 39.3471 68.1249 39.1596 68.0765 38.9841C68.0281 38.8087 67.912 38.6596 67.7538 38.5698C67.5955 38.4799 67.408 38.4566 67.2326 38.505C62.2991 39.7294 58.59 43.7375 57.995 50.2198C57.8303 52.1367 57.3578 54.0146 56.5957 55.7812C55.011 58.819 51.6726 60.2094 48.6422 61.38C44.9536 62.6708 41.4351 64.4042 38.1638 66.5422C34.8095 68.7566 31.6321 71.2277 28.6601 73.9335C25.7698 76.5091 23.2386 79.4612 21.1342 82.7106C19.1565 85.8586 17.8758 89.3936 17.3783 93.0779C16.8809 96.7622 17.1782 100.51 18.2502 104.07C19.3223 107.63 21.1442 110.919 23.5935 113.716C26.0428 116.512 29.0627 118.752 32.4499 120.284C32.1105 127.867 32.5227 135.465 33.6803 142.967C34.8775 151.683 36.5368 160.329 38.6512 168.869C39.4869 172.176 39.4809 172.227 39.7216 172.418C38.9247 175.761 14.9285 276.156 14.0763 279.868C12.1599 280.67 10.2762 281.548 8.42973 282.499C8.30444 282.578 8.20757 282.694 8.1533 282.832C8.09903 282.969 8.09022 283.121 8.12816 283.264C8.16609 283.407 8.24879 283.534 8.36412 283.626C8.47946 283.719 8.62137 283.772 8.76909 283.778ZM191.992 282.405H119.484C130.855 277.149 144.787 273.778 157.293 274.482C169.235 275.064 180.981 277.746 191.992 282.405ZM264.798 154.937V233.969H135.254C134.838 224.797 134.748 205.646 134.635 185.018C142.767 188.128 144.929 188.747 153.144 192.001C153.012 195.917 153.59 199.824 154.85 203.534C156.417 207.44 159.111 210.022 163.307 210.331C165.503 210.514 167.689 209.872 169.437 208.53C171.113 207.039 172.34 205.11 172.98 202.959C174.624 197.492 174.394 193.665 174.595 187.231C176.462 194.196 176.649 197.142 179.731 200.177C180.353 200.909 181.121 201.502 181.986 201.92C182.85 202.338 183.792 202.571 184.752 202.604C185.811 202.548 186.841 202.242 187.759 201.711C188.677 201.18 189.457 200.439 190.033 199.549C192.225 195.375 193.242 190.685 192.977 185.978C192.832 182.07 192.307 178.185 191.407 174.38C193.09 177.882 195.244 181.138 197.807 184.058C198.707 184.976 199.802 185.678 201.012 186.112C202.221 186.547 203.513 186.702 204.791 186.567C206.058 186.294 207.237 185.707 208.219 184.861C209.202 184.016 209.957 182.937 210.416 181.724C212.808 176.381 211.298 170.72 208.473 165.596C207.148 163.203 205.719 160.869 204.19 158.601C203.312 157.3 202.328 156.074 201.246 154.937H264.798ZM177.39 146.099C187.727 148.939 188.271 148.8 191.424 149.948C199.15 152.76 202.702 158.283 206.767 165.363C208.268 167.881 209.356 170.622 209.99 173.484C210.452 175.772 210.285 178.143 209.506 180.343C209.18 181.462 208.588 182.485 207.779 183.324C206.97 184.163 205.97 184.793 204.864 185.16C203.728 185.328 202.569 185.217 201.486 184.835C200.404 184.454 199.43 183.815 198.651 182.973C195.128 179.202 194.055 175.797 190.301 169.682C190.214 169.543 190.081 169.439 189.924 169.389C189.768 169.34 189.599 169.348 189.448 169.411C189.297 169.475 189.173 169.591 189.1 169.737C189.026 169.884 189.007 170.052 189.047 170.211C191.14 178.933 193.281 188.513 189.715 197.16C189.404 198.097 188.871 198.944 188.163 199.631C187.454 200.318 186.59 200.823 185.644 201.104C184.797 201.259 183.924 201.193 183.109 200.912C182.295 200.632 181.566 200.147 180.993 199.503C179.974 198.561 179.142 197.436 178.538 196.187C176.981 192.192 176.191 186.535 174.705 183.281C174.635 183.167 174.534 183.076 174.413 183.019C174.292 182.961 174.158 182.94 174.025 182.957C173.893 182.974 173.768 183.029 173.666 183.116C173.564 183.202 173.49 183.316 173.451 183.444C172.922 187.793 173.487 194.097 172.365 199.799C171.599 203.708 169.703 208.279 165.219 208.907C163.405 209.17 161.554 208.828 159.954 207.933C154.943 204.644 154.645 197.456 154.508 191.53C154.503 191.381 154.452 191.237 154.362 191.119C154.272 191 154.146 190.913 154.004 190.869C144.774 187.196 135.914 184.167 126.825 180.554C148.305 136.993 147.894 137.9 147.868 137.952C157.756 140.489 167.547 143.391 177.39 146.099ZM193.088 42.2201C199.111 36.0308 204.891 41.1018 202.603 48.2987C202.055 49.9245 201.417 51.5186 200.693 53.0738C200.153 54.2847 199.675 55.5226 199.138 56.735C199.074 56.8533 199.046 56.9876 199.056 57.1217C199.067 57.2558 199.116 57.3839 199.198 57.4906C199.28 57.5973 199.391 57.678 199.518 57.723C199.644 57.768 199.781 57.7754 199.912 57.7441C208.003 55.9696 216.15 54.4551 224.281 52.869C227.467 52.2515 231.663 51.7851 233.862 54.793C235.743 57.3659 233.904 60.3589 231.34 62.0049C227.813 64.1308 223.901 65.5415 219.829 66.1565C218.957 66.306 219.331 67.6246 220.195 67.4796C224.209 66.7981 228.295 66.6563 232.346 67.058C233.298 67.1574 234.216 67.4636 235.037 67.955C235.415 68.1889 235.726 68.5154 235.941 68.9035C236.156 69.2915 236.269 69.7283 236.268 70.1721C235.978 73.3923 231.783 75.4853 229.026 76.8398C226.391 78.1005 223.65 79.1261 220.835 79.9045C220.682 79.9552 220.551 80.0577 220.466 80.1944C220.381 80.3311 220.346 80.4933 220.368 80.653C220.389 80.8127 220.466 80.9598 220.585 81.0688C220.703 81.1778 220.856 81.2419 221.017 81.25C224.49 81.2888 227.956 81.5549 231.394 82.0469C232.352 82.0969 233.278 82.4116 234.069 82.9558C235.443 84.24 235.051 87.2913 231.123 88.6607C229.355 89.2752 230.845 88.8102 211.442 93.5853C206.303 87.3825 183.198 59.4126 183.198 59.4126C186.1 52.6402 188.807 46.6169 193.088 42.2201ZM170.13 45.8305C171.924 47.9953 225.099 112.367 225.679 113.032L165.544 141.352C162.38 140.462 155.976 138.719 152.823 137.864C150.387 124.708 147.142 111.331 141.657 99.0794C139.103 93.2766 135.509 87.9903 131.051 83.4821C121.843 74.2878 108.681 69.5218 95.5853 69.157C95.5778 68.7085 95.5658 68.26 95.5524 67.8115C128.734 58.0222 166.62 46.9577 170.13 45.8305ZM96.4269 74.6227C96.6615 73.25 96.5061 71.8391 95.9784 70.5503C101.948 70.732 107.848 71.8832 113.448 73.9589C119.177 76.0413 124.437 79.2359 128.927 83.359C133.417 87.4821 137.047 92.4523 139.609 97.9836C145.358 109.969 148.815 124.106 151.284 137.272C144.273 135.628 139.951 134.595 136.925 133.862C130.168 132.23 129.866 132.076 120.48 129.776C121.799 127.64 125.132 122.18 127.151 119.28C127.225 119.148 127.255 118.996 127.235 118.846C127.216 118.696 127.148 118.557 127.043 118.449C125.997 117.182 95.4821 80.4637 95.4642 80.4442C95.3671 80.3514 95.2452 80.2888 95.1133 80.264C94.9813 80.2392 94.845 80.2534 94.7209 80.3047C94.5969 80.3561 94.4904 80.4424 94.4145 80.5531C94.3386 80.6639 94.2966 80.7944 94.2936 80.9286C94.4431 82.168 99.6756 124.526 99.7219 124.941C99.7098 124.857 99.6984 124.773 99.6875 124.689C98.1925 124.322 88.8518 121.987 88.1536 121.848C87.5556 119.544 74.8915 73.3534 74.8915 73.3534C77.4191 72.6166 79.9836 72.0123 82.5743 71.543C84.6673 74.9949 87.5078 78.6921 91.625 78.5605C92.767 78.596 93.8831 78.2167 94.767 77.4927C95.6509 76.7688 96.2427 75.7493 96.4329 74.6227H96.4269ZM118.995 129.565L101.145 125.282C100.828 123.04 95.95 83.2937 95.9321 83.1397C96.5062 83.8289 125.384 118.618 125.698 118.984C123.521 122.144 121.213 125.925 118.995 129.565ZM92.96 76.9968C89.5664 78.124 86.2849 74.373 84.4864 71.2903C87.7949 70.7759 91.1381 70.516 94.4864 70.5129C95.6794 72.8466 95.4657 75.9219 92.96 76.9968ZM32.5934 118.305C30.1378 116.356 28.0989 113.933 26.5976 111.181C25.0962 108.429 24.1631 105.403 23.8536 102.283C23.3184 94.6198 28.678 85.9174 33.9494 80.2843C38.6711 75.2237 44.0752 70.8461 50.0057 67.2778C53.9869 64.8723 57.0726 63.4939 59.8054 60.2647C62.9345 56.146 61.9986 53.9095 64.0766 48.1253C64.9977 45.9729 66.4325 44.0792 68.2554 42.61C70.0783 41.1409 72.2337 40.1413 74.5327 39.6986C76.8317 39.256 79.2042 39.3838 81.4423 40.071C83.6804 40.7582 85.7158 41.9838 87.3702 43.6403C88.0044 44.3008 88.552 45.0393 88.9998 45.838C93.0423 52.9841 94.0589 60.9943 94.2084 69.1301C88.0246 69.2315 81.8736 70.0523 75.8797 71.5759C67.7879 73.7889 60.1122 77.3092 53.1557 81.9975C47.2559 85.9504 42.3145 91.1722 38.693 97.2809C35.1233 103.749 33.0396 110.931 32.5934 118.305ZM35.5416 146.411C34.2352 138.582 33.6208 130.654 33.7057 122.717C34.0047 107.117 39.1744 94.0876 51.8341 84.6526C58.3666 79.807 65.6893 76.1297 73.4772 73.784C74.2127 76.2821 86.8126 122.63 86.9232 122.953C86.9504 123.06 87.0066 123.158 87.0858 123.235C87.165 123.312 87.2639 123.365 87.3717 123.39C90.2825 124.043 137.359 135.394 146.5 137.55C143.839 142.946 127.813 175.429 125.55 180.028C125.511 180.01 72.1078 158.083 68.3508 156.531C68.1752 156.483 67.9878 156.507 67.8296 156.597C67.6713 156.686 67.5551 156.835 67.5062 157.011C67.4608 157.186 67.4853 157.372 67.5745 157.53C67.6638 157.687 67.8108 157.804 67.9846 157.855C69.0041 158.274 85.7751 165.031 100.635 171.032C97.9354 171.032 41.2659 171.132 40.6664 171.164C38.5365 163.005 36.826 154.742 35.5416 146.408V146.411ZM41.1254 172.574C44.6252 172.606 57.1832 172.499 102.621 172.36C103.884 172.476 110.71 175.813 133.213 184.478C133.268 191.922 133.892 234.262 133.904 234.659C133.908 234.84 133.982 235.012 134.11 235.14C134.238 235.268 134.41 235.341 134.591 235.346H165.538C171.219 251.581 178.935 273.293 180.223 276.854C172.747 274.745 165.056 273.487 157.297 273.105C146.08 272.777 134.912 274.715 124.461 278.804C121.906 279.791 119.394 280.888 116.934 282.093L99.3556 214.17C99.1957 213.553 98.1417 213.481 98.0311 214.17C97.6693 216.432 87.2671 281.357 87.1355 282.118C75.2912 276.796 62.5551 273.739 49.5856 273.103C37.9825 272.775 26.4373 274.856 15.679 279.215C17.6359 270.995 41.0192 172.962 41.1254 172.569V172.574ZM40.6769 274.622C49.0857 274.126 57.5228 274.785 65.7525 276.581C72.0945 277.941 78.295 279.893 84.2726 282.411C71.6443 282.411 14.5398 282.437 11.7651 282.411C20.8884 278.176 30.6714 275.54 40.6873 274.618L40.6769 274.622Z" fill="black"/>
<path d="M144.703 93.7974C146.379 92.9393 177.174 75.8978 180.257 74.2129C181.269 73.6583 181.018 72.9855 180.257 72.685C179.269 72.2918 175.036 70.6712 159.738 64.7615C159.592 64.7205 159.437 64.7293 159.296 64.7864C159.156 64.8435 159.038 64.9457 158.962 65.077C158.203 66.4225 144.477 91.4458 143.728 92.8959C143.335 93.4102 144.103 94.2235 144.703 93.7974ZM147.91 90.4636C153.441 84.6525 164.355 73.1216 164.942 72.5131L178.116 73.881C177.551 74.0634 174.157 75.986 147.91 90.4695V90.4636ZM159.87 66.27L175.22 72.2051C170.714 71.7327 164.881 71.1212 164.674 71.1123C164.326 71.1227 164.157 71.344 163.946 71.5608C155.265 80.7012 150.302 85.9128 147.463 88.9028C148.476 87.0699 159.361 67.2118 159.873 66.2759L159.87 66.27Z" fill="black"/>
<path d="M74.2125 61.3155C75.619 61.9309 77.183 62.0901 78.6846 61.7707C80.1863 61.4513 81.5501 60.6694 82.5845 59.5349C83.5781 58.4021 84.1859 56.9829 84.3203 55.4821C84.4547 53.9813 84.1086 52.4766 83.332 51.1854C82.5505 49.9362 81.3964 48.9639 80.0327 48.4057C78.669 47.8475 77.1645 47.7316 75.7314 48.0743C74.2558 48.3344 72.9038 49.0643 71.8768 50.1552C70.8497 51.2461 70.2026 52.6396 70.0319 54.1282C69.8611 55.6167 70.1759 57.1206 70.9292 58.4157C71.6825 59.7109 72.8342 60.728 74.2125 61.3155ZM72.5485 51.4724C73.2743 50.6744 74.1828 50.0645 75.1962 49.6948C75.8725 49.4056 76.5992 49.2524 77.3347 49.2441C78.0702 49.2358 78.8002 49.3726 79.4828 49.6465C80.1655 49.9204 80.7875 50.3262 81.3133 50.8406C81.8391 51.355 82.2583 51.968 82.5471 52.6445C82.9517 53.6418 83.0691 54.7325 82.886 55.7931C82.7029 56.8537 82.2266 57.8419 81.511 58.6459C80.7954 59.4499 79.8691 60.0375 78.8368 60.3423C77.8046 60.6471 76.7076 60.6569 75.6701 60.3706C74.3177 60.0351 73.1227 59.243 72.2869 58.1281C71.6244 57.1324 71.293 55.953 71.3399 54.7579C71.3869 53.5628 71.8099 52.413 72.5485 51.4724Z" fill="black"/>
<path d="M55.4031 177.048C55.4031 176.866 55.3308 176.692 55.2021 176.563C55.0734 176.434 54.8989 176.362 54.7169 176.362C54.5349 176.362 54.3604 176.434 54.2317 176.563C54.103 176.692 54.0307 176.866 54.0307 177.048C53.8124 188.954 46.4839 200.905 36.0429 202.629C35.8675 202.678 35.7187 202.794 35.6288 202.952C35.5389 203.111 35.5152 203.298 35.563 203.474C35.6142 203.647 35.7309 203.794 35.8886 203.884C36.0462 203.973 36.2323 203.998 36.4076 203.952C47.4811 202.21 55.5885 188.818 55.4031 177.048Z" fill="black"/>
<path d="M232.112 127.48L226.253 138.244C225.831 139.02 227.017 139.713 227.438 138.938L233.297 128.174C233.72 127.396 232.535 126.702 232.112 127.48Z" fill="black"/>
<path d="M291.29 156.022L276.096 159.473C275.235 159.667 275.598 160.992 276.461 160.796L291.655 157.347C292.516 157.151 292.146 155.828 291.29 156.022Z" fill="black"/>
<path d="M110.091 201.242L125.311 196.289C126.147 196.017 125.79 194.691 124.947 194.964L109.726 199.919C108.889 200.189 109.248 201.517 110.091 201.242Z" fill="black"/>
<path d="M214.354 210.039C219.473 216.807 228.053 218.93 236.532 218.101C242.33 217.63 247.725 214.948 251.599 210.61C255.474 206.271 257.531 200.609 257.346 194.795C257.184 189.15 255.106 183.729 251.454 179.422C245.649 172.793 236.024 170.228 227.491 171.566C208.525 174.539 204.447 196.981 214.354 210.039ZM233.098 216.893C234.154 210.564 233.961 204.852 235.112 198.479C235.806 200.917 236.519 204.172 236.964 206.019C237.791 209.437 238.75 212.822 239.567 216.241C237.441 216.699 235.269 216.918 233.094 216.893H233.098ZM249.128 211.143C248.494 208.896 247.846 206.654 247.184 204.415C247.16 204.328 247.12 204.247 247.064 204.176C247.009 204.105 246.94 204.045 246.862 204.001C246.783 203.956 246.697 203.928 246.607 203.917C246.518 203.906 246.427 203.912 246.34 203.936C246.253 203.96 246.172 204.001 246.101 204.056C246.03 204.112 245.971 204.181 245.926 204.259C245.882 204.337 245.853 204.424 245.842 204.513C245.831 204.602 245.837 204.693 245.861 204.78C246.432 206.948 247.682 211.15 247.984 212.161C245.923 213.852 243.547 215.118 240.993 215.886C240.219 212.562 239.223 209.287 238.47 205.957C237.682 202.433 236.744 198.944 235.658 195.501C235.609 195.351 235.514 195.221 235.386 195.129C235.259 195.036 235.105 194.987 234.948 194.987C234.79 194.987 234.637 195.036 234.509 195.129C234.382 195.221 234.287 195.351 234.238 195.501C232.364 202.464 232.873 209.784 231.632 216.858C229.018 216.745 226.437 216.241 223.973 215.363L223.659 207.773C223.623 206.893 222.251 206.888 222.287 207.773L222.575 214.771C220.57 213.882 218.738 212.647 217.162 211.122C216.994 207.073 217.623 203.03 219.013 199.223C220.526 195.934 223.197 193.316 226.516 191.869C228.136 191.114 229.833 190.539 231.578 190.154C231.906 190.846 232.389 191.452 232.991 191.925C233.345 192.189 233.75 192.378 234.18 192.479C234.611 192.58 235.058 192.592 235.493 192.512C235.928 192.433 236.341 192.264 236.708 192.018C237.075 191.771 237.388 191.451 237.625 191.078C237.994 190.583 238.27 190.026 238.442 189.434C241.305 189.24 244.157 189.96 246.585 191.491C248.655 193.081 250.241 195.216 251.165 197.656C252.193 200.205 252.935 202.86 253.38 205.572C252.265 207.642 250.83 209.522 249.128 211.143ZM229.617 189.22C229.759 185.015 228.498 180.453 231.05 177.368C231.801 176.444 232.852 175.814 234.021 175.589C234.608 175.529 235.202 175.614 235.749 175.836C236.296 176.059 236.781 176.411 237.16 176.864C238.051 177.939 238.646 179.227 238.889 180.601C239.365 182.632 240.052 186.889 240.259 188.133C236.677 187.942 233.086 188.308 229.617 189.22ZM236.917 189.471C236.808 189.92 236.568 190.327 236.229 190.64C235.889 190.953 235.464 191.159 235.008 191.231C234.59 191.215 234.185 191.078 233.843 190.837C233.501 190.596 233.236 190.261 233.08 189.873C234.349 189.656 235.63 189.523 236.917 189.477V189.471ZM215.718 179.247C224.928 169.129 242.75 171.323 250.482 180.392C253.165 183.492 254.95 187.266 255.646 191.307C256.342 195.347 255.922 199.5 254.431 203.319C253.835 200.067 252.658 196.947 250.956 194.112C249.978 192.481 248.629 191.103 247.019 190.092C245.408 189.081 243.581 188.464 241.687 188.292C241.263 185.655 240.782 183.027 240.245 180.41C239.944 178.923 239.333 177.517 238.45 176.282C238.063 175.739 237.571 175.28 237.002 174.931C236.434 174.582 235.801 174.351 235.142 174.252C234.482 174.153 233.809 174.188 233.163 174.354C232.517 174.521 231.912 174.815 231.382 175.221C230.246 176.159 229.35 177.354 228.769 178.708C228.188 180.062 227.939 181.534 228.042 183.004C228.029 185.155 228.388 187.452 228.253 189.651C227.954 189.755 227.645 189.869 227.346 189.987C220.606 192.582 217.498 196.943 216.425 203.049C216.039 205.189 215.804 207.353 215.721 209.525C208.186 199.832 209.37 186.22 215.718 179.247Z" fill="black"/>
<path d="M231.785 178.473C231.145 178.921 230.649 179.545 230.358 180.27C230.066 180.995 229.992 181.789 230.145 182.555C230.297 183.321 230.669 184.026 231.216 184.584C231.762 185.143 232.459 185.53 233.222 185.698C234.002 185.831 234.805 185.723 235.522 185.387C236.238 185.052 236.836 184.505 237.234 183.821C237.632 183.137 237.812 182.348 237.749 181.559C237.686 180.77 237.384 180.019 236.883 179.406C236.31 178.634 235.465 178.108 234.518 177.935C233.572 177.761 232.595 177.954 231.785 178.473ZM235.062 184.061C234.784 184.218 234.476 184.317 234.158 184.353C233.841 184.389 233.519 184.36 233.212 184.269C232.906 184.179 232.62 184.027 232.373 183.825C232.126 183.622 231.922 183.371 231.773 183.088C231.454 182.528 231.35 181.871 231.48 181.24C231.61 180.609 231.965 180.047 232.479 179.659C233.027 179.3 233.695 179.173 234.336 179.307C234.977 179.441 235.539 179.824 235.898 180.372C236.099 180.665 236.238 180.996 236.305 181.345C236.372 181.694 236.366 182.053 236.287 182.399C236.209 182.746 236.059 183.072 235.849 183.358C235.638 183.644 235.37 183.884 235.062 184.061Z" fill="black"/>
<path d="M171.706 178.677C171.835 178.806 172.009 178.878 172.191 178.878C172.373 178.878 172.548 178.806 172.676 178.677C172.803 178.547 172.873 178.373 172.873 178.192C172.873 178.011 172.803 177.837 172.676 177.707L168.881 172.923C168.752 172.795 168.577 172.723 168.395 172.723C168.213 172.723 168.038 172.795 167.909 172.923C167.783 173.053 167.713 173.227 167.713 173.408C167.713 173.589 167.783 173.763 167.909 173.893L171.706 178.677Z" fill="black"/>
<path d="M188.212 166.259C188.777 166.938 189.744 165.96 189.182 165.287L185.628 161.019C185.062 160.339 184.096 161.318 184.656 161.989L188.212 166.259Z" fill="black"/>
<path d="M99.6155 163.499L107.451 167.685C108.23 168.1 108.923 166.916 108.143 166.499L100.309 162.313C99.5303 161.898 98.8351 163.082 99.6155 163.499Z" fill="black"/>
<path d="M100.16 211.226C101.76 201.831 103.521 192.464 105.442 183.129C105.62 182.267 104.297 181.899 104.119 182.765C102.196 192.099 100.435 201.466 98.8353 210.862C98.6933 211.726 100.01 212.097 100.16 211.226Z" fill="black"/>
<path d="M195.631 70.7489C196.595 67.1355 197.882 63.6161 199.476 60.2331C199.852 59.4377 198.669 58.7381 198.291 59.5394C196.565 63.1726 195.187 66.9609 194.174 70.8535C194.137 70.9994 194.147 71.1533 194.204 71.2926C194.261 71.432 194.361 71.5495 194.489 71.628C201.023 75.725 205.887 82.0117 208.212 89.3646C208.476 90.2033 209.802 89.8445 209.536 88.9984C207.18 81.4755 202.259 75.0176 195.631 70.7489Z" fill="black"/>
<path d="M217.889 44.126C218.047 44.2147 218.233 44.2385 218.409 44.1925C218.584 44.1465 218.734 44.0342 218.828 43.8793L232.108 26.177C232.2 26.0199 232.225 25.8329 232.179 25.6569C232.134 25.481 232.02 25.3304 231.863 25.2381C231.705 25.1494 231.519 25.1256 231.344 25.1716C231.169 25.2176 231.018 25.3299 230.924 25.4848C229.429 27.4717 218.19 42.4575 217.643 43.1871C217.551 43.3444 217.526 43.5315 217.572 43.7075C217.618 43.8835 217.732 44.0339 217.889 44.126Z" fill="black"/>
<path d="M221.264 47.0681C223.396 45.8885 239.273 36.9096 240.036 36.4536C240.113 36.4062 240.179 36.3439 240.232 36.2703C240.284 36.1968 240.322 36.1135 240.342 36.0254C240.361 35.9372 240.364 35.846 240.348 35.757C240.332 35.6681 240.299 35.5832 240.249 35.5073C240.157 35.3603 240.012 35.2539 239.844 35.2095C239.675 35.1651 239.497 35.186 239.343 35.2681C239.343 35.2681 221.333 45.4266 220.571 45.8826C220.494 45.9301 220.427 45.9925 220.375 46.066C220.323 46.1396 220.285 46.2228 220.265 46.3109C220.246 46.399 220.243 46.4902 220.259 46.5791C220.275 46.668 220.308 46.753 220.357 46.8289C220.45 46.9763 220.595 47.083 220.764 47.1273C220.932 47.1717 221.111 47.1506 221.264 47.0681Z" fill="black"/>
<path d="M223.013 16.3879L215.441 40.5606C215.177 41.4038 216.501 41.767 216.766 40.9254L224.336 16.7527C224.601 15.908 223.276 15.5462 223.013 16.3879Z" fill="black"/>
</svg>
