<svg width="302" height="201" viewBox="0 0 302 201" fill="none" xmlns="http://www.w3.org/2000/svg">
<path d="M116.811 95.3516C114.495 98.564 110.207 97.43 109.699 92.942C106.469 93.7395 103.626 95.6582 101.678 98.3562C101.116 99.2056 101.171 99.7463 100.842 99.8788C100.49 99.9197 100.133 99.8977 99.7881 99.814C94.3663 99.4978 90.4642 103.662 91.3542 108.373C89.9105 108.742 88.6355 109.592 87.7397 110.783C86.9286 111.804 86.3156 112.968 85.9325 114.215C86.3361 114.194 99.2233 113.537 101.604 113.39C101.573 112.135 101.558 110.88 101.559 109.624C101.401 107.49 102.345 105.219 104.516 105.216C105.004 105.251 105.479 105.396 105.904 105.639C106.329 105.883 106.693 106.219 106.97 106.623C107.577 107.544 108.02 108.563 108.281 109.635L109.345 112.847C110.864 112.728 116.705 112.224 120.21 111.837C120.307 106.158 119.146 100.529 116.811 95.3516ZM107.401 103.453C106.949 102.944 106.664 102.309 106.586 101.632C106.507 100.956 106.639 100.273 106.963 99.674C107.295 99.139 107.762 98.7012 108.317 98.405C108.873 98.1088 109.497 97.9647 110.126 97.9872C110.172 98.0099 110.225 98.0168 110.276 98.0068C111.019 98.1495 111.695 98.5339 112.197 99.1002C112.699 99.6665 112.999 100.383 113.052 101.138C113.054 101.794 112.86 102.435 112.496 102.98C112.131 103.525 111.612 103.949 111.006 104.198C110.399 104.446 109.732 104.508 109.09 104.375C108.448 104.243 107.86 103.921 107.401 103.453Z" fill="#2755A0"/>
<path d="M110.279 98.0067C110.228 98.0167 110.175 98.0098 110.129 97.9871C109.499 97.9645 108.876 98.1087 108.32 98.4049C107.765 98.7011 107.298 99.1389 106.966 99.6739C106.721 100.113 106.582 100.602 106.558 101.104C106.534 101.606 106.626 102.107 106.828 102.567C107.03 103.027 107.336 103.434 107.721 103.757C108.107 104.079 108.561 104.308 109.05 104.425C109.539 104.542 110.048 104.545 110.537 104.433C111.027 104.321 111.484 104.096 111.873 103.778C112.262 103.46 112.572 103.056 112.778 102.598C112.985 102.14 113.083 101.64 113.064 101.138C113.011 100.382 112.709 99.6641 112.205 99.0977C111.701 98.5312 111.024 98.1476 110.279 98.0067Z" fill="#FC9070"/>
<path d="M46.8934 195.423L52.9281 179.077C53.1827 178.388 52.0817 178.092 51.8287 178.775L45.794 195.12C45.5395 195.81 46.6404 196.107 46.8934 195.423Z" fill="#CCEAFF"/>
<path d="M95.7514 124.245C95.4877 123.864 95.3083 123.431 95.2253 122.974C95.1423 122.518 95.1575 122.05 95.27 121.6C95.3824 121.15 95.5896 120.73 95.8775 120.367C96.1654 120.003 96.5275 119.706 96.9397 119.493C97.4411 119.355 97.9672 119.331 98.479 119.424C98.9908 119.517 99.4751 119.724 99.896 120.03C100.586 120.383 101.298 120.727 101.992 121.093C101.73 117.35 101.691 115.082 101.622 113.386C99.2409 113.537 84.676 114.273 84.0389 114.313C82.0389 114.435 80.0539 114.718 78.0644 114.947C73.571 115.42 69.1594 116.483 64.9438 118.109C56.9617 121.286 52.1575 128.269 51.9255 133.817C51.9978 133.108 53.1138 133.108 53.0596 133.834C52.5099 141.304 57.5506 147.388 63.4016 152.104C67.12 155.105 71.0749 157.848 75.0719 160.467L89.417 137.332C85.8025 135.582 82.1378 133.935 78.4229 132.391C77.7542 132.114 78.0479 131.013 78.7241 131.293C85.2355 133.979 91.6045 136.998 97.8056 140.338C98.8162 137.402 101.282 131.406 101.297 129.796C100.494 127.606 97.1309 126.644 95.7514 124.245Z" fill="#FCFE90"/>
<path d="M172.461 129.234L151.923 104.199C151.82 104.091 151.763 103.946 151.763 103.797C151.763 103.647 151.82 103.502 151.923 103.394C145.218 109.895 118.662 112.117 109.36 112.847L111.635 119.721C113.542 118.246 115.441 116.757 117.482 115.471C120.01 113.879 123.215 111.95 125.741 113.495C126.177 113.822 126.524 114.253 126.75 114.749C126.977 115.245 127.076 115.79 127.038 116.334C126.902 118.763 125.072 120.63 123.372 122.145C120.489 124.718 120.284 123.501 126.675 122.486C128.934 122.127 132.664 121.582 133.422 124.563C134.145 128.578 127.538 129.984 122.382 132.164C120.539 141.554 117.298 159.431 113.217 167.947C111.409 171.732 109.218 174.857 105.067 174.608C100.794 174.26 96.6108 173.184 92.6997 171.426C83.778 167.464 75.334 162.504 67.5293 156.64C61.4629 152.241 55.7821 147.905 53.0577 141.001C52.3447 139.189 51.9484 137.268 51.886 135.322C51.8529 137.638 51.9191 139.965 51.9191 142.277C51.9191 169.715 51.8785 175.724 51.9553 177.098C51.9899 177.747 52.1842 177.738 52.5998 177.782C54.9884 178.033 68.4253 178.258 142.232 177.732C142.383 177.73 142.527 177.67 142.633 177.564C142.74 177.457 142.801 177.313 142.803 177.163C142.872 167.455 143.158 143.099 143.161 140.628C154.014 138.908 164.485 136.009 173.153 129.323C173.169 129.308 173.184 129.291 173.198 129.274C173.092 129.359 172.958 129.402 172.822 129.395C172.686 129.388 172.558 129.331 172.461 129.234Z" fill="#FCFE90"/>
<path d="M150.309 195.56C150.636 196.217 151.619 195.64 151.293 194.985L143.151 178.638C142.824 177.982 141.841 178.559 142.167 179.214L150.309 195.56Z" fill="#CCEAFF"/>
<path d="M98.0062 183.884C97.9477 183.79 97.8632 183.714 97.7629 183.667C97.6627 183.619 97.5508 183.602 97.4408 183.616C97.3308 183.631 97.2274 183.676 97.1428 183.748C97.0582 183.82 96.9961 183.915 96.964 184.021C95.9188 187.275 93.3796 194.661 93.2245 195.12C92.991 195.818 94.0904 196.116 94.3239 195.422C95.4158 192.182 97.6372 185.563 97.6372 185.563C99.0438 188.056 102.78 194.732 103.274 195.559C103.312 195.623 103.362 195.68 103.422 195.725C103.481 195.77 103.549 195.803 103.622 195.822C103.694 195.841 103.769 195.846 103.844 195.835C103.918 195.825 103.989 195.801 104.054 195.763C104.118 195.725 104.175 195.675 104.22 195.615C104.265 195.556 104.298 195.488 104.317 195.415C104.336 195.343 104.341 195.268 104.33 195.193C104.32 195.119 104.296 195.048 104.258 194.983C102.197 191.271 100.113 187.571 98.0062 183.884Z" fill="#CCEAFF"/>
<path d="M188.208 94.2818C187.281 85.9077 183.875 78.0011 178.426 71.5752C173.125 64.7967 165.542 60.1739 157.089 58.566C144.89 55.9304 131.581 59.1157 119.502 63.0449C119.303 63.1097 116.008 64.182 115.749 64.3221C112.106 62.7602 108.348 61.4808 104.508 60.4952C103.821 60.3315 103.107 60.3175 102.414 60.4539C101.721 60.5903 101.065 60.874 100.492 61.2859C99.9155 61.871 99.541 62.6245 99.4224 63.437C99.3037 64.2495 99.4472 65.0786 99.8319 65.804C100.803 67.427 102.286 68.6802 104.049 69.3658C106.201 70.3803 108.435 71.2116 110.727 71.8508C107.601 73.1584 104.584 74.7099 101.702 76.4909C100.709 77.0448 99.8055 77.7455 99.0216 78.5692C96.5939 81.2274 97.8379 85.104 101.162 84.9669C104.577 84.8043 107.928 83.9793 111.028 82.5377C110.18 85.4669 109.102 91.0935 109.912 94.0664C110.737 97.0951 113.946 98.1327 115.969 96.2396C119.047 93.6884 117.561 87.6552 122.403 81.9006C123.834 85.6778 123.944 89.342 126.871 90.7275C127.61 91.1476 128.476 91.2838 129.308 91.1105C130.14 90.9372 130.88 90.4663 131.389 89.7862C132.603 88.1296 132.066 85.9639 131.691 84.1054C131.337 82.3394 130.986 80.5723 130.636 78.8042C135.345 78.5061 140.063 79.2062 144.482 80.8584C146.931 81.7601 149.159 83.1777 151.013 85.0151C152.616 86.7125 153.807 88.7563 154.494 90.9879C155.18 93.2196 155.343 95.5793 154.971 97.8842C154.535 99.9849 153.472 101.904 151.923 103.389C151.818 103.497 151.76 103.641 151.76 103.792C151.76 103.942 151.818 104.086 151.923 104.195C151.923 104.195 171.622 128.205 172.461 129.23C172.569 129.333 172.714 129.391 172.864 129.391C173.014 129.391 173.158 129.333 173.267 129.23C178.509 125.143 182.629 119.793 185.242 113.682C187.855 107.57 188.875 100.895 188.208 94.2818ZM119.215 78.5497L116.331 79.6656C115.645 79.9307 115.352 78.8283 116.029 78.5662L118.913 77.4502C119.599 77.1852 119.891 78.2876 119.215 78.5497ZM119.448 71.6219L116.064 72.0225C115.335 72.1083 115.344 70.9682 116.064 70.8824L119.448 70.4803C120.177 70.3899 120.168 71.5345 119.448 71.6204V71.6219ZM123.014 81.2756C122.906 81.372 122.764 81.4232 122.619 81.4188C122.473 81.4144 122.335 81.3547 122.232 81.2519C122.13 81.1491 122.07 81.0109 122.065 80.8656C122.061 80.7202 122.112 80.5787 122.209 80.4699C124.272 78.3298 126.984 77.9096 129.954 77.7018C130.686 77.6521 130.679 78.7786 129.954 78.8418C127.12 79.0858 125.054 79.3072 123.014 81.2741V81.2756ZM182.301 100.252V94.2818C182.301 94.1308 182.361 93.986 182.468 93.8792C182.575 93.7725 182.72 93.7125 182.871 93.7125C183.022 93.7125 183.166 93.7725 183.273 93.8792C183.38 93.986 183.44 94.1308 183.44 94.2818C183.474 96.2713 183.479 98.2608 183.44 100.249C183.438 100.324 183.421 100.398 183.39 100.466C183.359 100.534 183.315 100.596 183.26 100.647C183.205 100.698 183.14 100.738 183.07 100.764C182.999 100.79 182.924 100.802 182.849 100.798C182.706 100.792 182.569 100.733 182.468 100.631C182.366 100.529 182.307 100.392 182.301 100.249V100.252Z" fill="#FC9070"/>
<path d="M196.171 107.396C196.14 107.539 196.165 107.688 196.241 107.813C196.316 107.938 196.437 108.029 196.578 108.068C196.719 108.106 196.869 108.09 196.998 108.021C197.127 107.952 197.224 107.836 197.27 107.698C199.432 99.8382 198.948 91.486 195.892 83.9292C195.621 83.256 194.52 83.5497 194.793 84.2304C197.079 89.9334 197.9 96.1183 197.18 102.22C196.959 103.966 196.621 105.695 196.171 107.396Z" fill="black"/>
<path d="M201.729 107.084C201.558 107.796 202.657 108.1 202.829 107.385C204.745 99.4436 204.132 91.1023 201.077 83.526C200.806 82.8543 199.704 83.148 199.979 83.8272C202.976 91.2066 203.588 99.3388 201.729 107.084Z" fill="black"/>
<path d="M50.9844 42.5479C50.4332 42.0689 49.629 42.8717 50.1787 43.3536L68.1353 58.9758C68.6865 59.4547 69.4907 58.652 68.941 58.17L50.9844 42.5479Z" fill="black"/>
<path d="M183.443 100.249C183.479 98.2607 183.479 96.2717 183.443 94.2817C183.443 94.1308 183.384 93.986 183.277 93.8792C183.17 93.7724 183.025 93.7125 182.874 93.7125C182.723 93.7125 182.578 93.7724 182.472 93.8792C182.365 93.986 182.305 94.1308 182.305 94.2817V100.249C182.311 100.4 182.376 100.543 182.487 100.646C182.598 100.749 182.745 100.804 182.897 100.798C183.041 100.794 183.178 100.735 183.28 100.633C183.381 100.53 183.44 100.393 183.443 100.249Z" fill="#FF4848"/>
<path d="M42.277 62.8672C42.1308 62.8747 41.9932 62.938 41.8924 63.0441C41.7917 63.1502 41.7355 63.2909 41.7355 63.4372C41.7355 63.5835 41.7917 63.7243 41.8924 63.8303C41.9932 63.9364 42.1308 63.9997 42.277 64.0073H68.0062C68.1523 63.9997 68.29 63.9364 68.3907 63.8303C68.4915 63.7243 68.5477 63.5835 68.5477 63.4372C68.5477 63.2909 68.4915 63.1502 68.3907 63.0441C68.29 62.938 68.1523 62.8747 68.0062 62.8672H42.277Z" fill="black"/>
<path d="M68.2924 69.9265C68.8948 69.5198 68.3286 68.5334 67.7171 68.943L50.2937 80.642C49.6913 81.0486 50.2576 82.0366 50.869 81.6254L68.2924 69.9265Z" fill="black"/>
<path d="M53.0605 141.001C55.7804 147.897 61.4491 152.232 67.5321 156.64C69.9658 158.403 72.4418 160.107 74.9599 161.751C74.8314 161.673 74.7383 161.548 74.7001 161.403C74.6619 161.257 74.6816 161.103 74.755 160.971L75.0713 160.461C71.0743 157.842 67.1194 155.099 63.401 152.098C57.559 147.382 52.5063 141.325 53.059 133.828C53.1132 133.102 52.0047 133.102 51.9249 133.811C51.8845 134.312 51.8724 134.815 51.8888 135.317C51.9492 137.265 52.3456 139.188 53.0605 141.001Z" fill="#FF4848"/>
<path d="M78.4244 132.385C82.1393 133.923 85.804 135.57 89.4185 137.326L89.7468 136.796C89.8256 136.668 89.9504 136.576 90.0954 136.538C90.2404 136.5 90.3944 136.52 90.5255 136.592C86.6489 134.702 82.7166 132.933 78.7286 131.287C78.0494 131.007 77.7542 132.109 78.4244 132.385Z" fill="#FF4848"/>
<path d="M118.912 77.4503L116.028 78.5663C115.352 78.8283 115.646 79.9308 116.329 79.6657L119.213 78.5497C119.891 78.2877 119.599 77.1852 118.912 77.4503Z" fill="#FF4848"/>
<path d="M116.065 72.0215L119.449 71.6209C120.169 71.5351 120.178 70.395 119.449 70.4809L116.065 70.8815C115.345 70.9673 115.336 72.1074 116.065 72.0215Z" fill="#FF4848"/>
<path d="M122.209 80.4681C122.113 80.577 122.062 80.7185 122.066 80.8638C122.071 81.0091 122.13 81.1473 122.233 81.2501C122.336 81.3529 122.474 81.4126 122.619 81.417C122.765 81.4215 122.906 81.3702 123.015 81.2739C125.024 79.3371 126.982 79.0976 129.955 78.8401C130.679 78.7768 130.687 77.6503 129.955 77.7C126.979 77.9018 124.268 78.328 122.209 80.4681Z" fill="#FF4848"/>
<path d="M133.426 124.562C132.673 121.583 128.936 122.127 126.679 122.486C120.317 123.498 120.472 124.736 123.376 122.145C125.076 120.63 126.906 118.763 127.042 116.333C127.08 115.79 126.981 115.245 126.755 114.749C126.528 114.253 126.181 113.822 125.745 113.495C124.923 113.001 123.953 112.815 123.007 112.969C119.543 113.493 114.435 117.559 111.639 119.721L108.299 109.63C108.039 108.558 107.596 107.539 106.989 106.618C106.712 106.214 106.347 105.878 105.922 105.634C105.497 105.391 105.023 105.246 104.534 105.211C102.359 105.211 101.419 107.494 101.578 109.619C101.567 112.829 101.721 117.189 101.993 121.083C101.299 120.718 100.587 120.374 99.8969 120.02C99.476 119.715 98.9916 119.508 98.4799 119.415C97.9681 119.322 97.4419 119.346 96.9405 119.484C96.5284 119.696 96.1663 119.994 95.8783 120.357C95.5904 120.721 95.3833 121.141 95.2708 121.591C95.1584 122.041 95.1431 122.509 95.2262 122.965C95.3092 123.421 95.4885 123.854 95.7523 124.236C97.0987 126.576 100.501 127.612 101.301 129.787C101.285 131.385 98.8125 137.409 97.8095 140.329C95.3998 139.037 92.9465 137.849 90.5248 136.59C90.3935 136.518 90.2399 136.499 90.0952 136.537C89.9505 136.575 89.8257 136.666 89.7461 136.793L74.7565 160.968C74.6842 161.1 74.6652 161.254 74.7033 161.399C74.7414 161.544 74.8338 161.669 74.9613 161.748C80.606 165.445 86.5394 168.68 92.704 171.423C96.615 173.181 100.798 174.257 105.072 174.605C109.216 174.854 111.397 171.744 113.221 167.944C115.215 163.454 116.743 158.772 117.781 153.971C119.484 147.054 120.912 139.683 122.387 132.16C127.598 129.963 134.146 128.564 133.426 124.562ZM114.465 130.016C113.862 130.442 113.301 129.457 113.89 129.031C114.503 128.584 115.003 127.999 115.35 127.325C115.689 126.672 116.677 127.252 116.334 127.9C115.884 128.741 115.244 129.465 114.465 130.016ZM108.139 126.972C108.364 126.099 108.605 125.229 108.861 124.364C108.902 124.22 108.999 124.098 109.129 124.025C109.26 123.952 109.414 123.933 109.558 123.972C109.703 124.012 109.826 124.107 109.901 124.236C109.976 124.366 109.996 124.52 109.959 124.665C109.734 125.538 109.493 126.408 109.237 127.273C109.196 127.417 109.099 127.539 108.969 127.612C108.838 127.685 108.684 127.704 108.54 127.665C108.395 127.625 108.272 127.53 108.197 127.401C108.123 127.271 108.102 127.117 108.139 126.972ZM107.209 169.974C105.867 170.382 104.519 170.768 103.174 171.164C103.031 171.195 102.882 171.17 102.757 171.094C102.632 171.019 102.541 170.898 102.503 170.757C102.464 170.616 102.481 170.466 102.55 170.337C102.619 170.208 102.734 170.111 102.873 170.065C104.215 169.656 105.563 169.272 106.908 168.875C107.05 168.844 107.199 168.869 107.324 168.944C107.449 169.02 107.54 169.141 107.579 169.282C107.618 169.423 107.601 169.573 107.532 169.702C107.463 169.831 107.347 169.928 107.209 169.974Z" fill="#FC9070"/>
<path d="M293.422 46.5525C287.787 16.4859 255.273 -2.51888 221.477 7.59119C200.694 13.8066 183.564 29.9409 178.918 51.8011C178.341 54.5133 178.336 57.316 178.904 60.0301C178.938 60.15 179.009 60.2558 179.108 60.3313C179.207 60.4069 179.328 60.4481 179.452 60.4488H211.372C211.496 60.4474 211.617 60.406 211.716 60.3306C211.815 60.2551 211.887 60.1497 211.921 60.0301C216.486 40.2181 237.643 33.8942 252.598 42.4742C258.342 45.7694 261.984 52.4848 259.554 58.9171C257.342 64.7817 250.452 70.0423 245.217 74.1598C238.826 79.1239 233.244 85.0494 228.67 91.7248C222.421 100.969 220.057 111.208 220.662 118.648C220.666 118.798 220.728 118.941 220.834 119.048C220.94 119.154 221.083 119.215 221.233 119.219H254.089C254.24 119.218 254.385 119.158 254.491 119.051C254.598 118.944 254.658 118.799 254.658 118.648C254.626 117.52 254.703 116.391 254.889 115.278C255.715 111.995 257.432 109.005 259.851 106.638C268.508 97.6495 283.975 88.0109 290.504 72.9504C294.088 64.6392 295.104 55.446 293.422 46.5525Z" fill="#CCEAFF"/>
<path d="M269.889 128.137C269.887 127.987 269.826 127.843 269.719 127.737C269.613 127.631 269.469 127.57 269.319 127.568H203.327C203.176 127.57 203.033 127.631 202.926 127.737C202.82 127.843 202.759 127.987 202.757 128.137V194.129C202.759 194.28 202.819 194.424 202.926 194.53C203.032 194.637 203.176 194.697 203.327 194.698C274.031 195.203 269.407 194.79 269.721 194.53C269.827 194.423 269.888 194.28 269.889 194.129C269.867 191.278 269.913 131.571 269.889 128.137Z" fill="#CCEAFF"/>
<path d="M8.27262 140.516C8.25756 140.559 8.17171 140.422 8.07683 141.505C7.83887 144.234 7.54972 154.701 8.24701 195.271C8.25453 195.417 8.31786 195.555 8.42394 195.655C8.53002 195.756 8.67074 195.812 8.81705 195.812C8.96336 195.812 9.10408 195.756 9.21016 195.655C9.31624 195.555 9.37957 195.417 9.38709 195.271V141.784C8.40816 140.8 8.31328 140.767 8.27262 140.516Z" fill="black"/>
<path d="M22.3472 127.807C22.3457 127.731 22.3291 127.656 22.2984 127.587C22.2677 127.517 22.2235 127.455 22.1685 127.403C22.1134 127.351 22.0485 127.31 21.9776 127.283C21.9067 127.256 21.8311 127.244 21.7554 127.246C21.3623 127.257 22.0445 126.754 8.41332 140.001C8.31383 140.112 8.25879 140.255 8.25879 140.404C8.25879 140.553 8.31383 140.696 8.41332 140.807C21.4918 153.954 21.296 153.798 21.4496 153.9C21.5287 153.968 21.6251 154.013 21.7281 154.03C21.8311 154.046 21.9366 154.034 22.033 153.994C22.1293 153.954 22.2127 153.888 22.2737 153.803C22.3348 153.719 22.3712 153.619 22.3789 153.515C22.3999 153.417 22.3487 127.903 22.3472 127.807Z" fill="#FF4848"/>
<path d="M56.8978 99.9857C57.0251 99.9064 57.1172 99.7814 57.1553 99.6363C57.1934 99.4913 57.1745 99.3372 57.1026 99.2055C57.0262 99.075 56.9012 98.9801 56.7549 98.9417C56.6087 98.9033 56.4531 98.9246 56.3225 99.0007C45.1376 107.617 34.2755 116.391 23.7362 125.322C23.1745 125.796 23.9847 126.599 24.542 126.128C35.1315 117.16 45.9167 108.446 56.8978 99.9857Z" fill="#FFF0B3"/>
<path d="M42.6044 175.17C43.0999 175.712 43.9042 174.905 43.4102 174.364C35.7489 165.953 27.425 157.445 25.4069 155.493C25.2981 155.397 25.1566 155.346 25.0112 155.35C24.8659 155.355 24.7278 155.414 24.6249 155.517C24.5221 155.62 24.4624 155.758 24.458 155.903C24.4536 156.049 24.5048 156.19 24.6012 156.299C31.6917 163.635 35.0336 166.856 42.6044 175.17Z" fill="#FFF0B3"/>
<path d="M123.015 47.1491C133.609 38.1771 144.395 29.4632 155.371 21.0072C155.499 20.9284 155.591 20.8034 155.629 20.6582C155.668 20.5129 155.648 20.3586 155.576 20.2271C155.538 20.1625 155.488 20.106 155.428 20.0608C155.369 20.0155 155.301 19.9825 155.229 19.9634C155.156 19.9444 155.081 19.9398 155.007 19.9499C154.933 19.96 154.862 19.9846 154.797 20.0223C143.588 28.6569 132.725 37.4306 122.209 46.3434C121.649 46.8178 122.461 47.6205 123.015 47.1491Z" fill="#FFF0B3"/>
<path d="M108.134 126.972C108.096 127.117 108.117 127.271 108.192 127.4C108.267 127.53 108.39 127.625 108.534 127.665C108.678 127.704 108.832 127.685 108.963 127.612C109.094 127.539 109.19 127.417 109.232 127.273C109.488 126.409 109.728 125.539 109.953 124.665C109.991 124.52 109.97 124.366 109.895 124.236C109.82 124.107 109.697 124.012 109.553 123.972C109.408 123.933 109.254 123.951 109.124 124.025C108.993 124.098 108.896 124.22 108.855 124.364C108.599 125.229 108.359 126.099 108.134 126.972Z" fill="#FF4848"/>
<path d="M114.465 130.016C115.244 129.465 115.884 128.741 116.334 127.9C116.678 127.252 115.69 126.672 115.351 127.325C115.004 128 114.503 128.584 113.89 129.031C113.301 129.457 113.867 130.442 114.465 130.016Z" fill="#FF4848"/>
<path d="M103.168 171.164C104.512 170.768 105.86 170.382 107.202 169.974C107.341 169.928 107.457 169.831 107.525 169.702C107.594 169.573 107.611 169.423 107.573 169.282C107.534 169.141 107.443 169.02 107.318 168.944C107.193 168.869 107.044 168.844 106.901 168.875C105.556 169.272 104.208 169.656 102.866 170.065C102.728 170.111 102.612 170.208 102.543 170.337C102.474 170.466 102.458 170.616 102.496 170.757C102.535 170.898 102.626 171.019 102.751 171.094C102.876 171.17 103.025 171.195 103.168 171.164Z" fill="#FF4848"/>
<path d="M113.15 101.137C113.127 100.404 112.863 99.6997 112.4 99.1315C111.936 98.5633 111.299 98.1629 110.587 97.9918C109.874 97.8207 109.124 97.8885 108.454 98.1846C107.783 98.4808 107.228 98.9889 106.875 99.631C106.623 100.083 106.479 100.587 106.455 101.103C106.43 101.62 106.525 102.135 106.733 102.608C106.941 103.082 107.255 103.501 107.652 103.833C108.049 104.165 108.517 104.4 109.02 104.521C109.523 104.641 110.047 104.644 110.551 104.528C111.055 104.413 111.525 104.182 111.925 103.855C112.325 103.527 112.644 103.111 112.857 102.64C113.069 102.168 113.17 101.654 113.15 101.137ZM107.79 100.874V100.857C107.93 100.371 108.228 99.9454 108.637 99.6489C109.047 99.3524 109.544 99.2018 110.049 99.2214C110.583 99.3224 111.06 99.6185 111.388 100.052C111.715 100.485 111.869 101.025 111.821 101.566C111.711 102.08 111.419 102.535 110.998 102.849C110.577 103.162 110.056 103.312 109.533 103.27C109.261 103.227 109 103.131 108.766 102.987C108.531 102.843 108.327 102.655 108.165 102.432C108.004 102.21 107.887 101.958 107.823 101.69C107.758 101.423 107.747 101.145 107.79 100.874Z" fill="black"/>
<path d="M46.9855 195.449L53.0217 179.102C53.3229 178.298 52.0337 177.951 51.7401 178.75L45.7038 195.09C45.4071 195.899 46.6918 196.245 46.9855 195.449Z" fill="black"/>
<path d="M142.085 179.261L150.228 195.606C150.609 196.373 151.755 195.7 151.375 194.936L143.234 178.59C142.853 177.824 141.705 178.496 142.085 179.261Z" fill="black"/>
<path d="M103.2 195.607C103.244 195.682 103.303 195.748 103.372 195.801C103.442 195.854 103.521 195.892 103.605 195.915C103.69 195.937 103.778 195.942 103.864 195.93C103.951 195.918 104.034 195.89 104.109 195.846C104.185 195.802 104.251 195.743 104.303 195.674C104.356 195.604 104.395 195.525 104.417 195.441C104.439 195.356 104.444 195.268 104.433 195.182C104.421 195.095 104.392 195.012 104.348 194.937C100.095 187.227 98.7109 184.768 98.2923 184.063C97.8901 183.387 97.1718 183.28 96.8721 184.035C96.5724 184.789 95.8013 187.179 93.1356 195.095C92.8615 195.908 94.1446 196.256 94.4172 195.449L97.6688 185.797C99.0393 188.229 102.708 194.789 103.2 195.607Z" fill="black"/>
<path d="M185.35 82.7391C182.032 74.857 176.496 68.1079 169.416 63.3111C152.957 53.4932 134.693 57.7553 116.513 63.9391C116.248 64.005 115.99 64.0979 115.744 64.2162C115.572 64.147 114.208 63.6665 112.298 62.8894C109.789 61.8373 107.193 61.0053 104.54 60.4029C103.837 60.231 103.105 60.215 102.396 60.356C101.686 60.497 101.016 60.7917 100.432 61.2192C99.8404 61.8196 99.456 62.5933 99.3349 63.4274C99.2139 64.2615 99.3623 65.1125 99.7587 65.8563C100.743 67.4901 102.239 68.7536 104.015 69.4512C106.089 70.4314 108.242 71.2374 110.45 71.8609C107.41 73.1542 104.472 74.6762 101.662 76.4137C100.664 76.9707 99.7552 77.6761 98.968 78.5056C96.4695 81.2405 97.7797 85.203 101.174 85.0659C104.534 84.9144 107.832 84.1172 110.89 82.718C109.914 86.0122 109.48 89.4429 109.604 92.8762C106.348 93.8431 102.659 95.9651 101.235 98.9863C101.134 99.2031 101.033 99.6941 100.819 99.7965C100.605 99.8989 100.037 99.7317 99.8023 99.7182C94.2661 99.3974 90.4468 103.647 91.2525 108.303C89.8317 108.692 88.5788 109.539 87.6877 110.712C86.8805 111.728 86.2677 112.884 85.8805 114.122C83.2642 114.224 80.6553 114.468 78.0656 114.854C73.5538 115.308 69.1244 116.372 64.8983 118.017C56.8108 121.304 52.0638 128.237 51.8319 133.806C51.7837 133.979 52.0457 145.844 51.8319 177.157C51.8319 177.9 52.6737 177.877 52.8274 177.891C55.9223 178.142 70.8863 178.325 142.235 177.822C142.411 177.82 142.578 177.749 142.703 177.625C142.827 177.501 142.897 177.333 142.899 177.157C142.899 167.449 143.253 143.148 143.258 140.702C154.133 138.973 164.725 136.023 173.336 129.295C180.189 123.943 185.081 116.477 187.253 108.058C189.426 99.6394 188.757 90.7386 185.35 82.7391ZM92.0899 109.547C92.178 109.546 92.2652 109.528 92.3464 109.494C92.4276 109.46 92.5012 109.41 92.5629 109.347C92.6247 109.284 92.6734 109.21 92.7062 109.128C92.739 109.046 92.7553 108.959 92.7541 108.87C92.4809 107.999 92.4122 107.076 92.5535 106.174C92.6948 105.271 93.0423 104.413 93.5688 103.667C94.2968 102.754 95.2406 102.036 96.3151 101.578C97.3896 101.12 98.5611 100.937 99.724 101.045C100.204 101.13 100.694 101.14 101.177 101.075C102.114 100.827 102.259 99.7468 102.717 99.0299C104.49 96.6664 107.004 94.9654 109.858 94.1985C110.721 97.0435 113.709 98.2995 115.95 96.4109C118.039 101.3 119.073 106.575 118.985 111.892C115.12 112.298 111.747 112.568 109.43 112.747L108.391 109.61C108.127 108.532 107.681 107.507 107.072 106.58C106.787 106.162 106.411 105.815 105.973 105.563C105.534 105.311 105.045 105.162 104.54 105.126C102.302 105.126 101.331 107.459 101.489 109.628C101.489 110.851 101.506 112.074 101.533 113.295C99.1833 113.446 89.6953 113.926 87.3037 114.048C88.0236 112.004 89.9739 109.53 92.0899 109.547ZM126.83 90.813C127.589 91.2434 128.48 91.382 129.334 91.2026C130.188 91.0232 130.948 90.5382 131.47 89.8386C132.697 88.1518 132.161 85.9695 131.785 84.0855C131.438 82.3565 131.095 80.6271 130.755 78.8971C135.417 78.6158 140.086 79.3167 144.46 80.9544C146.978 81.7772 149.242 83.2349 151.034 85.1869C152.826 87.1389 154.084 89.5194 154.689 92.0991C156.487 99.7468 151.978 103.104 151.777 103.435C151.802 103.397 151.829 103.362 151.86 103.33C147.023 108.021 131.889 110.474 120.349 111.747C120.412 106.1 119.241 100.507 116.917 95.3597C118.821 92.6759 118.122 87.2647 122.376 82.0869C123.765 85.8204 123.893 89.4229 126.83 90.813ZM123.396 81.0628C124.14 80.3863 125.022 79.8792 125.98 79.5764C127.104 79.2599 128.257 79.0616 129.422 78.9845L130.282 83.3144C130.799 84.8727 130.971 86.5247 130.788 88.1563C130.723 88.5111 130.572 88.8447 130.348 89.1279C130.125 89.4112 129.836 89.6354 129.506 89.7813C129.176 89.9271 128.815 89.99 128.455 89.9646C128.096 89.9391 127.747 89.826 127.441 89.6352C126.769 89.2086 126.196 88.6439 125.759 87.9787C125.323 87.3134 125.032 86.5628 124.908 85.7768C124.495 84.1776 123.991 82.6037 123.396 81.0628ZM118.382 126.005C122.04 124.582 125.886 123.704 129.798 123.399C130.255 123.258 130.748 123.294 131.18 123.5C131.611 123.707 131.949 124.068 132.126 124.513C132.302 124.957 132.305 125.452 132.133 125.898C131.962 126.344 131.628 126.709 131.199 126.92C130.44 127.494 129.61 127.966 128.729 128.325C120.446 131.821 121.446 130.563 121.048 132.568C119.045 142.768 116.301 157.719 112.539 166.481C111.521 168.984 109.414 172.648 106.691 173.287C104.714 173.746 100.346 172.764 98.1065 172.075C90.3805 169.74 82.9332 165.428 76.1545 161.052L90.4784 137.949C92.9393 139.16 95.3766 140.415 97.7903 141.714C97.8786 141.764 97.9769 141.793 98.078 141.799C98.1791 141.806 98.2803 141.789 98.3741 141.751C98.4679 141.713 98.5519 141.654 98.6198 141.579C98.6877 141.503 98.7377 141.414 98.7662 141.317C100.143 137.13 101.596 134.402 102.531 130.172C102.843 128.538 100.332 126.672 98.9574 125.729C97.6698 124.847 95.6442 123.083 96.6788 121.289C96.7781 121.11 96.9134 120.953 97.0762 120.829C97.2389 120.705 97.4256 120.615 97.6246 120.566C98.1541 120.555 98.6732 120.714 99.1065 121.018C100.161 121.557 101.272 122.062 102.287 122.667C102.388 122.725 102.503 122.755 102.619 122.755C102.736 122.755 102.85 122.724 102.951 122.666C103.053 122.608 103.137 122.525 103.196 122.425C103.254 122.324 103.286 122.21 103.287 122.093C103.015 118.488 102.685 111.276 102.845 108.628C102.836 108.208 102.94 107.793 103.146 107.426C103.351 107.059 103.651 106.753 104.013 106.541C104.828 106.212 105.683 106.873 106.107 107.519C106.709 108.59 106.314 107.559 110.706 120.842C110.827 121.202 111.322 121.517 111.684 121.238C114.379 119.167 118.394 115.908 121.913 114.511C123.435 113.964 125.67 113.908 125.801 116.017C126.023 119.535 120.346 122.821 117.733 124.902C117.224 125.301 117.778 126.24 118.382 126.005ZM53.1572 134.698C53.1572 129.173 56.9087 124.354 61.3455 121.408C65.0374 119.123 69.1467 117.594 73.4345 116.911C82.2404 115.215 85.6214 115.613 101.573 114.616C101.638 116.724 101.743 118.828 101.888 120.926C101.242 120.592 100.584 120.274 99.9454 119.946C99.5132 119.634 99.0166 119.424 98.4922 119.329C97.9678 119.235 97.429 119.259 96.9153 119.401C96.4888 119.617 96.1135 119.922 95.8146 120.295C95.5157 120.668 95.3 121.101 95.1822 121.564C95.0644 122.027 95.0471 122.51 95.1314 122.981C95.2158 123.452 95.3998 123.899 95.6713 124.292C97.0613 126.711 101.601 128.351 101.159 130.241C100.432 133.404 98.9002 136.896 97.7571 140.196C91.5799 136.874 85.2372 133.87 78.7539 131.194C78.584 131.149 78.4028 131.172 78.2497 131.258C78.0966 131.345 77.9839 131.489 77.9361 131.658C77.893 131.828 77.9172 132.008 78.0037 132.16C78.0901 132.313 78.2321 132.426 78.4 132.476C82.0747 133.997 85.7018 135.627 89.2811 137.366L75.0445 160.327C71.0806 157.728 67.1589 155.008 63.4706 152.031C51.6888 142.518 53.3123 135.098 53.1572 134.698ZM142.422 139.506C142.282 139.545 142.158 139.629 142.07 139.744C141.982 139.86 141.934 140.001 141.934 140.146C141.934 149.854 141.58 174.087 141.577 176.496H53.1722V141.488C56.0081 148.21 61.5383 152.401 67.4992 156.72C76.9511 163.573 93.352 174.169 105.086 174.704C109.197 175.005 111.54 171.703 113.316 167.995C115.313 163.498 116.845 158.808 117.887 153.999C119.598 147.053 121.007 139.753 122.483 132.231C127.87 129.961 134.259 128.588 133.532 124.536C133.364 123.955 133.039 123.432 132.594 123.023C132.149 122.614 131.599 122.335 131.006 122.217C129.563 121.974 128.085 122.035 126.667 122.395C120.926 123.309 121.187 124.262 123.458 122.212C125.17 120.669 127.017 118.791 127.151 116.339C127.189 115.778 127.086 115.217 126.851 114.707C126.617 114.196 126.258 113.753 125.807 113.417C123.247 111.849 120.016 113.779 117.452 115.393C115.446 116.658 113.577 118.121 111.702 119.569L109.873 114.048C119.711 113.273 144.786 111.09 152.265 104.748L171.922 128.71C163.296 135.107 152.946 137.868 142.422 139.506ZM153.207 103.813C154.494 102.46 155.442 100.82 155.973 99.0291C156.504 97.2381 156.603 95.3468 156.261 93.5103C155.074 84.099 147.646 79.4107 138.383 77.977C134.112 77.242 129.738 77.3603 125.514 78.3249C122.285 79.3038 119.791 82.7782 118.641 85.7918C116.336 91.9666 117.223 92.9666 115.435 95.0856C115.121 95.4636 114.699 95.7366 114.226 95.8679C113.752 95.9993 113.25 95.9828 112.786 95.8206C110.647 94.8958 110.775 92.0344 110.911 90.1217C111.122 87.2436 111.682 84.4019 112.58 81.6592C112.611 81.5324 112.605 81.3991 112.562 81.2757C112.519 81.1522 112.441 81.044 112.337 80.9641C112.234 80.8843 112.109 80.8363 111.979 80.826C111.849 80.8157 111.718 80.8436 111.604 80.9062C108.79 82.3429 105.744 83.2694 102.607 83.6427C101.66 83.886 100.658 83.7945 99.7707 83.3836C99.511 83.0995 99.3116 82.7657 99.1846 82.4023C99.0575 82.0389 99.0056 81.6535 99.0317 81.2695C99.0579 80.8854 99.1617 80.5107 99.3369 80.1679C99.5121 79.8251 99.7549 79.5214 100.051 79.2752C100.757 78.5931 101.544 78.0013 102.396 77.5131C105.642 75.4862 109.076 73.7765 112.65 72.4076C112.787 72.3648 112.906 72.2795 112.991 72.1643C113.075 72.049 113.121 71.9098 113.121 71.7668C113.121 71.6238 113.075 71.4846 112.991 71.3693C112.906 71.2541 112.787 71.1688 112.65 71.126C110.812 70.6199 109.003 70.0085 107.205 69.3729C105.449 68.7967 103.794 67.9496 102.299 66.8624C101.628 66.4474 101.12 65.8141 100.86 65.0687C100.6 64.3233 100.605 63.5113 100.873 62.7689C101.094 62.4149 101.401 62.1231 101.765 61.9209C102.13 61.7188 102.54 61.6131 102.957 61.6138C103.34 61.5799 103.725 61.5966 104.104 61.6635C109.265 62.7418 113.313 64.8804 115.531 65.5385C115.971 65.5497 116.405 65.4459 116.792 65.2373C125.088 62.1803 133.714 60.1054 142.493 59.055C150.676 58.0657 158.971 59.4785 166.365 63.1214C174.452 67.2103 180.749 75.2932 184.202 83.3972C187.419 91.0274 188.062 99.4979 186.033 107.526C184.005 115.554 179.415 122.703 172.96 127.889L153.207 103.813Z" fill="black"/>
<path d="M196.573 108.172C196.738 108.212 196.912 108.188 197.059 108.104C197.206 108.02 197.315 107.882 197.364 107.72C199.526 99.8436 199.042 91.4752 195.986 83.9005C195.935 83.7331 195.822 83.5916 195.67 83.5053C195.518 83.4189 195.338 83.3944 195.168 83.4367C195.084 83.4597 195.005 83.4991 194.936 83.5527C194.867 83.6063 194.809 83.673 194.766 83.749C194.723 83.8249 194.695 83.9087 194.684 83.9954C194.673 84.0822 194.68 84.1702 194.703 84.2545C197.655 91.6054 198.139 99.7166 196.081 107.366C196.06 107.451 196.056 107.54 196.069 107.627C196.083 107.714 196.113 107.797 196.159 107.872C196.205 107.947 196.265 108.012 196.336 108.063C196.407 108.115 196.488 108.152 196.573 108.172Z" fill="black"/>
<path d="M200.352 83.0403C200.182 83.0875 200.038 83.2 199.951 83.3533C199.864 83.5066 199.841 83.6882 199.888 83.8581C202.876 91.2211 203.488 99.3336 201.64 107.062C201.439 107.893 202.721 108.247 202.923 107.416C204.84 99.4568 204.227 91.0984 201.17 83.5042C201.119 83.3365 201.006 83.1948 200.854 83.1084C200.702 83.022 200.522 82.9976 200.352 83.0403Z" fill="black"/>
<path d="M69.0102 58.1015L51.0537 42.4793C50.4106 41.9206 49.4663 42.8573 50.1139 43.4206L68.0704 59.0428C68.7135 59.6015 69.6578 58.6648 69.0102 58.1015Z" fill="black"/>
<path d="M182.899 100.892C183.067 100.885 183.227 100.815 183.346 100.696C183.465 100.577 183.534 100.417 183.539 100.249V94.2816C183.533 94.1052 183.456 93.9386 183.327 93.8183C183.198 93.698 183.026 93.6339 182.85 93.64C182.681 93.6446 182.52 93.7137 182.401 93.833C182.282 93.9524 182.213 94.1129 182.208 94.2816C182.175 96.2706 182.175 98.2596 182.208 100.249C182.21 100.336 182.23 100.423 182.266 100.503C182.302 100.583 182.354 100.655 182.419 100.715C182.483 100.775 182.559 100.822 182.641 100.852C182.724 100.882 182.811 100.896 182.899 100.892Z" fill="black"/>
<path d="M68.0077 62.7718H42.2784C42.1076 62.7799 41.9464 62.8535 41.8283 62.9773C41.7103 63.1011 41.6444 63.2656 41.6444 63.4367C41.6444 63.6078 41.7103 63.7723 41.8283 63.8961C41.9464 64.0199 42.1076 64.0935 42.2784 64.1016H68.0077C68.1785 64.0935 68.3397 64.0199 68.4578 63.8961C68.5758 63.7723 68.6417 63.6078 68.6417 63.4367C68.6417 63.2656 68.5758 63.1011 68.4578 62.9773C68.3397 62.8535 68.1785 62.7799 68.0077 62.7718Z" fill="black"/>
<path d="M67.6703 68.8604L50.2469 80.5594C49.5406 81.0338 50.2047 82.1859 50.9186 81.707L68.342 70.0081C69.0483 69.5336 68.3827 68.3815 67.6703 68.8604Z" fill="black"/>
<path d="M118.89 77.3578L116.006 78.4738C115.216 78.775 115.554 80.0657 116.359 79.7569L119.244 78.6394C120.033 78.3337 119.689 77.0475 118.89 77.3578Z" fill="black"/>
<path d="M119.452 70.3899L116.068 70.7905C115.892 70.7943 115.726 70.8655 115.602 70.9892C115.478 71.1129 115.406 71.2796 115.402 71.4547C115.402 71.5421 115.419 71.6288 115.452 71.7096C115.486 71.7905 115.535 71.864 115.596 71.9258C115.658 71.9877 115.732 72.0367 115.813 72.0701C115.893 72.1035 115.98 72.1205 116.068 72.1203L119.452 71.7152C119.627 71.711 119.793 71.6397 119.917 71.5161C120.041 71.3925 120.113 71.226 120.117 71.0511C120.116 70.8753 120.045 70.7071 119.921 70.5833C119.796 70.4594 119.627 70.3899 119.452 70.3899Z" fill="black"/>
<path d="M293.513 46.5264C287.79 15.9025 254.682 -2.49228 221.452 7.49881C200.737 13.6615 183.483 29.8696 178.831 51.7765C178.25 54.5065 178.246 57.3278 178.818 60.0597C178.857 60.1995 178.941 60.3228 179.056 60.4108C179.172 60.4988 179.313 60.5469 179.458 60.5477H211.377C211.522 60.546 211.663 60.4976 211.778 60.4097C211.894 60.3219 211.978 60.1991 212.018 60.0597C216.558 40.3411 237.519 33.9946 252.555 42.561C258.278 45.8743 261.877 52.4873 259.468 58.8955C258.074 62.072 255.999 64.903 253.389 67.1878C246.538 73.7632 237.972 77.9952 228.594 91.6821C222.211 101.253 219.963 111.137 220.573 118.652C220.577 118.828 220.648 118.994 220.772 119.118C220.896 119.242 221.063 119.314 221.238 119.318H254.09C254.266 119.316 254.434 119.246 254.559 119.121C254.683 118.997 254.754 118.828 254.755 118.652C254.721 117.532 254.797 116.411 254.981 115.306C255.814 112.044 257.521 109.072 259.92 106.709C268.248 98.012 283.959 88.1851 290.587 73.0042C294.175 64.6659 295.194 55.4469 293.513 46.5264ZM253.429 117.981H221.86C221.665 109.49 224.036 101.139 228.663 94.018C237.791 79.7106 246.535 75.3837 253.757 68.6592C259.329 63.4664 263.313 57.5717 260.835 50.4286C257.359 40.7342 245.734 36.6995 235.443 37.6875C223.728 38.8095 214.067 46.5565 210.871 59.2103H180.007C179.568 56.6475 179.65 54.0225 180.247 51.4918C184.584 32.1121 199.178 17.0667 217.55 10.2097C249.09 -1.67902 282.028 13.2022 290.903 41.4706C292.966 47.9114 293.514 54.7415 292.505 61.4289C291.496 68.1162 288.956 74.4803 285.084 80.0253C271.698 98.4442 253.323 104.334 253.429 117.981Z" fill="black"/>
<path d="M269.981 194.129V128.137C269.979 127.961 269.909 127.794 269.785 127.669C269.661 127.545 269.493 127.475 269.317 127.473H203.327C203.151 127.475 202.984 127.546 202.859 127.67C202.735 127.794 202.664 127.961 202.661 128.137V194.129C202.664 194.304 202.735 194.472 202.859 194.596C202.984 194.721 203.151 194.792 203.327 194.794H269.317C269.493 194.791 269.66 194.72 269.784 194.596C269.908 194.472 269.979 194.304 269.981 194.129ZM268.649 193.465C268.649 193.465 204.654 193.437 203.991 193.453C203.991 193.453 204.018 129.473 204.002 128.803C204.002 128.803 267.983 128.828 268.653 128.813C268.653 177.619 268.639 192.308 268.649 193.465Z" fill="black"/>
<path d="M8.15323 195.271C8.16137 195.442 8.23497 195.603 8.35878 195.721C8.48258 195.839 8.64708 195.905 8.81815 195.905C8.98922 195.905 9.15372 195.839 9.27752 195.721C9.40133 195.603 9.47493 195.442 9.48307 195.271V142.014C21.807 154.402 21.2392 153.87 21.3898 153.971C21.4823 154.05 21.5951 154.103 21.7155 154.122C21.836 154.141 21.9594 154.127 22.0721 154.08C22.1847 154.033 22.2821 153.956 22.3534 153.857C22.4246 153.758 22.467 153.641 22.4757 153.519C22.5103 153.352 22.4441 134.406 22.4441 127.806C22.4404 127.677 22.3993 127.551 22.3258 127.444C22.2522 127.337 22.1494 127.254 22.0295 127.204C21.9097 127.154 21.7781 127.14 21.6504 127.163C21.5228 127.186 21.4046 127.246 21.31 127.335L8.34751 139.932C8.25113 140.041 7.90925 139.767 7.94992 141.216C8.04329 144.528 7.43485 155.379 8.15323 195.271ZM21.1173 129.377C21.1173 135.544 21.1534 150.534 21.1534 151.862L9.76319 140.416L21.1173 129.377Z" fill="black"/>
<path d="M57.1853 99.1553C57.0967 99.0043 56.9519 98.8946 56.7826 98.85C56.6133 98.8054 56.4332 98.8296 56.2817 98.9174C45.2119 107.444 34.3404 116.225 23.6759 125.254C23.0222 125.806 23.9665 126.743 24.6156 126.193C35.1898 117.235 45.9704 108.524 56.9489 100.066C57.0978 99.9741 57.2054 99.8279 57.2494 99.6582C57.2934 99.4886 57.2705 99.3085 57.1853 99.1553Z" fill="black"/>
<path d="M43.4787 174.296C35.7783 165.842 27.4529 157.338 25.474 155.426C25.4123 155.364 25.339 155.315 25.2584 155.282C25.1778 155.248 25.0914 155.231 25.0041 155.231C24.9169 155.231 24.8304 155.248 24.7498 155.282C24.6692 155.315 24.5959 155.364 24.5342 155.426C24.4725 155.487 24.4236 155.561 24.3902 155.641C24.3568 155.722 24.3396 155.808 24.3396 155.896C24.3396 155.983 24.3568 156.069 24.3902 156.15C24.4236 156.231 24.4725 156.304 24.5342 156.365C31.5584 163.632 35.0494 167.012 42.539 175.236C43.1158 175.87 44.0541 174.927 43.4787 174.296Z" fill="black"/>
<path d="M123.085 47.2165C133.477 38.4212 144.335 29.626 155.421 21.0882C155.569 20.9961 155.675 20.8515 155.72 20.6837C155.764 20.5159 155.743 20.3374 155.661 20.1846C155.572 20.0339 155.427 19.9244 155.258 19.8798C155.089 19.8353 154.909 19.8593 154.757 19.9466C143.687 28.4733 132.816 37.2543 122.151 46.2828C121.492 46.8295 122.436 47.7662 123.085 47.2165Z" fill="black"/>
<path d="M109.555 123.89C109.39 123.851 109.217 123.876 109.071 123.96C108.924 124.044 108.815 124.18 108.766 124.342C108.525 125.213 108.269 126.077 108.044 126.951C108.001 127.12 108.026 127.298 108.114 127.449C108.201 127.6 108.345 127.71 108.512 127.756C108.68 127.803 108.86 127.781 109.012 127.697C109.165 127.612 109.278 127.472 109.327 127.305C109.582 126.438 109.822 125.569 110.047 124.696C110.069 124.611 110.073 124.522 110.06 124.435C110.047 124.348 110.017 124.265 109.971 124.189C109.925 124.114 109.865 124.049 109.793 123.998C109.722 123.947 109.641 123.91 109.555 123.89Z" fill="black"/>
<path d="M115.267 127.276C114.929 127.938 114.441 128.511 113.842 128.949C113.154 129.443 113.817 130.598 114.512 130.097C115.306 129.539 115.958 128.803 116.416 127.948C116.814 127.192 115.666 126.518 115.267 127.276Z" fill="black"/>
<path d="M106.878 168.782L102.842 169.973C102.68 170.027 102.545 170.141 102.465 170.292C102.384 170.442 102.365 170.618 102.41 170.782C102.456 170.947 102.562 171.088 102.709 171.176C102.855 171.264 103.029 171.292 103.196 171.255C104.551 170.894 105.886 170.461 107.231 170.065C107.396 170.014 107.535 169.901 107.618 169.749C107.701 169.598 107.722 169.42 107.676 169.253C107.63 169.086 107.521 168.944 107.372 168.856C107.224 168.768 107.046 168.742 106.878 168.782Z" fill="black"/>
</svg>
