<svg width="252" height="230" viewBox="0 0 252 230" fill="none" xmlns="http://www.w3.org/2000/svg">
<path d="M134.501 229.035C144.801 228.729 154.101 228.546 162.171 228.435C170.241 228.324 177.084 228.293 182.457 228.286C213.186 228.251 236.235 228.221 251.862 228.217C267.489 228.213 275.695 228.217 276.74 228.286C284.008 228.668 288.547 228.798 292.061 228.63C295.179 228.49 298.267 228 301.258 227.173C314.796 223.688 322.085 213.896 326.082 202.287C330.08 190.678 330.79 177.252 331.166 166.507C331.257 163.868 331.398 159.829 331.393 155.109C331.389 150.389 331.228 144.991 330.729 139.636C329.783 129.553 328.606 117.011 324.98 104.664C321.354 92.3165 315.275 80.1834 304.533 70.8924C296.98 64.3707 288.757 60.6757 278.433 58.2238C268.108 55.7719 255.67 54.5594 239.696 53.0026C225.626 51.5962 211.425 51.7464 197.394 53.4501C189.586 54.3931 181.874 55.9283 174.337 58.0402C170.84 59.0309 167.581 59.9527 164.323 61.0811C160.87 62.264 157.521 63.6937 154.308 65.3575C141.551 71.9749 132.602 81.3539 126.341 90.6029C120.08 99.8519 116.516 108.929 114.522 114.972L111.011 128.502L107.505 142.035L92.7617 125.254L78.0431 108.489L55.7422 126.891L33.4413 145.29L35.0933 147.248C35.6177 147.86 36.1009 148.434 36.547 148.958L37.2449 149.788C37.6579 150.274 38.1947 150.913 38.6944 151.509C40.3464 153.475 49.0189 165.352 59.1823 178.319C69.3458 191.286 80.9174 205.343 88.3882 211.677C88.9251 212.133 89.6478 212.725 90.5605 213.376C91.6119 214.126 92.7156 214.81 93.8643 215.426C95.2871 216.171 96.7716 216.811 98.3038 217.338C101.584 218.546 105.074 219.189 108.604 219.236C114.952 219.171 121.089 217.116 126.015 213.406C131.21 209.497 134.907 204.141 136.558 198.133C136.217 203.281 135.875 208.431 135.534 213.582L134.501 229.035Z" fill="#84A1E5" stroke="black" stroke-width="0.964984" stroke-miterlimit="10" stroke-linecap="round"/>
<path d="M196.348 94.7625L189.401 161.525L182.463 228.284H207.201H231.934L214.139 161.525L196.348 94.7625Z" fill="#FFF8F8" stroke="black" stroke-width="0.964984" stroke-miterlimit="10" stroke-linecap="round"/>
<path d="M187.614 79.7398L191.975 87.2522L196.344 94.7646L199.272 86.2959L202.2 77.8273L194.907 78.7835L187.614 79.7398Z" fill="#FFF8F8" stroke="black" stroke-width="0.964984" stroke-miterlimit="10" stroke-linecap="round"/>
<path d="M107.492 142.014L113.588 149.312L119.683 156.61C119.724 156.659 119.781 156.693 119.846 156.705C119.911 156.718 119.978 156.708 120.036 156.679C120.094 156.649 120.139 156.601 120.162 156.544C120.185 156.486 120.185 156.423 120.162 156.366C118.51 152.217 116.87 148.066 115.24 143.915C113.61 139.764 111.969 135.615 110.317 131.468L108.905 136.739L107.492 142.014Z" fill="black" stroke="black" stroke-width="0.964984" stroke-miterlimit="10" stroke-linecap="round"/>
<path d="M140.616 140.221C139.947 150.232 139.28 160.241 138.613 170.248C137.947 180.254 137.279 190.263 136.61 200.274" stroke="black" stroke-width="0.964984" stroke-miterlimit="10" stroke-linecap="round"/>
<path d="M174.327 58.0327L168.665 59.7004L166.728 60.2742C166.728 60.2742 166.171 67.6642 165.361 78.4202C164.552 89.1763 163.482 103.302 162.471 116.778L179.403 105.769L196.335 94.7609L185.329 76.4006L174.327 58.0327Z" fill="#6391FF" stroke="black" stroke-width="0.964984" stroke-miterlimit="10" stroke-linecap="round"/>
<path d="M212.418 52.2125L204.382 73.4989C201.706 80.5905 199.027 87.6822 196.345 94.7738L217.143 104.864L237.94 114.959C236.842 111.206 232.233 95.4509 227.893 80.6441L219.493 51.9562L216.007 52.0862L212.418 52.2125Z" fill="#104FC1" stroke="black" stroke-width="0.964984" stroke-miterlimit="10" stroke-linecap="round"/>
<path d="M219.434 30.1992L207.776 32.9533L196.117 35.7073C197.105 38.5662 198.493 41.2925 200.247 43.8164C204.021 49.279 209.615 53.4537 216.18 55.7085C218.031 56.3443 219.94 56.8282 221.883 57.1544C222.649 54.7853 223.153 52.3503 223.386 49.8868C223.825 45.1907 223.308 40.46 221.862 35.9406C221.226 33.9678 220.414 32.0474 219.434 30.1992Z" fill="black" stroke="black" stroke-width="0.964984" stroke-miterlimit="10" stroke-linecap="round"/>
<path d="M211.893 53.8895C211.121 53.507 210.514 53.1245 210.043 52.8414C209.572 52.5583 209.217 52.3059 209.002 52.1338L208.536 51.7742L208.18 51.4835L208.498 51.5026H208.87H209.188C209.382 51.5026 209.638 51.4835 209.894 51.4529C211.301 51.317 212.651 50.867 213.828 50.1415C215.005 49.416 215.975 48.4367 216.654 47.2877C217.332 46.1387 217.7 44.8543 217.725 43.5447C217.75 42.2351 217.431 40.9396 216.796 39.7692C216.161 38.5989 215.229 37.5887 214.08 36.8254C212.931 36.0621 211.599 35.5685 210.198 35.387C208.798 35.2056 207.371 35.3416 206.04 35.7834C204.708 36.2252 203.513 36.9597 202.556 37.9237C201.129 39.3467 200.275 41.1807 200.136 43.1181C199.723 42.6285 199.31 42.0701 198.897 41.4427C198.435 40.7628 198.013 40.0606 197.633 39.339C197.286 38.6772 196.993 38.0346 196.745 37.4264C196.497 36.8183 196.299 36.2445 196.134 35.7166L176.236 40.4138L156.343 45.111C156.343 45.8416 156.364 46.576 156.409 47.3142C156.455 48.0524 156.521 48.7945 156.616 49.5404C157.813 58.9003 162.629 66.9635 169.447 72.4333C176.265 77.9032 185.078 80.7873 194.284 79.7774C200.751 79.0588 206.814 76.4888 211.629 72.4257C216.499 68.303 220.059 63.0253 221.924 57.1637C220.706 56.9534 219.5 56.6853 218.311 56.3605C217.245 56.0659 216.328 55.7637 215.569 55.4845C215.156 55.3315 214.606 55.125 213.991 54.8649C213.376 54.6048 212.641 54.2681 211.893 53.8895Z" fill="#FFC0C0" stroke="black" stroke-width="0.964984" stroke-miterlimit="10" stroke-linecap="round"/>
<path d="M204.163 53.441C204.29 54.4366 204.04 55.4423 203.457 56.2866C202.873 57.1309 201.991 57.7616 200.962 58.0714C199.932 58.3811 198.819 58.3507 197.811 57.9853C196.803 57.6199 195.963 56.9421 195.434 56.0674C194.905 55.1927 194.72 54.1752 194.91 53.1883C195.1 52.2013 195.654 51.3059 196.477 50.6547C197.3 50.0035 198.341 49.6366 199.423 49.6167C200.505 49.5968 201.562 49.925 202.412 50.5454C202.896 50.897 203.3 51.3339 203.6 51.8309C203.901 52.3279 204.092 52.8751 204.163 53.441Z" fill="#EF3F3F" stroke="black" stroke-width="0.964984" stroke-miterlimit="10" stroke-linecap="round"/>
<path d="M180.281 70.155C180.409 71.1506 180.159 72.1563 179.575 73.0006C178.992 73.8449 178.11 74.4756 177.08 74.7854C176.051 75.0951 174.937 75.0647 173.929 74.6993C172.921 74.3339 172.081 73.6561 171.552 72.7814C171.024 71.9067 170.838 70.8892 171.028 69.9023C171.219 68.9153 171.772 68.0199 172.595 67.3687C173.418 66.7174 174.46 66.3506 175.542 66.3307C176.624 66.3108 177.68 66.639 178.53 67.2594C179.014 67.6116 179.417 68.0486 179.718 68.5455C180.018 69.0424 180.21 69.5894 180.281 70.155Z" fill="#EF3F3F" stroke="black" stroke-width="0.964984" stroke-miterlimit="10" stroke-linecap="round"/>
<path d="M172.504 60.2119C172.543 60.444 172.531 60.6809 172.469 60.9086C172.407 61.1364 172.296 61.3502 172.143 61.5373C171.99 61.7244 171.797 61.881 171.577 61.9978C171.357 62.1145 171.114 62.189 170.862 62.2167C170.61 62.2445 170.355 62.225 170.112 62.1594C169.868 62.0938 169.642 61.9834 169.445 61.8348C169.249 61.6862 169.087 61.5025 168.969 61.2947C168.851 61.0868 168.779 60.8591 168.758 60.625C168.719 60.393 168.731 60.156 168.793 59.9283C168.855 59.7006 168.966 59.4868 169.119 59.2996C169.272 59.1125 169.465 58.9559 169.685 58.8392C169.905 58.7224 170.148 58.6479 170.4 58.6202C170.652 58.5924 170.907 58.6119 171.15 58.6775C171.394 58.7432 171.62 58.8536 171.817 59.0021C172.013 59.1507 172.175 59.3344 172.293 59.5422C172.411 59.7501 172.483 59.9778 172.504 60.2119Z" fill="black"/>
<path d="M189.611 51.0799C189.655 51.4232 189.588 51.7708 189.419 52.0789C189.25 52.3869 188.985 52.6415 188.66 52.8105C188.334 52.9795 187.962 53.0553 187.59 53.0284C187.218 53.0014 186.863 52.8729 186.569 52.659C186.276 52.4452 186.058 52.1556 185.943 51.827C185.827 51.4983 185.819 51.1453 185.92 50.8125C186.021 50.4797 186.226 50.1822 186.51 49.9574C186.794 49.7327 187.143 49.5909 187.513 49.5499C187.76 49.5227 188.009 49.5407 188.248 49.6029C188.487 49.665 188.71 49.7702 188.905 49.9122C189.099 50.0543 189.262 50.2306 189.383 50.431C189.505 50.6313 189.582 50.8519 189.611 51.0799Z" fill="black"/>
<path d="M167.66 50.9294C168.998 49.817 170.419 48.7944 171.914 47.8694C176.554 44.9868 181.836 43.1094 187.367 42.3766" stroke="black" stroke-width="0.964984" stroke-miterlimit="10" stroke-linecap="round"/>
<path d="M172.331 48.2428L176.366 55.6405L180.404 63.0343L181.482 62.4223L182.56 61.8141" stroke="black" stroke-width="0.964984" stroke-miterlimit="10" stroke-linecap="round"/>
<path d="M185.592 11.9707C177.121 12.904 169.803 16.9662 164.604 22.9065C159.191 29.2085 156.276 37.0393 156.344 45.0919L187.9 37.6483L219.456 30.2009C216.362 24.2943 211.485 19.346 205.415 15.9564C199.465 12.6323 192.493 11.2305 185.592 11.9707Z" fill="#F6C34C" stroke="black" stroke-width="0.964984" stroke-miterlimit="10" stroke-linecap="round"/>
<path d="M206.488 46.3867L208.937 43.9961L211.39 41.6016" stroke="black" stroke-width="0.964984" stroke-miterlimit="10" stroke-linecap="round"/>
<path d="M168.303 42.2715C169.331 45.3437 169.339 48.631 168.328 51.7079C167.374 54.6388 165.41 57.1996 162.736 58.9984C161.732 59.6646 160.638 60.2048 159.482 60.605C155.784 61.869 151.701 61.7552 148.092 60.2875C146.252 59.5363 144.616 58.415 143.302 57.0051C141.988 55.5952 141.03 53.932 140.497 52.1363C140.171 51.034 140.019 49.8937 140.047 48.7511C140.141 46.257 140.979 43.8357 142.467 41.7551C143.982 39.6513 146.184 38.0104 148.913 37.4902C150.565 37.196 152.27 37.2947 153.869 37.7771C154.919 38.0861 155.923 38.518 156.855 39.0623C156.748 39.6475 156.649 40.2672 156.566 40.9136C156.483 41.56 156.421 42.2371 156.376 42.9409C156.355 43.3234 156.339 43.7059 156.331 44.0578C156.322 44.4097 156.331 44.7769 156.331 45.1211L162.323 43.7059L168.303 42.2715Z" fill="black" stroke="black" stroke-width="0.964984" stroke-miterlimit="10" stroke-linecap="round"/>
<path d="M158.065 34.3051L185.909 28.3303L213.756 22.3556" stroke="black" stroke-width="0.964984" stroke-miterlimit="10" stroke-linecap="round"/>
<path d="M166.484 32.4988L167.12 37.4484L167.752 42.398" stroke="black" stroke-width="0.964984" stroke-miterlimit="10" stroke-linecap="round"/>
<path d="M177.5 30.2089L178.099 34.8907L178.697 39.5688" stroke="black" stroke-width="0.964984" stroke-miterlimit="10" stroke-linecap="round"/>
<path d="M190.953 27.4506L191.54 32.0483L192.13 36.646" stroke="black" stroke-width="0.964984" stroke-miterlimit="10" stroke-linecap="round"/>
<path d="M204.636 24.5L205.189 28.8491L205.747 33.1982" stroke="black" stroke-width="0.964984" stroke-miterlimit="10" stroke-linecap="round"/>
<path d="M195.154 60.005C195.043 59.8655 194.901 59.7493 194.738 59.6642C194.575 59.5792 194.395 59.5271 194.208 59.5116C194.023 59.4941 193.836 59.5137 193.66 59.5691C193.484 59.6246 193.323 59.7145 193.188 59.8329L190.946 61.776C190.202 62.4263 189.456 63.074 188.707 63.7192C188.302 65.2188 188.197 66.7745 188.398 68.3092C188.535 69.4889 188.812 70.651 189.224 71.7747C190.309 71.7819 191.386 71.5895 192.391 71.2086C193.382 70.8344 194.267 70.2563 194.98 69.5179C196.161 68.2478 196.815 66.6304 196.826 64.9547C196.864 63.1803 196.277 61.4428 195.154 60.005Z" fill="#EF3F3F" stroke="black" stroke-width="0.964984" stroke-miterlimit="10" stroke-linecap="round"/>
<path d="M183.703 68.0726C183.567 68.1924 183.46 68.3375 183.388 68.4983C183.317 68.6592 183.284 68.8322 183.29 69.006C183.292 69.1804 183.335 69.3524 183.416 69.5101C183.496 69.6678 183.612 69.8077 183.756 69.9201C185.296 71.1202 187.241 71.7809 189.253 71.7868C188.842 70.663 188.565 69.5009 188.427 68.3213C188.227 66.7866 188.332 65.2308 188.737 63.7312L186.234 65.9077L183.703 68.0726Z" fill="black" stroke="black" stroke-width="0.964984" stroke-miterlimit="10" stroke-linecap="round"/>
<path d="M179.45 147.535C179.445 148.018 179.259 148.484 178.924 148.854C178.59 149.224 178.127 149.475 177.614 149.564C177.102 149.653 176.572 149.574 176.116 149.342C175.659 149.109 175.303 148.737 175.11 148.289C174.916 147.841 174.897 147.344 175.054 146.884C175.212 146.424 175.537 146.029 175.974 145.766C176.411 145.503 176.934 145.389 177.451 145.443C177.969 145.497 178.451 145.716 178.814 146.063C179.228 146.456 179.457 146.986 179.45 147.535Z" fill="black" stroke="black" stroke-width="0.964984" stroke-miterlimit="10" stroke-linecap="round"/>
<path d="M175.721 187.511C175.721 187.854 175.63 188.192 175.456 188.495C175.282 188.798 175.03 189.056 174.722 189.247C174.414 189.437 174.06 189.555 173.692 189.589C173.323 189.623 172.951 189.572 172.609 189.44C172.267 189.309 171.965 189.102 171.73 188.837C171.495 188.571 171.334 188.257 171.262 187.92C171.19 187.584 171.209 187.236 171.317 186.908C171.424 186.58 171.618 186.281 171.88 186.039C172.195 185.748 172.596 185.55 173.032 185.469C173.468 185.389 173.92 185.431 174.331 185.588C174.742 185.746 175.093 186.012 175.34 186.355C175.588 186.697 175.72 187.099 175.721 187.511Z" fill="black" stroke="black" stroke-width="0.964984" stroke-miterlimit="10" stroke-linecap="round"/>
<path d="M276.741 228.282C262.093 227.024 248.394 202.654 238.334 178.556C228.274 154.458 221.939 130.72 221.939 130.72L249.34 118.587L276.741 106.458L288.718 132.996L300.694 159.531" stroke="black" stroke-width="0.964984" stroke-miterlimit="10" stroke-linecap="round"/>
<path d="M238.916 91.1338L225.478 89.7262L212.023 88.3186C211.505 88.2644 211.003 88.1161 210.546 87.8822C210.089 87.6483 209.687 87.3334 209.362 86.9555C209.037 86.5776 208.795 86.144 208.651 85.6796C208.506 85.2151 208.462 84.7289 208.521 84.2487L211.722 57.9974L214.922 31.746C215.041 30.7763 215.571 29.8899 216.395 29.2812C217.218 28.6725 218.269 28.391 219.316 28.4985L232.759 29.8909L246.209 31.2985C246.728 31.3527 247.23 31.501 247.686 31.7348C248.143 31.9687 248.545 32.2836 248.871 32.6615C249.196 33.0395 249.437 33.473 249.582 33.9375C249.726 34.4019 249.77 34.8881 249.712 35.3683L246.511 61.6388L243.31 87.894C243.252 88.3742 243.092 88.8391 242.839 89.262C242.587 89.6849 242.247 90.0576 241.839 90.3588C241.431 90.66 240.963 90.8838 240.461 91.0174C239.96 91.1511 239.435 91.1919 238.916 91.1376V91.1338Z" fill="#D1B7E5" stroke="black" stroke-width="0.964984" stroke-miterlimit="10" stroke-linecap="round"/>
<path d="M243.476 41.1904C243.479 41.782 243.261 42.3562 242.858 42.8154C242.456 43.2747 241.894 43.5905 241.268 43.7091C240.642 43.8278 239.991 43.742 239.426 43.4663C238.861 43.1906 238.416 42.742 238.168 42.197C237.92 41.6519 237.883 41.044 238.064 40.4767C238.245 39.9093 238.633 39.4177 239.161 39.0853C239.69 38.7529 240.326 38.6003 240.962 38.6536C241.598 38.7068 242.195 38.9626 242.65 39.3773C242.911 39.6141 243.117 39.8962 243.259 40.2074C243.401 40.5185 243.475 40.8526 243.476 41.1904Z" fill="black" stroke="black" stroke-width="0.964984" stroke-miterlimit="10" stroke-linecap="round"/>
<path d="M242.466 50.4372C242.47 51.0309 242.252 51.6073 241.848 52.0685C241.444 52.5296 240.881 52.847 240.253 52.9664C239.625 53.0858 238.972 53 238.405 52.7235C237.838 52.447 237.391 51.997 237.142 51.45C236.893 50.9031 236.856 50.293 237.038 49.7238C237.22 49.1546 237.609 48.6614 238.14 48.3281C238.67 47.9949 239.309 47.8423 239.947 47.8963C240.586 47.9502 241.184 48.2075 241.64 48.6242C241.9 48.8612 242.107 49.1433 242.248 49.4545C242.39 49.7656 242.464 50.0996 242.466 50.4372Z" fill="black" stroke="black" stroke-width="0.964984" stroke-miterlimit="10" stroke-linecap="round"/>
<path d="M250.01 40.8597C250.271 40.5811 250.578 40.3423 250.919 40.1521C251.253 39.9674 251.624 39.8465 252.009 39.7964C252.208 39.7772 252.409 39.7772 252.608 39.7964C253.09 39.8417 253.558 39.9716 253.987 40.1789C256.052 41.1734 257.13 44.5509 257.679 47.6836C258.018 49.6724 258.211 51.68 258.258 53.6928C258.304 58.3366 258.718 62.971 259.497 67.5586C260.232 72.0263 261.252 76.559 262.433 81.8108C262.433 81.8108 262.61 82.5758 263.858 86.3282C265.105 90.0805 267.438 96.7859 271.733 108.689C269.652 109.607 267.566 110.529 265.477 111.455L259.208 114.236C254.15 116.49 249.11 118.745 244.088 121.002C239.067 123.259 234.068 125.521 229.093 127.788C222.618 120.52 217.117 114.018 212.83 108.77C208.543 103.522 205.442 99.471 203.769 97.0804C203.024 95.9649 202.371 94.7987 201.816 93.5919C200.874 91.5455 199.995 88.9062 200.259 86.5156C200.318 85.9747 200.416 85.438 200.552 84.9091C200.672 84.4424 200.804 84.0561 200.911 83.7615C200.208 83.1059 199.606 82.3632 199.123 81.5545C198.214 80.0822 197.802 78.3918 197.938 76.7005C198.023 75.7482 198.284 74.8166 198.71 73.9465C199 73.3568 199.357 72.7976 199.776 72.2787C199.438 71.7909 199.175 71.2618 198.995 70.7066C198.615 69.5926 198.609 68.3979 198.978 67.2805C199.346 66.1632 200.072 65.1758 201.06 64.4488C201.59 64.0376 202.185 63.7036 202.823 63.4582C202.422 62.4892 202.329 61.4338 202.555 60.4172C202.76 59.4576 203.291 58.5838 204.071 57.9233C205.007 57.1678 206.211 56.7592 207.453 56.7758C208.78 56.7804 210.066 57.2026 211.1 57.973C211.261 58.0915 211.414 58.2192 211.558 58.3555C211.707 58.4932 211.843 58.6386 211.971 58.7878C213.2 60.1395 214.534 61.4052 215.964 62.5746C217.745 64.0289 219.669 65.3237 221.713 66.4417C226.017 68.775 230.774 70.3021 235.713 70.9361C238.909 71.3553 242.146 71.4285 245.36 71.1542C246.186 65.0609 246.574 61.8708 246.789 60.203C247.004 58.5353 247.008 58.3938 247.008 58.3938C247.153 56.3359 247.343 54.4157 247.623 52.1092C247.904 49.8027 248.264 47.1367 248.751 43.5449C248.814 43.0486 248.953 42.563 249.164 42.1029C249.374 41.6501 249.66 41.2306 250.01 40.8597Z" fill="#F2B3C1" stroke="black" stroke-width="0.964984" stroke-miterlimit="10" stroke-linecap="round"/>
<path d="M202.809 63.4401C204.678 65.8953 206.733 68.2242 208.958 70.4093C212.704 74.1005 217.8 78.2124 223.185 79.8763" stroke="black" stroke-width="0.964984" stroke-miterlimit="10" stroke-linecap="round"/>
<path d="M199.779 72.2651C201.674 74.6038 203.711 76.8412 205.879 78.9666C209.476 82.4933 214.163 86.3758 218.528 87.791" stroke="black" stroke-width="0.964984" stroke-miterlimit="10" stroke-linecap="round"/>
<path d="M200.913 83.749C200.913 83.749 203.007 85.9714 205.869 88.5342C208.731 91.0969 212.308 93.9925 215.306 95.3428" stroke="black" stroke-width="0.964984" stroke-miterlimit="10" stroke-linecap="round"/>
<path d="M125.216 0.586304H66.8292C65.0183 0.588328 63.2822 1.25553 62.0016 2.44157C60.7211 3.6276 60.0008 5.23563 59.9986 6.91294V37.0352C59.9986 38.7132 60.7182 40.3224 61.9992 41.5089C63.2802 42.6953 65.0176 43.3619 66.8292 43.3619H93.4086L101.338 50.7022L109.263 58.0386L107.863 50.7022L106.463 43.3619H125.216C127.028 43.3619 128.765 42.6953 130.046 41.5089C131.327 40.3224 132.047 38.7132 132.047 37.0352V6.91294C132.045 5.23563 131.324 3.6276 130.044 2.44157C128.763 1.25553 127.027 0.588328 125.216 0.586304Z" fill="#14AF6C" stroke="black" stroke-width="0.964984" stroke-miterlimit="10" stroke-linecap="round"/>
<path d="M83.545 23.2561C83.546 24.1792 83.2014 25.074 82.5699 25.7881C81.9384 26.5021 81.0591 26.9913 80.0818 27.1722C79.1045 27.3531 78.0898 27.2146 77.2105 26.7801C76.3312 26.3457 75.6417 25.6424 75.2595 24.7899C74.8774 23.9374 74.8262 22.9885 75.1147 22.105C75.4033 21.2215 76.0136 20.458 76.8418 19.9446C77.6701 19.4312 78.6648 19.1996 79.6567 19.2894C80.6486 19.3792 81.5761 19.7848 82.2813 20.4371C82.6819 20.8068 82.9998 21.2461 83.2167 21.7299C83.4336 22.2136 83.5451 22.7323 83.545 23.2561Z" fill="#F7CE21" stroke="black" stroke-width="0.964984" stroke-miterlimit="10" stroke-linecap="round"/>
<path d="M117.112 23.2572C117.106 24.1786 116.756 25.0697 116.12 25.7786C115.485 26.4875 114.604 26.9703 113.627 27.1448C112.65 27.3193 111.638 27.1746 110.764 26.7353C109.889 26.2961 109.206 25.5896 108.831 24.7362C108.456 23.8828 108.412 22.9353 108.707 22.0552C109.001 21.1752 109.617 20.4171 110.447 19.9101C111.278 19.4031 112.273 19.1786 113.262 19.2749C114.251 19.3712 115.174 19.7823 115.873 20.4381C116.269 20.8096 116.583 21.2497 116.795 21.7335C117.008 22.2172 117.115 22.735 117.112 23.2572Z" fill="#F7CE21" stroke="black" stroke-width="0.964984" stroke-miterlimit="10" stroke-linecap="round"/>
<path d="M100.349 23.2586C100.348 24.1797 100.003 25.0721 99.3716 25.7837C98.7402 26.4953 97.862 26.9822 96.8865 27.1614C95.9111 27.3406 94.8987 27.201 94.0219 26.7665C93.1451 26.3319 92.458 25.6293 92.0777 24.7782C91.6975 23.9271 91.6475 22.9803 91.9364 22.0989C92.2253 21.2175 92.8351 20.4562 93.662 19.9445C94.4889 19.4329 95.4817 19.2026 96.4714 19.2929C97.4611 19.3831 98.3864 19.7884 99.0896 20.4396C99.8962 21.1876 100.349 22.2015 100.349 23.2586Z" fill="#F7CE21" stroke="black" stroke-width="0.964984" stroke-miterlimit="10" stroke-linecap="round"/>
<path d="M36.1277 91.27C34.6102 89.8855 33.2486 88.3617 32.064 86.722C31.0151 85.2953 30.218 84.0062 29.5118 83.0155C27.3042 79.9284 25.2723 76.7365 23.4245 73.4529C21.5738 70.1719 19.9744 66.7746 18.6381 63.2859C18.3117 62.3623 17.8768 61.4747 17.3413 60.639C16.6378 59.4717 15.5288 58.559 14.1944 58.0494C13.8623 57.9348 13.5174 57.8553 13.1661 57.8122C12.5927 57.7398 12.0091 57.7909 11.4605 57.9614C10.6082 58.2455 9.8819 58.7837 9.39559 59.4914C8.83811 60.2971 8.49947 61.2158 8.40857 62.169C7.848 62.2656 7.3055 62.437 6.79796 62.6777C6.4484 62.8427 6.12123 63.0456 5.82333 63.2821C4.79612 64.1394 4.12301 65.301 3.91949 66.5678C3.66572 68.0331 3.8076 69.5338 4.33247 70.936C4.09948 71.0479 3.87585 71.1757 3.66344 71.3185C3.4685 71.4533 3.28488 71.6016 3.11418 71.7622C1.08645 73.6441 1.20622 76.8878 1.87524 79.7604C2.36621 81.7455 3.07327 83.6794 3.98557 85.5324L4.66285 86.8941C4.88586 87.3455 5.113 87.8007 5.33601 88.2558C5.13748 88.3551 4.947 88.4676 4.7661 88.5925C4.53309 88.7554 4.31737 88.9386 4.12185 89.1394C3.39088 89.9045 2.61861 91.2662 3.00681 94.1656C3.39501 97.0649 4.94781 101.494 8.85459 108.376C11.675 113.301 14.821 118.061 18.2747 122.628C23.7057 129.805 29.6378 136.646 36.0328 143.107L57.0162 125.791L78.0451 108.487C71.0823 95.336 65.1024 84.033 60.7496 75.8015C56.3968 67.5699 53.6794 62.4061 53.2292 61.5187C53.1686 61.3981 53.101 61.2807 53.0268 61.1668C52.4574 60.2671 51.6316 59.53 50.6398 59.0363C49.973 58.7152 49.2192 58.5823 48.4717 58.6538C48.2297 58.6791 47.9915 58.7291 47.7614 58.8029C47.3148 58.9343 46.9008 59.1462 46.5431 59.4264C45.3041 60.4018 45.0274 61.7635 45.1472 63.1711C45.3345 64.5537 45.6934 65.9117 46.2168 67.218C47.8354 71.7155 49.0902 76.3182 49.9708 80.9882C50.9909 86.8865 50.9991 92.7694 47.6664 94.6819C47.0928 94.9955 46.4508 95.1863 45.7873 95.2404C45.1374 95.292 44.4839 95.292 43.8339 95.2404C42.6615 95.1661 41.5196 94.861 40.4847 94.3453C38.8763 93.5252 37.4081 92.4888 36.1277 91.27Z" fill="#F2B3C1" stroke="black" stroke-width="0.964984" stroke-miterlimit="10" stroke-linecap="round"/>
<path d="M5.3632 88.2732C5.3632 88.2732 6.8871 92.125 9.08002 96.5277C11.2729 100.93 14.0688 105.88 16.6582 108.079" stroke="black" stroke-width="0.964984" stroke-miterlimit="10" stroke-linecap="round"/>
<path d="M4.34665 70.9465C4.34665 70.9465 7.62983 78.5163 11.5201 86.3118C15.4104 94.1072 19.8994 102.113 22.2947 102.989" stroke="black" stroke-width="0.964984" stroke-miterlimit="10" stroke-linecap="round"/>
<path d="M8.41156 62.1848C8.41156 62.1848 11.5419 70.1907 15.5891 78.6325C19.6363 87.0744 24.6045 95.96 28.2759 97.7157" stroke="black" stroke-width="0.964984" stroke-miterlimit="10" stroke-linecap="round"/>
<path d="M231.964 162.059V195.173V228.286H274.364C273.175 228.286 271.952 227.69 270.808 226.936C269.664 226.183 268.599 225.265 267.728 224.641C262.726 220.958 258.609 216.283 255.062 211.223C251.514 206.162 248.536 200.708 245.823 195.471C244.113 192.174 242.734 189.236 241.45 186.291C240.165 183.346 238.972 180.401 237.642 177.088C236.857 175.141 235.99 172.881 235.016 170.383C234.041 167.885 233.033 165.077 231.964 162.059Z" fill="black" stroke="black" stroke-width="0.964984" stroke-miterlimit="10" stroke-linecap="round"/>
</svg>
