<svg width="298" height="278" viewBox="0 0 298 278" fill="none" xmlns="http://www.w3.org/2000/svg">
<path d="M240.06 251.113H211.302C211.1 251.896 210.715 252.619 210.178 253.222C209.641 253.825 208.967 254.291 208.214 254.582C208.332 254.753 212.143 260.256 213.918 262.841C214.327 263.289 214.594 263.847 214.685 264.447C214.684 264.81 214.573 265.165 214.368 265.465C214.163 265.765 213.871 265.996 213.533 266.128C213.194 266.259 212.823 266.286 212.469 266.204C212.115 266.122 211.794 265.935 211.547 265.668C209.978 264.031 208.4 262.402 206.813 260.782C206.431 261.257 205.975 261.667 205.461 261.997C203.697 262.993 201.69 263.479 199.665 263.399C200.087 263.937 200.396 264.554 200.573 265.214C200.75 265.874 200.791 266.563 200.695 267.239C200.6 267.916 200.368 268.566 200.014 269.15C199.661 269.735 199.193 270.242 198.639 270.642C197.237 271.699 195.689 272.547 194.044 273.161C191.984 273.953 189.948 274.81 187.89 275.614C169.985 282.585 151.832 288.404 132.945 290.901C132.945 291.542 132.976 292.23 132.976 292.23C132.978 292.384 133.04 292.53 133.148 292.639C133.257 292.748 133.404 292.809 133.557 292.811H240.055C240.208 292.809 240.355 292.748 240.464 292.639C240.572 292.53 240.634 292.384 240.636 292.23V251.695C240.634 251.542 240.573 251.396 240.465 251.288C240.358 251.179 240.212 251.117 240.06 251.113Z" fill="#FFF0B3"/>
<path d="M213.926 262.841C212.149 260.255 208.338 254.761 208.222 254.582C208.009 254.654 207.789 254.707 207.566 254.74C208.046 255.709 208.232 256.797 208.1 257.869C207.968 258.942 207.525 259.953 206.825 260.777L211.451 265.53C211.681 265.83 211.999 266.05 212.36 266.16C212.721 266.27 213.108 266.264 213.465 266.143C213.823 266.022 214.134 265.793 214.355 265.487C214.576 265.18 214.695 264.813 214.696 264.435C214.603 263.84 214.335 263.285 213.926 262.841Z" fill="#2755A0"/>
<path d="M161.628 190.57C161.56 190.471 161.455 190.403 161.336 190.38C161.218 190.358 161.095 190.382 160.995 190.449C160.645 190.688 157.796 193.059 149.68 199.758C149.575 199.868 149.516 200.015 149.516 200.168C149.516 200.321 149.575 200.468 149.68 200.579C156.427 207.867 157.073 209.17 174.239 227.15C180.076 226.744 185.918 227.872 191.183 230.423C180.77 215.878 161.762 190.742 161.628 190.57Z" fill="#2755A0"/>
<path d="M166.888 25.475C165.985 22.718 164.396 20.2355 162.271 18.2603C160.146 16.2852 157.554 14.8821 154.738 14.1826C151.498 13.3761 159.094 13.6201 50.1927 13.6201C49.0677 13.6201 47.9348 13.5916 46.813 13.6962C42.4716 14.0975 38.4365 16.106 35.499 19.3278C32.5615 22.5497 30.9333 26.7526 30.9336 31.1125V65.5286C42.0026 60.4171 53.0352 66.4539 54.9239 75.5106C64.3624 68.4356 74.3461 62.1187 84.7814 56.6191C87.5352 55.2565 90.853 54.3391 93.4769 56.4306C94.501 57.2669 95.3023 58.3436 95.8093 59.5647C96.3163 60.7858 96.5133 62.1134 96.3828 63.4291C95.7363 70.7335 87.7887 76.8321 82.0704 81.3652H167.237C167.39 81.3628 167.536 81.3007 167.645 81.1921C167.753 81.0835 167.814 80.937 167.817 80.7837V60.5359H162.889C162.787 60.5341 162.688 60.506 162.601 60.4544C162.514 60.4028 162.441 60.3294 162.391 60.2414C162.34 60.1535 162.314 60.0539 162.313 59.9525C162.313 59.8511 162.339 59.7513 162.388 59.6629C162.754 59.0291 164.903 55.3484 167.817 50.3447V37.6896C165.332 38.4977 162.873 36.8673 162.608 33.4845C162.436 31.2757 163.353 27.595 160.772 26.4004C160.235 26.2138 159.646 26.245 159.131 26.4872C158.616 26.7295 158.217 27.1635 158.018 27.6965C157.544 28.8126 157.352 30.0281 157.457 31.2361C157.491 33.3435 157.758 36.6787 155.066 37.2745C154.009 37.5139 152.9 37.3684 151.94 36.8641C150.957 36.2424 150.236 35.281 149.915 34.1626C149.43 31.5828 149.439 28.9343 149.941 26.3576C150.031 25.6256 151.208 25.6192 151.1 26.3576C150.888 27.9008 150.758 29.4541 150.711 31.0111C150.605 32.3228 150.872 33.6377 151.481 34.8043C151.69 35.1685 151.977 35.4817 152.322 35.7211C152.667 35.9606 153.061 36.1204 153.475 36.1889C153.89 36.2575 154.314 36.2331 154.718 36.1175C155.121 36.0019 155.494 35.798 155.809 35.5205C157.134 33.0709 155.277 29.0702 157.59 26.2752C157.96 25.82 158.447 25.4747 158.998 25.2769C159.55 25.0791 160.145 25.0364 160.72 25.1534C161.261 25.3193 161.76 25.5984 162.186 25.9721C162.611 26.3458 162.951 26.8056 163.185 27.3209C164.32 29.7753 163.147 32.5496 164.148 35.0198C164.281 35.3669 164.485 35.6823 164.746 35.9457C165.008 36.2091 165.323 36.4147 165.669 36.5491C166.015 36.6835 166.386 36.7437 166.757 36.7259C167.128 36.7081 167.491 36.6127 167.823 36.4458V33.0361C167.964 30.4802 167.647 27.9197 166.888 25.475ZM86.0014 31.8905L77.7417 41.8726C77.9682 42.1166 83.2873 47.9046 85.721 50.5538C86.2264 51.1037 85.4041 51.9276 84.9002 51.3746C84.5564 51.0007 79.0171 44.9354 76.5628 42.3036C76.4587 42.1923 76.4007 42.0456 76.4007 41.8932C76.4007 41.7408 76.4587 41.5941 76.5628 41.4828L85.1807 31.0761C85.6576 30.4899 86.4752 31.3154 86.0014 31.8905ZM110.494 32.5908C110.494 32.5908 96.6284 46.626 91.6548 51.4269C91.5442 51.5278 91.3989 51.5822 91.2492 51.5787C91.0995 51.5753 90.957 51.5142 90.8512 51.4082C90.7454 51.3022 90.6846 51.1595 90.6814 51.0098C90.6782 50.8601 90.7329 50.7149 90.834 50.6045C92.1982 49.1944 104.7 36.5758 109.672 31.7669C109.782 31.6658 109.927 31.6111 110.077 31.6143C110.227 31.6175 110.369 31.6783 110.475 31.7841C110.581 31.8899 110.642 32.0324 110.646 32.1821C110.649 32.3318 110.595 32.4771 110.494 32.5877V32.5908ZM124.146 42.2972C123.8 42.6696 118.245 48.719 115.81 51.3683C115.303 51.9212 114.484 51.0973 114.989 50.5475L122.967 41.8663C122.734 41.5826 117.228 34.9327 114.709 31.8842C114.233 31.3122 115.052 30.4867 115.529 31.0634L124.146 41.4701C124.251 41.5812 124.31 41.7287 124.31 41.8821C124.31 42.0355 124.251 42.183 124.146 42.2941V42.2972Z" fill="#CCEAFF"/>
<path d="M165.066 99.032C165.215 99.0242 165.355 98.9597 165.457 98.8516C165.56 98.7436 165.617 98.6003 165.617 98.4513C165.617 98.3023 165.56 98.1591 165.457 98.051C165.355 97.943 165.215 97.8784 165.066 97.8706H163.481L162.474 99.032H165.066Z" fill="#2755A0"/>
<path d="M167.387 91.6454C167.387 85.0208 167.43 85.3995 167.29 85.1919C167.35 85.3035 167.375 85.4304 167.362 85.5564C167.349 85.6824 167.299 85.8015 167.217 85.8986C167.217 85.8986 129.347 129.561 127.465 131.712C124.929 134.638 121.772 136.962 118.224 138.513C114.676 140.063 110.826 140.802 106.956 140.675H61.74C61.3962 141.413 61.0556 142.153 60.707 142.893C67.6326 141.478 71.2563 143.793 75.1113 141.545C75.1788 141.507 75.2531 141.483 75.3301 141.474C75.407 141.465 75.485 141.471 75.5594 141.492C75.6338 141.514 75.7033 141.55 75.7637 141.598C75.8242 141.646 75.8744 141.706 75.9114 141.774C76.2185 143.591 76.0515 145.456 75.4266 147.189C75.2919 147.582 75.1414 147.968 74.9703 148.348H107.769C111.684 148.36 115.552 147.488 119.084 145.797C122.616 144.106 125.721 141.64 128.167 138.582C131.23 134.99 165.92 95.0678 166.91 93.927C167.152 93.7175 167.319 93.4341 167.385 93.1205C167.413 92.6292 167.413 92.1368 167.387 91.6454Z" fill="#CCEAFF"/>
<path d="M166.809 84.9067H77.7786C73.7271 88.4559 70.1288 92.5201 69.3207 97.8708H94.2696C94.4184 97.8785 94.5585 97.9431 94.661 98.0512C94.7636 98.1592 94.8208 98.3025 94.8208 98.4515C94.8208 98.6004 94.7636 98.7437 94.661 98.8518C94.5585 98.9598 94.4184 99.0244 94.2696 99.0322H69.2019C68.9416 100.874 69.3701 102.747 70.4054 104.293C71.4408 105.838 73.01 106.948 74.8125 107.408C78.126 108.137 81.4746 108.697 84.8453 109.084C93.2651 110.352 95.8493 110.531 98.7616 111.66H112.377C112.526 111.668 112.666 111.733 112.768 111.841C112.871 111.949 112.928 112.092 112.928 112.241C112.928 112.39 112.871 112.533 112.768 112.641C112.666 112.749 112.526 112.814 112.377 112.822H100.845C105.551 116.2 103.808 123.094 98.8186 125.933H128.502C128.651 125.941 128.791 126.005 128.893 126.114C128.996 126.222 129.053 126.365 129.053 126.514C129.053 126.663 128.996 126.806 128.893 126.914C128.791 127.022 128.651 127.087 128.502 127.095H96.3215C93.7141 127.927 91.0218 128.466 88.2946 128.701C81.1457 129.416 73.9531 129.593 66.7777 129.229C65.1952 133.088 63.5162 136.906 61.7423 140.681H106.958C110.829 140.808 114.679 140.068 118.227 138.516C121.775 136.964 124.932 134.639 127.467 131.712C129.35 129.558 167.22 85.8954 167.22 85.8954C167.295 85.8122 167.345 85.7094 167.364 85.5989C167.383 85.4885 167.37 85.3749 167.327 85.2714C167.284 85.1679 167.213 85.0787 167.121 85.0141C167.029 84.9496 166.921 84.9124 166.809 84.9067ZM153.658 99.0322H131.083C130.934 99.0244 130.794 98.9598 130.691 98.8518C130.589 98.7437 130.532 98.6004 130.532 98.4515C130.532 98.3025 130.589 98.1592 130.691 98.0512C130.794 97.9431 130.934 97.8785 131.083 97.8708H153.661C153.781 97.9134 153.885 97.9921 153.958 98.0961C154.032 98.2001 154.071 98.3242 154.071 98.4515C154.071 98.5787 154.032 98.7029 153.958 98.8068C153.885 98.9108 153.781 98.9895 153.661 99.0322H153.658ZM101.645 99.0322C101.497 99.0244 101.356 98.9598 101.254 98.8518C101.151 98.7437 101.094 98.6004 101.094 98.4515C101.094 98.3025 101.151 98.1592 101.254 98.0512C101.356 97.9431 101.497 97.8785 101.645 97.8708H123.733C123.881 97.8785 124.021 97.9431 124.124 98.0512C124.227 98.1592 124.284 98.3025 124.284 98.4515C124.284 98.6004 124.227 98.7437 124.124 98.8518C124.021 98.9598 123.881 99.0244 123.733 99.0322H101.645ZM119.424 112.817C119.276 112.809 119.136 112.745 119.033 112.637C118.93 112.529 118.873 112.385 118.873 112.236C118.873 112.087 118.93 111.944 119.033 111.836C119.136 111.728 119.276 111.663 119.424 111.656H141.32C141.469 111.663 141.609 111.728 141.712 111.836C141.814 111.944 141.871 112.087 141.871 112.236C141.871 112.385 141.814 112.529 141.712 112.637C141.609 112.745 141.469 112.809 141.32 112.817H119.424Z" fill="#78B5FF"/>
<path d="M131.082 99.032H153.66C153.809 99.0242 153.949 98.9597 154.052 98.8516C154.154 98.7436 154.211 98.6003 154.211 98.4513C154.211 98.3023 154.154 98.1591 154.052 98.051C153.949 97.943 153.809 97.8784 153.66 97.8706H131.082C130.933 97.8784 130.793 97.943 130.69 98.051C130.588 98.1591 130.53 98.3023 130.53 98.4513C130.53 98.6003 130.588 98.7436 130.69 98.8516C130.793 98.9597 130.933 99.0242 131.082 99.032Z" fill="#2755A0"/>
<path d="M123.735 97.8706H101.647C101.499 97.8784 101.358 97.943 101.256 98.051C101.153 98.1591 101.096 98.3023 101.096 98.4513C101.096 98.6003 101.153 98.7436 101.256 98.8516C101.358 98.9597 101.499 99.0242 101.647 99.032H123.735C123.883 99.0242 124.024 98.9597 124.126 98.8516C124.229 98.7436 124.286 98.6003 124.286 98.4513C124.286 98.3023 124.229 98.1591 124.126 98.051C124.024 97.943 123.883 97.8784 123.735 97.8706Z" fill="#2755A0"/>
<path d="M101.648 150.155C101.494 150.155 101.346 150.216 101.238 150.324C101.129 150.433 101.068 150.581 101.068 150.734C101.068 150.888 101.129 151.036 101.238 151.145C101.346 151.253 101.494 151.314 101.648 151.314H116.166C116.32 151.314 116.467 151.253 116.576 151.145C116.685 151.036 116.746 150.888 116.746 150.734C116.746 150.581 116.685 150.433 116.576 150.324C116.467 150.216 116.32 150.155 116.166 150.155H101.648Z" fill="#2755A0"/>
<path d="M94.2685 99.032C94.4172 99.0242 94.5573 98.9597 94.6599 98.8516C94.7624 98.7436 94.8196 98.6003 94.8196 98.4513C94.8196 98.3023 94.7624 98.1591 94.6599 98.051C94.5573 97.943 94.4172 97.8784 94.2685 97.8706H69.3196C69.2626 98.2558 69.2229 98.6433 69.2007 99.032H94.2685Z" fill="#2755A0"/>
<path d="M141.322 111.661H119.427C119.278 111.668 119.138 111.733 119.035 111.841C118.933 111.949 118.876 112.092 118.876 112.241C118.876 112.39 118.933 112.533 119.035 112.642C119.138 112.75 119.278 112.814 119.427 112.822H141.322C141.471 112.814 141.611 112.75 141.714 112.642C141.816 112.533 141.874 112.39 141.874 112.241C141.874 112.092 141.816 111.949 141.714 111.841C141.611 111.733 141.471 111.668 141.322 111.661Z" fill="#2755A0"/>
<path d="M112.373 111.661H98.7574C99.4985 111.96 100.199 112.35 100.844 112.822H112.373C112.511 112.8 112.637 112.73 112.728 112.623C112.819 112.517 112.869 112.381 112.869 112.241C112.869 112.101 112.819 111.966 112.728 111.859C112.637 111.753 112.511 111.682 112.373 111.661Z" fill="#2755A0"/>
<path d="M128.501 127.094C128.65 127.086 128.79 127.022 128.893 126.914C128.995 126.806 129.053 126.662 129.053 126.513C129.053 126.364 128.995 126.221 128.893 126.113C128.79 126.005 128.65 125.941 128.501 125.933H98.8181C98.0241 126.397 97.188 126.786 96.321 127.094H128.501Z" fill="#2755A0"/>
<path d="M98.7581 111.66C95.8886 110.524 92.8512 110.283 84.8418 109.084C78.2504 108.097 77.0621 107.975 74.809 107.408C71.3232 106.534 68.9306 103.524 69.2016 99.0321C69.5517 93.2346 73.4115 88.7236 77.7783 84.9066C84.4615 79.0663 95.6034 72.2421 96.383 63.4293C96.5135 62.1136 96.3165 60.786 95.8094 59.5649C95.3024 58.3438 94.5012 57.2671 93.4771 56.4308C90.8532 54.3393 87.5353 55.2567 84.7816 56.6193C74.3418 62.1119 64.3576 68.4297 54.924 75.5124C54.3732 73.2101 53.2914 71.0686 51.765 69.2591C50.2386 67.4496 48.31 66.0223 46.1335 65.0914C38.1811 61.5723 29.1592 64.7745 23.3759 71.0759C20.7615 66.3685 14.8816 64.6319 9.75905 65.3513C3.21049 66.2718 -1.62845 71.3928 -4.51533 77.0319C-7.84784 84.1421 -9.91228 91.78 -10.6155 99.6009C-11.1875 105.673 -10.9514 106.348 -11.1178 146.854C-11.1157 146.701 -11.054 146.555 -10.9456 146.446C-10.8373 146.338 -10.691 146.276 -10.5379 146.274C-4.61357 146.231 -29.4119 146.274 52.4317 146.274C54.9464 144.628 57.7544 143.48 60.7025 142.893C63.4246 137.149 65.3862 132.627 66.771 129.226C73.9485 129.591 81.1432 129.415 88.2943 128.701C91.0236 128.484 93.7178 127.946 96.3212 127.098C104.622 124.265 106.362 114.668 98.7581 111.66ZM42.5209 92.474C42.242 93.1585 41.1202 92.859 41.4007 92.1666C43.5188 86.9209 46.8681 82.2619 51.1657 78.5831C51.7313 78.1077 52.5569 78.919 51.9864 79.4038C47.8287 82.9384 44.5822 87.4212 42.5209 92.474ZM12.2958 86.2249C14.1834 81.9452 16.7996 78.0257 20.0279 74.6409C20.5445 74.0975 21.3636 74.9198 20.8487 75.4617C17.6944 78.779 15.1399 82.6186 13.2987 86.8096C12.9993 87.4941 11.9979 86.9015 12.2958 86.2249Z" fill="#FFD2D2"/>
<path d="M208.978 244.638C204.637 239.721 199.613 235.452 194.06 231.962C185.009 226.553 176.899 226.486 166.608 227.871C160.089 228.747 149.757 230.687 149.313 230.881C149.396 230.865 149.482 230.867 149.564 230.888C149.646 230.908 149.723 230.947 149.789 231C149.855 231.053 149.908 231.12 149.945 231.197C149.983 231.273 150.003 231.356 150.004 231.441C150.004 232.301 150.246 262.514 150.004 287.302C150.002 287.421 149.965 287.537 149.896 287.633C149.827 287.73 149.731 287.804 149.619 287.844C158.341 285.792 166.944 283.259 175.387 280.259C186.492 276.344 190.259 274.608 194.049 273.161C195.694 272.548 197.242 271.699 198.644 270.642C199.198 270.243 199.666 269.735 200.019 269.151C200.373 268.566 200.605 267.916 200.7 267.239C200.796 266.563 200.755 265.874 200.578 265.214C200.401 264.554 200.092 263.937 199.67 263.399C201.695 263.479 203.702 262.993 205.466 261.997C206.644 261.256 207.509 260.107 207.895 258.77C208.281 257.433 208.161 256 207.559 254.745C208.598 254.521 209.536 253.967 210.233 253.166C210.93 252.365 211.35 251.36 211.429 250.301C211.345 248.174 210.471 246.154 208.978 244.638ZM177.724 260.441C183.217 260.825 188.691 261.405 194.147 262.184C194.295 262.225 194.422 262.323 194.498 262.457C194.574 262.591 194.593 262.75 194.553 262.899C194.508 263.045 194.409 263.168 194.276 263.244C194.143 263.319 193.986 263.341 193.838 263.304C188.489 262.539 183.118 261.97 177.724 261.596C176.983 261.55 176.979 260.389 177.724 260.441ZM183.187 243.163C182.52 242.824 183.11 241.822 183.774 242.16L203.129 251.972C203.796 252.31 203.209 253.311 202.543 252.974L183.187 243.163Z" fill="#FFD2D2"/>
<path d="M150.005 231.441C150.004 231.364 149.988 231.289 149.958 231.219C149.927 231.149 149.884 231.086 149.829 231.033C149.774 230.98 149.709 230.938 149.638 230.91C149.567 230.882 149.492 230.869 149.415 230.87C147.427 230.903 117.98 238.384 103.36 241.397C102.01 235.339 100.082 229.424 97.6037 223.734C95.2275 218.122 91.9835 212.919 87.9907 208.315C74.6813 193.185 52.6019 190.105 32.7613 196.491C36.1953 190.271 39.5919 184.03 42.9509 177.769C42.0515 175.547 41.612 173.166 41.6591 170.769C41.7062 168.372 42.2389 166.01 43.2251 163.825C43.8928 162.416 44.9339 161.215 46.2355 160.355C46.3862 159.894 46.5749 159.446 46.7996 159.015C45.1565 157.201 45.9915 154.045 47.1561 151.85C48.4264 149.58 50.2446 147.665 52.445 146.278H-10.5324C-10.6857 146.279 -10.8323 146.341 -10.9407 146.449C-11.0491 146.558 -11.1107 146.704 -11.1124 146.857C-11.209 156.987 -11.7002 292.002 -11.7002 292.71C-11.6985 292.863 -11.6369 293.01 -11.5285 293.118C-11.4201 293.227 -11.2736 293.288 -11.1203 293.29H105.074C105.228 293.288 105.375 293.227 105.483 293.118C105.592 293.01 105.654 292.863 105.656 292.71V291.956C120.416 292.719 135.209 291.34 149.574 287.862L149.615 287.844C149.727 287.804 149.823 287.73 149.892 287.633C149.961 287.536 149.999 287.421 150 287.302C150.006 287.147 150.011 232.198 150.005 231.441ZM112.076 285.563H120.068C120.217 285.57 120.357 285.635 120.46 285.743C120.562 285.851 120.619 285.994 120.619 286.143C120.619 286.292 120.562 286.436 120.46 286.544C120.357 286.652 120.217 286.716 120.068 286.724H112.076C111.927 286.716 111.787 286.652 111.685 286.544C111.582 286.436 111.525 286.292 111.525 286.143C111.525 285.994 111.582 285.851 111.685 285.743C111.787 285.635 111.927 285.57 112.076 285.563ZM102.763 241.515C103.493 241.367 103.804 242.487 103.08 242.635C87.3063 245.804 80.2285 246.596 65.1476 241.153C48.3888 235.105 35.2172 228.238 19.7846 222.457C19.0906 222.195 19.3932 221.074 20.1015 221.337C36.7985 227.597 61.7569 240.09 75.5575 243.053C84.6808 245 93.5902 243.367 102.763 241.515ZM17.1908 163.014C17.3493 163.743 16.2401 164.05 16.0706 163.323C15.6743 161.61 15.826 159.815 16.5043 158.192C17.1826 156.57 18.3533 155.201 19.8511 154.279C21.0944 153.688 22.4593 153.398 23.8355 153.432C25.2117 153.465 26.5607 153.823 27.7734 154.474C29.538 155.601 30.9997 157.142 32.0308 158.964C33.9797 161.837 38.3893 169.739 40.0704 172.782C40.1481 172.915 40.1699 173.073 40.131 173.222C40.0921 173.371 39.9956 173.498 39.8628 173.576C39.7971 173.615 39.7244 173.64 39.6489 173.65C39.5734 173.661 39.4966 173.656 39.4229 173.637C39.2741 173.598 39.1468 173.501 39.069 173.369C35.0144 166.59 30.7744 157.432 27.2886 155.542C26.2157 154.923 25.0033 154.587 23.765 154.565C22.5268 154.543 21.3033 154.836 20.2092 155.417C18.9906 156.223 18.0481 157.384 17.5085 158.742C16.9689 160.1 16.858 161.591 17.1908 163.014ZM-6.38751 153.706C-6.37973 153.557 -6.31516 153.417 -6.20711 153.314C-6.09906 153.212 -5.95577 153.154 -5.8068 153.154C-5.65783 153.154 -5.51454 153.212 -5.40649 153.314C-5.29844 153.417 -5.23387 153.557 -5.2261 153.706V163.125C-5.23387 163.274 -5.29844 163.414 -5.40649 163.517C-5.51454 163.619 -5.65783 163.676 -5.8068 163.676C-5.95577 163.676 -6.09906 163.619 -6.20711 163.517C-6.31516 163.414 -6.37973 163.274 -6.38751 163.125V153.706ZM105.087 291.918C78.4365 290.113 61.7394 281.186 40.2288 266.624C23.8994 255.569 18.4378 250.828 7.22458 243.136C6.61297 242.716 7.19447 241.71 7.81082 242.134C20.4057 250.774 22.9899 253.574 42.8812 267.01C63.026 280.621 80.1619 289.175 105.087 290.753C105.81 290.802 105.843 291.969 105.087 291.918Z" fill="#C0C195"/>
<path d="M45.8811 162.092C42.5648 165.453 42.2273 172.011 43.6771 176.397C45.2499 173.449 46.8106 170.496 48.3592 167.536C47.5276 166.905 46.8659 166.077 46.4333 165.127C46.0008 164.177 45.811 163.134 45.8811 162.092Z" fill="#C0C195"/>
<path d="M20.0282 74.6411C16.7999 78.0259 14.1837 81.9454 12.2961 86.2251C11.9982 86.9017 12.9996 87.4927 13.2991 86.8098C15.1404 82.6194 17.6949 78.7803 20.849 75.4635C21.3639 74.92 20.5448 74.0977 20.0282 74.6411Z" fill="#FF4848"/>
<path d="M51.1638 78.5833C46.8661 82.2621 43.5169 86.9211 41.3988 92.1668C41.1183 92.8592 42.2401 93.1587 42.519 92.4742C44.5803 87.4214 47.8268 82.9386 51.9845 79.404C52.5549 78.9192 51.7294 78.1 51.1638 78.5833Z" fill="#FF4848"/>
<path d="M75.9842 142.045C75.9819 141.944 75.9535 141.845 75.9018 141.758C75.8501 141.671 75.7768 141.599 75.6889 141.548C75.6011 141.498 75.5018 141.471 75.4006 141.47C75.2994 141.47 75.1997 141.495 75.1112 141.544C71.8282 143.46 68.5071 142.047 63.1865 142.495C57.1656 143.007 50.0355 146.399 47.1471 151.843C45.9872 154.027 45.1506 157.196 46.7906 159.008C49.8359 153.165 57.5142 152.634 62.4006 156.278C62.7843 156.535 63.1336 156.839 63.44 157.185C66.7402 156.373 69.7716 154.715 72.2354 152.374C73.5844 151.036 74.6202 149.416 75.2684 147.63C75.9166 145.844 76.1611 143.937 75.9842 142.045Z" fill="black"/>
<path d="M52.6834 160.398C51.4967 160.113 50.2588 160.119 49.0744 160.413C47.8901 160.708 46.7943 161.284 45.8797 162.092C45.3933 167.921 53.7228 172.035 60.5043 168.791C59.4062 164.836 56.6667 161.246 52.6834 160.398Z" fill="#FFD2D2"/>
<path d="M65.204 160.479C63.675 153.045 49.3721 150.768 46.227 160.352C46.7082 160.032 47.2284 159.775 47.775 159.587C53.0782 157.712 59.3067 160.696 61.5376 168.175C62.8098 167.366 63.8284 166.215 64.4768 164.854C65.1253 163.493 65.3773 161.976 65.204 160.479Z" fill="#FFD2D2"/>
<path d="M32.0302 158.964C30.9956 157.143 29.5306 155.604 27.7633 154.48C26.5506 153.829 25.2016 153.472 23.8254 153.438C22.4492 153.404 21.0843 153.694 19.841 154.285C18.3432 155.207 17.1725 156.576 16.4942 158.198C15.8159 159.821 15.6642 161.616 16.0605 163.329C16.2284 164.057 17.3471 163.749 17.1807 163.02C16.8468 161.595 16.9578 160.102 17.4986 158.743C18.0394 157.383 18.9842 156.221 20.2054 155.415C21.2995 154.835 22.523 154.542 23.7613 154.563C24.9995 154.585 26.2119 154.921 27.2848 155.54C30.7706 157.432 34.9266 166.447 39.0652 173.367C39.143 173.5 39.2703 173.596 39.4192 173.635C39.4929 173.654 39.5697 173.659 39.6451 173.648C39.7206 173.638 39.7933 173.613 39.8591 173.574C39.9248 173.536 39.9823 173.485 40.0284 173.424C40.0744 173.363 40.108 173.294 40.1272 173.22C40.1465 173.147 40.1511 173.07 40.1407 172.994C40.1303 172.919 40.1051 172.846 40.0666 172.781C38.3966 169.738 33.9855 161.83 32.0302 158.964Z" fill="black"/>
<path d="M88.4471 169.927C86.1845 157.48 73.3567 156.049 69.7124 163.822C68.5928 166.207 68.0645 168.826 68.1723 171.458C67.9933 171.363 68.4227 171.393 62.1514 171.393C61.7283 166.481 58.9508 161.403 54.3337 159.668C52.3031 158.803 50.0177 158.752 47.9506 159.525C45.8834 160.299 44.1927 161.837 43.2282 163.822C41.3864 167.899 41.1521 172.521 42.5722 176.762C43.3342 179.12 44.8375 181.169 46.8582 182.603C53.5129 187.347 62.351 182.867 62.2116 172.553C68.391 172.553 68.0266 172.598 68.2325 172.448C68.3388 173.914 68.6174 175.362 69.0628 176.762C70.6995 181.915 76.0344 185.536 81.2996 184.209C86.1448 182.978 89.7574 177.13 88.4471 169.927ZM57.8242 181.177C53.4099 185.464 46.3195 182.802 44.0395 177.398C42.0304 172.644 42.3916 164.174 46.8677 161.297C48.6221 160.268 50.7017 159.944 52.6858 160.39C60.6557 162.095 64.1098 175.08 57.8242 181.185V181.177ZM84.3116 181.177C79.8751 185.483 72.7451 182.782 70.5268 177.398C69.0988 173.654 68.9749 169.537 70.1751 165.714C70.7182 163.931 71.8364 162.377 73.3551 161.297C75.1126 160.277 77.1888 159.953 79.1732 160.39C87.1938 162.133 90.5671 175.11 84.318 181.185L84.3116 181.177Z" fill="black"/>
<path d="M183.188 243.162L202.544 252.973C203.209 253.311 203.797 252.309 203.13 251.972L183.774 242.159C183.112 241.822 182.523 242.823 183.188 243.162Z" fill="#FF4848"/>
<path d="M177.724 261.602C183.111 261.978 188.483 262.548 193.838 263.31C193.987 263.347 194.143 263.325 194.276 263.25C194.409 263.175 194.508 263.051 194.553 262.905C194.594 262.756 194.574 262.598 194.498 262.464C194.422 262.33 194.296 262.231 194.147 262.19C188.695 261.411 183.22 260.83 177.724 260.447C176.98 260.389 176.983 261.55 177.724 261.602Z" fill="#FF4848"/>
<path d="M158.454 188.66L147.651 197.85C147.082 198.335 147.906 199.152 148.473 198.67L159.275 189.481C159.845 188.997 159.019 188.178 158.454 188.66Z" fill="#2755A0"/>
<path d="M146.983 196.879C150.68 193.931 154.306 190.899 157.86 187.785C158.423 187.293 157.599 186.474 157.039 186.965C153.482 190.077 149.856 193.108 146.162 196.058C145.578 196.524 146.405 197.341 146.983 196.879Z" fill="#2755A0"/>
<path d="M61.7666 278.532C41.785 267.783 21.0143 251.194 7.80945 242.134C7.19309 241.709 6.6116 242.715 7.2232 243.135C17.8803 250.446 24.3876 255.895 40.2275 266.623C61.8965 281.3 78.5809 290.122 105.086 291.918C105.841 291.968 105.81 290.808 105.086 290.756C89.9265 289.894 75.1401 285.722 61.7666 278.532Z" fill="#77751E"/>
<path d="M75.538 243.04C61.6343 240.054 37.0245 227.671 20.0819 221.324C19.3816 221.061 19.079 222.183 19.765 222.444C35.2689 228.257 48.3692 235.098 65.1281 241.141C80.2311 246.593 87.3105 245.786 103.06 242.622C103.792 242.475 103.481 241.355 102.743 241.502C93.5263 243.379 84.6343 245 75.538 243.04Z" fill="#77751E"/>
<path d="M254.499 292.148V243.125C254.567 240.531 255.643 238.066 257.499 236.252C259.354 234.438 261.842 233.418 264.437 233.407C267.031 233.397 269.528 234.397 271.398 236.196C273.267 237.995 274.363 240.451 274.453 243.044C274.453 243.582 274.444 244.12 274.453 244.657C274.461 244.805 274.526 244.946 274.634 245.048C274.742 245.151 274.885 245.208 275.034 245.208C275.183 245.208 275.326 245.151 275.434 245.048C275.542 244.946 275.607 244.805 275.615 244.657C275.718 242.92 275.517 241.178 275.019 239.51C274.164 237.009 272.448 234.894 270.177 233.541C267.906 232.189 265.228 231.689 262.621 232.129C260.015 232.569 257.65 233.922 255.95 235.945C254.249 237.968 253.323 240.531 253.337 243.174V292.148C253.345 292.296 253.41 292.437 253.518 292.539C253.626 292.642 253.769 292.699 253.918 292.699C254.067 292.699 254.21 292.642 254.318 292.539C254.426 292.437 254.491 292.296 254.499 292.148Z" fill="#FFC431"/>
<path d="M273.703 230.423C271.301 228.884 268.555 227.963 265.711 227.744C262.866 227.525 260.012 228.014 257.402 229.167C254.83 230.386 252.659 232.311 251.14 234.719C249.622 237.126 248.82 239.915 248.829 242.761C248.819 244.474 248.791 285.117 248.829 291.224C248.852 293.712 248.072 296.141 246.604 298.149C245.135 300.158 243.058 301.638 240.68 302.37C238.008 303.026 232.685 302.687 133.228 302.83C133.152 302.832 133.076 302.849 133.006 302.88C132.937 302.911 132.874 302.956 132.822 303.012C132.769 303.068 132.729 303.134 132.702 303.206C132.676 303.278 132.664 303.354 132.667 303.43C132.672 303.577 132.733 303.717 132.837 303.821C132.941 303.925 133.081 303.986 133.228 303.991H237.126C238.771 304.035 240.409 303.754 241.946 303.164C243.483 302.575 244.889 301.688 246.083 300.555C247.277 299.422 248.237 298.065 248.906 296.561C249.576 295.057 249.942 293.436 249.985 291.791V245.613C249.839 243.302 250.036 240.982 250.57 238.729C255.187 223.902 279.998 225.697 278.954 244.645C278.962 244.794 279.026 244.934 279.134 245.037C279.242 245.139 279.386 245.197 279.535 245.197C279.684 245.197 279.827 245.139 279.935 245.037C280.043 244.934 280.108 244.794 280.115 244.645C280.382 238.75 278.507 233.793 273.703 230.423Z" fill="#FFC431"/>
<path d="M278.903 229.135C276.725 226.983 274.093 225.347 271.2 224.348C268.306 223.349 265.226 223.012 262.184 223.361C259.143 223.711 256.219 224.739 253.628 226.369C251.037 227.999 248.845 230.19 247.213 232.78C245.066 236.27 243.978 240.308 244.079 244.405C244.079 244.405 244.067 290.181 244.079 290.972C244.104 291.854 243.935 292.73 243.583 293.539C243.23 294.348 242.704 295.069 242.042 295.651C240.545 296.742 238.688 297.222 236.849 296.991H133.395C133.247 296.999 133.107 297.064 133.004 297.172C132.901 297.28 132.844 297.423 132.844 297.572C132.844 297.721 132.901 297.864 133.004 297.972C133.107 298.08 133.247 298.145 133.395 298.153C133.395 298.153 236.791 298.139 238.06 298.153C239.914 298.19 241.708 297.494 243.051 296.215C244.394 294.937 245.178 293.179 245.231 291.325V243.712C245.228 241.129 245.744 238.572 246.747 236.191C247.751 233.811 249.222 231.656 251.073 229.855C252.925 228.054 255.119 226.642 257.526 225.705C259.933 224.767 262.504 224.322 265.086 224.397C267.668 224.471 270.209 225.063 272.559 226.137C274.908 227.211 277.017 228.747 278.762 230.651C280.507 232.556 281.852 234.792 282.717 237.226C283.583 239.66 283.95 242.243 283.799 244.821C283.806 244.97 283.871 245.11 283.979 245.213C284.087 245.315 284.23 245.373 284.379 245.373C284.528 245.373 284.671 245.315 284.78 245.213C284.888 245.11 284.952 244.97 284.96 244.821C285.111 241.928 284.65 239.035 283.606 236.332C282.563 233.628 280.96 231.176 278.903 229.135Z" fill="#FFC431"/>
<path d="M284.767 228.759C281.717 224.443 277.37 221.212 272.359 219.535C267.347 217.858 261.932 217.821 256.898 219.43C251.865 221.04 247.475 224.211 244.366 228.485C241.257 232.758 239.591 237.911 239.61 243.196V249.081C239.618 249.23 239.683 249.37 239.791 249.472C239.899 249.575 240.042 249.632 240.191 249.632C240.34 249.632 240.483 249.575 240.591 249.472C240.699 249.37 240.764 249.23 240.772 249.081C240.567 245.212 240.79 241.333 241.439 237.514C242.81 231.855 246.217 226.899 251.009 223.591C255.8 220.283 261.642 218.854 267.42 219.577C273.197 220.3 278.507 223.124 282.336 227.511C286.165 231.898 288.245 237.54 288.18 243.362V244.567C288.188 244.715 288.252 244.856 288.361 244.958C288.469 245.061 288.612 245.118 288.761 245.118C288.91 245.118 289.053 245.061 289.161 244.958C289.269 244.856 289.334 244.715 289.342 244.567C289.641 238.933 288.029 233.362 284.767 228.759Z" fill="#FFC431"/>
<path d="M219.898 179.072C218.377 176.296 206.381 155.849 205.797 154.857C205.744 154.771 205.67 154.7 205.583 154.651C205.495 154.602 205.396 154.576 205.295 154.576C205.194 154.576 205.095 154.602 205.008 154.651C204.92 154.7 204.846 154.771 204.794 154.857C200.076 162.919 195.376 170.991 190.692 179.072C190.642 179.161 190.616 179.261 190.617 179.362C190.617 179.463 190.644 179.563 190.695 179.651C190.745 179.739 190.817 179.812 190.905 179.864C190.992 179.916 191.091 179.944 191.193 179.945H202.271V175.113C202.279 174.964 202.343 174.824 202.452 174.721C202.56 174.619 202.703 174.562 202.852 174.562C203.001 174.562 203.144 174.619 203.252 174.721C203.36 174.824 203.425 174.964 203.433 175.113V179.945H219.407C219.506 179.938 219.602 179.907 219.686 179.854C219.769 179.801 219.839 179.727 219.887 179.641C219.936 179.555 219.962 179.457 219.964 179.358C219.966 179.259 219.944 179.161 219.898 179.072Z" fill="#FFC431"/>
<path d="M190.934 134.443H180.785C180.632 134.445 180.485 134.506 180.377 134.615C180.269 134.723 180.207 134.87 180.205 135.023V145.179C180.207 145.333 180.268 145.48 180.376 145.589C180.485 145.697 180.632 145.759 180.785 145.761C187.705 145.81 190.002 145.826 190.81 145.772C191.187 145.748 191.491 145.705 191.534 145.054C191.587 144.276 191.564 142.031 191.515 135.031C191.516 134.876 191.455 134.727 191.346 134.617C191.237 134.507 191.089 134.444 190.934 134.443Z" fill="#D5E04F"/>
<path d="M231.246 123.9C228.898 123.039 226.34 122.925 223.924 123.573C221.508 124.22 219.352 125.599 217.749 127.519C216.146 129.44 215.176 131.808 214.971 134.301C214.765 136.794 215.335 139.289 216.602 141.446C217.87 143.603 219.772 145.315 222.049 146.349C224.327 147.384 226.868 147.689 229.326 147.224C231.784 146.758 234.038 145.545 235.779 143.75C237.521 141.955 238.666 139.666 239.057 137.195C239.5 134.417 238.963 131.571 237.538 129.146C236.113 126.72 233.889 124.865 231.246 123.9Z" fill="#FFF0B3"/>
<path d="M218.248 215.654C221.321 214.336 224.826 215.838 227.899 214.434C228.54 214.149 229.11 213.726 229.569 213.197C230.029 212.667 230.368 212.044 230.561 211.37C230.684 210.651 230.605 209.912 230.331 209.236C230.058 208.559 229.602 207.972 229.015 207.54C225.009 204.517 217.67 207.975 216.805 204.064C216.658 203.425 216.671 202.76 216.841 202.127C217.012 201.494 217.335 200.913 217.783 200.434C218.862 199.499 220.228 198.961 221.655 198.907C224.171 198.797 226.691 198.937 229.18 199.325C229.92 199.417 229.913 198.255 229.18 198.165C227.448 197.939 225.709 197.781 223.965 197.69C222.47 197.597 220.969 197.741 219.519 198.116C218.142 198.503 216.957 199.386 216.192 200.594C215.56 201.79 215.39 203.177 215.716 204.49C216.542 207.856 220.964 207.277 223.575 207.266C225.051 207.169 226.525 207.469 227.846 208.135C228.487 208.435 228.989 208.97 229.248 209.629C229.506 210.289 229.501 211.023 229.233 211.679C227.619 214.875 223.224 213.791 220.383 213.983C218.911 214.063 217.501 214.602 216.352 215.526C215.911 215.955 215.559 216.466 215.316 217.031C215.073 217.596 214.944 218.203 214.935 218.818C214.927 219.432 215.04 220.043 215.268 220.614C215.496 221.185 215.834 221.706 216.263 222.146C217.514 223.235 219.125 223.821 220.784 223.792C222.17 223.782 223.556 223.853 224.935 224.005C226.146 224.139 227.269 224.701 228.104 225.589C229.53 227.611 227.763 230.154 225.114 230.46C221.931 230.855 218.713 230.893 215.522 230.574C214.78 230.494 214.785 231.657 215.522 231.735C219.179 232.125 222.873 231.993 226.492 231.341C229.096 230.458 230.742 227.448 229.153 225.068C228.395 224.085 227.327 223.388 226.123 223.09C224.821 222.756 223.477 222.615 222.134 222.672C220.687 222.759 219.239 222.508 217.906 221.94C217.328 221.625 216.85 221.152 216.529 220.577C216.208 220.002 216.057 219.347 216.093 218.689C216.128 218.031 216.35 217.397 216.732 216.86C217.113 216.323 217.639 215.905 218.248 215.654Z" fill="#D5E04F"/>
<path d="M185.897 97.8294C185.847 97.9181 185.822 98.0181 185.822 98.1197C185.823 98.2213 185.85 98.321 185.9 98.409C185.951 98.4971 186.023 98.5706 186.111 98.6223C186.198 98.674 186.298 98.7022 186.399 98.704H199.923C200.002 98.7 200.079 98.6804 200.15 98.6462C200.221 98.6121 200.285 98.5642 200.338 98.5052C200.39 98.4463 200.431 98.3775 200.457 98.3028C200.482 98.2282 200.493 98.1491 200.488 98.0703C200.466 97.6234 193.784 86.4277 193.662 86.2217C193.61 86.1354 193.537 86.0641 193.449 86.0146C193.361 85.9651 193.262 85.9391 193.161 85.9391C193.06 85.9391 192.961 85.9651 192.873 86.0146C192.785 86.0641 192.712 86.1354 192.659 86.2217C190.655 89.5966 186.174 97.3477 185.897 97.8294Z" fill="#C0C195"/>
<path d="M213.588 48.0805C212.815 45.6217 211.278 43.4733 209.201 41.9471C207.124 40.4208 204.615 39.5961 202.038 39.5925H199.211C199.058 39.5946 198.911 39.6563 198.803 39.7645C198.694 39.8728 198.632 40.0191 198.629 40.1724V50.4286C198.631 50.5825 198.692 50.7297 198.801 50.8384C198.91 50.9472 199.057 51.0089 199.211 51.0101C199.677 50.9989 200.14 51.0828 200.572 51.2568C201.004 51.4308 201.396 51.6912 201.723 52.022C202.051 52.3528 202.308 52.7471 202.478 53.1807C202.648 53.6142 202.728 54.078 202.713 54.5435V60.6912C202.715 60.8443 202.776 60.9907 202.885 61.099C202.993 61.2073 203.139 61.269 203.293 61.2711H213.555C213.708 61.2694 213.855 61.2079 213.964 61.0995C214.073 60.9912 214.134 60.8446 214.137 60.6912C214.205 51.1527 214.266 50.3684 213.588 48.0805Z" fill="#CCEAFF"/>
<path d="M183.784 59.6629C182.687 57.6618 174.014 42.8788 173.588 42.161C173.536 42.0748 173.462 42.0034 173.374 41.9539C173.286 41.9044 173.187 41.8784 173.086 41.8784C172.986 41.8784 172.886 41.9044 172.799 41.9539C172.711 42.0034 172.637 42.0748 172.585 42.161C169.175 47.9886 165.777 53.8225 162.389 59.6629C162.339 59.7514 162.313 59.8512 162.314 59.9526C162.314 60.054 162.341 60.1535 162.392 60.2415C162.442 60.3294 162.514 60.4028 162.602 60.4544C162.689 60.5061 162.788 60.5341 162.89 60.536H183.283C183.383 60.5303 183.48 60.4999 183.565 60.4473C183.65 60.3948 183.72 60.3219 183.77 60.2352C183.82 60.1485 183.847 60.0507 183.85 59.9508C183.852 59.8509 183.829 59.7519 183.784 59.6629Z" fill="#78B5FF"/>
<path d="M164.143 35.02C163.141 32.5562 164.314 29.7755 163.179 27.3212C162.946 26.8058 162.605 26.346 162.18 25.9723C161.755 25.5986 161.255 25.3195 160.714 25.1536C160.14 25.0372 159.544 25.0802 158.993 25.2779C158.441 25.4756 157.954 25.8206 157.585 26.2754C155.287 29.0514 157.098 33.1282 155.804 35.5207C155.488 35.7979 155.115 36.0016 154.712 36.117C154.308 36.2324 153.884 36.2568 153.47 36.1882C153.055 36.1197 152.662 35.96 152.317 35.7207C151.972 35.4814 151.684 35.1685 151.475 34.8046C150.866 33.638 150.599 32.3231 150.705 31.0114C150.752 29.4544 150.883 27.901 151.095 26.3578C151.195 25.6195 150.025 25.6242 149.935 26.3578C149.761 27.7711 149.618 29.1908 149.55 30.6137C149.441 33.1266 149.837 35.5255 151.941 36.8643C152.901 37.3685 154.009 37.514 155.067 37.2747C157.761 36.679 157.491 33.3437 157.458 31.2364C157.352 30.0283 157.545 28.8128 158.019 27.6967C158.217 27.1637 158.617 26.7297 159.132 26.4875C159.646 26.2452 160.235 26.2141 160.773 26.4006C163.354 27.5953 162.436 31.276 162.609 33.4847C162.853 36.6013 165.052 38.5344 167.817 37.6899C168.451 37.5038 169.022 37.1502 169.471 36.6663C171.902 33.6083 169.562 29.6836 171.951 27.44C172.168 27.2615 172.419 27.1278 172.688 27.0464C172.957 26.965 173.239 26.9376 173.519 26.9657C173.799 26.9938 174.07 27.0769 174.318 27.2102C174.565 27.3436 174.784 27.5245 174.961 27.7426C175.542 28.4383 175.869 29.3102 175.89 30.216C176.149 32.5722 176.152 34.9495 175.899 37.3064C175.82 38.0495 176.983 38.0432 177.061 37.3064C177.379 34.348 177.265 31.3591 176.723 28.4335C176.578 27.9208 176.321 27.447 175.969 27.0467C175.618 26.6463 175.181 26.3295 174.692 26.1193C174.202 25.9092 173.672 25.811 173.14 25.832C172.607 25.853 172.086 25.9925 171.615 26.2406C170.804 26.8287 170.217 27.6761 169.953 28.6426C169.126 31.6531 170.072 32.6925 169.042 35.2577C168.805 35.7178 168.441 36.1 167.993 36.3588C167.545 36.6175 167.032 36.7417 166.516 36.7167C165.999 36.6916 165.5 36.5183 165.08 36.2174C164.659 35.9165 164.334 35.5009 164.143 35.02Z" fill="#2755A0"/>
<path d="M202.263 203.655C202.27 203.804 202.335 203.944 202.443 204.047C202.551 204.149 202.694 204.207 202.843 204.207C202.992 204.207 203.136 204.149 203.244 204.047C203.352 203.944 203.416 203.804 203.424 203.655V175.113C203.416 174.964 203.352 174.824 203.244 174.721C203.136 174.619 202.992 174.562 202.843 174.562C202.694 174.562 202.551 174.619 202.443 174.721C202.335 174.824 202.27 174.964 202.263 175.113V203.655Z" fill="black"/>
<path d="M195.128 121.737V146.854C195.128 147.008 195.189 147.155 195.297 147.264C195.406 147.373 195.554 147.434 195.707 147.434C195.861 147.434 196.009 147.373 196.118 147.264C196.226 147.155 196.287 147.008 196.287 146.854V121.737C196.287 121.583 196.226 121.436 196.118 121.327C196.009 121.218 195.861 121.157 195.707 121.157C195.554 121.157 195.406 121.218 195.297 121.327C195.189 121.436 195.128 121.583 195.128 121.737Z" fill="black"/>
<path d="M204.262 85.2015V121.169C204.27 121.318 204.335 121.458 204.443 121.56C204.551 121.663 204.694 121.72 204.843 121.72C204.992 121.72 205.135 121.663 205.243 121.56C205.351 121.458 205.416 121.318 205.424 121.169V85.2015C205.416 85.0528 205.351 84.9127 205.243 84.8101C205.135 84.7076 204.992 84.6504 204.843 84.6504C204.694 84.6504 204.551 84.7076 204.443 84.8101C204.335 84.9127 204.27 85.0528 204.262 85.2015Z" fill="black"/>
<path d="M210.538 76.3541V103.756C210.546 103.905 210.61 104.045 210.718 104.147C210.827 104.25 210.97 104.307 211.119 104.307C211.268 104.307 211.411 104.25 211.519 104.147C211.627 104.045 211.692 103.905 211.699 103.756V76.3541C211.692 76.2054 211.627 76.0653 211.519 75.9627C211.411 75.8602 211.268 75.803 211.119 75.803C210.97 75.803 210.827 75.8602 210.718 75.9627C210.61 76.0653 210.546 76.2054 210.538 76.3541Z" fill="black"/>
<path d="M127.139 229.988C126.445 230.248 126.746 231.371 127.448 231.107C135.355 228.138 143.589 226.127 151.974 225.116C152.708 225.027 152.716 223.866 151.974 223.954C143.484 224.961 135.145 226.987 127.139 229.988Z" fill="black"/>
<path d="M150.602 218.857C142.01 220.237 133.602 222.586 125.538 225.859C124.853 226.136 125.153 227.259 125.855 226.979C133.918 223.706 142.327 221.357 150.919 219.977C151.647 219.861 151.339 218.743 150.602 218.857Z" fill="black"/>
<path d="M-5.49248 44.9162C-2.7577 48.8773 3.85583 58.476 3.85583 58.476C4.27729 59.0876 5.28184 58.5061 4.8572 57.8897L-4.4911 44.3299C-4.91098 43.7183 -5.91711 44.2983 -5.49248 44.9162Z" fill="black"/>
<path d="M11.4602 57.4085C11.6187 58.1389 12.742 57.8299 12.5788 57.1011L8.14236 37.0862C7.98391 36.3558 6.86053 36.6647 7.02214 37.4031C7.78902 40.8984 10.5222 53.1938 11.4602 57.4085Z" fill="black"/>
<path d="M240.07 251.113H211.298C211.854 248.838 210.572 246.55 208.978 244.637C203.957 238.858 197.926 234.04 191.179 230.422C182.158 217.554 162.532 191.731 161.63 190.569C161.561 190.471 161.456 190.403 161.338 190.381C161.219 190.358 161.097 190.383 160.996 190.449C160.663 190.677 149.864 199.607 149.683 199.758C149.578 199.868 149.519 200.015 149.519 200.168C149.519 200.321 149.578 200.468 149.683 200.578C157.092 208.582 156.14 208.158 174.242 227.15C156.511 227.86 126.056 236.721 103.366 241.397C102.038 235.333 100.11 229.416 97.6116 223.734C95.2348 218.122 91.9909 212.919 87.9987 208.315C74.3628 193.024 52.201 190.237 32.7692 196.491C36.2033 190.271 39.5998 184.03 42.9589 177.769C45.3213 183.365 51.8318 186.166 56.807 183.393C60.6572 181.237 62.2734 176.8 62.2164 172.554C68.3958 172.554 68.0313 172.598 68.2373 172.448C68.3428 173.914 68.6215 175.362 69.0676 176.762C69.8041 179.311 71.47 181.49 73.7359 182.869C76.0018 184.248 78.7026 184.726 81.3043 184.209C87.1161 182.634 89.5578 175.97 88.4582 169.933C86.2051 157.533 73.3725 156.02 69.7235 163.827C68.6037 166.211 68.0754 168.83 68.1834 171.462C68.006 171.369 68.4338 171.397 62.1625 171.397C62.0765 170.306 61.8719 169.227 61.5525 168.179C65.3282 165.681 66.74 160.506 63.4538 157.193C68.5241 155.718 72.8195 153.214 74.9839 148.353C74.9839 148.353 104.959 148.363 107.782 148.353C111.695 148.349 115.558 147.47 119.088 145.78C122.617 144.091 125.724 141.633 128.181 138.586L162.494 99.0368H165.083C165.231 99.029 165.371 98.9645 165.474 98.8564C165.577 98.7484 165.634 98.6051 165.634 98.4561C165.634 98.3071 165.577 98.1639 165.474 98.0558C165.371 97.9478 165.231 97.8832 165.083 97.8754H163.498C167.519 93.2409 167.301 93.5736 167.401 93.122C167.428 92.6307 167.428 92.1382 167.401 91.6469C167.401 88.2609 167.424 86.6796 167.401 85.9048C167.371 84.848 167.166 84.9542 166.562 84.9383C163.786 84.8623 149.499 84.9082 77.7916 84.9082C79.1933 83.6937 80.624 82.5129 82.0823 81.3669H167.249C167.402 81.3645 167.548 81.3024 167.656 81.1938C167.765 81.0852 167.826 80.9388 167.828 80.7854V60.5361H183.294C183.373 60.532 183.451 60.5124 183.522 60.4783C183.593 60.4442 183.657 60.3963 183.71 60.3374C183.763 60.2784 183.803 60.2097 183.829 60.135C183.855 60.0603 183.866 59.9812 183.862 59.9023C183.849 59.6868 184.519 60.91 173.599 42.1564C173.547 42.0701 173.473 41.9988 173.385 41.9493C173.298 41.8998 173.198 41.8738 173.098 41.8738C172.997 41.8738 172.898 41.8998 172.81 41.9493C172.722 41.9988 172.648 42.0701 172.596 42.1564L167.828 50.3401V37.6898C168.464 37.5086 169.038 37.1542 169.484 36.6662C171.913 33.6082 169.573 29.6835 171.961 27.4415C172.178 27.263 172.428 27.1291 172.697 27.0476C172.966 26.966 173.249 26.9385 173.528 26.9664C173.808 26.9944 174.08 27.0774 174.327 27.2106C174.575 27.3437 174.794 27.5245 174.971 27.7425C175.561 28.4334 175.889 29.3093 175.9 30.2175C176.159 32.5731 176.163 34.95 175.909 37.3063C175.83 38.0494 176.991 38.0431 177.071 37.3063C177.388 34.3479 177.274 31.3591 176.733 28.4334C176.588 27.9207 176.331 27.4469 175.979 27.0466C175.628 26.6462 175.191 26.3294 174.702 26.1193C174.212 25.9091 173.682 25.8109 173.15 25.8319C172.617 25.8529 172.096 25.9925 171.625 26.2405C170.813 26.8277 170.226 27.6754 169.963 28.6425C169.123 31.7005 170.104 32.6338 169.052 35.2576C168.787 35.7738 168.359 36.1882 167.835 36.4365V33.0362C167.978 30.4807 167.663 27.9202 166.906 25.4752C165.985 22.7283 164.39 20.2558 162.268 18.2833C160.146 16.3108 157.564 14.9011 154.757 14.1828C152.901 13.802 151.011 13.6135 149.116 13.6203C140.977 13.4444 49.7958 13.408 46.8313 13.6963C42.4891 14.1002 38.4536 16.1088 35.5135 19.3295C32.5734 22.5503 30.9401 26.7518 30.9328 31.1127V65.5287C28.0761 66.8637 25.5101 68.7481 23.3813 71.0743C20.7669 66.3669 14.887 64.6303 9.76446 65.3497C3.21589 66.2702 -1.58343 71.4118 -4.50992 77.0303C-7.8432 84.1402 -9.90768 91.7783 -10.6101 99.5993C-11.1726 106.11 -11.6859 287.781 -11.7002 292.71C-11.6981 292.863 -11.6364 293.009 -11.5281 293.118C-11.4198 293.226 -11.2734 293.288 -11.1203 293.29H105.074C105.228 293.288 105.374 293.226 105.483 293.118C105.591 293.009 105.653 292.863 105.656 292.71V291.956C114.766 292.483 123.905 292.13 132.947 290.9C132.947 291.534 132.977 292.23 132.977 292.23C132.979 292.383 133.041 292.53 133.15 292.638C133.258 292.747 133.405 292.809 133.558 292.811H240.07C240.223 292.808 240.369 292.746 240.478 292.638C240.586 292.529 240.648 292.383 240.65 292.23V251.695C240.648 251.541 240.586 251.395 240.478 251.287C240.369 251.178 240.223 251.116 240.07 251.113ZM70.1735 165.722C70.7074 163.934 71.8275 162.378 73.3535 161.304C75.1082 160.277 77.1875 159.953 79.1716 160.398C87.1082 162.046 90.6194 175.08 84.3116 181.185C79.9734 185.415 72.8322 182.87 70.5268 177.406C69.0823 173.665 68.9577 169.543 70.1735 165.722ZM150.919 200.231L161.126 191.805C172.279 207.072 180.349 217.302 189.105 229.515C184.884 227.796 180.35 226.979 175.795 227.118C167.583 218.516 158.894 209.261 150.919 200.231ZM150.09 233.687C150.09 233.104 150.14 232.486 150.114 231.894C154.918 230.911 159.745 230.027 164.596 229.317C169.444 228.42 174.38 228.101 179.303 228.367C190.306 229.057 199.495 236.232 207.102 244.273C208.665 245.929 210.33 247.897 210.271 250.294C210.225 252.046 208.318 254.059 206.456 253.525C205.93 253.374 205.428 254.116 205.892 254.494C207.575 255.87 207.167 258.723 205.836 260.198C203.894 262.36 200.43 262.312 197.776 262.19C197.639 262.195 197.507 262.248 197.405 262.34C197.303 262.432 197.237 262.558 197.218 262.694C197.199 262.83 197.229 262.969 197.302 263.085C197.375 263.202 197.487 263.289 197.618 263.331C198.22 263.576 198.734 263.999 199.09 264.543C199.447 265.088 199.629 265.727 199.613 266.378C199.586 267.119 199.38 267.842 199.012 268.486C198.643 269.129 198.123 269.674 197.497 270.071C196.067 271.011 194.532 271.78 192.923 272.364C183.773 275.807 169.83 281.853 150.09 286.538V233.687ZM208.094 256.443C208.546 257.094 212.875 263.347 213.28 263.95C213.51 264.293 213.665 264.662 213.28 264.969C212.921 265.256 212.6 265.061 212.329 264.782C211.808 264.253 207.483 259.785 207.483 259.785C208.026 258.761 208.239 257.593 208.094 256.443ZM45.8806 162.09C45.8189 162.929 45.9303 163.771 46.2081 164.565C46.4859 165.359 46.924 166.087 47.4952 166.704C46.0892 169.395 44.6701 172.078 43.2377 174.755C42.3948 170.558 42.84 165.174 45.8806 162.09ZM47.1862 161.127C51.7431 158.763 57.6848 160.937 60.1439 167.669C54.1356 170.662 45.6413 167.054 47.1862 161.127ZM57.8242 181.185C53.5018 185.393 45.8568 183.054 43.6766 176.396C45.2495 173.449 46.8101 170.496 48.3587 167.536C50.0678 168.852 52.1092 169.666 54.2546 169.888C56.4 170.109 58.5648 169.73 60.5067 168.791C61.6824 173.026 61.1072 178.006 57.8242 181.185ZM63.7786 159.737C64.1812 161.076 64.1432 162.508 63.6702 163.823C63.1972 165.138 62.3143 166.266 61.1516 167.042C58.5832 160.29 52.7698 157.865 47.774 159.595C48.6018 158.015 49.9147 156.742 51.5197 155.963C55.9197 154.121 61.89 155.662 63.7786 159.737ZM72.2048 150.685C69.6338 153.569 66.1917 155.534 62.4017 156.282C57.5438 152.704 50.6276 153.355 47.4318 157.925C47.0983 157.254 46.9793 156.498 47.0911 155.757C47.8152 150.601 52.2881 147.024 57.1588 145.132C61.0337 143.636 65.2244 143.145 69.3401 143.706C71.223 143.894 73.1238 143.639 74.8904 142.961C74.9698 145.778 74.0143 148.526 72.2048 150.685ZM166.234 92.943L127.086 138.065C124.73 140.923 121.771 143.223 118.42 144.8C115.069 146.378 111.411 147.193 107.708 147.189H75.4355C76.0079 145.538 76.1991 143.78 75.9948 142.045C75.993 141.968 75.9759 141.892 75.9447 141.821C75.9134 141.751 75.8685 141.687 75.8126 141.634C75.7567 141.581 75.6908 141.539 75.6188 141.511C75.5467 141.483 75.4699 141.47 75.3927 141.472C73.5352 142.44 71.426 142.817 69.348 142.552C66.4696 142.238 63.5605 142.353 60.7159 142.893C61.0645 142.156 61.4051 141.416 61.7489 140.675H106.957C110.825 140.789 114.671 140.045 118.217 138.495C121.764 136.945 124.922 134.628 127.466 131.712C129.348 129.557 163.823 89.8074 166.227 87.0377L166.234 92.943ZM165.502 86.1171L127.078 130.395C124.722 133.252 121.763 135.552 118.412 137.129C115.061 138.707 111.403 139.522 107.7 139.517H62.2813C63.8499 136.118 65.3647 132.692 66.778 129.226C73.9526 129.64 81.1491 129.465 88.295 128.701C91.024 128.485 93.7178 127.947 96.3202 127.098H128.501C128.649 127.09 128.789 127.025 128.892 126.917C128.995 126.809 129.052 126.666 129.052 126.517C129.052 126.368 128.995 126.225 128.892 126.117C128.789 126.009 128.649 125.944 128.501 125.936H98.8173C103.794 123.102 105.573 116.217 100.844 112.825H112.372C112.511 112.803 112.637 112.733 112.728 112.626C112.819 112.52 112.869 112.384 112.869 112.244C112.869 112.104 112.819 111.969 112.728 111.862C112.637 111.756 112.511 111.685 112.372 111.663H98.7571C92.9881 109.426 80.5897 108.91 74.808 107.411C71.4078 106.588 68.936 103.608 69.1991 99.0352H94.2684C94.4171 99.0275 94.5572 98.9629 94.6598 98.8548C94.7623 98.7468 94.8195 98.6035 94.8195 98.4545C94.8195 98.3056 94.7623 98.1623 94.6598 98.0542C94.5572 97.9462 94.4171 97.8816 94.2684 97.8738H69.3211C70.0515 93.1331 72.9859 89.3447 76.4907 86.0712C76.4907 86.068 164.107 86.1504 165.495 86.1171H165.502ZM173.086 43.6156L182.276 59.3826H163.896C164.057 59.1037 172.926 43.8802 173.086 43.6156ZM32.0942 31.1127C32.1 28.918 32.5466 26.7468 33.4074 24.728C34.2683 22.7092 35.526 20.8839 37.1058 19.3604C38.6855 17.8369 40.5553 16.6463 42.604 15.8593C44.6527 15.0722 46.8386 14.7047 49.0321 14.7785H150.163C154.496 14.7367 158.668 16.4178 161.761 19.4519C164.854 22.486 166.616 26.6247 166.658 30.9574V36.709C166.616 36.709 166.578 36.7233 166.535 36.7217C166.015 36.6993 165.512 36.5263 165.087 36.2237C164.663 35.9211 164.335 35.5018 164.145 35.0168C163.143 32.553 164.347 29.758 163.181 27.3179C162.95 26.8007 162.61 26.3395 162.185 25.9654C161.759 25.5914 161.258 25.3134 160.716 25.1504C160.141 25.0336 159.546 25.0764 158.994 25.2741C158.443 25.4719 157.956 25.8171 157.586 26.2722C155.289 29.0497 157.1 33.1249 155.807 35.5175C155.492 35.7946 155.119 35.9983 154.715 36.1138C154.312 36.2292 153.887 36.2535 153.473 36.185C153.059 36.1165 152.665 35.9568 152.32 35.7175C151.975 35.4782 151.688 35.1653 151.478 34.8013C150.868 33.6351 150.601 32.32 150.707 31.0081C150.746 29.4507 150.876 27.8969 151.097 26.3546C151.188 25.6146 150.027 25.6225 149.935 26.3546C149.438 28.9329 149.431 31.5818 149.915 34.1628C150.242 35.2797 150.964 36.2397 151.946 36.8643C152.905 37.372 154.014 37.5176 155.072 37.2746C157.766 36.7011 157.496 33.3436 157.463 31.2363C157.357 30.0283 157.55 28.8128 158.024 27.6966C158.223 27.1636 158.622 26.7296 159.137 26.4874C159.651 26.2452 160.24 26.214 160.778 26.4005C163.359 27.5952 162.441 31.2759 162.614 33.4846C162.803 35.8993 164.236 37.9211 166.661 37.8862V52.3381L162.394 59.663C162.344 59.7515 162.318 59.8513 162.319 59.9527C162.319 60.0541 162.346 60.1536 162.396 60.2416C162.447 60.3295 162.519 60.4029 162.607 60.4545C162.694 60.5061 162.793 60.5342 162.894 60.5361H166.661V80.2039H83.5337C86.9152 77.7464 89.9768 74.8764 92.6475 71.6606C94.6935 69.3578 95.9954 66.4901 96.382 63.434C96.5169 62.1179 96.3218 60.789 95.8145 59.5671C95.3072 58.3453 94.5035 57.269 93.4761 56.4355C90.8523 54.344 87.5344 55.2614 84.7806 56.624C74.342 62.1167 64.3578 68.4328 54.9231 75.5124C54.3623 73.2144 53.2768 71.0776 51.7516 69.2696C50.2264 67.4615 48.3031 66.0314 46.1325 65.0914C43.9159 64.1374 41.5296 63.6403 39.1163 63.63C36.7031 63.6196 34.3126 64.0962 32.0879 65.0312L32.0942 31.1127ZM-9.78775 104.426C-9.41065 91.7325 -4.91238 71.293 7.23249 67.1433C12.9603 65.188 20.1886 66.6996 22.7491 72.372C22.7945 72.4481 22.8565 72.513 22.9307 72.5616C23.0048 72.6102 23.089 72.6414 23.1769 72.6527C23.2648 72.664 23.3541 72.6551 23.4381 72.6268C23.5221 72.5985 23.5986 72.5514 23.6617 72.4892C31.3828 63.5957 43.3645 62.0017 50.5975 69.699C52.4116 71.6253 53.586 74.0653 53.9597 76.6849C54.0019 76.8333 54.101 76.9591 54.2354 77.0347C54.3699 77.1104 54.5288 77.1299 54.6775 77.0889C64.165 69.9752 74.1797 63.5931 84.6349 57.9978C86.0727 57.133 87.6727 56.5727 89.3359 56.3515C90.6694 56.311 91.9739 56.7458 93.0164 57.5782C94.0589 58.4106 94.7716 59.5864 95.0273 60.8957C95.2808 62.3788 95.222 63.8985 94.8548 65.3575C94.4876 66.8166 93.82 68.183 92.8946 69.3694C87.0765 78.1014 75.9504 82.3937 70.3779 91.6802C68.0155 95.6176 66.7669 101.421 69.7251 105.408C71.5334 107.508 74.0938 108.813 76.8552 109.044C92.8851 111.766 100.448 111.155 102.183 116.422C102.495 117.654 102.478 118.946 102.134 120.17C101.789 121.393 101.129 122.505 100.22 123.393C98.055 125.382 95.3181 126.637 92.3987 126.98C83.7983 128.246 75.0887 128.603 66.4136 128.045C65.5611 128.061 66.4136 128.248 59.2709 143.234C56.8458 143.869 54.5408 144.896 52.4466 146.274C52.4466 146.274 -9.20943 146.209 -9.93986 146.243C-9.88758 130.877 -9.84004 105.769 -9.78775 104.426ZM103.704 290.645C89.0258 289.616 74.7325 285.488 61.7664 278.532C41.7436 267.71 18.1193 249.22 7.81241 242.134C7.19447 241.709 6.61297 242.715 7.22616 243.135C17.9514 250.494 24.2575 255.802 40.2288 266.623C61.5636 281.067 78.2431 289.98 104.501 291.87V292.128C104.501 292.128 -10.1427 292.108 -10.5309 292.116C-10.5309 285.451 -9.95254 148.45 -9.94778 147.436H50.8748C49.3498 148.642 48.0825 150.142 47.1482 151.847C46.02 154.044 45.1375 157.179 46.7853 159.004C46.5654 159.438 46.379 159.889 46.2276 160.352C44.9325 161.22 43.893 162.418 43.2171 163.822C41.4517 167.739 41.1702 172.165 42.4249 176.274C38.6587 183.255 34.8676 190.222 31.0517 197.175C30.9971 197.275 30.9728 197.389 30.9817 197.502C30.9906 197.616 31.0323 197.725 31.1018 197.815C31.1713 197.905 31.2656 197.973 31.3732 198.011C31.4807 198.049 31.5969 198.055 31.7076 198.027C57.9193 189.411 83.8189 196.397 95.6706 222.303C98.5767 228.473 100.775 234.952 102.222 241.616C93.107 243.452 84.7204 244.959 75.5417 243.042C60.9377 239.821 37.8617 228.009 20.0856 221.325C19.3853 221.062 19.0827 222.184 19.7687 222.445C42.436 230.943 66.5895 244.469 82.4578 245.064C97.0475 245.612 123.568 237.458 148.836 232.16V285.024C148.836 285.562 148.734 286.258 148.788 286.846C134.04 290.394 118.838 291.675 103.704 290.645ZM239.481 291.65H134.143V290.74C152.477 288.177 170.684 282.379 187.896 275.612C189.955 274.81 191.987 273.948 194.05 273.161C195.697 272.552 197.245 271.703 198.645 270.642C199.199 270.242 199.667 269.735 200.021 269.15C200.374 268.565 200.606 267.915 200.702 267.238C200.798 266.562 200.756 265.873 200.579 265.213C200.402 264.553 200.093 263.935 199.671 263.397C201.696 263.478 203.703 262.993 205.467 261.997C205.98 261.667 206.437 261.257 206.819 260.781L211.445 265.535C211.675 265.834 211.993 266.054 212.354 266.164C212.715 266.274 213.102 266.268 213.459 266.148C213.817 266.027 214.128 265.798 214.349 265.491C214.57 265.185 214.689 264.817 214.69 264.44C214.599 263.841 214.332 263.282 213.923 262.835C212.146 260.249 208.335 254.754 208.219 254.575C209.342 254.143 210.274 253.325 210.85 252.268H239.486L239.481 291.65Z" fill="black"/>
<path d="M131.082 99.0319H153.66C153.809 99.0241 153.949 98.9595 154.052 98.8515C154.154 98.7434 154.211 98.6002 154.211 98.4512C154.211 98.3022 154.154 98.1589 154.052 98.0509C153.949 97.9428 153.809 97.8783 153.66 97.8705H131.082C130.933 97.8783 130.793 97.9428 130.69 98.0509C130.588 98.1589 130.53 98.3022 130.53 98.4512C130.53 98.6002 130.588 98.7434 130.69 98.8515C130.793 98.9595 130.933 99.0241 131.082 99.0319Z" fill="black"/>
<path d="M101.647 99.0319H123.735C123.883 99.0241 124.024 98.9595 124.126 98.8515C124.229 98.7434 124.286 98.6002 124.286 98.4512C124.286 98.3022 124.229 98.1589 124.126 98.0509C124.024 97.9428 123.883 97.8783 123.735 97.8705H101.647C101.499 97.8783 101.358 97.9428 101.256 98.0509C101.153 98.1589 101.096 98.3022 101.096 98.4512C101.096 98.6002 101.153 98.7434 101.256 98.8515C101.358 98.9595 101.499 99.0241 101.647 99.0319Z" fill="black"/>
<path d="M101.648 150.154C101.494 150.154 101.346 150.216 101.238 150.324C101.129 150.433 101.068 150.581 101.068 150.734C101.068 150.888 101.129 151.036 101.238 151.144C101.346 151.253 101.494 151.314 101.648 151.314H116.166C116.32 151.314 116.467 151.253 116.576 151.144C116.685 151.036 116.746 150.888 116.746 150.734C116.746 150.581 116.685 150.433 116.576 150.324C116.467 150.216 116.32 150.154 116.166 150.154H101.648Z" fill="black"/>
<path d="M141.322 111.66H119.427C119.278 111.668 119.138 111.733 119.035 111.841C118.933 111.949 118.876 112.092 118.876 112.241C118.876 112.39 118.933 112.533 119.035 112.641C119.138 112.749 119.278 112.814 119.427 112.822H141.322C141.471 112.814 141.611 112.749 141.714 112.641C141.816 112.533 141.874 112.39 141.874 112.241C141.874 112.092 141.816 111.949 141.714 111.841C141.611 111.733 141.471 111.668 141.322 111.66Z" fill="black"/>
<path d="M13.2991 86.8094C15.1507 82.6247 17.7042 78.7874 20.849 75.4631C21.3639 74.9213 20.5448 74.0989 20.0282 74.6424C16.8005 78.0276 14.1843 81.947 12.2961 86.2264C11.9982 86.9013 12.9996 87.4939 13.2991 86.8094Z" fill="black"/>
<path d="M42.5187 92.4737C44.6056 87.4327 47.8518 82.9548 51.9937 79.4035C52.5625 78.9187 51.737 78.1011 51.1714 78.5828C46.874 82.2618 43.5247 86.9208 41.4064 92.1663C41.118 92.8571 42.2414 93.1582 42.5187 92.4737Z" fill="black"/>
<path d="M20.2159 155.41C21.31 154.83 22.5335 154.538 23.7717 154.559C25.0099 154.581 26.2222 154.917 27.2952 155.535C28.8549 156.56 30.1446 157.945 31.0551 159.574C33.5301 163.231 37.8461 171.299 39.0757 173.359C39.1158 173.424 39.1684 173.48 39.2305 173.525C39.2927 173.569 39.363 173.601 39.4375 173.618C39.512 173.635 39.5891 173.637 39.6644 173.624C39.7396 173.61 39.8115 173.582 39.8758 173.541C40.0008 173.463 40.0913 173.339 40.1287 173.197C40.1661 173.054 40.1476 172.902 40.077 172.773C34.3112 162.572 31.1011 156.206 27.769 154.471C26.5578 153.814 25.2084 153.454 23.8313 153.42C22.4541 153.387 21.0886 153.68 19.8467 154.276C18.3491 155.198 17.1788 156.566 16.5008 158.189C15.8228 159.812 15.6713 161.606 16.0677 163.32C16.0884 163.392 16.123 163.459 16.1697 163.518C16.2164 163.577 16.2742 163.626 16.3399 163.662C16.4055 163.698 16.4777 163.721 16.5523 163.73C16.6268 163.738 16.7023 163.732 16.7744 163.711C16.9182 163.667 17.0403 163.571 17.1168 163.441C17.1933 163.311 17.2187 163.158 17.188 163.011C16.8577 161.586 16.9708 160.095 17.512 158.736C18.0531 157.378 18.9966 156.217 20.2159 155.41Z" fill="black"/>
<path d="M183.188 243.162L202.544 252.973C203.21 253.311 203.797 252.309 203.13 251.972L183.775 242.159C183.111 241.822 182.523 242.823 183.188 243.162Z" fill="black"/>
<path d="M194.553 262.905C194.594 262.756 194.574 262.597 194.498 262.463C194.422 262.329 194.296 262.231 194.147 262.19C188.695 261.41 183.22 260.829 177.724 260.447C176.98 260.395 176.983 261.556 177.724 261.608C183.111 261.984 188.483 262.554 193.838 263.316C193.987 263.353 194.145 263.33 194.278 263.254C194.411 263.177 194.51 263.052 194.553 262.905Z" fill="black"/>
<path d="M158.453 188.662L147.652 197.851C147.081 198.336 147.905 199.154 148.473 198.672L159.274 189.482C159.844 188.998 159.019 188.178 158.453 188.662Z" fill="black"/>
<path d="M146.983 196.879C150.68 193.93 154.306 190.899 157.86 187.785C158.423 187.293 157.599 186.473 157.038 186.965C153.483 190.078 149.857 193.109 146.162 196.058C145.578 196.524 146.403 197.341 146.983 196.879Z" fill="black"/>
<path d="M260.876 232.57C258.667 233.325 256.75 234.754 255.398 236.657C254.045 238.559 253.324 240.839 253.337 243.173V292.147C253.345 292.296 253.41 292.436 253.518 292.539C253.626 292.641 253.769 292.699 253.918 292.699C254.067 292.699 254.21 292.641 254.318 292.539C254.426 292.436 254.491 292.296 254.499 292.147C254.499 292.147 254.499 243.383 254.499 243.124C254.568 240.531 255.644 238.066 257.499 236.252C259.354 234.439 261.843 233.418 264.438 233.408C267.032 233.398 269.529 234.398 271.398 236.197C273.268 237.996 274.364 240.452 274.453 243.045C274.453 243.582 274.444 244.119 274.453 244.656C274.461 244.805 274.526 244.945 274.634 245.048C274.742 245.15 274.885 245.208 275.034 245.208C275.183 245.208 275.326 245.15 275.434 245.048C275.542 244.945 275.607 244.805 275.615 244.656C275.727 242.919 275.525 241.176 275.017 239.51C274.554 238.119 273.819 236.834 272.855 235.73C271.89 234.626 270.716 233.725 269.4 233.079C268.084 232.433 266.652 232.056 265.189 231.968C263.726 231.881 262.26 232.086 260.876 232.57Z" fill="black"/>
<path d="M273.703 230.424C271.301 228.885 268.555 227.965 265.711 227.746C262.867 227.527 260.013 228.015 257.404 229.167C254.831 230.385 252.659 232.311 251.14 234.718C249.622 237.125 248.82 239.915 248.829 242.762C248.819 244.475 248.829 291.224 248.829 291.224C248.894 296.624 245.332 302.604 237.177 302.835C230.264 303.03 209.116 302.7 133.228 302.835C133.152 302.837 133.076 302.854 133.006 302.885C132.937 302.916 132.874 302.961 132.822 303.017C132.769 303.073 132.729 303.139 132.702 303.211C132.676 303.283 132.664 303.359 132.667 303.435C132.673 303.582 132.734 303.722 132.838 303.826C132.942 303.93 133.081 303.991 133.228 303.996H237.126C238.771 304.04 240.409 303.759 241.946 303.169C243.483 302.58 244.889 301.693 246.083 300.56C247.277 299.427 248.237 298.07 248.906 296.566C249.576 295.063 249.942 293.442 249.985 291.796V245.619C249.841 243.307 250.038 240.987 250.572 238.734C255.181 223.934 280.001 225.694 278.956 244.65C278.956 244.804 279.017 244.952 279.125 245.06C279.234 245.169 279.382 245.23 279.535 245.23C279.689 245.23 279.837 245.169 279.946 245.06C280.054 244.952 280.115 244.804 280.115 244.65C280.411 241.923 279.972 239.166 278.845 236.665C277.717 234.164 275.942 232.009 273.703 230.424Z" fill="black"/>
<path d="M247.201 232.779C245.066 236.275 243.978 240.31 244.067 244.405C244.067 244.405 244.054 290.181 244.067 290.972C244.089 291.853 243.918 292.729 243.566 293.537C243.214 294.345 242.689 295.067 242.029 295.651C240.53 296.737 238.675 297.216 236.837 296.991H133.395C133.247 296.999 133.107 297.064 133.004 297.172C132.901 297.28 132.844 297.423 132.844 297.572C132.844 297.721 132.901 297.864 133.004 297.972C133.107 298.08 133.247 298.145 133.395 298.153C133.395 298.153 236.791 298.153 238.06 298.153C238.979 298.175 239.894 298.017 240.752 297.686C241.61 297.355 242.394 296.858 243.06 296.224C243.726 295.59 244.26 294.831 244.633 293.991C245.006 293.15 245.209 292.244 245.231 291.325V243.712C245.228 241.129 245.744 238.571 246.747 236.191C247.751 233.811 249.222 231.656 251.073 229.855C252.925 228.053 255.119 226.642 257.526 225.705C259.933 224.767 262.504 224.322 265.086 224.396C267.668 224.471 270.209 225.063 272.559 226.137C274.908 227.211 277.017 228.746 278.762 230.651C280.507 232.556 281.852 234.791 282.717 237.226C283.582 239.66 283.95 242.243 283.799 244.821C283.806 244.97 283.871 245.11 283.979 245.213C284.087 245.315 284.23 245.372 284.379 245.372C284.528 245.372 284.671 245.315 284.78 245.213C284.888 245.11 284.952 244.97 284.96 244.821C285.102 241.928 284.636 239.038 283.593 236.336C282.549 233.634 280.951 231.181 278.901 229.135C276.724 226.981 274.091 225.343 271.196 224.343C268.302 223.342 265.219 223.005 262.177 223.354C259.134 223.704 256.209 224.733 253.617 226.364C251.025 227.995 248.832 230.188 247.201 232.779Z" fill="black"/>
<path d="M250.118 222.818C246.859 225.122 244.202 228.178 242.374 231.726C240.545 235.274 239.598 239.21 239.612 243.202V249.087C239.612 249.24 239.673 249.388 239.782 249.497C239.891 249.605 240.038 249.667 240.192 249.667C240.346 249.667 240.493 249.605 240.602 249.497C240.711 249.388 240.772 249.24 240.772 249.087C240.565 245.218 240.789 241.339 241.439 237.52C242.811 231.861 246.217 226.905 251.009 223.597C255.8 220.289 261.642 218.86 267.42 219.583C273.197 220.306 278.507 223.13 282.336 227.517C286.165 231.903 288.245 237.546 288.18 243.368V244.573C288.188 244.721 288.253 244.861 288.361 244.964C288.469 245.066 288.612 245.124 288.761 245.124C288.91 245.124 289.053 245.066 289.161 244.964C289.269 244.861 289.334 244.721 289.342 244.573C289.606 239.897 288.547 235.241 286.285 231.14C284.024 227.039 280.652 223.659 276.556 221.388C272.461 219.116 267.808 218.045 263.132 218.298C258.455 218.551 253.945 220.118 250.118 222.818Z" fill="black"/>
<path d="M191.344 145.58C191.602 145.227 191.597 146.35 191.515 135.023C191.513 134.869 191.451 134.723 191.343 134.614C191.234 134.506 191.087 134.444 190.933 134.443H180.785C180.632 134.445 180.485 134.507 180.377 134.615C180.268 134.723 180.206 134.87 180.204 135.023V145.179C180.206 145.333 180.267 145.48 180.376 145.588C180.485 145.697 180.631 145.759 180.785 145.761C192.035 145.835 191.057 145.824 191.344 145.58ZM190.354 144.591H181.365V135.603H190.354V144.591Z" fill="black"/>
<path d="M227.038 147.439C229.442 147.442 231.793 146.731 233.794 145.398C235.794 144.065 237.354 142.168 238.277 139.948C239.2 137.728 239.443 135.284 238.977 132.925C238.511 130.567 237.356 128.399 235.658 126.697C233.96 124.995 231.795 123.835 229.437 123.363C227.08 122.891 224.635 123.129 222.413 124.047C220.191 124.964 218.291 126.52 216.953 128.517C215.614 130.515 214.899 132.864 214.896 135.269C214.894 136.865 215.206 138.446 215.815 139.922C216.424 141.398 217.318 142.739 218.445 143.869C219.573 144.999 220.912 145.896 222.386 146.509C223.861 147.121 225.441 147.437 227.038 147.439ZM223.17 124.939C225.213 124.178 227.436 124.039 229.558 124.54C231.68 125.042 233.606 126.161 235.091 127.757C236.577 129.353 237.556 131.354 237.905 133.506C238.254 135.658 237.956 137.866 237.051 139.849C236.145 141.833 234.671 143.503 232.816 144.649C230.961 145.795 228.808 146.365 226.629 146.287C224.45 146.209 222.343 145.487 220.574 144.211C218.805 142.936 217.455 141.165 216.693 139.122C215.673 136.382 215.782 133.35 216.996 130.69C218.211 128.031 220.431 125.963 223.17 124.939Z" fill="black"/>
<path d="M218.247 215.655C219.536 215.158 220.92 214.955 222.297 215.059C224.187 215.292 226.106 215.079 227.898 214.435C228.541 214.152 229.112 213.731 229.573 213.201C230.033 212.671 230.37 212.046 230.56 211.37C230.689 210.651 230.613 209.91 230.34 209.233C230.066 208.555 229.607 207.969 229.015 207.541C226.298 205.463 222.945 206.384 219.825 206.075C218.448 205.937 217.116 205.562 216.805 204.064C216.655 203.426 216.665 202.76 216.836 202.126C217.007 201.492 217.332 200.911 217.783 200.434C218.863 199.499 220.229 198.96 221.657 198.907C224.172 198.787 226.693 198.927 229.18 199.325C229.92 199.417 229.914 198.254 229.18 198.165C225.989 197.55 222.712 197.532 219.515 198.113C218.141 198.506 216.957 199.387 216.187 200.591C215.552 201.786 215.383 203.175 215.712 204.487C216.52 207.857 220.958 207.274 223.571 207.263C225.046 207.16 226.521 207.46 227.838 208.132C228.48 208.431 228.982 208.966 229.241 209.626C229.5 210.286 229.495 211.02 229.228 211.676C228.022 214.062 225.266 214.021 222.763 213.958C221.643 213.782 220.499 213.829 219.398 214.098C218.296 214.367 217.259 214.851 216.346 215.523C215.868 215.989 215.495 216.551 215.253 217.173C215.01 217.795 214.903 218.461 214.938 219.127C214.974 219.794 215.151 220.445 215.459 221.037C215.766 221.629 216.197 222.149 216.721 222.561C217.925 223.358 219.335 223.784 220.778 223.789C222.164 223.775 223.551 223.846 224.929 224.002C226.14 224.137 227.263 224.698 228.098 225.586C229.524 227.608 227.759 230.151 225.108 230.457C221.926 230.867 218.707 230.905 215.516 230.571C214.774 230.491 214.779 231.653 215.516 231.732C219.173 232.121 222.867 231.988 226.486 231.338C229.099 230.452 230.734 227.441 229.147 225.065C228.389 224.082 227.321 223.385 226.117 223.087C224.813 222.766 223.471 222.625 222.129 222.669C220.682 222.752 219.235 222.501 217.9 221.937C217.323 221.621 216.846 221.148 216.526 220.573C216.206 219.998 216.056 219.344 216.092 218.686C216.128 218.029 216.35 217.396 216.732 216.859C217.113 216.322 217.638 215.905 218.247 215.655Z" fill="black"/>
<path d="M186.121 98.6281C186.321 98.7421 185.487 98.7041 199.923 98.7041C200.023 98.6986 200.12 98.6681 200.206 98.6155C200.291 98.5629 200.362 98.4898 200.411 98.4029C200.461 98.3159 200.488 98.2179 200.491 98.1178C200.493 98.0176 200.47 97.9185 200.424 97.8295L193.663 86.2249C193.582 86.0918 193.452 85.9962 193.301 85.9591C193.15 85.922 192.99 85.9463 192.857 86.0269C192.644 86.1568 193.126 85.4517 185.898 97.8295C185.86 97.8966 185.836 97.9705 185.826 98.0469C185.817 98.1234 185.823 98.2009 185.844 98.2751C185.865 98.3492 185.9 98.4185 185.947 98.4791C185.995 98.5397 186.054 98.5903 186.121 98.6281ZM193.161 87.6699L198.912 97.5427H187.409C187.652 97.1292 193.036 87.8886 193.161 87.6636V87.6699Z" fill="black"/>
<path d="M199.211 51.0148C199.677 51.0035 200.14 51.0875 200.572 51.2616C201.004 51.4357 201.396 51.6962 201.724 52.0272C202.052 52.3582 202.309 52.7526 202.479 53.1864C202.649 53.6202 202.728 54.0841 202.713 54.5497V60.6974C202.715 60.8507 202.776 60.9972 202.885 61.1058C202.993 61.2143 203.139 61.2764 203.293 61.2789H213.555C213.709 61.2768 213.855 61.2149 213.964 61.1063C214.073 60.9977 214.135 60.851 214.137 60.6974C214.205 51.2936 214.273 50.5283 213.588 48.0803C212.814 45.6224 211.277 43.4748 209.2 41.9488C207.123 40.4227 204.615 39.5974 202.038 39.5924H199.211C199.058 39.5944 198.911 39.6562 198.803 39.7644C198.694 39.8727 198.632 40.019 198.629 40.1723V50.4285C198.629 50.5833 198.69 50.7319 198.799 50.8418C198.908 50.9517 199.056 51.0139 199.211 51.0148ZM199.791 40.7538H202.042C203.553 40.7492 205.047 41.0576 206.432 41.6594C207.818 42.2613 209.063 43.1436 210.09 44.2507C211.117 45.3578 211.904 46.6657 212.4 48.0919C212.897 49.5182 213.093 51.0318 212.975 52.5374V60.1175H203.874V56.4257C204.127 54.7571 203.796 53.0523 202.938 51.5994C202.558 51.1137 202.083 50.711 201.542 50.4164C201.001 50.1217 200.405 49.9414 199.791 49.8866V40.7538Z" fill="black"/>
<path d="M202.861 204.216C203.008 204.211 203.148 204.15 203.252 204.046C203.356 203.942 203.417 203.802 203.422 203.655V179.945H219.396C219.475 179.941 219.553 179.922 219.624 179.888C219.695 179.854 219.759 179.806 219.812 179.747C219.865 179.688 219.905 179.619 219.931 179.544C219.957 179.47 219.968 179.391 219.964 179.312C219.946 178.935 215.337 171.223 205.791 154.856C205.738 154.769 205.665 154.698 205.577 154.649C205.489 154.599 205.39 154.573 205.289 154.573C205.188 154.573 205.089 154.599 205.001 154.649C204.913 154.698 204.84 154.769 204.788 154.856L190.686 179.069C190.612 179.204 190.594 179.363 190.635 179.511C190.677 179.659 190.775 179.785 190.908 179.862C191.115 179.977 190.463 179.936 202.265 179.936V203.646C202.267 203.722 202.283 203.798 202.314 203.868C202.345 203.938 202.389 204.002 202.444 204.055C202.5 204.108 202.565 204.149 202.637 204.177C202.708 204.205 202.784 204.218 202.861 204.216ZM192.193 178.784L205.29 156.304L218.385 178.784H203.422V175.111C203.414 174.963 203.349 174.822 203.241 174.72C203.133 174.617 202.99 174.56 202.841 174.56C202.692 174.56 202.549 174.617 202.441 174.72C202.333 174.822 202.268 174.963 202.26 175.111V178.784H192.193Z" fill="black"/>
<path d="M196.287 146.854V121.737C196.279 121.588 196.215 121.448 196.107 121.346C195.999 121.243 195.855 121.186 195.706 121.186C195.557 121.186 195.414 121.243 195.306 121.346C195.198 121.448 195.134 121.588 195.126 121.737V146.854C195.134 147.003 195.198 147.143 195.306 147.245C195.414 147.348 195.557 147.405 195.706 147.405C195.855 147.405 195.999 147.348 196.107 147.245C196.215 147.143 196.279 147.003 196.287 146.854Z" fill="black"/>
<path d="M205.422 121.165V85.1982C205.414 85.0495 205.35 84.9094 205.242 84.8068C205.134 84.7043 204.99 84.6471 204.841 84.6471C204.692 84.6471 204.549 84.7043 204.441 84.8068C204.333 84.9094 204.268 85.0495 204.261 85.1982V121.165C204.268 121.314 204.333 121.454 204.441 121.557C204.549 121.659 204.692 121.717 204.841 121.717C204.99 121.717 205.134 121.659 205.242 121.557C205.35 121.454 205.414 121.314 205.422 121.165Z" fill="black"/>
<path d="M211.708 103.756V76.354C211.701 76.2052 211.636 76.0651 211.528 75.9626C211.42 75.86 211.277 75.8029 211.128 75.8029C210.979 75.8029 210.835 75.86 210.727 75.9626C210.619 76.0651 210.555 76.2052 210.547 76.354V103.756C210.555 103.904 210.619 104.045 210.727 104.147C210.835 104.25 210.979 104.307 211.128 104.307C211.277 104.307 211.42 104.25 211.528 104.147C211.636 104.045 211.701 103.904 211.708 103.756Z" fill="black"/>
<path d="M127.448 231.108C135.357 228.145 143.59 226.134 151.974 225.116C152.706 225.027 152.714 223.866 151.974 223.954C143.484 224.961 135.146 226.987 127.141 229.988C126.445 230.248 126.746 231.374 127.448 231.108Z" fill="black"/>
<path d="M150.602 218.857C142.01 220.238 133.602 222.586 125.538 225.858C124.853 226.136 125.153 227.259 125.855 226.979C133.92 223.711 142.328 221.362 150.919 219.977C151.647 219.861 151.339 218.741 150.602 218.857Z" fill="black"/>
<path d="M3.85502 58.4759C4.27649 59.0859 5.28103 58.506 4.8564 57.8896L-4.4919 44.3298C-4.91337 43.7182 -5.91792 44.2981 -5.49487 44.9161L3.85502 58.4759Z" fill="black"/>
<path d="M11.4586 57.408C11.6171 58.1385 12.742 57.8295 12.5788 57.1007L8.14236 37.0858C7.98391 36.3569 6.86053 36.6643 7.02214 37.4027C7.51491 39.6447 10.9183 54.9743 11.4586 57.408Z" fill="black"/>
</svg>
