<svg width="40" height="41" viewBox="0 0 40 41" fill="none" xmlns="http://www.w3.org/2000/svg">
  <g id="Isolation_Mode">
    <rect x="1.79415" y="2.00399" width="36.8627" height="37.647" rx="18.4314" stroke="black" stroke-width="2.35295"/>
    <path id="Vector"
          d="M8.1945 24.9722L8.19549 24.9732C9.14769 25.9095 10.4599 26.5018 11.8974 26.5018H14.9741V29.5619C14.9741 31.0031 15.5691 32.3101 16.5224 33.248C17.465 34.1966 18.778 34.7883 20.2254 34.7883C21.6728 34.7883 22.9858 34.1966 23.9283 33.248C24.8817 32.3101 25.4768 31.0032 25.4768 29.5619V26.5018H28.5534C29.9909 26.5018 31.3032 25.9095 32.2554 24.9732L32.2563 24.9722C33.2101 24.0233 33.7941 22.7161 33.7941 21.2754C33.7941 19.8451 33.2099 18.538 32.2563 17.5893C31.3029 16.6405 29.9898 16.0597 28.5534 16.0597C27.1065 16.0597 25.7934 16.6403 24.8397 17.5892L24.8388 17.5902C23.8978 18.5377 23.302 19.8439 23.302 21.2754V24.3355H17.1488V21.2754C17.1488 19.8439 16.5531 18.5377 15.6121 17.5902L15.6111 17.5893C14.6574 16.6403 13.3443 16.0597 11.8974 16.0597C10.4611 16.0597 9.14799 16.6405 8.1945 17.5893C7.24099 18.538 6.65679 19.8451 6.65679 21.2754C6.65679 22.7161 7.24079 24.0233 8.1945 24.9722ZM22.396 14.2512L22.562 14.418L22.396 14.2512C21.8374 14.8071 21.0708 15.1532 20.2254 15.1532C19.3801 15.1532 18.6135 14.8071 18.0548 14.2512L17.8889 14.418L18.0548 14.2512C17.4962 13.6953 17.1488 12.9331 17.1488 12.0931C17.1488 11.2522 17.4968 10.4796 18.0548 9.9243C18.6121 9.36983 19.3782 9.03298 20.2254 9.03298C21.0727 9.03298 21.8388 9.36983 22.396 9.9243C22.954 10.4796 23.302 11.2522 23.302 12.0931C23.302 12.9331 22.9547 13.6953 22.396 14.2512ZM9.72687 23.4442C9.1688 22.8889 8.82083 22.1162 8.82083 21.2754C8.82083 20.4354 9.1682 19.6731 9.72687 19.1173L9.56091 18.9505L9.72687 19.1173C10.2855 18.5614 11.0521 18.2153 11.8974 18.2153C12.7436 18.2153 13.5207 18.562 14.0788 19.1173C14.636 19.6717 14.9741 20.4334 14.9741 21.2754V24.3355H11.8974C11.0502 24.3355 10.2841 23.9987 9.72687 23.4442ZM28.5534 24.3355H25.4768V21.2754C25.4768 20.4338 25.8146 19.6724 26.3713 19.118C26.9416 18.5609 27.7087 18.2153 28.5534 18.2153C29.3988 18.2153 30.1653 18.5614 30.724 19.1173L30.8899 18.9505L30.724 19.1173C31.2826 19.6731 31.63 20.4354 31.63 21.2754C31.63 22.1162 31.282 22.8889 30.724 23.4442C30.1667 23.9987 29.4007 24.3355 28.5534 24.3355ZM16.5225 8.39628C15.5697 9.3443 14.9741 10.6511 14.9741 12.0931C14.9741 13.5244 15.5697 14.831 16.522 15.7787C17.4655 16.7285 18.779 17.3088 20.2254 17.3088C21.6718 17.3088 22.9854 16.7285 23.9289 15.7787C24.8812 14.8309 25.4768 13.5244 25.4768 12.0931C25.4768 10.6511 24.8811 9.3443 23.9284 8.39628C22.9861 7.45866 21.6731 6.86669 20.2254 6.86669C18.7777 6.86669 17.4648 7.45866 16.5225 8.39628ZM17.1488 29.5619V26.5018H23.302V29.5619C23.302 30.4019 22.9547 31.1641 22.396 31.72C21.8374 32.2759 21.0708 32.622 20.2254 32.622C19.3801 32.622 18.6135 32.2759 18.0548 31.72C17.4962 31.1641 17.1488 30.4019 17.1488 29.5619Z"
          fill="black" stroke="black" stroke-width="0.470591"/>
  </g>
</svg>
